<?xml version="1.0" encoding="UTF-8" standalone="no"?>
<!-- Created with Inkscape (http://www.inkscape.org/) -->

<svg
   version="1.1"
   id="svg1"
   width="256"
   height="256"
   viewBox="0 0 256 256"
   sodipodi:docname="white-shield-v03.svg"
   inkscape:version="1.4 (e7c3feb, 2024-10-09)"
   xmlns:inkscape="http://www.inkscape.org/namespaces/inkscape"
   xmlns:sodipodi="http://sodipodi.sourceforge.net/DTD/sodipodi-0.dtd"
   xmlns="http://www.w3.org/2000/svg"
   xmlns:svg="http://www.w3.org/2000/svg">
  <defs
     id="defs1" />
  <sodipodi:namedview
     id="namedview1"
     pagecolor="#ffffff"
     bordercolor="#111111"
     borderopacity="1"
     inkscape:showpageshadow="0"
     inkscape:pageopacity="0"
     inkscape:pagecheckerboard="1"
     inkscape:deskcolor="#d1d1d1"
     inkscape:zoom="3.9073688"
     inkscape:cx="160.72197"
     inkscape:cy="149.84508"
     inkscape:window-width="1826"
     inkscape:window-height="1378"
     inkscape:window-x="718"
     inkscape:window-y="1126"
     inkscape:window-maximized="1"
     inkscape:current-layer="g1">
    <inkscape:page
       x="0"
       y="0"
       inkscape:label="1"
       id="page1"
       width="256"
       height="256"
       margin="0"
       bleed="0" />
  </sodipodi:namedview>
  <g
     id="g1"
     inkscape:groupmode="layer"
     inkscape:label="1">
    <g
       id="g20"
       transform="matrix(0.39413695,0,0,0.38154822,-11.063188,-8.582013)"
       style="stroke-width:1.00053765;stroke-dasharray:none">
      <g
         id="g19"
         style="stroke-width:1.00053765;stroke-dasharray:none">
        <path
           style="color:#000000;fill:#141414;stroke-miterlimit:10;stroke-width:1.00053765;stroke-dasharray:none"
           d="m 351.8418,24.574219 c -27.98668,0 -68.58587,0.148464 -129.04688,23.609375 l -0.004,0.002 -4.56055,1.77539 c -42.53952,16.532182 -63.55461,24.958985 -112.87109,24.958985 -5.06573,0 -10.473676,-0.09095 -16.058599,-0.28711 h -0.002 L 37.564453,72.833984 v 51.765626 169.48047 c 0,33.70964 6.245082,70.89826 17.974609,107.93945 12.576384,39.70718 30.759794,77.71791 54.033208,112.9707 h 0.002 c 38.80194,58.76067 110.00766,136.40666 227.93359,171.69727 h 0.002 l 14.33203,4.2832 14.33007,-4.2832 h 0.002 C 484.09188,651.3968 555.2961,573.75172 594.10547,514.99219 v -0.002 c 23.27531,-35.25366 41.45313,-73.26454 54.0293,-112.9707 11.72803,-37.04099 17.97265,-74.22981 17.97265,-107.93945 V 124.59961 72.833984 l -51.73633,1.798828 h -0.002 c -5.5758,0.19587 -10.98216,0.28711 -16.04883,0.28711 -49.31823,0 -70.33735,-8.426295 -112.89648,-24.972656 l -0.002,-0.002 -4.5371,-1.759765 v -0.002 C 420.41889,24.722897 379.82837,24.574219 351.8418,24.574219 Z m 0,20 c 27.98657,0 64.06138,-0.149998 121.80859,22.255859 l 4.53125,1.759766 c 42.55816,16.545967 68.41879,26.330078 120.13867,26.330078 5.30528,0 10.9385,-0.0948 16.74805,-0.298828 l 31.03906,-1.080078 v 31.058594 169.48047 c 0,31.22369 -5.86247,66.59681 -17.04101,101.90234 -12.01042,37.91919 -29.38005,74.25455 -51.65039,107.98633 -37.08396,56.14716 -104.65485,129.94277 -216.97657,163.55859 l -8.59765,2.57032 -8.60352,-2.57227 0.002,0.002 C 230.9104,633.91143 163.33906,560.11672 126.26367,503.9707 103.99346,470.23749 86.61564,433.90133 74.605469,395.98242 v -0.002 C 63.425993,360.67573 57.564453,325.30324 57.564453,294.08008 V 124.59961 93.541016 l 31.035156,1.080078 c 5.820466,0.204436 11.454901,0.298828 16.759771,0.298828 51.72166,0 77.57637,-9.784934 120.11914,-26.31836 l 0.004,-0.002 4.54883,-1.769531 0.01,-0.0039 C 287.77644,44.424571 323.8568,44.574219 351.8418,44.574219 Z"
           id="path12" />
      </g>
      <path
         style="color:#000000;fill:#141414;stroke-miterlimit:10;stroke-width:1.00053765;stroke-dasharray:none"
         d="m 351.8418,64.574219 c -28.05654,0 -61.96722,0.481735 -114.57422,20.904297 -51.35037,19.932634 -78.05924,31.606014 -149.355471,29.128904 l -10.347656,-0.36133 v 179.83399 c 0,57.76729 21.052237,131.72164 65.390627,198.87304 44.33839,67.15141 112.3236,127.38209 206.01953,155.41407 l 2.86719,0.85742 2.86523,-0.85742 c 93.69131,-28.03204 161.67456,-88.2627 206.01172,-155.41407 44.33716,-67.15136 65.38867,-141.10575 65.38867,-198.87304 V 114.24805 l -10.34765,0.35937 C 544.46076,117.08454 517.76115,105.41131 466.40625,85.478516 413.79912,65.055865 379.88497,64.574219 351.8418,64.574219 Z m 0,20 c 27.90337,0 57.2402,0.104918 107.32617,19.548831 h 0.002 c 48.59131,18.86014 80.6567,31.52731 146.9375,30.56836 v 159.38867 c 0,52.8326 -19.88207,123.94498 -62.07812,187.85351 C 502.29552,545.14197 439.0446,601.36952 351.83984,628.27344 264.63135,601.36924 201.37913,545.1415 159.64453,481.93359 117.44735,418.0251 97.564453,346.91268 97.564453,294.08008 V 134.69141 c 66.279257,0.95896 98.351637,-11.70807 146.939457,-30.56836 h 0.002 C 294.59215,84.679049 323.92499,84.574219 351.8418,84.574219 Z"
         id="path13" />
    </g>
    <path
       style="fill:#c8c4b7;fill-opacity:1;stroke:#ffffff;stroke-width:0.0992996;stroke-dasharray:none"
       d="M 122.84482,245.55277 C 92.807967,236.3917 67.451903,219.46255 47.679708,195.36829 27.998591,171.38501 15.657786,142.96695 12.240302,113.75942 11.853162,110.45073 11.795885,105.557 11.711887,68.612014 l -0.09421,-41.436468 3.526497,0.169128 c 17.07777,0.819035 27.51299,0.366386 37.465055,-1.625126 6.573291,-1.315383 11.251283,-2.807274 26.856012,-8.564836 13.842724,-5.107448 24.131679,-7.4619744 36.341589,-8.3164166 4.72159,-0.3304138 18.69712,-0.3340756 23.54526,-0.00617 7.05985,0.4774967 13.30375,1.4685246 20.30527,3.2228446 5.39841,1.352638 10.0439,2.860138 19.13095,6.208149 15.53423,5.723396 21.68817,7.45604 30.53152,8.596159 7.20687,0.929138 18.48138,1.104349 30.94149,0.480845 l 3.2732,-0.163791 -0.0872,41.692002 c -0.0952,45.509906 -0.0339,43.498156 -1.61128,52.952776 -5.20899,31.22275 -22.17548,63.0445 -46.00903,86.29287 -18.20371,17.75677 -38.96465,29.9984 -63.47763,37.42941 -2.35482,0.71385 -4.53534,1.28899 -4.84562,1.27809 -0.31027,-0.0109 -2.40681,-0.58182 -4.65896,-1.26871 z m 11.17624,-8.27106 c 25.58482,-8.47931 47.88689,-23.43663 65.44616,-43.89276 4.12598,-4.80667 7.9322,-9.86306 11.68265,-15.51989 4.29499,-6.47817 6.6276,-10.5454 10.23088,-17.83892 7.27776,-14.73119 11.82488,-29.62043 13.85734,-45.37498 0.3808,-2.95173 0.43991,-7.63847 0.52401,-41.546061 l 0.0948,-38.219016 -6.60033,0.177777 c -10.13782,0.273058 -20.38582,-0.441441 -27.58632,-1.923344 -7.06365,-1.453737 -12.70586,-3.220895 -25.72063,-8.055775 -13.93876,-5.178133 -21.31694,-7.106986 -32.50525,-8.497736 -3.08119,-0.383003 -5.69948,-0.461529 -15.48101,-0.464294 -12.70897,-0.0036 -15.01082,0.13981 -22.52155,1.403078 -8.306622,1.397133 -14.822672,3.308345 -28.151936,8.257197 -11.705704,4.346061 -16.800467,5.938788 -23.033403,7.200712 -8.13492,1.647001 -13.322774,2.069349 -25.15719,2.048069 l -9.801587,-0.01762 0.0994,37.89906 c 0.106997,40.795513 0.0516,38.987793 1.461246,47.680153 2.436693,15.02544 8.445518,31.8368 16.640677,46.5569 17.687929,31.77098 44.885715,55.61793 77.516643,67.96639 6.46586,2.44687 11.81217,4.06353 12.98673,3.92705 0.5845,-0.0679 3.29291,-0.86262 6.01868,-1.76599 z"
       id="path25" />
    <path
       style="fill:#ffff00;fill-opacity:1;stroke:#ffffff;stroke-width:0.0992996;stroke-dasharray:none"
       d="m 122.58889,229.3339 c -7.97477,-2.79136 -12.28529,-4.62591 -18.93858,-8.06024 C 96.76508,217.7196 90.473749,213.78527 84.394397,209.23181 74.072233,201.50047 63.510965,190.87471 55.638547,180.30036 42.201793,162.25191 32.782188,140.93139 29.066909,120.15759 27.640411,112.18139 27.684164,113.45831 27.58403,76.880315 l -0.0929,-33.935946 6.984498,-0.154364 c 16.942654,-0.37445 26.470443,-2.447418 48.188698,-10.48445 12.964906,-4.797778 19.191664,-6.480469 28.791754,-7.780553 5.10503,-0.691344 27.13325,-0.692019 32.24676,-9.88e-4 9.70102,1.310977 16.09255,3.041647 29.38955,7.957963 16.15122,5.971616 23.45539,7.988249 33.86952,9.351142 5.34859,0.699968 10.45498,1.02906 16.01423,1.032073 l 4.67066,0.0025 v 32.461587 c 0,26.701031 -0.0672,33.162881 -0.37859,36.413481 -2.45398,25.61607 -14.5241,53.08883 -33.1628,75.48175 -3.40268,4.08804 -13.035,13.73326 -17.01394,17.03672 -6.60892,5.48696 -13.89151,10.57098 -20.59229,14.3756 -4.10632,2.33151 -12.2587,6.28014 -16.44306,7.96423 -3.42031,1.37658 -12.09508,4.38265 -12.57903,4.359 -0.15483,-0.008 -2.35453,-0.73935 -4.8882,-1.62619 z"
       id="path26" />
    <path
       style="fill:#ffeeaa;fill-opacity:1;stroke:#fff006;stroke-width:0.0992996;stroke-dasharray:none;stroke-opacity:1"
       d="M 125.78797,246.26466 C 105.74224,240.25669 89.897916,232.41369 74.47467,220.86437 55.339694,206.53561 38.738767,186.39378 27.541904,163.92105 20.198923,149.18328 15.475702,134.22813 12.911994,117.59832 12.08002,112.20162 11.929383,104.11462 11.914373,64.040782 l -0.01378,-36.79434 0.703798,0.18564 c 1.320415,0.348284 27.316621,0.236691 30.647223,-0.131558 10.474534,-1.158121 15.587054,-2.518026 32.886581,-8.747665 12.548444,-4.518752 17.034251,-5.891385 24.185075,-7.4005 9.17341,-1.9359635 15.48366,-2.4139538 29.74678,-2.2532662 14.01817,0.157928 19.229,0.753337 29.62821,3.3854322 5.5591,1.407037 8.04603,2.21622 20.18527,6.567773 22.85203,8.191763 28.21142,9.122181 50.96235,8.847328 6.33419,-0.07652 11.72769,-0.223547 11.98557,-0.326719 0.45368,-0.181511 0.4651,1.175289 0.35271,41.883809 -0.079,28.595822 -0.20845,42.949264 -0.40427,44.812134 -0.72913,6.93609 -2.7024,16.49793 -5.03285,24.3875 -2.60425,8.81653 -5.3162,15.65297 -9.84779,24.82489 -10.09709,20.43647 -23.36509,37.57817 -40.27154,52.02908 -14.97533,12.80029 -32.28753,22.48665 -51.4747,28.80064 -7.57603,2.49307 -8.55441,2.69637 -10.36504,2.1537 z m 6.14827,-8.14585 c 1.86546,-0.57458 5.2439,-1.73934 7.50765,-2.58835 38.15803,-14.31107 67.83184,-42.87166 85.10374,-81.91103 5.00576,-11.31444 8.67172,-24.04501 10.51123,-36.50177 0.67569,-4.57564 0.7472,-8.37321 0.91384,-48.529304 l 0.14018,-33.782325 -10.18334,-7.55e-4 c -19.62678,-0.0015 -26.11226,-1.251663 -48.44437,-9.338612 -13.41671,-4.858486 -18.82124,-6.482622 -25.94109,-7.795652 -8.25426,-1.522238 -8.65143,-1.547842 -23.96462,-1.544917 -13.50309,0.0026 -14.39966,0.03181 -18.1708,0.592441 -10.691804,1.589482 -16.059457,3.073479 -32.179804,8.896764 -14.795901,5.344845 -18.60281,6.471032 -26.289408,7.777117 -6.539203,1.111124 -9.244487,1.299364 -21.068928,1.466018 L 19.048694,35.01096 19.19933,70.098418 c 0.08285,19.298099 0.258968,37.333212 0.391372,40.078022 1.139728,23.62723 12.641304,52.8515 29.662973,75.37042 15.175347,20.07632 34.143887,35.51455 56.188125,45.73072 8.10973,3.75837 19.54018,7.81412 22.17231,7.86717 0.51171,0.0103 2.45667,-0.45136 4.32213,-1.02594 z"
       id="path27" />
    <path
       style="fill:#ffeeaa;fill-opacity:1;stroke:#eeee17;stroke-width:0.0992996;stroke-dasharray:none;stroke-opacity:0.99708259"
       d="m 122.33296,229.04358 c -7.45278,-2.67789 -10.93202,-4.14414 -16.7632,-7.06448 C 89.57843,213.9704 76.293664,203.80061 63.996145,190.15354 46.422372,170.65119 33.790021,145.1099 29.187297,119.7737 c -1.21509,-6.6886 -1.212486,-6.60629 -1.340783,-42.390912 l -0.12262,-34.201254 5.332556,-0.166373 c 19.658984,-0.613352 26.106586,-2.032388 52.678995,-11.593985 9.647203,-3.47137 14.739815,-4.897743 21.753765,-6.092941 5.00064,-0.852122 9.9023,-1.127118 20.09025,-1.127118 13.59673,0 19.31563,0.567047 27.93172,2.769519 4.99382,1.276536 8.11764,2.288133 16.85545,5.458349 22.70199,8.236641 31.17654,10.065953 49.08514,10.595491 l 5.96149,0.176274 -0.0944,34.319609 c -0.10279,37.387981 -0.0258,35.285971 -1.60682,43.846891 -4.08356,22.11122 -15.22091,45.4651 -30.79001,64.5635 -2.73765,3.35823 -13.54968,14.34483 -17.30894,17.5884 -5.54974,4.78844 -14.28232,10.9693 -20.73006,14.67259 -3.70509,2.12804 -13.2793,6.76952 -17.14709,8.31275 -4.11316,1.64112 -11.6328,4.21577 -12.27807,4.20389 -0.28505,-0.005 -2.59127,-0.75441 -5.12495,-1.6648 z"
       id="path28" />
    <path
       style="fill:#ffeeaa;fill-opacity:1;stroke:#60602c;stroke-width:0.0992996;stroke-dasharray:none;stroke-opacity:0.99708259"
       d="m 126.55575,230.28581 c -0.21114,-0.0747 -2.11139,-0.74378 -4.22279,-1.48691 C 110.8824,224.76878 100.27021,219.52258 90.857265,213.23869 79.964633,205.96698 69.33157,196.40947 60.903345,186.31464 47.632451,170.41955 37.378213,150.79593 31.871793,130.75672 30.545416,125.92971 28.903498,117.80628 28.51387,114.14331 28.310331,112.2298 28.163427,100.46687 28.055215,77.417827 27.967652,58.767169 27.902704,43.481651 27.910884,43.450011 c 0.0082,-0.03164 2.94494,-0.177018 6.526131,-0.323062 17.541858,-0.715367 24.613657,-2.155515 44.004519,-8.961369 17.843693,-6.262825 21.418544,-7.328129 28.770406,-8.573568 5.9227,-1.003335 10.75384,-1.227616 23.13562,-1.074053 11.89178,0.147486 14.65273,0.360728 20.59052,1.590309 6.26707,1.297766 10.17618,2.486889 22.06837,6.713049 10.52216,3.739288 15.98556,5.502317 21.24192,6.854738 9.12531,2.347872 14.53229,3.021341 28.87768,3.596872 l 4.05279,0.162597 -0.12253,34.458148 c -0.0764,21.496003 -0.22235,35.250178 -0.38789,36.563658 -1.67729,13.30835 -6.60006,29.0258 -13.28791,42.42574 -5.50125,11.02243 -13.44921,23.12044 -20.17618,30.7112 -3.4076,3.84517 -13.98613,14.36428 -16.68152,16.58782 -8.19444,6.75995 -17.02059,12.61695 -25.14217,16.68425 -8.20035,4.10675 -11.9932,5.72048 -19.29492,8.2093 -3.91563,1.33467 -4.69546,1.50532 -5.52997,1.21017 z"
       id="path29" />
    <path
       style="fill:#ffeeaa;fill-opacity:1;stroke:#60602c;stroke-width:0.0992996;stroke-dasharray:none;stroke-opacity:0.997083"
       d="M 121.94907,228.44767 C 104.58001,222.07742 91.527767,214.60149 78.185607,203.38128 74.318555,200.12925 64.522129,190.36443 61.577229,186.82649 44.32901,166.10485 32.773104,140.93566 28.911286,115.67887 c -0.326287,-2.13396 -0.432363,-8.31883 -0.638307,-37.217015 -0.135845,-19.061764 -0.202413,-34.702327 -0.14793,-34.75681 0.05448,-0.05448 2.328579,-0.205822 5.053545,-0.336309 11.452317,-0.548401 16.297606,-1.042165 22.485464,-2.291404 6.881426,-1.389259 9.457753,-2.185764 33.014544,-10.206875 11.499698,-3.915658 17.345958,-5.265369 25.712758,-5.936236 5.23311,-0.419602 26.75378,-0.160931 30.71908,0.369232 7.58924,1.014687 12.67913,2.419585 27.76873,7.664641 12.55604,4.364404 17.22596,5.845975 22.76384,7.222009 6.83684,1.698797 13.97652,2.638338 23.17432,3.049611 1.82988,0.08182 4.40838,0.216296 5.73,0.298833 l 2.40295,0.150067 -0.14288,35.099383 c -0.13912,34.177673 -0.15705,35.182893 -0.68251,38.279483 -4.06996,23.98457 -14.40996,46.89148 -30.27568,67.07178 -2.23508,2.84289 -14.25988,15.2064 -18.36404,18.8813 -4.55959,4.08271 -12.68179,9.90592 -19.45043,13.94501 -4.56693,2.72526 -14.08346,7.40476 -18.98022,9.33304 -5.20141,2.04824 -10.77172,3.91011 -11.65748,3.89649 -0.39233,-0.006 -2.84391,-0.79238 -5.44797,-1.74743 z"
       id="path30" />
    <path
       style="fill:#fcff04;fill-opacity:1;stroke:#ffff00;stroke-width:0.0992996;stroke-dasharray:none;stroke-opacity:0.99708259"
       d="M 124.25241,229.06695 C 105.86842,222.68239 89.251509,213.11888 76.518964,201.59495 71.777088,197.30319 62.546303,187.77088 59.863262,184.39519 44.956562,165.64018 34.792489,144.19958 30.199559,121.82111 28.796323,114.98402 28.826286,115.74134 28.49608,78.765238 28.326087,59.729576 28.262374,44.079574 28.354495,43.987452 c 0.09212,-0.09212 1.869321,-0.263399 3.949332,-0.380618 13.189627,-0.743295 17.314777,-1.164873 23.488194,-2.400419 5.949983,-1.190828 8.462114,-1.945224 25.97656,-7.800801 15.775849,-5.274314 20.866879,-6.713294 27.384159,-7.740121 3.56032,-0.560946 4.30821,-0.583986 18.42672,-0.567682 21.32846,0.02463 22.41562,0.220251 45.83992,8.248235 23.60059,8.088404 28.39204,9.125574 46.8905,10.150055 3.49534,0.193578 6.38271,0.39051 6.41639,0.437626 0.0337,0.04712 -0.0224,15.805963 -0.12474,35.01966 -0.12508,23.496193 -0.27965,35.562443 -0.47209,36.853443 -1.59093,10.67297 -5.56153,24.03041 -10.38439,34.934 -5.75712,13.01578 -14.83004,27.52205 -22.62695,36.17719 -4.19267,4.65417 -15.37217,15.71789 -18.1922,18.0038 -4.83992,3.92323 -11.42599,8.52172 -16.89116,11.79365 -3.70501,2.21814 -14.70972,7.64957 -18.96249,9.35903 -4.39056,1.76485 -10.79058,3.87991 -11.66866,3.85623 -0.39593,-0.0107 -1.81396,-0.39938 -3.15118,-0.86378 z"
       id="path31" />
    <path
       style="fill:#ffc300;fill-opacity:1;stroke:#ffff00;stroke-width:0.0992996;stroke-dasharray:none;stroke-opacity:0.997083"
       d="M 122.205,244.95319 C 103.8911,239.06745 88.684143,231.29904 74.353212,220.50833 47.866086,200.56442 26.832416,169.94487 17.513599,137.76465 15.337983,130.2517 13.248731,119.97191 12.634805,113.75942 12.436501,111.75273 12.308431,97.58359 12.232304,69.228173 l -0.111655,-41.588089 15.181592,-0.0071 c 16.622484,-0.0078 17.742379,-0.08061 25.546623,-1.660381 4.976889,-1.007443 10.360785,-2.664708 21.927518,-6.749702 15.560241,-5.495371 19.246131,-6.614809 26.570588,-8.069736 9.2606,-1.8395195 14.27505,-2.1846926 28.91972,-1.9907103 11.43033,0.1514054 15.68101,0.4487947 21.24192,1.4861443 6.80038,1.268565 12.81581,2.939779 21.24191,5.901454 22.45912,7.894114 28.17067,9.559601 36.30811,10.587434 4.70277,0.594001 14.88757,0.861562 24.73041,0.649684 4.85621,-0.104536 8.93065,-0.102245 9.0543,0.0051 0.12852,0.111556 0.16515,18.484394 0.0855,42.889237 -0.1357,41.586652 -0.15316,42.787022 -0.67325,46.277052 -1.83035,12.28264 -5.40598,25.3638 -9.86371,36.08567 -2.27023,5.46041 -7.22176,15.38707 -10.27465,20.59825 -14.0646,24.00785 -33.25161,43.37589 -56.53266,57.06604 -5.02284,2.95362 -14.4669,7.5418 -20.21821,9.82255 -7.70798,3.05669 -16.26276,5.8068 -18.00748,5.78887 -0.51211,-0.005 -2.83136,-0.62027 -5.15389,-1.36669 z m 8.95743,-6.48862 c 7.42812,-2.01117 19.70301,-7.19541 28.07801,-11.85861 23.85656,-13.28332 42.76472,-31.96114 56.98477,-56.29058 9.70159,-16.59869 16.17578,-34.68343 18.9639,-52.97299 0.58413,-3.83174 0.8516,-18.120414 0.9946,-53.132121 l 0.12032,-29.458901 -11.17465,-0.153492 C 218.98332,34.513456 212.74547,34.325101 211.26749,34.179308 201.5835,33.224046 195.02827,31.50729 178.25295,25.533093 163.00986,20.104572 157.65421,18.55117 148.81691,16.9952 l -4.73018,-0.832834 -14.58782,-0.106499 c -15.51424,-0.113262 -17.23446,-0.03291 -23.92915,1.117772 -7.626146,1.310779 -13.262688,2.913844 -25.336739,7.205914 -17.261099,6.135956 -21.162633,7.329075 -28.151937,8.609079 -6.422153,1.176138 -10.03689,1.452182 -21.822856,1.666533 -6.161044,0.112053 -11.252606,0.254437 -11.314583,0.316415 -0.231536,0.231537 0.372642,74.40379 0.631351,77.50821 1.302816,15.63332 6.218961,32.1319 14.527422,48.75403 8.182278,16.36969 17.578499,29.26433 30.680126,42.10304 15.826011,15.50841 34.359353,26.86016 55.552726,34.02626 4.33635,1.46625 6.79901,2.06365 7.75604,1.8815 0.3519,-0.067 1.73391,-0.418 3.07112,-0.78005 z"
       id="path32" />
    <path
       style="fill:#defbd8;fill-opacity:1;stroke:#ffff00;stroke-width:0.0992996;stroke-dasharray:none;stroke-opacity:0.997083"
       d="M 123.94818,228.80924 C 109.9514,223.97044 95.108689,216.12167 84.327848,207.85818 79.290773,203.99727 77.035465,201.96811 70.361496,195.29228 62.946767,187.87549 60.90786,185.61142 57.227816,180.70826 45.047449,164.47955 36.297069,146.21149 31.601455,127.20842 28.905905,116.29958 28.871098,115.67875 28.627446,74.162931 28.476335,48.415209 28.502705,44.146327 28.813514,44.041139 c 0.199171,-0.06741 2.49272,-0.249406 5.096774,-0.404444 19.696807,-1.17269 22.519131,-1.74821 45.171063,-9.211152 20.3087,-6.690937 26.020199,-8.25513 32.721029,-8.96122 3.08181,-0.324743 24.21615,-0.321404 29.57775,0.0047 8.89183,0.540774 11.80843,1.252177 29.83483,7.277175 27.07509,9.049353 29.2163,9.538099 46.96255,10.719501 l 8.31762,0.553721 0.0736,8.061691 c 0.0405,4.43393 -0.0405,20.499729 -0.17992,35.701775 l -0.25357,27.640084 -0.66856,3.58298 c -2.54829,13.65689 -8.06435,29.28723 -14.60755,41.39208 -5.37919,9.95141 -11.07366,18.50826 -16.74565,25.16299 -3.04409,3.57151 -16.00403,16.49207 -19.31117,19.25249 -3.06918,2.56179 -9.2498,6.98388 -14.08037,10.07416 -4.17082,2.66821 -17.23921,9.28478 -22.18741,11.23355 -4.93216,1.94246 -10.04619,3.57511 -11.14849,3.55915 -0.52706,-0.008 -2.0741,-0.39962 -3.43789,-0.8711 z"
       id="path33" />
    <path
       style="fill:#2aae00;fill-opacity:1;stroke:#ffff00;stroke-width:0.0992996;stroke-dasharray:none;stroke-opacity:0.997083"
       d="M 123.99649,245.32181 C 106.67786,240.16841 89.710319,231.68333 75.24245,220.94101 56.56818,207.07547 40.195259,187.56226 29.024947,165.8591 21.196171,150.64831 16.656601,137.10703 13.661105,120.02962 c -0.715602,-4.07966 -0.778136,-4.98063 -1.00363,-14.45986 -0.132263,-5.56 -0.270294,-25.329888 -0.306736,-43.933072 L 12.284482,27.812715 28.407864,27.69724 c 17.294569,-0.123863 17.527038,-0.139098 24.441,-1.601694 4.931142,-1.043146 10.039178,-2.594592 20.218209,-6.140807 17.022289,-5.930299 20.990622,-7.145895 27.904457,-8.547808 8.5339,-1.7304105 12.68197,-2.0667478 25.42944,-2.0618905 9.68964,0.00369 16.83707,0.270787 20.75688,0.7756705 6.76797,0.871736 14.30422,2.791449 24.18508,6.160679 34.05192,11.611219 33.63375,11.525785 56.94369,11.633672 7.74178,0.03583 14.16234,0.075 14.26791,0.08703 0.26361,0.03005 0.21224,70.989977 -0.0583,80.510828 -0.19508,6.86549 -0.30212,8.15165 -1.01179,12.15652 -1.9889,11.22399 -5.58977,23.71324 -9.48178,32.88658 -1.60591,3.78508 -6.02478,12.77461 -8.38713,17.06237 -14.80004,26.86262 -37.86247,49.61972 -63.9173,63.07108 -5.02405,2.59377 -10.08015,4.94716 -14.07597,6.55175 -7.4935,3.00913 -16.32971,5.84258 -18.1442,5.81818 -0.57766,-0.008 -2.14439,-0.33969 -3.4816,-0.73759 z m 6.92961,-6.65462 c 6.38657,-1.80091 14.71993,-5.09549 22.37399,-8.84552 27.51893,-13.48258 50.04716,-35.41506 65.4656,-63.73438 7.67493,-14.09668 13.5219,-30.76269 16.04199,-45.72556 1.09123,-6.47909 1.26174,-12.57423 1.45654,-52.064639 l 0.16555,-33.561739 -3.68768,-0.149196 c -2.02823,-0.08206 -7.47135,-0.212213 -12.09582,-0.289232 -14.32121,-0.238515 -20.30121,-1.348009 -35.61126,-6.607103 -24.10772,-8.281143 -27.3899,-9.259799 -36.59752,-10.912374 l -4.35076,-0.780869 -15.62362,-0.0057 c -17.23723,-0.0062 -18.02467,0.04388 -26.09243,1.661151 -5.431959,1.088893 -10.483067,2.547149 -18.682649,5.393687 -30.408478,10.556498 -31.892262,10.878492 -52.464973,11.385336 -6.193427,0.152586 -11.519901,0.330355 -11.83661,0.395043 l -0.575835,0.117614 0.0019,15.414708 c 0.0035,27.906437 0.462531,60.798613 0.904479,64.808563 1.934166,17.54932 8.420466,36.42842 18.720025,54.48672 14.644597,25.67648 37.07906,47.0532 62.987983,60.01822 6.24519,3.12514 15.50698,6.83874 21.67572,8.69109 4.27411,1.28343 4.34305,1.28611 7.82536,0.30414 z"
       id="path34" />
    <path
       style="fill:#f2f2f2;stroke:#ffff00;stroke-width:0.0992996;stroke-opacity:0.997083"
       d="m 123.22871,228.32357 c -16.02262,-5.48377 -33.420932,-15.4679 -45.278845,-25.98354 -3.345758,-2.96703 -14.586476,-14.36612 -16.93934,-17.178 -6.57111,-7.85305 -12.806082,-17.54829 -18.103803,-28.151 -5.553158,-11.11393 -9.333941,-21.67748 -11.953579,-33.39843 -1.149634,-5.14378 -1.47672,-8.41742 -1.76439,-17.65895 -0.279851,-8.99033 -0.488673,-61.413129 -0.24561,-61.657986 0.08326,-0.08388 3.538274,-0.380313 7.677801,-0.658744 16.586961,-1.115665 20.490757,-1.904559 38.749469,-7.830644 20.828656,-6.760191 25.713017,-8.225625 30.991597,-9.298269 4.95161,-1.006204 7.14097,-1.100131 22.57902,-0.968681 20.98128,0.17865 19.61252,-0.06905 43.98058,7.959161 25.76314,8.487832 27.7444,8.93196 45.22823,10.138572 4.06681,0.280663 7.5341,0.510297 7.70508,0.510297 0.59053,0 0.66624,7.990192 0.37829,39.924565 l -0.285,31.606949 -0.99766,4.86261 c -3.92565,19.13386 -11.3146,36.66832 -22.59385,53.61664 -5.41199,8.13213 -8.03521,11.22255 -17.81731,20.9907 -8.53993,8.52775 -11.10039,10.74281 -17.9846,15.55856 -6.08014,4.25328 -9.02222,5.96232 -17.86138,10.3756 -8.00218,3.99539 -11.14089,5.35048 -16.50727,7.12677 -4.45135,1.4734 -4.96586,1.47994 -8.95743,0.11382 z"
       id="path1" />
    <g
       id="g2">
      <path
         style="fill:#0a0404;stroke:#020300;stroke-width:8;stroke-opacity:0.99708301;fill-opacity:1;stroke-dasharray:none;stroke-linecap:round"
         d="m 28.151937,74.986523 c 199.110973,0 199.110973,-0.255927 199.110973,-0.255927"
         id="path2" />
      <path
         style="fill:#0a0404;fill-opacity:1;stroke:#020300;stroke-width:7.86271;stroke-linecap:round;stroke-dasharray:none;stroke-opacity:0.997083"
         d="m 128.36899,79.168084 c -0.94294,153.180266 -0.6216,153.181006 -0.6216,153.181006"
         id="path2-3" />
    </g>
  </g>
</svg>
