<?xml version="1.0" encoding="utf-8"?>
<!-- Generator: Adobe Illustrator 28.3.0, SVG Export Plug-In . SVG Version: 6.00 Build 0)  -->
<svg version="1.1" id="Layer_1" xmlns="http://www.w3.org/2000/svg" xmlns:xlink="http://www.w3.org/1999/xlink" x="0px" y="0px"
	 viewBox="0 0 834.95 524.49" style="enable-background:new 0 0 834.95 524.49;" xml:space="preserve">
<style type="text/css">
	.st0{fill:#040011;}
	.st1{fill:url(#SVGID_1_);}
	.st2{fill:url(#SVGID_00000110446039568506646120000001643367989759818416_);}
	.st3{fill:url(#SVGID_00000023979049476404522830000012242605696985444007_);}
	.st4{fill:url(#SVGID_00000064322976733589025650000010215505666724282253_);}
	.st5{fill:#E0E0E0;}
	.st6{fill:url(#SVGID_00000059988898615944267150000017389142962728270521_);}
	.st7{fill:url(#SVGID_00000117635160774013861670000002067002023121378722_);}
	.st8{fill:url(#SVGID_00000158023115511523045840000010979365560953067395_);}
	.st9{fill:url(#SVGID_00000027562514682485879320000010493469229589947799_);}
	.st10{fill:url(#SVGID_00000148621228696321241060000016388942881879528867_);}
	.st11{fill:url(#SVGID_00000119831743111776908580000005565317632388959375_);}
	.st12{fill:url(#SVGID_00000177456917720906333180000013872287374596400775_);}
	.st13{fill:url(#SVGID_00000159468776568146761380000008468609324671026353_);}
</style>
<g>
	<g>
		<linearGradient id="SVGID_1_" gradientUnits="userSpaceOnUse" x1="438.5886" y1="227.2814" x2="536.5365" y2="227.2814">
			<stop  offset="0" style="stop-color:#00D2D1"/>
			<stop  offset="1" style="stop-color:#2E80FF"/>
		</linearGradient>
		<path class="st1" d="M534.18,192.75c-8.68-10.88-17.53-20.42-26.64-30.93c-1.61-1.86-4.54-3.33-7.18-3.38
			c-9.34-0.16-18.7-0.19-28.06-0.18c-1.83,0-3.39,1.3-3.73,3.09c-1.24,6.68-4.08,21.86-4.13,21.93l-0.07,0.41h44.23
			c2.36,0,4.14,2.13,3.73,4.45l-18.29,103.73c-0.41,2.32,1.38,4.45,3.73,4.45l18.64,0c1.78,0,3.36-1.23,3.68-2.98
			c0-0.01,0-0.02,0-0.02c5.52-31.14,11.09-62.28,16.36-93.41C536.87,197.48,535.65,194.59,534.18,192.75z"/>
		
			<linearGradient id="SVGID_00000120552342442594988440000000426545412774743967_" gradientUnits="userSpaceOnUse" x1="419.1977" y1="240.0543" x2="464.7397" y2="240.0543">
			<stop  offset="0" style="stop-color:#00D2D1"/>
			<stop  offset="1" style="stop-color:#2E80FF"/>
		</linearGradient>
		<path style="fill:url(#SVGID_00000120552342442594988440000000426545412774743967_);" d="M437.81,186.78l-18.55,105.23
			c-0.41,2.32,1.38,4.45,3.73,4.45h18.32c1.84,0,3.41-1.32,3.73-3.13l19.33-109.64l-22.82-0.04
			C439.71,183.65,438.13,184.97,437.81,186.78z"/>
	</g>
	
		<linearGradient id="SVGID_00000016050477436791547170000017161762434926942345_" gradientUnits="userSpaceOnUse" x1="298.4119" y1="227.4026" x2="403.9907" y2="227.4026">
		<stop  offset="0" style="stop-color:#00D2D1"/>
		<stop  offset="1" style="stop-color:#2E80FF"/>
	</linearGradient>
	<path style="fill:url(#SVGID_00000016050477436791547170000017161762434926942345_);" d="M320.21,158.35h20
		c2.36,0,4.14,2.13,3.73,4.45l-20.58,116.72c-0.41,2.32,1.38,4.45,3.73,4.45h1.83c0.42,0,0.84-0.07,1.23-0.21l48.59-16.72
		c0.78-0.27,1.59-0.4,2.42-0.4h19.02c2.36,0,4.14,2.13,3.73,4.45l-3.92,22.24c-0.32,1.81-1.89,3.13-3.73,3.13h-73.56
		c-1.19,0-2.31-0.56-3.03-1.51l-20.52-27.18c-0.63-0.84-0.89-1.9-0.71-2.94l18.01-103.36C316.79,159.67,318.37,158.35,320.21,158.35
		z"/>
</g>
<g>
	<polygon class="st5" points="243.91,350.25 243.03,350.25 236.46,333.38 225.16,333.38 225.16,365.36 232.61,365.36 232.61,341.56 
		239.53,358.92 246.93,358.92 253.9,341.36 253.9,365.36 261.96,365.36 261.96,333.38 250.44,333.38 	"/>
	<path class="st5" d="M302.96,333.38l-10.25,31.98h8.15l2.26-7.4h12.77l2.32,7.4h8.41l-10.6-31.98H302.96z M305.15,351.3l3.46-11.35
		h1.64l3.56,11.35H305.15z"/>
	<path class="st5" d="M382.45,350.75c1.1-1.59,1.64-3.58,1.64-5.98v-0.7c0-2.39-0.54-4.4-1.62-6.02c-1.08-1.62-2.63-2.85-4.64-3.68
		c-2.02-0.83-4.41-1.25-7.18-1.25h-5.13h-2.06h-6.09v32.24h8.15v-9.81h4.64l6.49,9.81h9.37l-7.84-11.2
		C379.99,353.36,381.43,352.24,382.45,350.75z M365.52,339.95h5.61c0.96,0,1.8,0.19,2.5,0.57c0.7,0.38,1.25,0.92,1.64,1.62
		c0.39,0.7,0.59,1.53,0.59,2.5c0,0.94-0.2,1.75-0.59,2.45c-0.39,0.7-0.94,1.24-1.64,1.62c-0.7,0.38-1.53,0.57-2.5,0.57h-5.61V339.95
		z"/>
	<polygon class="st5" points="445.82,333.38 436.44,333.38 425.1,348.34 425.1,333.38 416.95,333.38 416.95,365.36 425.1,365.36 
		425.1,350.42 427.86,350.42 438.24,365.36 448.05,365.36 435.38,347.14 	"/>
	<polygon class="st5" points="486.03,352.44 497.73,352.44 497.73,345.78 486.03,345.78 486.03,340.04 498.39,340.04 498.39,333.38 
		486.03,333.38 485.16,333.38 478.15,333.38 478.15,365.36 485.16,365.36 486.03,365.36 498.65,365.36 498.65,358.7 486.03,358.7 	
		"/>
	<polygon class="st5" points="528.88,340.48 537.64,340.48 537.64,365.36 545.79,365.36 545.79,340.48 554.55,340.48 554.55,333.38 
		528.88,333.38 	"/>
	<path class="st5" d="M608.21,350.68c-1.05-1.43-2.5-2.56-4.34-3.4c-1.84-0.83-3.96-1.35-6.35-1.55l-2.06-0.18
		c-1.37-0.12-2.34-0.47-2.89-1.05c-0.56-0.58-0.83-1.29-0.83-2.1c0-0.61,0.15-1.17,0.46-1.67c0.31-0.5,0.76-0.88,1.36-1.16
		c0.6-0.28,1.34-0.42,2.21-0.42c0.93,0,1.73,0.17,2.39,0.5s1.16,0.8,1.51,1.38s0.53,1.23,0.53,1.93h7.89c0-2.1-0.48-3.95-1.45-5.54
		c-0.96-1.59-2.36-2.83-4.18-3.7c-1.83-0.88-4.05-1.31-6.68-1.31c-2.42,0-4.53,0.39-6.31,1.18c-1.78,0.79-3.16,1.93-4.14,3.42
		s-1.47,3.29-1.47,5.39c0,2.95,0.98,5.32,2.93,7.1c1.96,1.78,4.58,2.82,7.89,3.11l2.06,0.17c1.87,0.15,3.2,0.48,3.99,0.99
		c0.79,0.51,1.18,1.23,1.18,2.17c0,0.73-0.21,1.36-0.64,1.88c-0.42,0.53-1.04,0.93-1.84,1.23c-0.8,0.29-1.77,0.44-2.91,0.44
		c-1.31,0-2.4-0.18-3.24-0.53s-1.48-0.84-1.91-1.47c-0.42-0.63-0.63-1.32-0.63-2.08h-7.89c0,2.1,0.52,3.96,1.55,5.58
		c1.04,1.62,2.57,2.9,4.6,3.83c2.03,0.93,4.53,1.4,7.51,1.4c2.77,0,5.15-0.42,7.12-1.27c1.97-0.85,3.49-2.04,4.56-3.59
		c1.07-1.55,1.6-3.36,1.6-5.43C609.79,353.87,609.26,352.12,608.21,350.68z"/>
</g>
</svg>
