<svg width="830" height="716" viewBox="0 0 830 716" fill="none" xmlns="http://www.w3.org/2000/svg">
<g clip-path="url(#clip0_148_479)">
<path d="M415 435L786.682 435.471" stroke="white" stroke-width="6"/>
<circle cx="592.43" cy="251.454" r="11.4831" stroke="white" stroke-width="3"/>
<path d="M597.853 259.889C597.848 260.549 597.842 261.499 597.832 262.864L597.598 294.271L595.731 545.525V545.537C595.731 546.109 595.375 546.999 594.637 547.791C593.909 548.573 593.059 548.99 592.353 548.99C591.649 548.99 590.804 548.575 590.077 547.793C589.388 547.052 589.027 546.218 588.981 545.639L588.976 545.525C588.972 544.965 588.968 544.405 588.964 543.847C588.959 543.288 588.955 542.73 588.951 542.174C588.947 541.617 588.943 541.062 588.939 540.508C588.935 539.954 588.931 539.401 588.927 538.849C588.922 538.297 588.919 537.745 588.915 537.195C588.911 536.645 588.906 536.097 588.902 535.549C588.894 534.456 588.886 533.36 588.878 532.275C588.874 531.732 588.87 531.189 588.866 530.647C588.862 530.106 588.857 529.566 588.853 529.027C588.849 528.488 588.846 527.95 588.842 527.413C588.838 526.876 588.834 526.34 588.83 525.806C588.826 525.271 588.822 524.737 588.818 524.204C588.814 523.671 588.81 523.139 588.806 522.608C588.802 522.078 588.798 521.549 588.794 521.021C588.79 520.492 588.786 519.965 588.782 519.438C588.778 518.912 588.774 518.387 588.77 517.862C588.766 517.338 588.763 516.815 588.76 516.293C588.756 515.771 588.752 515.249 588.748 514.729C588.744 514.21 588.74 513.691 588.736 513.173C588.732 512.655 588.728 512.138 588.724 511.622C588.721 511.106 588.716 510.592 588.713 510.078C588.709 509.565 588.706 509.052 588.702 508.54C588.698 508.029 588.694 507.518 588.69 507.009C588.686 506.499 588.682 505.991 588.678 505.483C588.675 504.976 588.671 504.47 588.668 503.965C588.664 503.46 588.66 502.954 588.656 502.451C588.652 501.948 588.649 501.446 588.645 500.945C588.642 500.444 588.637 499.943 588.634 499.444C588.63 498.945 588.626 498.447 588.623 497.95C588.619 497.453 588.616 496.957 588.612 496.462C588.608 495.967 588.604 495.473 588.6 494.98C588.597 494.488 588.593 493.996 588.59 493.505C588.586 493.014 588.582 492.524 588.579 492.035C588.571 491.035 588.565 490.106 588.557 489.114C588.554 488.63 588.55 488.146 588.547 487.663C588.543 487.18 588.539 486.698 588.536 486.218C588.532 485.737 588.529 485.258 588.525 484.779C588.522 484.301 588.518 483.823 588.514 483.347C588.511 482.87 588.507 482.394 588.504 481.92C588.5 481.445 588.496 480.972 588.493 480.499C588.489 480.026 588.486 479.555 588.482 479.084C588.479 478.613 588.476 478.143 588.472 477.675C588.469 477.206 588.465 476.739 588.462 476.272C588.458 475.806 588.454 475.34 588.451 474.876C588.447 474.411 588.445 473.947 588.441 473.484C588.438 473.022 588.434 472.56 588.43 472.1C588.427 471.639 588.424 471.179 588.421 470.721C588.417 470.262 588.413 469.805 588.41 469.349C588.407 468.892 588.404 468.436 588.4 467.981C588.397 467.527 588.394 467.073 588.39 466.62C588.387 466.167 588.383 465.715 588.38 465.265C588.376 464.814 588.373 464.365 588.37 463.916C588.367 463.467 588.363 463.019 588.36 462.572C588.357 462.126 588.354 461.68 588.35 461.235C588.347 460.791 588.343 460.346 588.34 459.903C588.336 459.46 588.333 459.018 588.33 458.577C588.327 458.136 588.323 457.697 588.32 457.258C588.317 456.819 588.314 456.38 588.31 455.943C588.307 455.506 588.304 455.07 588.301 454.635C588.297 454.2 588.294 453.765 588.291 453.332C588.288 452.899 588.285 452.466 588.282 452.035C588.279 451.604 588.275 451.173 588.272 450.744C588.269 450.315 588.266 449.886 588.262 449.459C588.259 449.032 588.256 448.605 588.253 448.18C588.25 447.754 588.247 447.329 588.244 446.905C588.241 446.482 588.237 446.059 588.234 445.638C588.231 445.216 588.227 444.795 588.224 444.375C588.221 443.955 588.219 443.536 588.216 443.118C588.212 442.7 588.209 442.283 588.206 441.867C588.203 441.451 588.2 441.036 588.197 440.622C588.194 440.208 588.19 439.794 588.187 439.382C588.184 438.97 588.182 438.559 588.178 438.148C588.175 437.738 588.173 437.328 588.17 436.92C588.167 436.511 588.163 436.103 588.16 435.696C588.155 434.996 588.147 433.96 588.142 433.268C588.139 432.865 588.137 432.463 588.134 432.062C588.131 431.661 588.127 431.26 588.124 430.861C588.121 430.462 588.118 430.063 588.115 429.666C588.112 429.269 588.109 428.872 588.106 428.477C588.103 428.081 588.1 427.687 588.097 427.293C588.094 426.899 588.092 426.506 588.089 426.114C588.086 425.722 588.083 425.331 588.08 424.941C588.077 424.551 588.075 424.162 588.072 423.773C588.069 423.385 588.066 422.998 588.063 422.611C588.06 422.225 588.057 421.84 588.054 421.455C588.052 421.07 588.048 420.687 588.046 420.304C588.043 419.921 588.04 419.539 588.037 419.158C588.034 418.777 588.032 418.397 588.029 418.018C588.026 417.638 588.023 417.26 588.02 416.883C588.017 416.506 588.014 416.129 588.011 415.754C588.009 415.378 588.006 415.003 588.004 414.629C588.001 414.255 587.998 413.883 587.995 413.511C587.992 413.139 587.99 412.768 587.987 412.397C587.984 412.027 587.982 411.658 587.979 411.289C587.977 410.921 587.973 410.553 587.97 410.187C587.968 409.82 587.965 409.454 587.963 409.089C587.96 408.724 587.957 408.36 587.954 407.997C587.951 407.634 587.949 407.272 587.946 406.91C587.943 406.549 587.941 406.188 587.938 405.828C587.936 405.469 587.933 405.11 587.93 404.752C587.928 404.394 587.925 404.038 587.923 403.682C587.92 403.326 587.917 402.97 587.915 402.615C587.912 402.261 587.909 401.907 587.906 401.555C587.903 401.202 587.901 400.851 587.898 400.5C587.896 400.149 587.893 399.798 587.89 399.449C587.888 399.1 587.885 398.752 587.883 398.404C587.88 398.057 587.878 397.71 587.876 397.364C587.873 397.019 587.87 396.674 587.868 396.33C587.865 395.986 587.863 395.643 587.86 395.301C587.858 394.959 587.855 394.617 587.852 394.276C587.85 393.936 587.847 393.596 587.844 393.257C587.842 392.918 587.84 392.58 587.838 392.243C587.835 391.906 587.832 391.569 587.83 391.233C587.827 390.898 587.825 390.563 587.822 390.229C587.82 389.896 587.818 389.562 587.815 389.23C587.813 388.899 587.81 388.568 587.807 388.237C587.805 387.907 587.803 387.577 587.801 387.248C587.798 386.919 587.795 386.592 587.793 386.265C587.79 385.938 587.788 385.611 587.786 385.286C587.783 384.961 587.78 384.636 587.778 384.312C587.776 383.989 587.774 383.666 587.771 383.344C587.769 383.022 587.767 382.7 587.764 382.38C587.762 382.059 587.759 381.74 587.757 381.421C587.754 381.102 587.752 380.784 587.75 380.467C587.747 380.15 587.745 379.834 587.743 379.519C587.741 379.203 587.738 378.888 587.736 378.574C587.734 378.26 587.731 377.947 587.728 377.635C587.726 377.323 587.724 377.012 587.721 376.701C587.719 376.391 587.717 376.08 587.715 375.771C587.712 375.463 587.71 375.155 587.708 374.848L587.701 373.928C587.699 373.622 587.696 373.318 587.694 373.014C587.692 372.71 587.69 372.406 587.687 372.104C587.685 371.801 587.683 371.499 587.68 371.198C587.678 370.898 587.677 370.598 587.675 370.299C587.672 370 587.67 369.701 587.668 369.403C587.666 369.106 587.663 368.809 587.661 368.513C587.659 368.217 587.656 367.921 587.654 367.627C587.652 367.333 587.65 367.039 587.648 366.746C587.646 366.453 587.644 366.16 587.641 365.869C587.639 365.578 587.637 365.288 587.635 364.998C587.632 364.708 587.631 364.419 587.629 364.131C587.627 363.843 587.624 363.555 587.622 363.269C587.62 362.982 587.618 362.696 587.616 362.411C587.614 362.126 587.611 361.842 587.609 361.559C587.607 361.275 587.605 360.993 587.603 360.711C587.601 360.429 587.599 360.148 587.596 359.867C587.594 359.587 587.593 359.307 587.591 359.028C587.589 358.75 587.586 358.472 587.584 358.194C587.582 357.917 587.58 357.641 587.578 357.365C587.576 357.09 587.574 356.814 587.572 356.54C587.57 356.266 587.568 355.992 587.566 355.72C587.564 355.447 587.561 355.175 587.559 354.904C587.557 354.633 587.555 354.362 587.553 354.093C587.551 353.823 587.55 353.554 587.548 353.286C587.546 353.018 587.544 352.751 587.542 352.484C587.54 352.218 587.538 351.952 587.536 351.687C587.534 351.421 587.532 351.157 587.53 350.894C587.528 350.63 587.526 350.367 587.524 350.105C587.522 349.843 587.52 349.582 587.518 349.321C587.516 349.061 587.514 348.801 587.512 348.542C587.511 348.283 587.509 348.024 587.507 347.767C587.505 347.509 587.503 347.252 587.501 346.996C587.499 346.74 587.497 346.484 587.495 346.229C587.493 345.975 587.492 345.721 587.49 345.468C587.488 345.215 587.486 344.962 587.484 344.711C587.482 344.459 587.48 344.208 587.478 343.958C587.476 343.708 587.474 343.459 587.472 343.21C587.471 342.961 587.469 342.713 587.468 342.466C587.466 342.219 587.463 341.971 587.462 341.726C587.46 341.48 587.459 341.235 587.457 340.99C587.455 340.746 587.453 340.502 587.451 340.259C587.449 340.016 587.447 339.774 587.445 339.532C587.443 339.291 587.442 339.05 587.44 338.81C587.438 338.57 587.437 338.33 587.435 338.092C587.434 337.853 587.431 337.615 587.429 337.378C587.428 337.141 587.426 336.904 587.425 336.668C587.423 336.432 587.42 336.197 587.419 335.963C587.417 335.729 587.416 335.495 587.414 335.262C587.412 335.029 587.411 334.797 587.409 334.565C587.407 334.334 587.405 334.102 587.403 333.872C587.401 333.642 587.4 333.412 587.398 333.184C587.396 332.955 587.395 332.727 587.393 332.5C587.392 332.273 587.39 332.046 587.388 331.82C587.387 331.594 587.385 331.368 587.384 331.144C587.382 330.919 587.38 330.696 587.379 330.473C587.377 330.249 587.374 330.027 587.373 329.805C587.369 329.321 587.367 328.96 587.363 328.482C587.361 328.263 587.36 328.045 587.358 327.827C587.357 327.609 587.355 327.392 587.353 327.176C587.352 326.96 587.351 326.744 587.349 326.529C587.348 326.314 587.346 326.099 587.344 325.886C587.343 325.672 587.341 325.459 587.34 325.247C587.338 325.035 587.336 324.823 587.335 324.612C587.333 324.401 587.331 324.191 587.33 323.981C587.328 323.772 587.326 323.563 587.325 323.354C587.323 323.146 587.323 322.938 587.321 322.731C587.32 322.525 587.318 322.319 587.316 322.113C587.315 321.908 587.313 321.702 587.311 321.498C587.31 321.294 587.309 321.09 587.307 320.888C587.306 320.685 587.304 320.482 587.302 320.28C587.301 320.079 587.299 319.878 587.298 319.678C587.296 319.477 587.295 319.277 587.294 319.078C587.292 318.879 587.29 318.681 587.289 318.483C587.287 318.286 587.286 318.089 587.285 317.893C587.283 317.696 587.281 317.5 587.28 317.305C587.279 317.11 587.278 316.915 587.276 316.722C587.275 316.528 587.274 316.334 587.272 316.142C587.271 315.949 587.269 315.758 587.267 315.566C587.266 315.375 587.265 315.184 587.263 314.994C587.262 314.804 587.26 314.614 587.259 314.426C587.257 314.237 587.256 314.049 587.255 313.862C587.253 313.675 587.252 313.488 587.251 313.302C587.249 313.116 587.248 312.93 587.247 312.745C587.245 312.56 587.243 312.376 587.242 312.192C587.241 312.009 587.239 311.825 587.238 311.643C587.237 311.46 587.235 311.279 587.234 311.098C587.233 310.916 587.232 310.736 587.23 310.556C587.229 310.376 587.228 310.196 587.226 310.018C587.225 309.839 587.224 309.661 587.222 309.483C587.221 309.306 587.22 309.129 587.219 308.953C587.217 308.777 587.216 308.602 587.215 308.427C587.213 308.252 587.212 308.077 587.211 307.903C587.209 307.73 587.208 307.556 587.207 307.384C587.206 307.211 587.204 307.039 587.203 306.868C587.202 306.697 587.2 306.526 587.199 306.355C587.198 306.185 587.196 306.016 587.195 305.847C587.194 305.678 587.192 305.509 587.191 305.342C587.19 305.174 587.189 305.007 587.188 304.841C587.187 304.674 587.186 304.508 587.184 304.343C587.183 304.177 587.182 304.013 587.18 303.849C587.179 303.685 587.178 303.521 587.177 303.358C587.175 303.196 587.175 303.033 587.174 302.871C587.172 302.709 587.171 302.547 587.17 302.387C587.168 302.226 587.167 302.066 587.166 301.907C587.165 301.748 587.164 301.589 587.163 301.431C587.162 301.272 587.16 301.114 587.159 300.957C587.158 300.8 587.156 300.643 587.155 300.487C587.154 300.331 587.153 300.176 587.152 300.021C587.151 299.867 587.149 299.712 587.148 299.559C587.147 299.405 587.146 299.252 587.145 299.1C587.144 298.947 587.142 298.795 587.141 298.644C587.14 298.492 587.14 298.342 587.138 298.191C587.137 298.041 587.136 297.891 587.135 297.742C587.125 296.504 587.118 295.438 587.109 294.271C587.108 294.131 587.107 293.992 587.106 293.853C587.105 293.713 587.104 293.574 587.103 293.437C587.102 293.298 587.101 293.16 587.1 293.023C587.099 292.887 587.097 292.75 587.096 292.614C587.094 292.268 587.093 292.147 587.091 291.806C587.09 291.672 587.089 291.539 587.088 291.406C587.087 291.274 587.086 291.141 587.085 291.01C587.084 290.878 587.083 290.748 587.082 290.617C587.081 290.487 587.08 290.356 587.079 290.227C587.078 290.097 587.077 289.968 587.076 289.84C587.075 289.712 587.074 289.583 587.073 289.456C587.072 289.329 587.072 289.202 587.071 289.076C587.07 288.95 587.069 288.824 587.068 288.698C587.067 288.573 587.066 288.448 587.065 288.324C587.064 288.2 587.063 288.076 587.062 287.953C587.061 287.83 587.06 287.707 587.059 287.585C587.058 287.463 587.057 287.341 587.056 287.22C587.055 287.099 587.055 286.978 587.054 286.857C587.054 286.737 587.052 286.618 587.052 286.499C587.051 286.38 587.049 286.261 587.049 286.143C587.048 286.025 587.048 285.907 587.047 285.79C587.046 285.673 587.045 285.556 587.044 285.439C587.043 285.323 587.042 285.208 587.041 285.093C587.04 284.978 587.04 284.863 587.039 284.749C587.038 284.635 587.037 284.521 587.036 284.408C587.035 284.295 587.034 284.182 587.033 284.069C587.032 283.957 587.032 283.845 587.031 283.734C587.03 283.623 587.029 283.512 587.028 283.402C587.027 283.292 587.027 283.182 587.026 283.073C587.025 282.964 587.024 282.855 587.023 282.747C587.022 282.639 587.022 282.531 587.021 282.424C587.008 280.608 586.997 279.21 586.985 277.63C586.984 277.537 586.984 277.445 586.983 277.354C586.982 277.262 586.982 277.171 586.981 277.08C586.981 276.989 586.98 276.899 586.979 276.809C586.979 276.719 586.978 276.629 586.977 276.54C586.977 276.451 586.976 276.362 586.975 276.274C586.975 276.186 586.974 276.099 586.973 276.012C586.973 275.924 586.972 275.837 586.971 275.751C586.971 275.665 586.97 275.579 586.969 275.493C586.969 275.408 586.968 275.322 586.968 275.237C586.967 275.153 586.966 275.068 586.966 274.984C586.965 274.901 586.964 274.817 586.964 274.734C586.963 274.651 586.963 274.569 586.963 274.486C586.962 274.404 586.961 274.322 586.961 274.241C586.96 274.16 586.959 274.079 586.959 273.998C586.958 273.918 586.957 273.837 586.957 273.758C586.956 273.678 586.955 273.599 586.955 273.521C586.954 273.442 586.953 273.363 586.953 273.285C586.952 273.207 586.952 273.129 586.952 273.052C586.951 272.975 586.951 272.898 586.95 272.821C586.949 272.745 586.949 272.669 586.948 272.594C586.947 272.518 586.947 272.442 586.946 272.367C586.945 272.293 586.946 272.218 586.945 272.145C586.945 272.071 586.944 271.997 586.943 271.924C586.943 271.851 586.942 271.778 586.941 271.705C586.941 271.633 586.941 271.561 586.94 271.489C586.94 271.418 586.939 271.346 586.938 271.275C586.938 271.205 586.937 271.134 586.936 271.063C586.936 270.993 586.936 270.924 586.935 270.854C586.935 270.785 586.934 270.716 586.933 270.647C586.933 270.579 586.933 270.511 586.932 270.443C586.932 270.376 586.931 270.308 586.93 270.241C586.93 270.174 586.93 270.107 586.929 270.041C586.929 269.975 586.928 269.909 586.927 269.844C586.927 269.778 586.927 269.713 586.927 269.648C586.926 269.584 586.925 269.519 586.925 269.455C586.924 269.391 586.924 269.327 586.924 269.264C586.923 269.2 586.922 269.138 586.922 269.075C586.921 269.013 586.921 268.95 586.921 268.889C586.92 268.827 586.92 268.765 586.92 268.704C586.919 268.643 586.918 268.582 586.918 268.521C586.917 268.461 586.917 268.401 586.917 268.342C586.916 268.282 586.915 268.223 586.915 268.164C586.914 268.105 586.914 268.046 586.914 267.988C586.913 267.93 586.913 267.872 586.913 267.814C586.912 267.757 586.911 267.699 586.911 267.643C586.91 267.586 586.91 267.53 586.91 267.474C586.909 267.417 586.909 267.361 586.909 267.306C586.909 267.25 586.908 267.195 586.908 267.141C586.908 267.086 586.906 267.032 586.906 266.978C586.906 266.924 586.905 266.87 586.905 266.816C586.905 266.763 586.904 266.71 586.904 266.657C586.904 266.605 586.903 266.552 586.903 266.5C586.903 266.448 586.902 266.396 586.902 266.345C586.902 266.293 586.901 266.242 586.9 266.191C586.9 266.141 586.9 266.09 586.899 266.04C586.899 265.99 586.899 265.94 586.898 265.891C586.898 265.841 586.898 265.792 586.897 265.743C586.897 265.694 586.897 265.646 586.896 265.598C586.896 265.55 586.896 265.502 586.895 265.455C586.895 265.408 586.895 265.36 586.894 265.313C586.894 265.267 586.894 265.22 586.893 265.174C586.893 265.128 586.893 265.082 586.892 265.036C586.892 264.991 586.892 264.944 586.891 264.899C586.891 264.855 586.891 264.81 586.89 264.766C586.89 264.721 586.89 264.677 586.889 264.634C586.889 264.59 586.889 264.546 586.888 264.503C586.888 264.46 586.888 264.417 586.887 264.375C586.887 264.332 586.887 264.29 586.886 264.248C586.886 264.206 586.886 264.164 586.885 264.123C586.885 264.082 586.885 264.041 586.885 264C586.884 263.965 586.883 263.791 586.883 263.759C586.882 263.719 586.882 263.68 586.882 263.642C586.881 263.603 586.881 263.564 586.881 263.525C586.88 263.487 586.88 263.449 586.88 263.411C586.879 263.373 586.879 263.335 586.879 263.298C586.878 263.261 586.879 263.224 586.879 263.188C586.878 263.151 586.878 263.114 586.878 263.078C586.877 263.042 586.877 263.005 586.877 262.97C586.876 262.934 586.876 262.899 586.876 262.864C586.875 262.829 586.875 262.794 586.875 262.76C586.874 262.725 586.875 262.691 586.875 262.657C586.875 262.623 586.874 262.589 586.874 262.556L586.872 262.358C586.872 262.326 586.872 262.294 586.872 262.263C586.872 262.231 586.871 262.199 586.871 262.168C586.871 262.137 586.87 262.105 586.87 262.074C586.87 262.043 586.869 262.013 586.869 261.982C586.869 261.952 586.869 261.922 586.869 261.893C586.869 261.863 586.868 261.833 586.868 261.804C586.868 261.775 586.867 261.745 586.867 261.717C586.867 261.688 586.867 261.659 586.867 261.631C586.867 261.603 586.866 261.575 586.866 261.547C586.866 261.519 586.865 261.492 586.865 261.465C586.865 261.438 586.865 261.41 586.865 261.383C586.865 261.356 586.864 261.33 586.864 261.304C586.864 261.277 586.864 261.25 586.864 261.225L586.862 261.072C586.862 261.047 586.862 261.022 586.862 260.998C586.862 260.974 586.861 260.95 586.861 260.926C586.861 260.902 586.861 260.878 586.861 260.854C586.861 260.831 586.86 260.807 586.86 260.784C586.86 260.761 586.86 260.738 586.86 260.715C586.86 260.692 586.859 260.67 586.859 260.647C586.859 260.625 586.859 260.604 586.859 260.582C586.859 260.56 586.858 260.538 586.858 260.517C586.858 260.495 586.858 260.474 586.858 260.453C586.858 260.432 586.857 260.412 586.857 260.392C586.857 260.371 586.857 260.35 586.857 260.33C586.857 260.31 586.856 260.29 586.856 260.271C586.856 260.251 586.856 260.231 586.856 260.212C586.856 260.193 586.855 260.173 586.855 260.154V260.044C586.855 259.966 586.855 260.013 586.854 259.938C586.854 259.921 586.853 259.905 586.853 259.889H597.853Z" fill="white" stroke="white" stroke-width="3"/>
<circle cx="592.43" cy="251.454" r="9.98313" fill="white"/>
<path d="M577.02 308.381V287.957L572.143 287.957C557.13 287.957 541.6 301.217 541.6 319.735C541.6 357.839 613.691 372.242 613.691 397.467C613.691 422.691 566.748 430.693 566.748 461.023C566.748 491.354 601.27 490.668 601.27 506.671V524.047C611.253 524.047 611.253 513.987 611.253 506.671C611.253 485.41 579.017 476.874 579.017 461.023C579.017 445.172 628.971 431.226 628.971 397.467C628.971 363.707 557.587 338.025 557.587 319.735C557.587 313.182 564.217 308.381 566.961 308.381H577.02Z" fill="white" stroke="white"/>
<path d="M607.573 308.381V287.957L612.45 287.957C627.463 287.957 642.993 301.217 642.993 319.735C642.993 357.839 570.901 372.242 570.901 397.467C570.901 422.691 617.845 430.693 617.845 461.023C617.845 491.354 583.323 490.668 583.323 506.671V524.047C573.34 524.047 573.34 513.987 573.34 506.671C573.34 485.41 605.575 476.874 605.575 461.023C605.575 445.172 555.622 431.226 555.622 397.467C555.622 363.707 627.005 338.025 627.005 319.735C627.005 313.182 620.375 308.381 617.632 308.381H607.573Z" fill="white" stroke="white"/>
<path d="M483.682 241.471H561.795C561.795 255.417 573.454 265.705 577.417 266.314V279.117H536.951C532.607 279.117 525.596 273.401 525.596 268.448H513.479C507.611 268.448 502.81 262.199 502.81 257.017H495.037C489.245 257.017 483.682 250.692 483.682 246.424V241.471Z" fill="white" stroke="white" stroke-width="7"/>
<path d="M701.101 241.471H622.989C622.989 255.417 611.329 265.705 607.366 266.314V279.117H647.832C652.176 279.117 659.187 273.401 659.187 268.448H671.304C677.172 268.448 681.973 262.199 681.973 257.017H689.746C695.538 257.017 701.101 250.692 701.101 246.424V241.471Z" fill="white" stroke="white" stroke-width="7"/>
<path d="M365.99 421.193C356.681 386.449 355.489 350.03 362.506 314.751C369.523 279.473 384.562 246.282 406.459 217.745C428.355 189.209 456.523 166.092 488.783 150.183C521.043 134.274 556.531 126 592.5 126C628.469 126 663.957 134.274 696.217 150.183C728.477 166.092 756.645 189.209 778.541 217.745C800.438 246.282 815.477 279.473 822.494 314.751C829.511 350.03 828.319 386.449 819.01 421.193" stroke="white" stroke-width="5" stroke-linejoin="bevel" stroke-dasharray="7 7"/>
<path d="M795.583 477.75C775.001 513.399 745.398 543.001 709.75 563.583C674.101 584.165 633.663 595 592.5 595C551.337 595 510.898 584.165 475.25 563.583C439.601 543.001 409.999 513.399 389.417 477.75" stroke="white" stroke-width="5" stroke-linejoin="bevel" stroke-dasharray="7 7"/>
<path d="M483.682 377.471C488.101 377.471 491.682 373.889 491.682 369.471C491.682 365.052 488.101 361.471 483.682 361.471C479.264 361.471 475.682 365.052 475.682 369.471C475.682 373.889 479.264 377.471 483.682 377.471ZM483.682 435.471L485.182 435.471L485.182 369.471L483.682 369.471L482.182 369.471L482.182 435.471L483.682 435.471Z" fill="white"/>
<path d="M453.682 471.471C449.264 471.471 445.682 475.052 445.682 479.471C445.682 483.889 449.264 487.471 453.682 487.471C458.101 487.471 461.682 483.889 461.682 479.471C461.682 475.052 458.101 471.471 453.682 471.471ZM453.682 435.471L452.182 435.471L452.182 479.471L453.682 479.471L455.182 479.471L455.182 435.471L453.682 435.471Z" fill="white"/>
<path d="M512.682 471.471C508.264 471.471 504.682 475.052 504.682 479.471C504.682 483.889 508.264 487.471 512.682 487.471C517.101 487.471 520.682 483.889 520.682 479.471C520.682 475.052 517.101 471.471 512.682 471.471ZM512.682 435.471L511.182 435.471L511.182 479.471L512.682 479.471L514.182 479.471L514.182 435.471L512.682 435.471Z" fill="white"/>
<path d="M670.682 471.471C666.264 471.471 662.682 475.052 662.682 479.471C662.682 483.889 666.264 487.471 670.682 487.471C675.101 487.471 678.682 483.889 678.682 479.471C678.682 475.052 675.101 471.471 670.682 471.471ZM670.682 435.471L669.182 435.471L669.182 479.471L670.682 479.471L672.182 479.471L672.182 435.471L670.682 435.471Z" fill="white"/>
<path d="M729.682 471.471C725.264 471.471 721.682 475.052 721.682 479.471C721.682 483.889 725.264 487.471 729.682 487.471C734.101 487.471 737.682 483.889 737.682 479.471C737.682 475.052 734.101 471.471 729.682 471.471ZM729.682 435.471L728.182 435.471L728.182 479.471L729.682 479.471L731.182 479.471L731.182 435.471L729.682 435.471Z" fill="white"/>
<path d="M700.682 377.471C705.101 377.471 708.682 373.889 708.682 369.471C708.682 365.052 705.101 361.471 700.682 361.471C696.264 361.471 692.682 365.052 692.682 369.471C692.682 373.889 696.264 377.471 700.682 377.471ZM700.682 435.471L702.182 435.471L702.182 369.471L700.682 369.471L699.182 369.471L699.182 435.471L700.682 435.471Z" fill="white"/>
<circle cx="398.682" cy="435.471" r="17" stroke="white" stroke-width="4"/>
<path d="M396.49 423.048H400.875V433.278H411.105V435.471V437.663H400.875V447.894H396.49V437.663H386.259V435.471V433.278H396.49V423.048Z" fill="white" stroke="white" stroke-width="2" stroke-linejoin="round"/>
<path d="M808.682 435.471L775.682 454.523L775.682 416.418L808.682 435.471Z" fill="white"/>
<rect x="83" y="564" width="181" height="106.723" rx="3" stroke="white" stroke-width="12"/>
<rect x="133.278" y="670.723" width="80.4444" height="16.1702" fill="white"/>
<path d="M103.111 699.83C103.111 693.362 133.278 686.894 133.278 686.894H213.722C213.722 686.894 243.889 693.362 243.889 699.83C243.889 704.681 243.889 716 243.889 716H103.111C103.111 716 103.111 706.298 103.111 699.83Z" fill="white"/>
<mask id="mask0_148_479" style="mask-type:alpha" maskUnits="userSpaceOnUse" x="101" y="492" width="144" height="144">
<circle cx="173" cy="564" r="66" fill="#D9D9D9" stroke="black" stroke-width="12"/>
</mask>
<g mask="url(#mask0_148_479)">
<circle cx="173" cy="564" r="66" stroke="white" stroke-width="12"/>
<path d="M238 564H107.5" stroke="white" stroke-width="12"/>
<circle cx="173" cy="492" r="43" stroke="white" stroke-width="12"/>
<circle cx="173" cy="636" r="43" stroke="white" stroke-width="12"/>
<path d="M173 498C175.261 498 177.911 499.039 180.862 501.938C183.84 504.864 186.797 509.393 189.409 515.461C194.626 527.577 198 544.734 198 564C198 583.266 194.626 600.423 189.409 612.539C186.797 618.607 183.84 623.136 180.862 626.062C177.911 628.961 175.261 630 173 630C170.739 630 168.089 628.961 165.138 626.062C162.16 623.136 159.203 618.607 156.591 612.539C151.374 600.423 148 583.266 148 564C148 544.734 151.374 527.577 156.591 515.461C159.203 509.393 162.16 504.864 165.138 501.938C168.089 499.039 170.739 498 173 498Z" stroke="white" stroke-width="12"/>
</g>
<mask id="mask1_148_479" style="mask-type:luminance" maskUnits="userSpaceOnUse" x="80" y="0" width="186" height="218">
<path d="M82.786 67.0197C80.6564 62.1123 82.9229 56.3955 87.8278 54.2661L211.329 0.794967C212.582 0.252564 213.887 1.17048e-05 215.173 1.18172e-05C218.923 1.2145e-05 222.501 2.18398 224.087 5.83731L234.489 29.8436L224.907 32.1252L215.186 9.69152L91.6853 63.1626L95.0723 70.983C94.4518 72.5385 94.0512 74.1886 93.8847 75.8904L90.4889 75.8904C89.2192 75.8904 87.9858 76.0196 86.7833 76.2434L82.786 67.0197ZM228.283 39.9197L237.867 37.6353L240.522 37.001C241.042 36.8805 241.555 36.8576 242.071 36.8231C242.303 36.803 242.539 36.737 242.771 36.737C244.277 36.737 245.725 37.1159 247.035 37.7587C249.541 38.9927 251.509 41.2657 252.207 44.1872L255.127 56.4328L259.885 76.3755C259.641 76.3209 259.395 76.2807 259.15 76.232C257.969 76.0139 256.757 75.8905 255.514 75.8905L249.795 75.8905L244.106 52.0305L242.771 46.4314L241.783 46.6696L232.2 48.9511L119.131 75.8905L102.318 75.8905C102.991 72.2228 105.749 69.109 109.6 68.1906L228.283 39.9197ZM266 96.1258L266 207.496C266 213.276 261.291 217.98 255.514 217.98L90.4889 217.98C84.7056 217.98 80 213.276 80 207.496L80 96.1258C80 93.233 81.1758 90.6128 83.0734 88.7187C84.0763 87.7143 85.2891 86.9336 86.6271 86.397C87.825 85.9206 89.1242 85.6422 90.4889 85.6422L179.455 85.6422C189.939 85.0941 186.558 70.5238 196.746 70.5238L208.311 70.5238C208.311 70.5238 212.718 70.5238 218.542 70.5238L230.112 70.5238C240.298 70.5238 236.91 85.0941 247.398 85.6422L255.514 85.6422C256.721 85.6422 257.862 85.889 258.94 86.2678C260.397 86.7701 261.715 87.565 262.802 88.6154C264.766 90.5181 266 93.1785 266 96.1258ZM212.293 151.574C212.293 148.725 211.97 145.955 211.391 143.272C211.092 141.888 210.708 140.534 210.264 139.205C209.821 137.876 209.303 136.585 208.723 135.317C207.354 132.318 205.633 129.517 203.586 126.982C196.38 118.043 185.357 112.309 173.007 112.309C151.339 112.309 133.707 129.921 133.707 151.574C133.707 153.437 133.882 155.259 134.134 157.053C134.598 160.347 135.445 163.527 136.677 166.512C137.212 167.809 137.799 169.075 138.465 170.297C139.139 171.537 139.898 172.728 140.697 173.887C141.255 174.691 141.843 175.477 142.456 176.238C144.919 179.274 147.811 181.952 151.059 184.147C152.76 185.298 154.58 186.279 156.458 187.155C158.779 188.239 161.219 189.098 163.758 189.715C166.733 190.438 169.819 190.863 173.007 190.863C182.714 190.863 191.59 187.304 198.451 181.452C200.419 179.773 202.212 177.905 203.815 175.876C205.089 174.269 206.244 172.561 207.254 170.765C209.157 167.381 210.574 163.705 211.412 159.808C211.977 157.153 212.293 154.401 212.293 151.574ZM203.502 146.687C203.76 148.285 203.928 149.91 203.928 151.574C203.928 155.248 203.251 158.76 202.071 162.032C200.447 166.529 197.823 170.553 194.445 173.81C191.179 176.964 187.222 179.4 182.824 180.875C181.143 181.444 179.394 181.854 177.598 182.124C176.095 182.348 174.571 182.5 173.007 182.5C169.809 182.5 166.722 182.012 163.817 181.108C159.258 179.684 155.169 177.219 151.782 174.014C150.623 172.917 149.553 171.732 148.574 170.475C147.705 169.353 146.912 168.179 146.202 166.945C145.507 165.74 144.883 164.489 144.356 163.186C143.133 160.19 142.389 156.955 142.17 153.572C142.131 152.909 142.073 152.249 142.073 151.574C142.073 134.533 155.949 120.666 173.007 120.666C181.891 120.666 189.887 124.454 195.535 130.466C197.786 132.869 199.655 135.618 201.053 138.64C201.638 139.9 202.162 141.194 202.574 142.534C202.985 143.88 203.278 145.278 203.502 146.687ZM193.503 145.017L179.565 145.017L179.565 131.061L166.435 131.061L166.435 145.017L152.497 145.017L152.497 158.135L166.435 158.135L166.435 172.091L179.565 172.091L179.565 158.135L193.503 158.135L193.503 145.017Z" fill="white"/>
</mask>
<g mask="url(#mask1_148_479)">
<path d="M82.786 67.0197C80.6564 62.1123 82.9229 56.3955 87.8278 54.2661L211.329 0.794967C212.582 0.252564 213.887 1.17048e-05 215.173 1.18172e-05C218.923 1.2145e-05 222.501 2.18398 224.087 5.83731L234.489 29.8436L224.907 32.1252L215.186 9.69152L91.6853 63.1626L95.0723 70.983C94.4518 72.5385 94.0512 74.1886 93.8847 75.8904L90.4889 75.8904C89.2192 75.8904 87.9858 76.0196 86.7833 76.2434L82.786 67.0197ZM228.283 39.9197L237.867 37.6353L240.522 37.001C241.042 36.8805 241.555 36.8576 242.071 36.8231C242.303 36.803 242.539 36.737 242.771 36.737C244.277 36.737 245.725 37.1159 247.035 37.7587C249.541 38.9927 251.509 41.2657 252.207 44.1872L255.127 56.4328L259.885 76.3755C259.641 76.3209 259.395 76.2807 259.15 76.232C257.969 76.0139 256.757 75.8905 255.514 75.8905L249.795 75.8905L244.106 52.0305L242.771 46.4314L241.783 46.6696L232.2 48.9511L119.131 75.8905L102.318 75.8905C102.991 72.2228 105.749 69.109 109.6 68.1906L228.283 39.9197ZM266 96.1258L266 207.496C266 213.276 261.291 217.98 255.514 217.98L90.4889 217.98C84.7056 217.98 80 213.276 80 207.496L80 96.1258C80 93.233 81.1758 90.6128 83.0734 88.7187C84.0763 87.7143 85.2891 86.9336 86.6271 86.397C87.825 85.9206 89.1242 85.6422 90.4889 85.6422L179.455 85.6422C189.939 85.0941 186.558 70.5238 196.746 70.5238L208.311 70.5238C208.311 70.5238 212.718 70.5238 218.542 70.5238L230.112 70.5238C240.298 70.5238 236.91 85.0941 247.398 85.6422L255.514 85.6422C256.721 85.6422 257.862 85.889 258.94 86.2678C260.397 86.7701 261.715 87.565 262.802 88.6154C264.766 90.5181 266 93.1785 266 96.1258ZM212.293 151.574C212.293 148.725 211.97 145.955 211.391 143.272C211.092 141.888 210.708 140.534 210.264 139.205C209.821 137.876 209.303 136.585 208.723 135.317C207.354 132.318 205.633 129.517 203.586 126.982C196.38 118.043 185.357 112.309 173.007 112.309C151.339 112.309 133.707 129.921 133.707 151.574C133.707 153.437 133.882 155.259 134.134 157.053C134.598 160.347 135.445 163.527 136.677 166.512C137.212 167.809 137.799 169.075 138.465 170.297C139.139 171.537 139.898 172.728 140.697 173.887C141.255 174.691 141.843 175.477 142.456 176.238C144.919 179.274 147.811 181.952 151.059 184.147C152.76 185.298 154.58 186.279 156.458 187.155C158.779 188.239 161.219 189.098 163.758 189.715C166.733 190.438 169.819 190.863 173.007 190.863C182.714 190.863 191.59 187.304 198.451 181.452C200.419 179.773 202.212 177.905 203.815 175.876C205.089 174.269 206.244 172.561 207.254 170.765C209.157 167.381 210.574 163.705 211.412 159.808C211.977 157.153 212.293 154.401 212.293 151.574ZM203.502 146.687C203.76 148.285 203.928 149.91 203.928 151.574C203.928 155.248 203.251 158.76 202.071 162.032C200.447 166.529 197.823 170.553 194.445 173.81C191.179 176.964 187.222 179.4 182.824 180.875C181.143 181.444 179.394 181.854 177.598 182.124C176.095 182.348 174.571 182.5 173.007 182.5C169.809 182.5 166.722 182.012 163.817 181.108C159.258 179.684 155.169 177.219 151.782 174.014C150.623 172.917 149.553 171.732 148.574 170.475C147.705 169.353 146.912 168.179 146.202 166.945C145.507 165.74 144.883 164.489 144.356 163.186C143.133 160.19 142.389 156.955 142.17 153.572C142.131 152.909 142.073 152.249 142.073 151.574C142.073 134.533 155.949 120.666 173.007 120.666C181.891 120.666 189.887 124.454 195.535 130.466C197.786 132.869 199.655 135.618 201.053 138.64C201.638 139.9 202.162 141.194 202.574 142.534C202.985 143.88 203.278 145.278 203.502 146.687ZM193.503 145.017L179.565 145.017L179.565 131.061L166.435 131.061L166.435 145.017L152.497 145.017L152.497 158.135L166.435 158.135L166.435 172.091L179.565 172.091L179.565 158.135L193.503 158.135L193.503 145.017Z" fill="white"/>
</g>
<path d="M367 224L338.801 173.62L309.27 223.231L367 224ZM283 174L280.443 178.296L325.774 205.28L328.332 200.983L330.889 196.687L285.557 169.704L283 174Z" fill="white"/>
<path d="M330 360L280 331.132L280 388.868L330 360ZM201 360L201 365L285 365L285 360L285 355L201 355L201 360Z" fill="white"/>
<path d="M368 496L310.275 497.067L340.062 546.525L368 496ZM280 549L282.58 553.283L332.031 523.5L329.452 519.217L326.872 514.934L277.42 544.717L280 549Z" fill="white"/>
<mask id="mask2_148_479" style="mask-type:alpha" maskUnits="userSpaceOnUse" x="43" y="256" width="90" height="151">
<ellipse cx="87.8119" cy="389.16" rx="42.8119" ry="14.9841" fill="#D9D9D9" stroke="black" stroke-width="4"/>
<rect x="45" y="273.374" width="85.6237" height="115.787" fill="#D9D9D9" stroke="black" stroke-width="4"/>
<ellipse cx="87.8119" cy="272.984" rx="42.8119" ry="14.9841" fill="#D9D9D9" stroke="black" stroke-width="4"/>
</mask>
<g mask="url(#mask2_148_479)">
<rect x="45" y="258" width="85.6237" height="146.144" fill="#464646" stroke="white" stroke-width="4"/>
<ellipse cx="87.8119" cy="272.984" rx="42.8119" ry="14.9841" fill="#1F1F1F" stroke="white" stroke-width="4"/>
<path d="M130.624 311.709C130.624 313.677 129.516 315.626 127.365 317.444C125.213 319.262 122.06 320.913 118.084 322.305C114.109 323.696 109.389 324.8 104.195 325.553C99.0011 326.306 93.434 326.694 87.8119 326.694C82.1897 326.694 76.6226 326.306 71.4285 325.553C66.2343 324.8 61.5147 323.696 57.5393 322.305C53.5639 320.913 50.4104 319.262 48.2589 317.444C46.1074 315.626 45 313.677 45 311.709" stroke="white" stroke-width="4"/>
<path d="M130.624 350.435C130.624 352.402 129.516 354.351 127.365 356.169C125.213 357.987 122.06 359.639 118.084 361.03C114.109 362.421 109.389 363.525 104.195 364.278C99.0011 365.031 93.434 365.419 87.8119 365.419C82.1897 365.419 76.6226 365.031 71.4285 364.278C66.2343 363.525 61.5147 362.421 57.5393 361.03C53.5639 359.639 50.4104 357.987 48.2589 356.169C46.1074 354.351 45 352.402 45 350.435" stroke="white" stroke-width="4"/>
<path d="M130.624 389.16C130.624 393.134 126.113 396.945 118.084 399.755C110.056 402.565 99.1663 404.144 87.8119 404.144C76.4574 404.144 65.5681 402.565 57.5393 399.755C49.5105 396.945 45 393.134 45 389.16" stroke="white" stroke-width="4"/>
</g>
<mask id="mask3_148_479" style="mask-type:alpha" maskUnits="userSpaceOnUse" x="0" y="314" width="90" height="151">
<ellipse cx="44.8119" cy="447.16" rx="42.8119" ry="14.9841" fill="#D9D9D9" stroke="black" stroke-width="4"/>
<rect x="2" y="331.374" width="85.6237" height="115.787" fill="#D9D9D9" stroke="black" stroke-width="4"/>
<ellipse cx="44.8119" cy="330.984" rx="42.8119" ry="14.9841" fill="#D9D9D9" stroke="black" stroke-width="4"/>
</mask>
<g mask="url(#mask3_148_479)">
<rect x="2" y="316" width="85.6237" height="146.144" fill="#464646" stroke="white" stroke-width="4"/>
<ellipse cx="44.8119" cy="330.984" rx="42.8119" ry="14.9841" fill="#1F1F1F" stroke="white" stroke-width="4"/>
<path d="M87.6237 369.709C87.6237 371.677 86.5163 373.626 84.3648 375.444C82.2134 377.262 79.0599 378.913 75.0844 380.305C71.109 381.696 66.3894 382.8 61.1952 383.553C56.0011 384.306 50.434 384.694 44.8119 384.694C39.1897 384.694 33.6226 384.306 28.4285 383.553C23.2343 382.8 18.5147 381.696 14.5393 380.305C10.5639 378.913 7.41035 377.262 5.25886 375.444C3.10736 373.626 2 371.677 2 369.709" stroke="white" stroke-width="4"/>
<path d="M87.6237 408.435C87.6237 410.402 86.5163 412.351 84.3648 414.169C82.2134 415.987 79.0599 417.639 75.0844 419.03C71.109 420.421 66.3894 421.525 61.1952 422.278C56.0011 423.031 50.434 423.419 44.8119 423.419C39.1897 423.419 33.6226 423.031 28.4285 422.278C23.2343 421.525 18.5147 420.421 14.5393 419.03C10.5639 417.639 7.41035 415.987 5.25886 414.169C3.10736 412.351 2 410.402 2 408.435" stroke="white" stroke-width="4"/>
<path d="M87.6237 447.16C87.6237 451.134 83.1132 454.945 75.0844 457.755C67.0556 460.565 56.1663 462.144 44.8119 462.144C33.4574 462.144 22.5681 460.565 14.5393 457.755C6.51053 454.945 2 451.134 2 447.16" stroke="white" stroke-width="4"/>
</g>
<mask id="mask4_148_479" style="mask-type:alpha" maskUnits="userSpaceOnUse" x="95" y="286" width="90" height="151">
<ellipse cx="139.812" cy="419.16" rx="42.8119" ry="14.9841" fill="#D9D9D9" stroke="black" stroke-width="4"/>
<rect x="97" y="303.373" width="85.6237" height="115.787" fill="#D9D9D9" stroke="black" stroke-width="4"/>
<ellipse cx="139.812" cy="302.984" rx="42.8119" ry="14.9841" fill="#D9D9D9" stroke="black" stroke-width="4"/>
</mask>
<g mask="url(#mask4_148_479)">
<rect x="97" y="288" width="85.6237" height="146.144" fill="#464646" stroke="white" stroke-width="4"/>
<ellipse cx="139.812" cy="302.984" rx="42.8119" ry="14.9841" fill="#1F1F1F" stroke="white" stroke-width="4"/>
<path d="M182.624 341.709C182.624 343.677 181.516 345.625 179.365 347.443C177.213 349.261 174.06 350.913 170.084 352.305C166.109 353.696 161.389 354.8 156.195 355.553C151.001 356.306 145.434 356.693 139.812 356.693C134.19 356.693 128.623 356.306 123.428 355.553C118.234 354.8 113.515 353.696 109.539 352.305C105.564 350.913 102.41 349.261 100.259 347.443C98.1074 345.625 97 343.677 97 341.709" stroke="white" stroke-width="4"/>
<path d="M182.624 380.435C182.624 382.402 181.516 384.351 179.365 386.169C177.213 387.987 174.06 389.639 170.084 391.03C166.109 392.421 161.389 393.525 156.195 394.278C151.001 395.031 145.434 395.419 139.812 395.419C134.19 395.419 128.623 395.031 123.428 394.278C118.234 393.525 113.515 392.421 109.539 391.03C105.564 389.639 102.41 387.987 100.259 386.169C98.1074 384.351 97 382.402 97 380.435" stroke="white" stroke-width="4"/>
<path d="M182.624 419.16C182.624 423.134 178.113 426.945 170.084 429.755C162.056 432.565 151.166 434.144 139.812 434.144C128.457 434.144 117.568 432.565 109.539 429.755C101.511 426.945 97 423.134 97 419.16" stroke="white" stroke-width="4"/>
</g>
</g>
<defs>
<clipPath id="clip0_148_479">
<rect width="830" height="716" fill="white"/>
</clipPath>
</defs>
</svg>
