<?xml version="1.0" encoding="UTF-8"?>
<svg xmlns="http://www.w3.org/2000/svg" xmlns:xlink="http://www.w3.org/1999/xlink"
	width="512" height="407" viewBox="-256.0 -203.48717948717947 512.0 406.97435897435895">


<defs>
<style>
	.landmark {{ }}
	.agent {{ }}
	.goal {stroke: #84A1AE; stroke-width: 0.5251282051282051;}
</style>
</defs>


<circle class="landmark" cx="-249.436" cy="-196.923" r="6.564102564102564" fill="hsl(199, 21%, 60%)">  </circle>
<circle class="landmark" cx="-236.308" cy="-196.923" r="6.564102564102564" fill="hsl(199, 21%, 60%)">  </circle>
<circle class="landmark" cx="-223.179" cy="-196.923" r="6.564102564102564" fill="hsl(199, 21%, 60%)">  </circle>
<circle class="landmark" cx="-210.051" cy="-196.923" r="6.564102564102564" fill="hsl(199, 21%, 60%)">  </circle>
<circle class="landmark" cx="-196.923" cy="-196.923" r="6.564102564102564" fill="hsl(199, 21%, 60%)">  </circle>
<circle class="landmark" cx="-183.795" cy="-196.923" r="6.564102564102564" fill="hsl(199, 21%, 60%)">  </circle>
<circle class="landmark" cx="-170.667" cy="-196.923" r="6.564102564102564" fill="hsl(199, 21%, 60%)">  </circle>
<circle class="landmark" cx="-157.538" cy="-196.923" r="6.564102564102564" fill="hsl(199, 21%, 60%)">  </circle>
<circle class="landmark" cx="-144.410" cy="-196.923" r="6.564102564102564" fill="hsl(199, 21%, 60%)">  </circle>
<circle class="landmark" cx="-131.282" cy="-196.923" r="6.564102564102564" fill="hsl(199, 21%, 60%)">  </circle>
<circle class="landmark" cx="-118.154" cy="-196.923" r="6.564102564102564" fill="hsl(199, 21%, 60%)">  </circle>
<circle class="landmark" cx="-105.026" cy="-196.923" r="6.564102564102564" fill="hsl(199, 21%, 60%)">  </circle>
<circle class="landmark" cx="-91.897" cy="-196.923" r="6.564102564102564" fill="hsl(199, 21%, 60%)">  </circle>
<circle class="landmark" cx="-78.769" cy="-196.923" r="6.564102564102564" fill="hsl(199, 21%, 60%)">  </circle>
<circle class="landmark" cx="-65.641" cy="-196.923" r="6.564102564102564" fill="hsl(199, 21%, 60%)">  </circle>
<circle class="landmark" cx="-52.513" cy="-196.923" r="6.564102564102564" fill="hsl(199, 21%, 60%)">  </circle>
<circle class="landmark" cx="-39.385" cy="-196.923" r="6.564102564102564" fill="hsl(199, 21%, 60%)">  </circle>
<circle class="landmark" cx="-26.256" cy="-196.923" r="6.564102564102564" fill="hsl(199, 21%, 60%)">  </circle>
<circle class="landmark" cx="-13.128" cy="-196.923" r="6.564102564102564" fill="hsl(199, 21%, 60%)">  </circle>
<circle class="landmark" cx="-0.000" cy="-196.923" r="6.564102564102564" fill="hsl(199, 21%, 60%)">  </circle>
<circle class="landmark" cx="13.128" cy="-196.923" r="6.564102564102564" fill="hsl(199, 21%, 60%)">  </circle>
<circle class="landmark" cx="26.256" cy="-196.923" r="6.564102564102564" fill="hsl(199, 21%, 60%)">  </circle>
<circle class="landmark" cx="39.385" cy="-196.923" r="6.564102564102564" fill="hsl(199, 21%, 60%)">  </circle>
<circle class="landmark" cx="52.513" cy="-196.923" r="6.564102564102564" fill="hsl(199, 21%, 60%)">  </circle>
<circle class="landmark" cx="65.641" cy="-196.923" r="6.564102564102564" fill="hsl(199, 21%, 60%)">  </circle>
<circle class="landmark" cx="78.769" cy="-196.923" r="6.564102564102564" fill="hsl(199, 21%, 60%)">  </circle>
<circle class="landmark" cx="91.897" cy="-196.923" r="6.564102564102564" fill="hsl(199, 21%, 60%)">  </circle>
<circle class="landmark" cx="105.026" cy="-196.923" r="6.564102564102564" fill="hsl(199, 21%, 60%)">  </circle>
<circle class="landmark" cx="118.154" cy="-196.923" r="6.564102564102564" fill="hsl(199, 21%, 60%)">  </circle>
<circle class="landmark" cx="131.282" cy="-196.923" r="6.564102564102564" fill="hsl(199, 21%, 60%)">  </circle>
<circle class="landmark" cx="144.410" cy="-196.923" r="6.564102564102564" fill="hsl(199, 21%, 60%)">  </circle>
<circle class="landmark" cx="157.538" cy="-196.923" r="6.564102564102564" fill="hsl(199, 21%, 60%)">  </circle>
<circle class="landmark" cx="170.667" cy="-196.923" r="6.564102564102564" fill="hsl(199, 21%, 60%)">  </circle>
<circle class="landmark" cx="183.795" cy="-196.923" r="6.564102564102564" fill="hsl(199, 21%, 60%)">  </circle>
<circle class="landmark" cx="196.923" cy="-196.923" r="6.564102564102564" fill="hsl(199, 21%, 60%)">  </circle>
<circle class="landmark" cx="210.051" cy="-196.923" r="6.564102564102564" fill="hsl(199, 21%, 60%)">  </circle>
<circle class="landmark" cx="223.179" cy="-196.923" r="6.564102564102564" fill="hsl(199, 21%, 60%)">  </circle>
<circle class="landmark" cx="236.308" cy="-196.923" r="6.564102564102564" fill="hsl(199, 21%, 60%)">  </circle>
<circle class="landmark" cx="249.436" cy="-196.923" r="6.564102564102564" fill="hsl(199, 21%, 60%)">  </circle>
<circle class="landmark" cx="-249.436" cy="-183.795" r="6.564102564102564" fill="hsl(199, 21%, 60%)">  </circle>
<circle class="landmark" cx="249.436" cy="-183.795" r="6.564102564102564" fill="hsl(199, 21%, 60%)">  </circle>
<circle class="landmark" cx="-249.436" cy="-170.667" r="6.564102564102564" fill="hsl(199, 21%, 60%)">  </circle>
<circle class="landmark" cx="249.436" cy="-170.667" r="6.564102564102564" fill="hsl(199, 21%, 60%)">  </circle>
<circle class="landmark" cx="-249.436" cy="-157.538" r="6.564102564102564" fill="hsl(199, 21%, 60%)">  </circle>
<circle class="landmark" cx="-170.667" cy="-157.538" r="6.564102564102564" fill="hsl(199, 21%, 60%)">  </circle>
<circle class="landmark" cx="-157.538" cy="-157.538" r="6.564102564102564" fill="hsl(199, 21%, 60%)">  </circle>
<circle class="landmark" cx="-144.410" cy="-157.538" r="6.564102564102564" fill="hsl(199, 21%, 60%)">  </circle>
<circle class="landmark" cx="-131.282" cy="-157.538" r="6.564102564102564" fill="hsl(199, 21%, 60%)">  </circle>
<circle class="landmark" cx="-91.897" cy="-157.538" r="6.564102564102564" fill="hsl(199, 21%, 60%)">  </circle>
<circle class="landmark" cx="-78.769" cy="-157.538" r="6.564102564102564" fill="hsl(199, 21%, 60%)">  </circle>
<circle class="landmark" cx="-65.641" cy="-157.538" r="6.564102564102564" fill="hsl(199, 21%, 60%)">  </circle>
<circle class="landmark" cx="-26.256" cy="-157.538" r="6.564102564102564" fill="hsl(199, 21%, 60%)">  </circle>
<circle class="landmark" cx="26.256" cy="-157.538" r="6.564102564102564" fill="hsl(199, 21%, 60%)">  </circle>
<circle class="landmark" cx="65.641" cy="-157.538" r="6.564102564102564" fill="hsl(199, 21%, 60%)">  </circle>
<circle class="landmark" cx="78.769" cy="-157.538" r="6.564102564102564" fill="hsl(199, 21%, 60%)">  </circle>
<circle class="landmark" cx="91.897" cy="-157.538" r="6.564102564102564" fill="hsl(199, 21%, 60%)">  </circle>
<circle class="landmark" cx="131.282" cy="-157.538" r="6.564102564102564" fill="hsl(199, 21%, 60%)">  </circle>
<circle class="landmark" cx="144.410" cy="-157.538" r="6.564102564102564" fill="hsl(199, 21%, 60%)">  </circle>
<circle class="landmark" cx="157.538" cy="-157.538" r="6.564102564102564" fill="hsl(199, 21%, 60%)">  </circle>
<circle class="landmark" cx="170.667" cy="-157.538" r="6.564102564102564" fill="hsl(199, 21%, 60%)">  </circle>
<circle class="landmark" cx="249.436" cy="-157.538" r="6.564102564102564" fill="hsl(199, 21%, 60%)">  </circle>
<circle class="landmark" cx="-249.436" cy="-144.410" r="6.564102564102564" fill="hsl(199, 21%, 60%)">  </circle>
<circle class="landmark" cx="-183.795" cy="-144.410" r="6.564102564102564" fill="hsl(199, 21%, 60%)">  </circle>
<circle class="landmark" cx="-105.026" cy="-144.410" r="6.564102564102564" fill="hsl(199, 21%, 60%)">  </circle>
<circle class="landmark" cx="-52.513" cy="-144.410" r="6.564102564102564" fill="hsl(199, 21%, 60%)">  </circle>
<circle class="landmark" cx="-26.256" cy="-144.410" r="6.564102564102564" fill="hsl(199, 21%, 60%)">  </circle>
<circle class="landmark" cx="-13.128" cy="-144.410" r="6.564102564102564" fill="hsl(199, 21%, 60%)">  </circle>
<circle class="landmark" cx="13.128" cy="-144.410" r="6.564102564102564" fill="hsl(199, 21%, 60%)">  </circle>
<circle class="landmark" cx="26.256" cy="-144.410" r="6.564102564102564" fill="hsl(199, 21%, 60%)">  </circle>
<circle class="landmark" cx="52.513" cy="-144.410" r="6.564102564102564" fill="hsl(199, 21%, 60%)">  </circle>
<circle class="landmark" cx="105.026" cy="-144.410" r="6.564102564102564" fill="hsl(199, 21%, 60%)">  </circle>
<circle class="landmark" cx="131.282" cy="-144.410" r="6.564102564102564" fill="hsl(199, 21%, 60%)">  </circle>
<circle class="landmark" cx="183.795" cy="-144.410" r="6.564102564102564" fill="hsl(199, 21%, 60%)">  </circle>
<circle class="landmark" cx="249.436" cy="-144.410" r="6.564102564102564" fill="hsl(199, 21%, 60%)">  </circle>
<circle class="landmark" cx="-249.436" cy="-131.282" r="6.564102564102564" fill="hsl(199, 21%, 60%)">  </circle>
<circle class="landmark" cx="-183.795" cy="-131.282" r="6.564102564102564" fill="hsl(199, 21%, 60%)">  </circle>
<circle class="landmark" cx="-105.026" cy="-131.282" r="6.564102564102564" fill="hsl(199, 21%, 60%)">  </circle>
<circle class="landmark" cx="-52.513" cy="-131.282" r="6.564102564102564" fill="hsl(199, 21%, 60%)">  </circle>
<circle class="landmark" cx="-26.256" cy="-131.282" r="6.564102564102564" fill="hsl(199, 21%, 60%)">  </circle>
<circle class="landmark" cx="-0.000" cy="-131.282" r="6.564102564102564" fill="hsl(199, 21%, 60%)">  </circle>
<circle class="landmark" cx="26.256" cy="-131.282" r="6.564102564102564" fill="hsl(199, 21%, 60%)">  </circle>
<circle class="landmark" cx="52.513" cy="-131.282" r="6.564102564102564" fill="hsl(199, 21%, 60%)">  </circle>
<circle class="landmark" cx="105.026" cy="-131.282" r="6.564102564102564" fill="hsl(199, 21%, 60%)">  </circle>
<circle class="landmark" cx="131.282" cy="-131.282" r="6.564102564102564" fill="hsl(199, 21%, 60%)">  </circle>
<circle class="landmark" cx="183.795" cy="-131.282" r="6.564102564102564" fill="hsl(199, 21%, 60%)">  </circle>
<circle class="landmark" cx="249.436" cy="-131.282" r="6.564102564102564" fill="hsl(199, 21%, 60%)">  </circle>
<circle class="landmark" cx="-249.436" cy="-118.154" r="6.564102564102564" fill="hsl(199, 21%, 60%)">  </circle>
<circle class="landmark" cx="-183.795" cy="-118.154" r="6.564102564102564" fill="hsl(199, 21%, 60%)">  </circle>
<circle class="landmark" cx="-105.026" cy="-118.154" r="6.564102564102564" fill="hsl(199, 21%, 60%)">  </circle>
<circle class="landmark" cx="-91.897" cy="-118.154" r="6.564102564102564" fill="hsl(199, 21%, 60%)">  </circle>
<circle class="landmark" cx="-78.769" cy="-118.154" r="6.564102564102564" fill="hsl(199, 21%, 60%)">  </circle>
<circle class="landmark" cx="-65.641" cy="-118.154" r="6.564102564102564" fill="hsl(199, 21%, 60%)">  </circle>
<circle class="landmark" cx="-52.513" cy="-118.154" r="6.564102564102564" fill="hsl(199, 21%, 60%)">  </circle>
<circle class="landmark" cx="-26.256" cy="-118.154" r="6.564102564102564" fill="hsl(199, 21%, 60%)">  </circle>
<circle class="landmark" cx="26.256" cy="-118.154" r="6.564102564102564" fill="hsl(199, 21%, 60%)">  </circle>
<circle class="landmark" cx="52.513" cy="-118.154" r="6.564102564102564" fill="hsl(199, 21%, 60%)">  </circle>
<circle class="landmark" cx="65.641" cy="-118.154" r="6.564102564102564" fill="hsl(199, 21%, 60%)">  </circle>
<circle class="landmark" cx="78.769" cy="-118.154" r="6.564102564102564" fill="hsl(199, 21%, 60%)">  </circle>
<circle class="landmark" cx="91.897" cy="-118.154" r="6.564102564102564" fill="hsl(199, 21%, 60%)">  </circle>
<circle class="landmark" cx="105.026" cy="-118.154" r="6.564102564102564" fill="hsl(199, 21%, 60%)">  </circle>
<circle class="landmark" cx="131.282" cy="-118.154" r="6.564102564102564" fill="hsl(199, 21%, 60%)">  </circle>
<circle class="landmark" cx="144.410" cy="-118.154" r="6.564102564102564" fill="hsl(199, 21%, 60%)">  </circle>
<circle class="landmark" cx="157.538" cy="-118.154" r="6.564102564102564" fill="hsl(199, 21%, 60%)">  </circle>
<circle class="landmark" cx="170.667" cy="-118.154" r="6.564102564102564" fill="hsl(199, 21%, 60%)">  </circle>
<circle class="landmark" cx="249.436" cy="-118.154" r="6.564102564102564" fill="hsl(199, 21%, 60%)">  </circle>
<circle class="landmark" cx="-249.436" cy="-105.026" r="6.564102564102564" fill="hsl(199, 21%, 60%)">  </circle>
<circle class="landmark" cx="-183.795" cy="-105.026" r="6.564102564102564" fill="hsl(199, 21%, 60%)">  </circle>
<circle class="landmark" cx="-105.026" cy="-105.026" r="6.564102564102564" fill="hsl(199, 21%, 60%)">  </circle>
<circle class="landmark" cx="-52.513" cy="-105.026" r="6.564102564102564" fill="hsl(199, 21%, 60%)">  </circle>
<circle class="landmark" cx="-26.256" cy="-105.026" r="6.564102564102564" fill="hsl(199, 21%, 60%)">  </circle>
<circle class="landmark" cx="26.256" cy="-105.026" r="6.564102564102564" fill="hsl(199, 21%, 60%)">  </circle>
<circle class="landmark" cx="52.513" cy="-105.026" r="6.564102564102564" fill="hsl(199, 21%, 60%)">  </circle>
<circle class="landmark" cx="105.026" cy="-105.026" r="6.564102564102564" fill="hsl(199, 21%, 60%)">  </circle>
<circle class="landmark" cx="131.282" cy="-105.026" r="6.564102564102564" fill="hsl(199, 21%, 60%)">  </circle>
<circle class="landmark" cx="157.538" cy="-105.026" r="6.564102564102564" fill="hsl(199, 21%, 60%)">  </circle>
<circle class="landmark" cx="249.436" cy="-105.026" r="6.564102564102564" fill="hsl(199, 21%, 60%)">  </circle>
<circle class="landmark" cx="-249.436" cy="-91.897" r="6.564102564102564" fill="hsl(199, 21%, 60%)">  </circle>
<circle class="landmark" cx="-183.795" cy="-91.897" r="6.564102564102564" fill="hsl(199, 21%, 60%)">  </circle>
<circle class="landmark" cx="-105.026" cy="-91.897" r="6.564102564102564" fill="hsl(199, 21%, 60%)">  </circle>
<circle class="landmark" cx="-52.513" cy="-91.897" r="6.564102564102564" fill="hsl(199, 21%, 60%)">  </circle>
<circle class="landmark" cx="-26.256" cy="-91.897" r="6.564102564102564" fill="hsl(199, 21%, 60%)">  </circle>
<circle class="landmark" cx="26.256" cy="-91.897" r="6.564102564102564" fill="hsl(199, 21%, 60%)">  </circle>
<circle class="landmark" cx="52.513" cy="-91.897" r="6.564102564102564" fill="hsl(199, 21%, 60%)">  </circle>
<circle class="landmark" cx="105.026" cy="-91.897" r="6.564102564102564" fill="hsl(199, 21%, 60%)">  </circle>
<circle class="landmark" cx="131.282" cy="-91.897" r="6.564102564102564" fill="hsl(199, 21%, 60%)">  </circle>
<circle class="landmark" cx="170.667" cy="-91.897" r="6.564102564102564" fill="hsl(199, 21%, 60%)">  </circle>
<circle class="landmark" cx="249.436" cy="-91.897" r="6.564102564102564" fill="hsl(199, 21%, 60%)">  </circle>
<circle class="landmark" cx="-249.436" cy="-78.769" r="6.564102564102564" fill="hsl(199, 21%, 60%)">  </circle>
<circle class="landmark" cx="-170.667" cy="-78.769" r="6.564102564102564" fill="hsl(199, 21%, 60%)">  </circle>
<circle class="landmark" cx="-157.538" cy="-78.769" r="6.564102564102564" fill="hsl(199, 21%, 60%)">  </circle>
<circle class="landmark" cx="-144.410" cy="-78.769" r="6.564102564102564" fill="hsl(199, 21%, 60%)">  </circle>
<circle class="landmark" cx="-131.282" cy="-78.769" r="6.564102564102564" fill="hsl(199, 21%, 60%)">  </circle>
<circle class="landmark" cx="-105.026" cy="-78.769" r="6.564102564102564" fill="hsl(199, 21%, 60%)">  </circle>
<circle class="landmark" cx="-52.513" cy="-78.769" r="6.564102564102564" fill="hsl(199, 21%, 60%)">  </circle>
<circle class="landmark" cx="-26.256" cy="-78.769" r="6.564102564102564" fill="hsl(199, 21%, 60%)">  </circle>
<circle class="landmark" cx="26.256" cy="-78.769" r="6.564102564102564" fill="hsl(199, 21%, 60%)">  </circle>
<circle class="landmark" cx="52.513" cy="-78.769" r="6.564102564102564" fill="hsl(199, 21%, 60%)">  </circle>
<circle class="landmark" cx="105.026" cy="-78.769" r="6.564102564102564" fill="hsl(199, 21%, 60%)">  </circle>
<circle class="landmark" cx="131.282" cy="-78.769" r="6.564102564102564" fill="hsl(199, 21%, 60%)">  </circle>
<circle class="landmark" cx="183.795" cy="-78.769" r="6.564102564102564" fill="hsl(199, 21%, 60%)">  </circle>
<circle class="landmark" cx="249.436" cy="-78.769" r="6.564102564102564" fill="hsl(199, 21%, 60%)">  </circle>
<circle class="landmark" cx="-249.436" cy="-65.641" r="6.564102564102564" fill="hsl(199, 21%, 60%)">  </circle>
<circle class="landmark" cx="249.436" cy="-65.641" r="6.564102564102564" fill="hsl(199, 21%, 60%)">  </circle>
<circle class="landmark" cx="-249.436" cy="-52.513" r="6.564102564102564" fill="hsl(199, 21%, 60%)">  </circle>
<circle class="landmark" cx="249.436" cy="-52.513" r="6.564102564102564" fill="hsl(199, 21%, 60%)">  </circle>
<circle class="landmark" cx="-249.436" cy="-39.385" r="6.564102564102564" fill="hsl(199, 21%, 60%)">  </circle>
<circle class="landmark" cx="-210.051" cy="-39.385" r="6.564102564102564" fill="hsl(199, 21%, 60%)">  </circle>
<circle class="landmark" cx="-170.667" cy="-39.385" r="6.564102564102564" fill="hsl(199, 21%, 60%)">  </circle>
<circle class="landmark" cx="-157.538" cy="-39.385" r="6.564102564102564" fill="hsl(199, 21%, 60%)">  </circle>
<circle class="landmark" cx="-144.410" cy="-39.385" r="6.564102564102564" fill="hsl(199, 21%, 60%)">  </circle>
<circle class="landmark" cx="-39.385" cy="-39.385" r="6.564102564102564" fill="hsl(199, 21%, 60%)">  </circle>
<circle class="landmark" cx="-26.256" cy="-39.385" r="6.564102564102564" fill="hsl(199, 21%, 60%)">  </circle>
<circle class="landmark" cx="13.128" cy="-39.385" r="6.564102564102564" fill="hsl(199, 21%, 60%)">  </circle>
<circle class="landmark" cx="26.256" cy="-39.385" r="6.564102564102564" fill="hsl(199, 21%, 60%)">  </circle>
<circle class="landmark" cx="39.385" cy="-39.385" r="6.564102564102564" fill="hsl(199, 21%, 60%)">  </circle>
<circle class="landmark" cx="91.897" cy="-39.385" r="6.564102564102564" fill="hsl(199, 21%, 60%)">  </circle>
<circle class="landmark" cx="105.026" cy="-39.385" r="6.564102564102564" fill="hsl(199, 21%, 60%)">  </circle>
<circle class="landmark" cx="118.154" cy="-39.385" r="6.564102564102564" fill="hsl(199, 21%, 60%)">  </circle>
<circle class="landmark" cx="183.795" cy="-39.385" r="6.564102564102564" fill="hsl(199, 21%, 60%)">  </circle>
<circle class="landmark" cx="249.436" cy="-39.385" r="6.564102564102564" fill="hsl(199, 21%, 60%)">  </circle>
<circle class="landmark" cx="-249.436" cy="-26.256" r="6.564102564102564" fill="hsl(199, 21%, 60%)">  </circle>
<circle class="landmark" cx="-183.795" cy="-26.256" r="6.564102564102564" fill="hsl(199, 21%, 60%)">  </circle>
<circle class="landmark" cx="-131.282" cy="-26.256" r="6.564102564102564" fill="hsl(199, 21%, 60%)">  </circle>
<circle class="landmark" cx="-52.513" cy="-26.256" r="6.564102564102564" fill="hsl(199, 21%, 60%)">  </circle>
<circle class="landmark" cx="-0.000" cy="-26.256" r="6.564102564102564" fill="hsl(199, 21%, 60%)">  </circle>
<circle class="landmark" cx="52.513" cy="-26.256" r="6.564102564102564" fill="hsl(199, 21%, 60%)">  </circle>
<circle class="landmark" cx="78.769" cy="-26.256" r="6.564102564102564" fill="hsl(199, 21%, 60%)">  </circle>
<circle class="landmark" cx="131.282" cy="-26.256" r="6.564102564102564" fill="hsl(199, 21%, 60%)">  </circle>
<circle class="landmark" cx="183.795" cy="-26.256" r="6.564102564102564" fill="hsl(199, 21%, 60%)">  </circle>
<circle class="landmark" cx="249.436" cy="-26.256" r="6.564102564102564" fill="hsl(199, 21%, 60%)">  </circle>
<circle class="landmark" cx="-249.436" cy="-13.128" r="6.564102564102564" fill="hsl(199, 21%, 60%)">  </circle>
<circle class="landmark" cx="-210.051" cy="-13.128" r="6.564102564102564" fill="hsl(199, 21%, 60%)">  </circle>
<circle class="landmark" cx="-183.795" cy="-13.128" r="6.564102564102564" fill="hsl(199, 21%, 60%)">  </circle>
<circle class="landmark" cx="-52.513" cy="-13.128" r="6.564102564102564" fill="hsl(199, 21%, 60%)">  </circle>
<circle class="landmark" cx="-0.000" cy="-13.128" r="6.564102564102564" fill="hsl(199, 21%, 60%)">  </circle>
<circle class="landmark" cx="52.513" cy="-13.128" r="6.564102564102564" fill="hsl(199, 21%, 60%)">  </circle>
<circle class="landmark" cx="78.769" cy="-13.128" r="6.564102564102564" fill="hsl(199, 21%, 60%)">  </circle>
<circle class="landmark" cx="157.538" cy="-13.128" r="6.564102564102564" fill="hsl(199, 21%, 60%)">  </circle>
<circle class="landmark" cx="170.667" cy="-13.128" r="6.564102564102564" fill="hsl(199, 21%, 60%)">  </circle>
<circle class="landmark" cx="183.795" cy="-13.128" r="6.564102564102564" fill="hsl(199, 21%, 60%)">  </circle>
<circle class="landmark" cx="196.923" cy="-13.128" r="6.564102564102564" fill="hsl(199, 21%, 60%)">  </circle>
<circle class="landmark" cx="210.051" cy="-13.128" r="6.564102564102564" fill="hsl(199, 21%, 60%)">  </circle>
<circle class="landmark" cx="249.436" cy="-13.128" r="6.564102564102564" fill="hsl(199, 21%, 60%)">  </circle>
<circle class="landmark" cx="-249.436" cy="0.000" r="6.564102564102564" fill="hsl(199, 21%, 60%)">  </circle>
<circle class="landmark" cx="-210.051" cy="0.000" r="6.564102564102564" fill="hsl(199, 21%, 60%)">  </circle>
<circle class="landmark" cx="-170.667" cy="0.000" r="6.564102564102564" fill="hsl(199, 21%, 60%)">  </circle>
<circle class="landmark" cx="-157.538" cy="0.000" r="6.564102564102564" fill="hsl(199, 21%, 60%)">  </circle>
<circle class="landmark" cx="-144.410" cy="0.000" r="6.564102564102564" fill="hsl(199, 21%, 60%)">  </circle>
<circle class="landmark" cx="-78.769" cy="0.000" r="6.564102564102564" fill="hsl(199, 21%, 60%)">  </circle>
<circle class="landmark" cx="-65.641" cy="0.000" r="6.564102564102564" fill="hsl(199, 21%, 60%)">  </circle>
<circle class="landmark" cx="-52.513" cy="0.000" r="6.564102564102564" fill="hsl(199, 21%, 60%)">  </circle>
<circle class="landmark" cx="-39.385" cy="0.000" r="6.564102564102564" fill="hsl(199, 21%, 60%)">  </circle>
<circle class="landmark" cx="-26.256" cy="0.000" r="6.564102564102564" fill="hsl(199, 21%, 60%)">  </circle>
<circle class="landmark" cx="-0.000" cy="0.000" r="6.564102564102564" fill="hsl(199, 21%, 60%)">  </circle>
<circle class="landmark" cx="13.128" cy="0.000" r="6.564102564102564" fill="hsl(199, 21%, 60%)">  </circle>
<circle class="landmark" cx="26.256" cy="0.000" r="6.564102564102564" fill="hsl(199, 21%, 60%)">  </circle>
<circle class="landmark" cx="39.385" cy="0.000" r="6.564102564102564" fill="hsl(199, 21%, 60%)">  </circle>
<circle class="landmark" cx="52.513" cy="0.000" r="6.564102564102564" fill="hsl(199, 21%, 60%)">  </circle>
<circle class="landmark" cx="91.897" cy="0.000" r="6.564102564102564" fill="hsl(199, 21%, 60%)">  </circle>
<circle class="landmark" cx="105.026" cy="0.000" r="6.564102564102564" fill="hsl(199, 21%, 60%)">  </circle>
<circle class="landmark" cx="118.154" cy="0.000" r="6.564102564102564" fill="hsl(199, 21%, 60%)">  </circle>
<circle class="landmark" cx="183.795" cy="0.000" r="6.564102564102564" fill="hsl(199, 21%, 60%)">  </circle>
<circle class="landmark" cx="249.436" cy="0.000" r="6.564102564102564" fill="hsl(199, 21%, 60%)">  </circle>
<circle class="landmark" cx="-249.436" cy="13.128" r="6.564102564102564" fill="hsl(199, 21%, 60%)">  </circle>
<circle class="landmark" cx="-210.051" cy="13.128" r="6.564102564102564" fill="hsl(199, 21%, 60%)">  </circle>
<circle class="landmark" cx="-131.282" cy="13.128" r="6.564102564102564" fill="hsl(199, 21%, 60%)">  </circle>
<circle class="landmark" cx="-52.513" cy="13.128" r="6.564102564102564" fill="hsl(199, 21%, 60%)">  </circle>
<circle class="landmark" cx="-0.000" cy="13.128" r="6.564102564102564" fill="hsl(199, 21%, 60%)">  </circle>
<circle class="landmark" cx="52.513" cy="13.128" r="6.564102564102564" fill="hsl(199, 21%, 60%)">  </circle>
<circle class="landmark" cx="131.282" cy="13.128" r="6.564102564102564" fill="hsl(199, 21%, 60%)">  </circle>
<circle class="landmark" cx="183.795" cy="13.128" r="6.564102564102564" fill="hsl(199, 21%, 60%)">  </circle>
<circle class="landmark" cx="249.436" cy="13.128" r="6.564102564102564" fill="hsl(199, 21%, 60%)">  </circle>
<circle class="landmark" cx="-249.436" cy="26.256" r="6.564102564102564" fill="hsl(199, 21%, 60%)">  </circle>
<circle class="landmark" cx="-210.051" cy="26.256" r="6.564102564102564" fill="hsl(199, 21%, 60%)">  </circle>
<circle class="landmark" cx="-183.795" cy="26.256" r="6.564102564102564" fill="hsl(199, 21%, 60%)">  </circle>
<circle class="landmark" cx="-131.282" cy="26.256" r="6.564102564102564" fill="hsl(199, 21%, 60%)">  </circle>
<circle class="landmark" cx="-52.513" cy="26.256" r="6.564102564102564" fill="hsl(199, 21%, 60%)">  </circle>
<circle class="landmark" cx="-0.000" cy="26.256" r="6.564102564102564" fill="hsl(199, 21%, 60%)">  </circle>
<circle class="landmark" cx="52.513" cy="26.256" r="6.564102564102564" fill="hsl(199, 21%, 60%)">  </circle>
<circle class="landmark" cx="78.769" cy="26.256" r="6.564102564102564" fill="hsl(199, 21%, 60%)">  </circle>
<circle class="landmark" cx="131.282" cy="26.256" r="6.564102564102564" fill="hsl(199, 21%, 60%)">  </circle>
<circle class="landmark" cx="183.795" cy="26.256" r="6.564102564102564" fill="hsl(199, 21%, 60%)">  </circle>
<circle class="landmark" cx="249.436" cy="26.256" r="6.564102564102564" fill="hsl(199, 21%, 60%)">  </circle>
<circle class="landmark" cx="-249.436" cy="39.385" r="6.564102564102564" fill="hsl(199, 21%, 60%)">  </circle>
<circle class="landmark" cx="-210.051" cy="39.385" r="6.564102564102564" fill="hsl(199, 21%, 60%)">  </circle>
<circle class="landmark" cx="-170.667" cy="39.385" r="6.564102564102564" fill="hsl(199, 21%, 60%)">  </circle>
<circle class="landmark" cx="-157.538" cy="39.385" r="6.564102564102564" fill="hsl(199, 21%, 60%)">  </circle>
<circle class="landmark" cx="-144.410" cy="39.385" r="6.564102564102564" fill="hsl(199, 21%, 60%)">  </circle>
<circle class="landmark" cx="-52.513" cy="39.385" r="6.564102564102564" fill="hsl(199, 21%, 60%)">  </circle>
<circle class="landmark" cx="-0.000" cy="39.385" r="6.564102564102564" fill="hsl(199, 21%, 60%)">  </circle>
<circle class="landmark" cx="52.513" cy="39.385" r="6.564102564102564" fill="hsl(199, 21%, 60%)">  </circle>
<circle class="landmark" cx="91.897" cy="39.385" r="6.564102564102564" fill="hsl(199, 21%, 60%)">  </circle>
<circle class="landmark" cx="105.026" cy="39.385" r="6.564102564102564" fill="hsl(199, 21%, 60%)">  </circle>
<circle class="landmark" cx="118.154" cy="39.385" r="6.564102564102564" fill="hsl(199, 21%, 60%)">  </circle>
<circle class="landmark" cx="183.795" cy="39.385" r="6.564102564102564" fill="hsl(199, 21%, 60%)">  </circle>
<circle class="landmark" cx="249.436" cy="39.385" r="6.564102564102564" fill="hsl(199, 21%, 60%)">  </circle>
<circle class="landmark" cx="-249.436" cy="52.513" r="6.564102564102564" fill="hsl(199, 21%, 60%)">  </circle>
<circle class="landmark" cx="249.436" cy="52.513" r="6.564102564102564" fill="hsl(199, 21%, 60%)">  </circle>
<circle class="landmark" cx="-249.436" cy="65.641" r="6.564102564102564" fill="hsl(199, 21%, 60%)">  </circle>
<circle class="landmark" cx="249.436" cy="65.641" r="6.564102564102564" fill="hsl(199, 21%, 60%)">  </circle>
<circle class="landmark" cx="-249.436" cy="78.769" r="6.564102564102564" fill="hsl(199, 21%, 60%)">  </circle>
<circle class="landmark" cx="-52.513" cy="78.769" r="6.564102564102564" fill="hsl(199, 21%, 60%)">  </circle>
<circle class="landmark" cx="-39.385" cy="78.769" r="6.564102564102564" fill="hsl(199, 21%, 60%)">  </circle>
<circle class="landmark" cx="-26.256" cy="78.769" r="6.564102564102564" fill="hsl(199, 21%, 60%)">  </circle>
<circle class="landmark" cx="26.256" cy="78.769" r="6.564102564102564" fill="hsl(199, 21%, 60%)">  </circle>
<circle class="landmark" cx="39.385" cy="78.769" r="6.564102564102564" fill="hsl(199, 21%, 60%)">  </circle>
<circle class="landmark" cx="52.513" cy="78.769" r="6.564102564102564" fill="hsl(199, 21%, 60%)">  </circle>
<circle class="landmark" cx="249.436" cy="78.769" r="6.564102564102564" fill="hsl(199, 21%, 60%)">  </circle>
<circle class="landmark" cx="-249.436" cy="91.897" r="6.564102564102564" fill="hsl(199, 21%, 60%)">  </circle>
<circle class="landmark" cx="-65.641" cy="91.897" r="6.564102564102564" fill="hsl(199, 21%, 60%)">  </circle>
<circle class="landmark" cx="-52.513" cy="91.897" r="6.564102564102564" fill="hsl(199, 21%, 60%)">  </circle>
<circle class="landmark" cx="-39.385" cy="91.897" r="6.564102564102564" fill="hsl(199, 21%, 60%)">  </circle>
<circle class="landmark" cx="-26.256" cy="91.897" r="6.564102564102564" fill="hsl(199, 21%, 60%)">  </circle>
<circle class="landmark" cx="-13.128" cy="91.897" r="6.564102564102564" fill="hsl(199, 21%, 60%)">  </circle>
<circle class="landmark" cx="13.128" cy="91.897" r="6.564102564102564" fill="hsl(199, 21%, 60%)">  </circle>
<circle class="landmark" cx="26.256" cy="91.897" r="6.564102564102564" fill="hsl(199, 21%, 60%)">  </circle>
<circle class="landmark" cx="39.385" cy="91.897" r="6.564102564102564" fill="hsl(199, 21%, 60%)">  </circle>
<circle class="landmark" cx="52.513" cy="91.897" r="6.564102564102564" fill="hsl(199, 21%, 60%)">  </circle>
<circle class="landmark" cx="65.641" cy="91.897" r="6.564102564102564" fill="hsl(199, 21%, 60%)">  </circle>
<circle class="landmark" cx="249.436" cy="91.897" r="6.564102564102564" fill="hsl(199, 21%, 60%)">  </circle>
<circle class="landmark" cx="-249.436" cy="105.026" r="6.564102564102564" fill="hsl(199, 21%, 60%)">  </circle>
<circle class="landmark" cx="-65.641" cy="105.026" r="6.564102564102564" fill="hsl(199, 21%, 60%)">  </circle>
<circle class="landmark" cx="-52.513" cy="105.026" r="6.564102564102564" fill="hsl(199, 21%, 60%)">  </circle>
<circle class="landmark" cx="-39.385" cy="105.026" r="6.564102564102564" fill="hsl(199, 21%, 60%)">  </circle>
<circle class="landmark" cx="-26.256" cy="105.026" r="6.564102564102564" fill="hsl(199, 21%, 60%)">  </circle>
<circle class="landmark" cx="-13.128" cy="105.026" r="6.564102564102564" fill="hsl(199, 21%, 60%)">  </circle>
<circle class="landmark" cx="-0.000" cy="105.026" r="6.564102564102564" fill="hsl(199, 21%, 60%)">  </circle>
<circle class="landmark" cx="13.128" cy="105.026" r="6.564102564102564" fill="hsl(199, 21%, 60%)">  </circle>
<circle class="landmark" cx="26.256" cy="105.026" r="6.564102564102564" fill="hsl(199, 21%, 60%)">  </circle>
<circle class="landmark" cx="39.385" cy="105.026" r="6.564102564102564" fill="hsl(199, 21%, 60%)">  </circle>
<circle class="landmark" cx="52.513" cy="105.026" r="6.564102564102564" fill="hsl(199, 21%, 60%)">  </circle>
<circle class="landmark" cx="65.641" cy="105.026" r="6.564102564102564" fill="hsl(199, 21%, 60%)">  </circle>
<circle class="landmark" cx="249.436" cy="105.026" r="6.564102564102564" fill="hsl(199, 21%, 60%)">  </circle>
<circle class="landmark" cx="-249.436" cy="118.154" r="6.564102564102564" fill="hsl(199, 21%, 60%)">  </circle>
<circle class="landmark" cx="-52.513" cy="118.154" r="6.564102564102564" fill="hsl(199, 21%, 60%)">  </circle>
<circle class="landmark" cx="-39.385" cy="118.154" r="6.564102564102564" fill="hsl(199, 21%, 60%)">  </circle>
<circle class="landmark" cx="-26.256" cy="118.154" r="6.564102564102564" fill="hsl(199, 21%, 60%)">  </circle>
<circle class="landmark" cx="-13.128" cy="118.154" r="6.564102564102564" fill="hsl(199, 21%, 60%)">  </circle>
<circle class="landmark" cx="-0.000" cy="118.154" r="6.564102564102564" fill="hsl(199, 21%, 60%)">  </circle>
<circle class="landmark" cx="13.128" cy="118.154" r="6.564102564102564" fill="hsl(199, 21%, 60%)">  </circle>
<circle class="landmark" cx="26.256" cy="118.154" r="6.564102564102564" fill="hsl(199, 21%, 60%)">  </circle>
<circle class="landmark" cx="39.385" cy="118.154" r="6.564102564102564" fill="hsl(199, 21%, 60%)">  </circle>
<circle class="landmark" cx="52.513" cy="118.154" r="6.564102564102564" fill="hsl(199, 21%, 60%)">  </circle>
<circle class="landmark" cx="249.436" cy="118.154" r="6.564102564102564" fill="hsl(199, 21%, 60%)">  </circle>
<circle class="landmark" cx="-249.436" cy="131.282" r="6.564102564102564" fill="hsl(199, 21%, 60%)">  </circle>
<circle class="landmark" cx="-39.385" cy="131.282" r="6.564102564102564" fill="hsl(199, 21%, 60%)">  </circle>
<circle class="landmark" cx="-26.256" cy="131.282" r="6.564102564102564" fill="hsl(199, 21%, 60%)">  </circle>
<circle class="landmark" cx="-13.128" cy="131.282" r="6.564102564102564" fill="hsl(199, 21%, 60%)">  </circle>
<circle class="landmark" cx="-0.000" cy="131.282" r="6.564102564102564" fill="hsl(199, 21%, 60%)">  </circle>
<circle class="landmark" cx="13.128" cy="131.282" r="6.564102564102564" fill="hsl(199, 21%, 60%)">  </circle>
<circle class="landmark" cx="26.256" cy="131.282" r="6.564102564102564" fill="hsl(199, 21%, 60%)">  </circle>
<circle class="landmark" cx="39.385" cy="131.282" r="6.564102564102564" fill="hsl(199, 21%, 60%)">  </circle>
<circle class="landmark" cx="249.436" cy="131.282" r="6.564102564102564" fill="hsl(199, 21%, 60%)">  </circle>
<circle class="landmark" cx="-249.436" cy="144.410" r="6.564102564102564" fill="hsl(199, 21%, 60%)">  </circle>
<circle class="landmark" cx="-26.256" cy="144.410" r="6.564102564102564" fill="hsl(199, 21%, 60%)">  </circle>
<circle class="landmark" cx="-13.128" cy="144.410" r="6.564102564102564" fill="hsl(199, 21%, 60%)">  </circle>
<circle class="landmark" cx="-0.000" cy="144.410" r="6.564102564102564" fill="hsl(199, 21%, 60%)">  </circle>
<circle class="landmark" cx="13.128" cy="144.410" r="6.564102564102564" fill="hsl(199, 21%, 60%)">  </circle>
<circle class="landmark" cx="26.256" cy="144.410" r="6.564102564102564" fill="hsl(199, 21%, 60%)">  </circle>
<circle class="landmark" cx="249.436" cy="144.410" r="6.564102564102564" fill="hsl(199, 21%, 60%)">  </circle>
<circle class="landmark" cx="-249.436" cy="157.538" r="6.564102564102564" fill="hsl(199, 21%, 60%)">  </circle>
<circle class="landmark" cx="-13.128" cy="157.538" r="6.564102564102564" fill="hsl(199, 21%, 60%)">  </circle>
<circle class="landmark" cx="-0.000" cy="157.538" r="6.564102564102564" fill="hsl(199, 21%, 60%)">  </circle>
<circle class="landmark" cx="13.128" cy="157.538" r="6.564102564102564" fill="hsl(199, 21%, 60%)">  </circle>
<circle class="landmark" cx="249.436" cy="157.538" r="6.564102564102564" fill="hsl(199, 21%, 60%)">  </circle>
<circle class="landmark" cx="-249.436" cy="170.667" r="6.564102564102564" fill="hsl(199, 21%, 60%)">  </circle>
<circle class="landmark" cx="-0.000" cy="170.667" r="6.564102564102564" fill="hsl(199, 21%, 60%)">  </circle>
<circle class="landmark" cx="249.436" cy="170.667" r="6.564102564102564" fill="hsl(199, 21%, 60%)">  </circle>
<circle class="landmark" cx="-249.436" cy="183.795" r="6.564102564102564" fill="hsl(199, 21%, 60%)">  </circle>
<circle class="landmark" cx="249.436" cy="183.795" r="6.564102564102564" fill="hsl(199, 21%, 60%)">  </circle>
<circle class="landmark" cx="-249.436" cy="196.923" r="6.564102564102564" fill="hsl(199, 21%, 60%)">  </circle>
<circle class="landmark" cx="-236.308" cy="196.923" r="6.564102564102564" fill="hsl(199, 21%, 60%)">  </circle>
<circle class="landmark" cx="-223.179" cy="196.923" r="6.564102564102564" fill="hsl(199, 21%, 60%)">  </circle>
<circle class="landmark" cx="-210.051" cy="196.923" r="6.564102564102564" fill="hsl(199, 21%, 60%)">  </circle>
<circle class="landmark" cx="-196.923" cy="196.923" r="6.564102564102564" fill="hsl(199, 21%, 60%)">  </circle>
<circle class="landmark" cx="-183.795" cy="196.923" r="6.564102564102564" fill="hsl(199, 21%, 60%)">  </circle>
<circle class="landmark" cx="-170.667" cy="196.923" r="6.564102564102564" fill="hsl(199, 21%, 60%)">  </circle>
<circle class="landmark" cx="-157.538" cy="196.923" r="6.564102564102564" fill="hsl(199, 21%, 60%)">  </circle>
<circle class="landmark" cx="-144.410" cy="196.923" r="6.564102564102564" fill="hsl(199, 21%, 60%)">  </circle>
<circle class="landmark" cx="-131.282" cy="196.923" r="6.564102564102564" fill="hsl(199, 21%, 60%)">  </circle>
<circle class="landmark" cx="-118.154" cy="196.923" r="6.564102564102564" fill="hsl(199, 21%, 60%)">  </circle>
<circle class="landmark" cx="-105.026" cy="196.923" r="6.564102564102564" fill="hsl(199, 21%, 60%)">  </circle>
<circle class="landmark" cx="-91.897" cy="196.923" r="6.564102564102564" fill="hsl(199, 21%, 60%)">  </circle>
<circle class="landmark" cx="-78.769" cy="196.923" r="6.564102564102564" fill="hsl(199, 21%, 60%)">  </circle>
<circle class="landmark" cx="-65.641" cy="196.923" r="6.564102564102564" fill="hsl(199, 21%, 60%)">  </circle>
<circle class="landmark" cx="-52.513" cy="196.923" r="6.564102564102564" fill="hsl(199, 21%, 60%)">  </circle>
<circle class="landmark" cx="-39.385" cy="196.923" r="6.564102564102564" fill="hsl(199, 21%, 60%)">  </circle>
<circle class="landmark" cx="-26.256" cy="196.923" r="6.564102564102564" fill="hsl(199, 21%, 60%)">  </circle>
<circle class="landmark" cx="-13.128" cy="196.923" r="6.564102564102564" fill="hsl(199, 21%, 60%)">  </circle>
<circle class="landmark" cx="-0.000" cy="196.923" r="6.564102564102564" fill="hsl(199, 21%, 60%)">  </circle>
<circle class="landmark" cx="13.128" cy="196.923" r="6.564102564102564" fill="hsl(199, 21%, 60%)">  </circle>
<circle class="landmark" cx="26.256" cy="196.923" r="6.564102564102564" fill="hsl(199, 21%, 60%)">  </circle>
<circle class="landmark" cx="39.385" cy="196.923" r="6.564102564102564" fill="hsl(199, 21%, 60%)">  </circle>
<circle class="landmark" cx="52.513" cy="196.923" r="6.564102564102564" fill="hsl(199, 21%, 60%)">  </circle>
<circle class="landmark" cx="65.641" cy="196.923" r="6.564102564102564" fill="hsl(199, 21%, 60%)">  </circle>
<circle class="landmark" cx="78.769" cy="196.923" r="6.564102564102564" fill="hsl(199, 21%, 60%)">  </circle>
<circle class="landmark" cx="91.897" cy="196.923" r="6.564102564102564" fill="hsl(199, 21%, 60%)">  </circle>
<circle class="landmark" cx="105.026" cy="196.923" r="6.564102564102564" fill="hsl(199, 21%, 60%)">  </circle>
<circle class="landmark" cx="118.154" cy="196.923" r="6.564102564102564" fill="hsl(199, 21%, 60%)">  </circle>
<circle class="landmark" cx="131.282" cy="196.923" r="6.564102564102564" fill="hsl(199, 21%, 60%)">  </circle>
<circle class="landmark" cx="144.410" cy="196.923" r="6.564102564102564" fill="hsl(199, 21%, 60%)">  </circle>
<circle class="landmark" cx="157.538" cy="196.923" r="6.564102564102564" fill="hsl(199, 21%, 60%)">  </circle>
<circle class="landmark" cx="170.667" cy="196.923" r="6.564102564102564" fill="hsl(199, 21%, 60%)">  </circle>
<circle class="landmark" cx="183.795" cy="196.923" r="6.564102564102564" fill="hsl(199, 21%, 60%)">  </circle>
<circle class="landmark" cx="196.923" cy="196.923" r="6.564102564102564" fill="hsl(199, 21%, 60%)">  </circle>
<circle class="landmark" cx="210.051" cy="196.923" r="6.564102564102564" fill="hsl(199, 21%, 60%)">  </circle>
<circle class="landmark" cx="223.179" cy="196.923" r="6.564102564102564" fill="hsl(199, 21%, 60%)">  </circle>
<circle class="landmark" cx="236.308" cy="196.923" r="6.564102564102564" fill="hsl(199, 21%, 60%)">  </circle>
<circle class="landmark" cx="249.436" cy="196.923" r="6.564102564102564" fill="hsl(199, 21%, 60%)">  </circle>


<circle class="goal" cx="-65.641" cy="39.385" r="1.0502564102564103" fill="hsl(3, 53%, 50%)">  </circle>
<circle class="goal" cx="157.538" cy="131.282" r="1.0502564102564103" fill="hsl(205, 55%, 40%)">  </circle>
<circle class="goal" cx="-0.000" cy="-78.769" r="1.0502564102564103" fill="hsl(222, 29%, 56%)">  </circle>
<circle class="goal" cx="196.923" cy="105.026" r="1.0502564102564103" fill="hsl(185, 100%, 39%)">  </circle>
<circle class="goal" cx="196.923" cy="170.667" r="1.0502564102564103" fill="hsl(172, 54%, 64%)">  </circle>
<circle class="goal" cx="39.385" cy="-131.282" r="1.0502564102564103" fill="hsl(172, 84%, 34%)">  </circle>
<circle class="goal" cx="118.154" cy="65.641" r="1.0502564102564103" fill="hsl(31, 17%, 48%)">  </circle>
<circle class="goal" cx="-131.282" cy="105.026" r="1.0502564102564103" fill="hsl(3, 53%, 50%)">  </circle>
<circle class="goal" cx="26.256" cy="-170.667" r="1.0502564102564103" fill="hsl(205, 55%, 40%)">  </circle>
<circle class="goal" cx="-196.923" cy="39.385" r="1.0502564102564103" fill="hsl(222, 29%, 56%)">  </circle>
<circle class="goal" cx="-91.897" cy="170.667" r="1.0502564102564103" fill="hsl(185, 100%, 39%)">  </circle>
<circle class="goal" cx="-39.385" cy="-131.282" r="1.0502564102564103" fill="hsl(172, 54%, 64%)">  </circle>
<circle class="goal" cx="-26.256" cy="-52.513" r="1.0502564102564103" fill="hsl(172, 84%, 34%)">  </circle>
<circle class="goal" cx="210.051" cy="91.897" r="1.0502564102564103" fill="hsl(31, 17%, 48%)">  </circle>
<circle class="goal" cx="236.308" cy="144.410" r="1.0502564102564103" fill="hsl(3, 53%, 50%)">  </circle>
<circle class="goal" cx="144.410" cy="105.026" r="1.0502564102564103" fill="hsl(205, 55%, 40%)">  </circle>
<circle class="goal" cx="236.308" cy="118.154" r="1.0502564102564103" fill="hsl(222, 29%, 56%)">  </circle>
<circle class="goal" cx="144.410" cy="-91.897" r="1.0502564102564103" fill="hsl(185, 100%, 39%)">  </circle>
<circle class="goal" cx="26.256" cy="-65.641" r="1.0502564102564103" fill="hsl(172, 54%, 64%)">  </circle>
<circle class="goal" cx="-223.179" cy="39.385" r="1.0502564102564103" fill="hsl(172, 84%, 34%)">  </circle>
<circle class="goal" cx="223.179" cy="-131.282" r="1.0502564102564103" fill="hsl(31, 17%, 48%)">  </circle>
<circle class="goal" cx="-157.538" cy="78.769" r="1.0502564102564103" fill="hsl(3, 53%, 50%)">  </circle>
<circle class="goal" cx="-131.282" cy="-144.410" r="1.0502564102564103" fill="hsl(205, 55%, 40%)">  </circle>
<circle class="goal" cx="-183.795" cy="-170.667" r="1.0502564102564103" fill="hsl(222, 29%, 56%)">  </circle>
<circle class="goal" cx="-144.410" cy="-26.256" r="1.0502564102564103" fill="hsl(185, 100%, 39%)">  </circle>
<circle class="goal" cx="-223.179" cy="-157.538" r="1.0502564102564103" fill="hsl(172, 54%, 64%)">  </circle>
<circle class="goal" cx="223.179" cy="-183.795" r="1.0502564102564103" fill="hsl(172, 84%, 34%)">  </circle>
<circle class="goal" cx="236.308" cy="157.538" r="1.0502564102564103" fill="hsl(31, 17%, 48%)">  </circle>
<circle class="goal" cx="-65.641" cy="-78.769" r="1.0502564102564103" fill="hsl(3, 53%, 50%)">  </circle>
<circle class="goal" cx="144.410" cy="-65.641" r="1.0502564102564103" fill="hsl(205, 55%, 40%)">  </circle>
<circle class="goal" cx="131.282" cy="52.513" r="1.0502564102564103" fill="hsl(222, 29%, 56%)">  </circle>
<circle class="goal" cx="118.154" cy="-144.410" r="1.0502564102564103" fill="hsl(185, 100%, 39%)">  </circle>


<circle class="agent" cx="52.513" cy="170.667" r="2.6256410256410256" fill="hsla(3, 53%, 50%, 0.8)">  </circle>
<circle class="agent" cx="-65.641" cy="52.513" r="2.6256410256410256" fill="hsla(205, 55%, 40%, 0.8)">  </circle>
<circle class="agent" cx="223.179" cy="-131.282" r="2.6256410256410256" fill="hsla(222, 29%, 56%, 0.8)">  </circle>
<circle class="agent" cx="-196.923" cy="183.795" r="2.6256410256410256" fill="hsla(185, 100%, 39%, 0.8)">  </circle>
<circle class="agent" cx="-223.179" cy="39.385" r="2.6256410256410256" fill="hsla(172, 54%, 64%, 0.8)">  </circle>
<circle class="agent" cx="157.538" cy="-26.256" r="2.6256410256410256" fill="hsla(172, 84%, 34%, 0.8)">  </circle>
<circle class="agent" cx="-196.923" cy="39.385" r="2.6256410256410256" fill="hsla(31, 17%, 48%, 0.8)">  </circle>
<circle class="agent" cx="-52.513" cy="52.513" r="2.6256410256410256" fill="hsla(3, 53%, 50%, 0.8)">  </circle>
<circle class="agent" cx="-144.410" cy="26.256" r="2.6256410256410256" fill="hsla(205, 55%, 40%, 0.8)">  </circle>
<circle class="agent" cx="-144.410" cy="157.538" r="2.6256410256410256" fill="hsla(222, 29%, 56%, 0.8)">  </circle>
<circle class="agent" cx="-91.897" cy="-65.641" r="2.6256410256410256" fill="hsla(185, 100%, 39%, 0.8)">  </circle>
<circle class="agent" cx="157.538" cy="-78.769" r="2.6256410256410256" fill="hsla(172, 54%, 64%, 0.8)">  </circle>
<circle class="agent" cx="-236.308" cy="-39.385" r="2.6256410256410256" fill="hsla(172, 84%, 34%, 0.8)">  </circle>
<circle class="agent" cx="223.179" cy="0.000" r="2.6256410256410256" fill="hsla(31, 17%, 48%, 0.8)">  </circle>
<circle class="agent" cx="-78.769" cy="-78.769" r="2.6256410256410256" fill="hsla(3, 53%, 50%, 0.8)">  </circle>
<circle class="agent" cx="157.538" cy="118.154" r="2.6256410256410256" fill="hsla(205, 55%, 40%, 0.8)">  </circle>
<circle class="agent" cx="78.769" cy="91.897" r="2.6256410256410256" fill="hsla(222, 29%, 56%, 0.8)">  </circle>
<circle class="agent" cx="170.667" cy="52.513" r="2.6256410256410256" fill="hsla(185, 100%, 39%, 0.8)">  </circle>
<circle class="agent" cx="26.256" cy="65.641" r="2.6256410256410256" fill="hsla(172, 54%, 64%, 0.8)">  </circle>
<circle class="agent" cx="-52.513" cy="-65.641" r="2.6256410256410256" fill="hsla(172, 84%, 34%, 0.8)">  </circle>
<circle class="agent" cx="-78.769" cy="91.897" r="2.6256410256410256" fill="hsla(31, 17%, 48%, 0.8)">  </circle>
<circle class="agent" cx="131.282" cy="78.769" r="2.6256410256410256" fill="hsla(3, 53%, 50%, 0.8)">  </circle>
<circle class="agent" cx="131.282" cy="105.026" r="2.6256410256410256" fill="hsla(205, 55%, 40%, 0.8)">  </circle>
<circle class="agent" cx="13.128" cy="65.641" r="2.6256410256410256" fill="hsla(222, 29%, 56%, 0.8)">  </circle>
<circle class="agent" cx="39.385" cy="-78.769" r="2.6256410256410256" fill="hsla(185, 100%, 39%, 0.8)">  </circle>
<circle class="agent" cx="-131.282" cy="131.282" r="2.6256410256410256" fill="hsla(172, 54%, 64%, 0.8)">  </circle>
<circle class="agent" cx="210.051" cy="183.795" r="2.6256410256410256" fill="hsla(172, 84%, 34%, 0.8)">  </circle>
<circle class="agent" cx="-236.308" cy="-13.128" r="2.6256410256410256" fill="hsla(31, 17%, 48%, 0.8)">  </circle>
<circle class="agent" cx="-91.897" cy="26.256" r="2.6256410256410256" fill="hsla(3, 53%, 50%, 0.8)">  </circle>
<circle class="agent" cx="196.923" cy="144.410" r="2.6256410256410256" fill="hsla(205, 55%, 40%, 0.8)">  </circle>
<circle class="agent" cx="118.154" cy="-13.128" r="2.6256410256410256" fill="hsla(222, 29%, 56%, 0.8)">  </circle>
<circle class="agent" cx="118.154" cy="-91.897" r="2.6256410256410256" fill="hsla(185, 100%, 39%, 0.8)">  </circle>
</svg>