<svg xmlns="http://www.w3.org/2000/svg" xmlns:xlink="http://www.w3.org/1999/xlink" version="1.1" class="marks" width="644" height="473" viewBox="0 0 644 473"><rect width="644" height="473" fill="white"/><g fill="none" stroke-miterlimit="10" transform="translate(39,36)"><g class="mark-group role-frame root" role="graphics-object" aria-roledescription="group mark container"><g transform="translate(0,0)"><path class="background" aria-hidden="true" d="M0.5,0.5h600v400h-600Z" stroke="#ddd"/><g><g class="mark-group role-axis" aria-hidden="true"><g transform="translate(0.5,0.5)"><path class="background" aria-hidden="true" d="M0,0h0v0h0Z" pointer-events="none"/><g><g class="mark-rule role-axis-grid" pointer-events="none"><line transform="translate(0,400)" x2="600" y2="0" stroke="#ddd" stroke-width="1" opacity="1"/><line transform="translate(0,365)" x2="600" y2="0" stroke="#ddd" stroke-width="1" opacity="1"/><line transform="translate(0,329)" x2="600" y2="0" stroke="#ddd" stroke-width="1" opacity="1"/><line transform="translate(0,294)" x2="600" y2="0" stroke="#ddd" stroke-width="1" opacity="1"/><line transform="translate(0,259)" x2="600" y2="0" stroke="#ddd" stroke-width="1" opacity="1"/><line transform="translate(0,223)" x2="600" y2="0" stroke="#ddd" stroke-width="1" opacity="1"/><line transform="translate(0,188)" x2="600" y2="0" stroke="#ddd" stroke-width="1" opacity="1"/><line transform="translate(0,153)" x2="600" y2="0" stroke="#ddd" stroke-width="1" opacity="1"/><line transform="translate(0,117)" x2="600" y2="0" stroke="#ddd" stroke-width="1" opacity="1"/><line transform="translate(0,82)" x2="600" y2="0" stroke="#ddd" stroke-width="1" opacity="1"/><line transform="translate(0,47)" x2="600" y2="0" stroke="#ddd" stroke-width="1" opacity="1"/><line transform="translate(0,11)" x2="600" y2="0" stroke="#ddd" stroke-width="1" opacity="1"/></g></g><path class="foreground" aria-hidden="true" d="" pointer-events="none" display="none"/></g></g><g class="mark-group role-axis" role="graphics-symbol" aria-roledescription="axis" aria-label="X-axis titled 'Libraries' for a discrete scale with 6 values: toml_rs (0.0.10), rtoml (0.13.0), pytomlpp (1.0.13), toml (0.10.2), qtoml (0.3.1), tomlkit (0.13.3)"><g transform="translate(0.5,400.5)"><path class="background" aria-hidden="true" d="M0,0h0v0h0Z" pointer-events="none"/><g><g class="mark-rule role-axis-tick" pointer-events="none"><line transform="translate(50,0)" x2="0" y2="5" stroke="#888" stroke-width="1" opacity="1"/><line transform="translate(150,0)" x2="0" y2="5" stroke="#888" stroke-width="1" opacity="1"/><line transform="translate(250,0)" x2="0" y2="5" stroke="#888" stroke-width="1" opacity="1"/><line transform="translate(350,0)" x2="0" y2="5" stroke="#888" stroke-width="1" opacity="1"/><line transform="translate(450,0)" x2="0" y2="5" stroke="#888" stroke-width="1" opacity="1"/><line transform="translate(550,0)" x2="0" y2="5" stroke="#888" stroke-width="1" opacity="1"/></g><g class="mark-text role-axis-label" pointer-events="none"><text text-anchor="middle" transform="translate(49.5,15)" font-family="sans-serif" font-size="10px" fill="#000" opacity="1">toml_rs (0.0.10)</text><text text-anchor="middle" transform="translate(149.5,15)" font-family="sans-serif" font-size="10px" fill="#000" opacity="1">rtoml (0.13.0)</text><text text-anchor="middle" transform="translate(249.5,15)" font-family="sans-serif" font-size="10px" fill="#000" opacity="1">pytomlpp (1.0.13)</text><text text-anchor="middle" transform="translate(349.5,15)" font-family="sans-serif" font-size="10px" fill="#000" opacity="1">toml (0.10.2)</text><text text-anchor="middle" transform="translate(449.5,15)" font-family="sans-serif" font-size="10px" fill="#000" opacity="1">qtoml (0.3.1)</text><text text-anchor="middle" transform="translate(549.5,15)" font-family="sans-serif" font-size="10px" fill="#000" opacity="1">tomlkit (0.13.3)</text></g><g class="mark-rule role-axis-domain" pointer-events="none"><line transform="translate(0,0)" x2="600" y2="0" stroke="#888" stroke-width="1" opacity="1"/></g><g class="mark-text role-axis-title" pointer-events="none"><text text-anchor="middle" transform="translate(300,30)" font-family="sans-serif" font-size="11px" font-weight="bold" fill="#000" opacity="1">Libraries</text></g></g><path class="foreground" aria-hidden="true" d="" pointer-events="none" display="none"/></g></g><g class="mark-group role-axis" role="graphics-symbol" aria-roledescription="axis" aria-label="Y-axis titled 'Execution Time (seconds, lower=better)' for a linear scale with values from 0 to 23"><g transform="translate(0.5,0.5)"><path class="background" aria-hidden="true" d="M0,0h0v0h0Z" pointer-events="none"/><g><g class="mark-rule role-axis-tick" pointer-events="none"><line transform="translate(0,400)" x2="-5" y2="0" stroke="#888" stroke-width="1" opacity="1"/><line transform="translate(0,365)" x2="-5" y2="0" stroke="#888" stroke-width="1" opacity="1"/><line transform="translate(0,329)" x2="-5" y2="0" stroke="#888" stroke-width="1" opacity="1"/><line transform="translate(0,294)" x2="-5" y2="0" stroke="#888" stroke-width="1" opacity="1"/><line transform="translate(0,259)" x2="-5" y2="0" stroke="#888" stroke-width="1" opacity="1"/><line transform="translate(0,223)" x2="-5" y2="0" stroke="#888" stroke-width="1" opacity="1"/><line transform="translate(0,188)" x2="-5" y2="0" stroke="#888" stroke-width="1" opacity="1"/><line transform="translate(0,153)" x2="-5" y2="0" stroke="#888" stroke-width="1" opacity="1"/><line transform="translate(0,117)" x2="-5" y2="0" stroke="#888" stroke-width="1" opacity="1"/><line transform="translate(0,82)" x2="-5" y2="0" stroke="#888" stroke-width="1" opacity="1"/><line transform="translate(0,47)" x2="-5" y2="0" stroke="#888" stroke-width="1" opacity="1"/><line transform="translate(0,11)" x2="-5" y2="0" stroke="#888" stroke-width="1" opacity="1"/></g><g class="mark-text role-axis-label" pointer-events="none"><text text-anchor="end" transform="translate(-7,403)" font-family="sans-serif" font-size="10px" fill="#000" opacity="1">0</text><text text-anchor="end" transform="translate(-7,367.6789195438826)" font-family="sans-serif" font-size="10px" fill="#000" opacity="1">2</text><text text-anchor="end" transform="translate(-7,332.3578390877652)" font-family="sans-serif" font-size="10px" fill="#000" opacity="1">4</text><text text-anchor="end" transform="translate(-7,297.03675863164784)" font-family="sans-serif" font-size="10px" fill="#000" opacity="1">6</text><text text-anchor="end" transform="translate(-7,261.71567817553046)" font-family="sans-serif" font-size="10px" fill="#000" opacity="1">8</text><text text-anchor="end" transform="translate(-7,226.39459771941304)" font-family="sans-serif" font-size="10px" fill="#000" opacity="1">10</text><text text-anchor="end" transform="translate(-7,191.07351726329563)" font-family="sans-serif" font-size="10px" fill="#000" opacity="1">12</text><text text-anchor="end" transform="translate(-7,155.75243680717824)" font-family="sans-serif" font-size="10px" fill="#000" opacity="1">14</text><text text-anchor="end" transform="translate(-7,120.43135635106086)" font-family="sans-serif" font-size="10px" fill="#000" opacity="1">16</text><text text-anchor="end" transform="translate(-7,85.11027589494347)" font-family="sans-serif" font-size="10px" fill="#000" opacity="1">18</text><text text-anchor="end" transform="translate(-7,49.78919543882607)" font-family="sans-serif" font-size="10px" fill="#000" opacity="1">20</text><text text-anchor="end" transform="translate(-7,14.468114982708677)" font-family="sans-serif" font-size="10px" fill="#000" opacity="1">22</text></g><g class="mark-rule role-axis-domain" pointer-events="none"><line transform="translate(0,400)" x2="0" y2="-400" stroke="#888" stroke-width="1" opacity="1"/></g><g class="mark-text role-axis-title" pointer-events="none"><text text-anchor="middle" transform="translate(-22.123046875,200) rotate(-90) translate(0,-2)" font-family="sans-serif" font-size="11px" font-weight="bold" fill="#000" opacity="1">Execution Time (seconds, lower=better)</text></g></g><path class="foreground" aria-hidden="true" d="" pointer-events="none" display="none"/></g></g><g class="mark-group role-scope" role="graphics-object" aria-roledescription="group mark container"><g transform="translate(5,395.7209782586375)"><path class="background" aria-hidden="true" d="M2.1395108706812493,0L87.86048912931875,0C89.04131732391598,0,90,0.9586826760840284,90,2.1395108706812493L90,4.279021741362499C90,4.279021741362499,90,4.279021741362499,90,4.279021741362499L0,4.279021741362499C0,4.279021741362499,0,4.279021741362499,0,4.279021741362499L0,2.1395108706812493C0,0.9586826760840284,0.9586826760840284,0,2.1395108706812493,0Z"/><g clip-path="url(#clip8)"><g class="mark-group role-scope" role="graphics-object" aria-roledescription="group mark container"><g transform="translate(0,-395.7209782586375)"><path class="background" aria-hidden="true" d="M0,0h90v0h-90Z"/><g><g class="mark-rect role-mark layer_0_marks" role="graphics-object" aria-roledescription="rect mark container"><path aria-label="Libraries: toml_rs (0.0.10); Execution Time (seconds, lower=better): 0.2422928; parser: toml_rs (0.0.10); Execution Time (s): 0.2423; Slowdown: 1.00" role="graphics-symbol" aria-roledescription="bar" d="M0,395.7209782586375h90v4.279021741362499h-90Z" fill="#66a61e"/></g></g><path class="foreground" aria-hidden="true" d="" display="none"/></g></g></g><path class="foreground" aria-hidden="true" d="" display="none"/></g><g transform="translate(105,393.4403702678575)"><path class="background" aria-hidden="true" d="M3.2798148660712627,0L86.72018513392874,0C88.53036423607224,0,90,1.4696357639277564,90,3.2798148660712627L90,6.559629732142525C90,6.559629732142525,90,6.559629732142525,90,6.559629732142525L0,6.559629732142525C0,6.559629732142525,0,6.559629732142525,0,6.559629732142525L0,3.2798148660712627C0,1.4696357639277564,1.4696357639277564,0,3.2798148660712627,0Z"/><g clip-path="url(#clip9)"><g class="mark-group role-scope" role="graphics-object" aria-roledescription="group mark container"><g transform="translate(0,-393.4403702678575)"><path class="background" aria-hidden="true" d="M0,0h90v0h-90Z"/><g><g class="mark-rect role-mark layer_0_marks" role="graphics-object" aria-roledescription="rect mark container"><path aria-label="Libraries: rtoml (0.13.0); Execution Time (seconds, lower=better): 0.371428599999; parser: rtoml (0.13.0); Execution Time (s): 0.3714; Slowdown: 1.53" role="graphics-symbol" aria-roledescription="bar" d="M0,393.4403702678575h90v6.559629732142525h-90Z" fill="#7570b3"/></g></g><path class="foreground" aria-hidden="true" d="" display="none"/></g></g></g><path class="foreground" aria-hidden="true" d="" display="none"/></g><g transform="translate(205,391.3553492279744)"><path class="background" aria-hidden="true" d="M4.322325386012807,0L85.6776746139872,0C88.06323093527949,0,90,1.9367690647205107,90,4.322325386012807L90,8.644650772025614C90,8.644650772025614,90,8.644650772025614,90,8.644650772025614L0,8.644650772025614C0,8.644650772025614,0,8.644650772025614,0,8.644650772025614L0,4.322325386012807C0,1.9367690647205107,1.9367690647205107,0,4.322325386012807,0Z"/><g clip-path="url(#clip10)"><g class="mark-group role-scope" role="graphics-object" aria-roledescription="group mark container"><g transform="translate(0,-391.3553492279744)"><path class="background" aria-hidden="true" d="M0,0h90v0h-90Z"/><g><g class="mark-rect role-mark layer_0_marks" role="graphics-object" aria-roledescription="rect mark container"><path aria-label="Libraries: pytomlpp (1.0.13); Execution Time (seconds, lower=better): 0.489489600001; parser: pytomlpp (1.0.13); Execution Time (s): 0.4895; Slowdown: 2.02" role="graphics-symbol" aria-roledescription="bar" d="M0,391.3553492279744h90v8.644650772025614h-90Z" fill="#1b9e77"/></g></g><path class="foreground" aria-hidden="true" d="" display="none"/></g></g></g><path class="foreground" aria-hidden="true" d="" display="none"/></g><g transform="translate(305,381.59718726614676)"><path class="background" aria-hidden="true" d="M6,0L84,0C87.311490146964,0,90,2.688509853036,90,6L90,18.40281273385324C90,18.40281273385324,90,18.40281273385324,90,18.40281273385324L0,18.40281273385324C0,18.40281273385324,0,18.40281273385324,0,18.40281273385324L0,6C0,2.688509853036,2.688509853036,0,6,0Z"/><g clip-path="url(#clip11)"><g class="mark-group role-scope" role="graphics-object" aria-roledescription="group mark container"><g transform="translate(0,-381.59718726614676)"><path class="background" aria-hidden="true" d="M0,0h90v0h-90Z"/><g><g class="mark-rect role-mark layer_0_marks" role="graphics-object" aria-roledescription="rect mark container"><path aria-label="Libraries: toml (0.10.2); Execution Time (seconds, lower=better): 1.04203; parser: toml (0.10.2); Execution Time (s): 1.0420; Slowdown: 4.30" role="graphics-symbol" aria-roledescription="bar" d="M0,381.59718726614676h90v18.40281273385324h-90Z" fill="#e7298a"/></g></g><path class="foreground" aria-hidden="true" d="" display="none"/></g></g></g><path class="foreground" aria-hidden="true" d="" display="none"/></g><g transform="translate(405,352.517963377652)"><path class="background" aria-hidden="true" d="M6,0L84,0C87.311490146964,0,90,2.688509853036,90,6L90,47.482036622348005C90,47.482036622348005,90,47.482036622348005,90,47.482036622348005L0,47.482036622348005C0,47.482036622348005,0,47.482036622348005,0,47.482036622348005L0,6C0,2.688509853036,2.688509853036,0,6,0Z"/><g clip-path="url(#clip12)"><g class="mark-group role-scope" role="graphics-object" aria-roledescription="group mark container"><g transform="translate(0,-352.517963377652)"><path class="background" aria-hidden="true" d="M0,0h90v0h-90Z"/><g><g class="mark-rect role-mark layer_0_marks" role="graphics-object" aria-roledescription="rect mark container"><path aria-label="Libraries: qtoml (0.3.1); Execution Time (seconds, lower=better): 2.6885948; parser: qtoml (0.3.1); Execution Time (s): 2.6886; Slowdown: 11.10" role="graphics-symbol" aria-roledescription="bar" d="M0,352.517963377652h90v47.482036622348005h-90Z" fill="#d95f02"/></g></g><path class="foreground" aria-hidden="true" d="" display="none"/></g></g></g><path class="foreground" aria-hidden="true" d="" display="none"/></g><g transform="translate(505,36.36363636363642)"><path class="background" aria-hidden="true" d="M6,0L84,0C87.311490146964,0,90,2.688509853036,90,6L90,363.63636363636357C90,363.63636363636357,90,363.63636363636357,90,363.63636363636357L0,363.63636363636357C0,363.63636363636357,0,363.63636363636357,0,363.63636363636357L0,6C0,2.688509853036,2.688509853036,0,6,0Z"/><g clip-path="url(#clip13)"><g class="mark-group role-scope" role="graphics-object" aria-roledescription="group mark container"><g transform="translate(0,-36.36363636363642)"><path class="background" aria-hidden="true" d="M0,0h90v0h-90Z"/><g><g class="mark-rect role-mark layer_0_marks" role="graphics-object" aria-roledescription="rect mark container"><path aria-label="Libraries: tomlkit (0.13.3); Execution Time (seconds, lower=better): 20.5903307; parser: tomlkit (0.13.3); Execution Time (s): 20.5903; Slowdown: 84.98" role="graphics-symbol" aria-roledescription="bar" d="M0,36.36363636363642h90v363.63636363636357h-90Z" fill="#e6ab02"/></g></g><path class="foreground" aria-hidden="true" d="" display="none"/></g></g></g><path class="foreground" aria-hidden="true" d="" display="none"/></g></g><g class="mark-text role-mark layer_1_marks" role="graphics-object" aria-roledescription="text mark container"><text aria-label="Libraries: toml_rs (0.0.10); Execution Time (seconds, lower=better): 0.2422928; parser: toml_rs (0.0.10); label: 0.2423s (x1.00); Execution Time (s): 0.2423; Slowdown: 1.00" role="graphics-symbol" aria-roledescription="text mark" text-anchor="middle" transform="translate(50,391.7209782586375)" font-family="sans-serif" font-size="9px" font-weight="bold" fill="#66a61e">0.2423s (x1.00)</text><text aria-label="Libraries: rtoml (0.13.0); Execution Time (seconds, lower=better): 0.371428599999; parser: rtoml (0.13.0); label: 0.3714s (x1.53); Execution Time (s): 0.3714; Slowdown: 1.53" role="graphics-symbol" aria-roledescription="text mark" text-anchor="middle" transform="translate(150,389.4403702678575)" font-family="sans-serif" font-size="9px" font-weight="bold" fill="#7570b3">0.3714s (x1.53)</text><text aria-label="Libraries: pytomlpp (1.0.13); Execution Time (seconds, lower=better): 0.489489600001; parser: pytomlpp (1.0.13); label: 0.4895s (x2.02); Execution Time (s): 0.4895; Slowdown: 2.02" role="graphics-symbol" aria-roledescription="text mark" text-anchor="middle" transform="translate(250,387.3553492279744)" font-family="sans-serif" font-size="9px" font-weight="bold" fill="#1b9e77">0.4895s (x2.02)</text><text aria-label="Libraries: toml (0.10.2); Execution Time (seconds, lower=better): 1.04203; parser: toml (0.10.2); label: 1.0420s (x4.30); Execution Time (s): 1.0420; Slowdown: 4.30" role="graphics-symbol" aria-roledescription="text mark" text-anchor="middle" transform="translate(350,377.59718726614676)" font-family="sans-serif" font-size="9px" font-weight="bold" fill="#e7298a">1.0420s (x4.30)</text><text aria-label="Libraries: qtoml (0.3.1); Execution Time (seconds, lower=better): 2.6885948; parser: qtoml (0.3.1); label: 2.6886s (x11.10); Execution Time (s): 2.6886; Slowdown: 11.10" role="graphics-symbol" aria-roledescription="text mark" text-anchor="middle" transform="translate(450,348.517963377652)" font-family="sans-serif" font-size="9px" font-weight="bold" fill="#d95f02">2.6886s (x11.10)</text><text aria-label="Libraries: tomlkit (0.13.3); Execution Time (seconds, lower=better): 20.5903307; parser: tomlkit (0.13.3); label: 20.5903s (x84.98); Execution Time (s): 20.5903; Slowdown: 84.98" role="graphics-symbol" aria-roledescription="text mark" text-anchor="middle" transform="translate(550,32.36363636363642)" font-family="sans-serif" font-size="9px" font-weight="bold" fill="#e6ab02">20.5903s (x84.98)</text></g><g class="mark-group role-title"><g transform="translate(300,-31)"><path class="background" aria-hidden="true" d="M0,0h0v0h0Z" pointer-events="none"/><g><g class="mark-text role-title-text" role="graphics-symbol" aria-roledescription="title" aria-label="Title text 'TOML parsers benchmark (dumps)'" pointer-events="none"><text text-anchor="middle" transform="translate(0,10)" font-family="sans-serif" font-size="13px" font-weight="bold" fill="#000" opacity="1">TOML parsers benchmark (dumps)</text></g><g class="mark-text role-title-subtitle" role="graphics-symbol" aria-roledescription="subtitle" aria-label="Subtitle text 'Python: 3.13.8 (Windows 10) | CPU: 11th Gen Intel(R) Core(TM) i5-11300H @ 3.10GHz'" pointer-events="none"><text text-anchor="middle" transform="translate(0,25)" font-family="sans-serif" font-size="12px" fill="#000" opacity="1">Python: 3.13.8 (Windows 10) | CPU: 11th Gen Intel(R) Core(TM) i5-11300H @ 3.10GHz</text></g></g><path class="foreground" aria-hidden="true" d="" pointer-events="none" display="none"/></g></g></g><path class="foreground" aria-hidden="true" d="" display="none"/></g></g></g><defs><clipPath id="clip8"><path d="M2.1395108706812493,0L87.86048912931875,0C89.04131732391598,0,90,0.9586826760840284,90,2.1395108706812493L90,4.279021741362499C90,4.279021741362499,90,4.279021741362499,90,4.279021741362499L0,4.279021741362499C0,4.279021741362499,0,4.279021741362499,0,4.279021741362499L0,2.1395108706812493C0,0.9586826760840284,0.9586826760840284,0,2.1395108706812493,0Z"/></clipPath><clipPath id="clip9"><path d="M3.2798148660712627,0L86.72018513392874,0C88.53036423607224,0,90,1.4696357639277564,90,3.2798148660712627L90,6.559629732142525C90,6.559629732142525,90,6.559629732142525,90,6.559629732142525L0,6.559629732142525C0,6.559629732142525,0,6.559629732142525,0,6.559629732142525L0,3.2798148660712627C0,1.4696357639277564,1.4696357639277564,0,3.2798148660712627,0Z"/></clipPath><clipPath id="clip10"><path d="M4.322325386012807,0L85.6776746139872,0C88.06323093527949,0,90,1.9367690647205107,90,4.322325386012807L90,8.644650772025614C90,8.644650772025614,90,8.644650772025614,90,8.644650772025614L0,8.644650772025614C0,8.644650772025614,0,8.644650772025614,0,8.644650772025614L0,4.322325386012807C0,1.9367690647205107,1.9367690647205107,0,4.322325386012807,0Z"/></clipPath><clipPath id="clip11"><path d="M6,0L84,0C87.311490146964,0,90,2.688509853036,90,6L90,18.40281273385324C90,18.40281273385324,90,18.40281273385324,90,18.40281273385324L0,18.40281273385324C0,18.40281273385324,0,18.40281273385324,0,18.40281273385324L0,6C0,2.688509853036,2.688509853036,0,6,0Z"/></clipPath><clipPath id="clip12"><path d="M6,0L84,0C87.311490146964,0,90,2.688509853036,90,6L90,47.482036622348005C90,47.482036622348005,90,47.482036622348005,90,47.482036622348005L0,47.482036622348005C0,47.482036622348005,0,47.482036622348005,0,47.482036622348005L0,6C0,2.688509853036,2.688509853036,0,6,0Z"/></clipPath><clipPath id="clip13"><path d="M6,0L84,0C87.311490146964,0,90,2.688509853036,90,6L90,363.63636363636357C90,363.63636363636357,90,363.63636363636357,90,363.63636363636357L0,363.63636363636357C0,363.63636363636357,0,363.63636363636357,0,363.63636363636357L0,6C0,2.688509853036,2.688509853036,0,6,0Z"/></clipPath></defs></svg>