<svg xmlns="http://www.w3.org/2000/svg" xmlns:xlink="http://www.w3.org/1999/xlink" version="1.1" class="marks" width="644" height="474" viewBox="0 0 644 474"><rect width="644" height="474" fill="white"/><g fill="none" stroke-miterlimit="10" transform="translate(39,37)"><g class="mark-group role-frame root" role="graphics-object" aria-roledescription="group mark container"><g transform="translate(0,0)"><path class="background" aria-hidden="true" d="M0.5,0.5h600v400h-600Z" stroke="#ddd"/><g><g class="mark-group role-axis" aria-hidden="true"><g transform="translate(0.5,0.5)"><path class="background" aria-hidden="true" d="M0,0h0v0h0Z" pointer-events="none"/><g><g class="mark-rule role-axis-grid" pointer-events="none"><line transform="translate(0,400)" x2="600" y2="0" stroke="#ddd" stroke-width="1" opacity="1"/><line transform="translate(0,364)" x2="600" y2="0" stroke="#ddd" stroke-width="1" opacity="1"/><line transform="translate(0,328)" x2="600" y2="0" stroke="#ddd" stroke-width="1" opacity="1"/><line transform="translate(0,292)" x2="600" y2="0" stroke="#ddd" stroke-width="1" opacity="1"/><line transform="translate(0,256)" x2="600" y2="0" stroke="#ddd" stroke-width="1" opacity="1"/><line transform="translate(0,220)" x2="600" y2="0" stroke="#ddd" stroke-width="1" opacity="1"/><line transform="translate(0,184)" x2="600" y2="0" stroke="#ddd" stroke-width="1" opacity="1"/><line transform="translate(0,148)" x2="600" y2="0" stroke="#ddd" stroke-width="1" opacity="1"/><line transform="translate(0,113)" x2="600" y2="0" stroke="#ddd" stroke-width="1" opacity="1"/><line transform="translate(0,77)" x2="600" y2="0" stroke="#ddd" stroke-width="1" opacity="1"/><line transform="translate(0,41)" x2="600" y2="0" stroke="#ddd" stroke-width="1" opacity="1"/><line transform="translate(0,5)" x2="600" y2="0" stroke="#ddd" stroke-width="1" opacity="1"/></g></g><path class="foreground" aria-hidden="true" d="" pointer-events="none" display="none"/></g></g><g class="mark-group role-axis" role="graphics-symbol" aria-roledescription="axis" aria-label="X-axis titled 'Libraries' for a discrete scale with 7 values: toml_rs (0.0.10), rtoml (0.13.0), pytomlpp (1.0.13), tomllib (built-in), toml (0.10.2), qtoml (0.3.1), tomlkit (0.13.3)"><g transform="translate(0.5,400.5)"><path class="background" aria-hidden="true" d="M0,0h0v0h0Z" pointer-events="none"/><g><g class="mark-rule role-axis-tick" pointer-events="none"><line transform="translate(42,0)" x2="0" y2="5" stroke="#888" stroke-width="1" opacity="1"/><line transform="translate(128,0)" x2="0" y2="5" stroke="#888" stroke-width="1" opacity="1"/><line transform="translate(214,0)" x2="0" y2="5" stroke="#888" stroke-width="1" opacity="1"/><line transform="translate(299,0)" x2="0" y2="5" stroke="#888" stroke-width="1" opacity="1"/><line transform="translate(385,0)" x2="0" y2="5" stroke="#888" stroke-width="1" opacity="1"/><line transform="translate(471,0)" x2="0" y2="5" stroke="#888" stroke-width="1" opacity="1"/><line transform="translate(557,0)" x2="0" y2="5" stroke="#888" stroke-width="1" opacity="1"/></g><g class="mark-text role-axis-label" pointer-events="none"><text text-anchor="middle" transform="translate(42.35714285714285,15)" font-family="sans-serif" font-size="10px" fill="#000" opacity="1">toml_rs (0.0.10)</text><text text-anchor="middle" transform="translate(128.07142857142856,15)" font-family="sans-serif" font-size="10px" fill="#000" opacity="1">rtoml (0.13.0)</text><text text-anchor="middle" transform="translate(213.78571428571428,15)" font-family="sans-serif" font-size="10px" fill="#000" opacity="1">pytomlpp (1.0.13)</text><text text-anchor="middle" transform="translate(299.49999999999994,15)" font-family="sans-serif" font-size="10px" fill="#000" opacity="1">tomllib (built-in)</text><text text-anchor="middle" transform="translate(385.21428571428567,15)" font-family="sans-serif" font-size="10px" fill="#000" opacity="1">toml (0.10.2)</text><text text-anchor="middle" transform="translate(470.9285714285714,15)" font-family="sans-serif" font-size="10px" fill="#000" opacity="1">qtoml (0.3.1)</text><text text-anchor="middle" transform="translate(556.642857142857,15)" font-family="sans-serif" font-size="10px" fill="#000" opacity="1">tomlkit (0.13.3)</text></g><g class="mark-rule role-axis-domain" pointer-events="none"><line transform="translate(0,0)" x2="600" y2="0" stroke="#888" stroke-width="1" opacity="1"/></g><g class="mark-text role-axis-title" pointer-events="none"><text text-anchor="middle" transform="translate(300,30)" font-family="sans-serif" font-size="11px" font-weight="bold" fill="#000" opacity="1">Libraries</text></g></g><path class="foreground" aria-hidden="true" d="" pointer-events="none" display="none"/></g></g><g class="mark-group role-axis" role="graphics-symbol" aria-roledescription="axis" aria-label="Y-axis titled 'Execution Time (seconds, lower=better)' for a linear scale with values from 0 to 56"><g transform="translate(0.5,0.5)"><path class="background" aria-hidden="true" d="M0,0h0v0h0Z" pointer-events="none"/><g><g class="mark-rule role-axis-tick" pointer-events="none"><line transform="translate(0,400)" x2="-5" y2="0" stroke="#888" stroke-width="1" opacity="1"/><line transform="translate(0,364)" x2="-5" y2="0" stroke="#888" stroke-width="1" opacity="1"/><line transform="translate(0,328)" x2="-5" y2="0" stroke="#888" stroke-width="1" opacity="1"/><line transform="translate(0,292)" x2="-5" y2="0" stroke="#888" stroke-width="1" opacity="1"/><line transform="translate(0,256)" x2="-5" y2="0" stroke="#888" stroke-width="1" opacity="1"/><line transform="translate(0,220)" x2="-5" y2="0" stroke="#888" stroke-width="1" opacity="1"/><line transform="translate(0,184)" x2="-5" y2="0" stroke="#888" stroke-width="1" opacity="1"/><line transform="translate(0,148)" x2="-5" y2="0" stroke="#888" stroke-width="1" opacity="1"/><line transform="translate(0,113)" x2="-5" y2="0" stroke="#888" stroke-width="1" opacity="1"/><line transform="translate(0,77)" x2="-5" y2="0" stroke="#888" stroke-width="1" opacity="1"/><line transform="translate(0,41)" x2="-5" y2="0" stroke="#888" stroke-width="1" opacity="1"/><line transform="translate(0,5)" x2="-5" y2="0" stroke="#888" stroke-width="1" opacity="1"/></g><g class="mark-text role-axis-label" pointer-events="none"><text text-anchor="end" transform="translate(-7,403)" font-family="sans-serif" font-size="10px" fill="#000" opacity="1">0</text><text text-anchor="end" transform="translate(-7,367.0663088850729)" font-family="sans-serif" font-size="10px" fill="#000" opacity="1">5</text><text text-anchor="end" transform="translate(-7,331.13261777014577)" font-family="sans-serif" font-size="10px" fill="#000" opacity="1">10</text><text text-anchor="end" transform="translate(-7,295.19892665521866)" font-family="sans-serif" font-size="10px" fill="#000" opacity="1">15</text><text text-anchor="end" transform="translate(-7,259.2652355402916)" font-family="sans-serif" font-size="10px" fill="#000" opacity="1">20</text><text text-anchor="end" transform="translate(-7,223.33154442536446)" font-family="sans-serif" font-size="10px" fill="#000" opacity="1">25</text><text text-anchor="end" transform="translate(-7,187.39785331043734)" font-family="sans-serif" font-size="10px" fill="#000" opacity="1">30</text><text text-anchor="end" transform="translate(-7,151.46416219551026)" font-family="sans-serif" font-size="10px" fill="#000" opacity="1">35</text><text text-anchor="end" transform="translate(-7,115.53047108058314)" font-family="sans-serif" font-size="10px" fill="#000" opacity="1">40</text><text text-anchor="end" transform="translate(-7,79.59677996565604)" font-family="sans-serif" font-size="10px" fill="#000" opacity="1">45</text><text text-anchor="end" transform="translate(-7,43.66308885072893)" font-family="sans-serif" font-size="10px" fill="#000" opacity="1">50</text><text text-anchor="end" transform="translate(-7,7.729397735801832)" font-family="sans-serif" font-size="10px" fill="#000" opacity="1">55</text></g><g class="mark-rule role-axis-domain" pointer-events="none"><line transform="translate(0,400)" x2="0" y2="-400" stroke="#888" stroke-width="1" opacity="1"/></g><g class="mark-text role-axis-title" pointer-events="none"><text text-anchor="middle" transform="translate(-22.123046875,200) rotate(-90) translate(0,-2)" font-family="sans-serif" font-size="11px" font-weight="bold" fill="#000" opacity="1">Execution Time (seconds, lower=better)</text></g></g><path class="foreground" aria-hidden="true" d="" pointer-events="none" display="none"/></g></g><g class="mark-group role-scope" role="graphics-object" aria-roledescription="group mark container"><g transform="translate(4.285714285714278,397.5097643027637)"><path class="background" aria-hidden="true" d="M1.2451178486181504,0L75.89773929423899,0C76.58493854215699,0,77.14285714285714,0.5579186007001474,77.14285714285714,1.2451178486181504L77.14285714285714,2.490235697236301C77.14285714285714,2.490235697236301,77.14285714285714,2.490235697236301,77.14285714285714,2.490235697236301L0,2.490235697236301C0,2.490235697236301,0,2.490235697236301,0,2.490235697236301L0,1.2451178486181504C0,0.5579186007001474,0.5579186007001474,0,1.2451178486181504,0Z"/><g clip-path="url(#clip1)"><g class="mark-group role-scope" role="graphics-object" aria-roledescription="group mark container"><g transform="translate(0,-397.5097643027637)"><path class="background" aria-hidden="true" d="M0,0h77.14285714285714v0h-77.14285714285714Z"/><g><g class="mark-rect role-mark layer_0_marks" role="graphics-object" aria-roledescription="rect mark container"><path aria-label="Libraries: toml_rs (0.0.10); Execution Time (seconds, lower=better): 0.3465043; parser: toml_rs (0.0.10); Execution Time (s): 0.3465; Slowdown: 1.00" role="graphics-symbol" aria-roledescription="bar" d="M0,397.5097643027637h77.14285714285714v2.490235697236301h-77.14285714285714Z" fill="#66a61e"/></g></g><path class="foreground" aria-hidden="true" d="" display="none"/></g></g></g><path class="foreground" aria-hidden="true" d="" display="none"/></g><g transform="translate(89.99999999999999,395.6383966007486)"><path class="background" aria-hidden="true" d="M2.180801699625704,0L74.96205544323143,0C76.1656726666969,0,77.14285714285714,0.9771844761602267,77.14285714285714,2.180801699625704L77.14285714285714,4.361603399251408C77.14285714285714,4.361603399251408,77.14285714285714,4.361603399251408,77.14285714285714,4.361603399251408L0,4.361603399251408C0,4.361603399251408,0,4.361603399251408,0,4.361603399251408L0,2.180801699625704C0,0.9771844761602267,0.9771844761602267,0,2.180801699625704,0Z"/><g clip-path="url(#clip2)"><g class="mark-group role-scope" role="graphics-object" aria-roledescription="group mark container"><g transform="translate(0,-395.6383966007486)"><path class="background" aria-hidden="true" d="M0,0h77.14285714285714v0h-77.14285714285714Z"/><g><g class="mark-rect role-mark layer_0_marks" role="graphics-object" aria-roledescription="rect mark container"><path aria-label="Libraries: rtoml (0.13.0); Execution Time (seconds, lower=better): 0.6068961; parser: rtoml (0.13.0); Execution Time (s): 0.6069; Slowdown: 1.75" role="graphics-symbol" aria-roledescription="bar" d="M0,395.6383966007486h77.14285714285714v4.361603399251408h-77.14285714285714Z" fill="#7570b3"/></g></g><path class="foreground" aria-hidden="true" d="" display="none"/></g></g></g><path class="foreground" aria-hidden="true" d="" display="none"/></g><g transform="translate(175.7142857142857,394.3140575400066)"><path class="background" aria-hidden="true" d="M2.8429712299966923,0L74.29988591286045,0C75.8689644488998,0,77.14285714285714,1.2738926939573305,77.14285714285714,2.8429712299966923L77.14285714285714,5.6859424599933845C77.14285714285714,5.6859424599933845,77.14285714285714,5.6859424599933845,77.14285714285714,5.6859424599933845L0,5.6859424599933845C0,5.6859424599933845,0,5.6859424599933845,0,5.6859424599933845L0,2.8429712299966923C0,1.2738926939573305,1.2738926939573305,0,2.8429712299966923,0Z"/><g clip-path="url(#clip3)"><g class="mark-group role-scope" role="graphics-object" aria-roledescription="group mark container"><g transform="translate(0,-394.3140575400066)"><path class="background" aria-hidden="true" d="M0,0h77.14285714285714v0h-77.14285714285714Z"/><g><g class="mark-rect role-mark layer_0_marks" role="graphics-object" aria-roledescription="rect mark container"><path aria-label="Libraries: pytomlpp (1.0.13); Execution Time (seconds, lower=better): 0.791171500001; parser: pytomlpp (1.0.13); Execution Time (s): 0.7912; Slowdown: 2.28" role="graphics-symbol" aria-roledescription="bar" d="M0,394.3140575400066h77.14285714285714v5.6859424599933845h-77.14285714285714Z" fill="#1b9e77"/></g></g><path class="foreground" aria-hidden="true" d="" display="none"/></g></g></g><path class="foreground" aria-hidden="true" d="" display="none"/></g><g transform="translate(261.4285714285714,378.30503614537974)"><path class="background" aria-hidden="true" d="M6,0L71.14285714285714,0C74.45434728982114,0,77.14285714285714,2.688509853036,77.14285714285714,6L77.14285714285714,21.694963854620255C77.14285714285714,21.694963854620255,77.14285714285714,21.694963854620255,77.14285714285714,21.694963854620255L0,21.694963854620255C0,21.694963854620255,0,21.694963854620255,0,21.694963854620255L0,6C0,2.688509853036,2.688509853036,0,6,0Z"/><g clip-path="url(#clip4)"><g class="mark-group role-scope" role="graphics-object" aria-roledescription="group mark container"><g transform="translate(0,-378.30503614537974)"><path class="background" aria-hidden="true" d="M0,0h77.14285714285714v0h-77.14285714285714Z"/><g><g class="mark-rect role-mark layer_0_marks" role="graphics-object" aria-roledescription="rect mark container"><path aria-label="Libraries: tomllib (built-in); Execution Time (seconds, lower=better): 3.0187497; parser: tomllib (built-in); Execution Time (s): 3.0187; Slowdown: 8.71" role="graphics-symbol" aria-roledescription="bar" d="M0,378.30503614537974h77.14285714285714v21.694963854620255h-77.14285714285714Z" fill="#a6761d"/></g></g><path class="foreground" aria-hidden="true" d="" display="none"/></g></g></g><path class="foreground" aria-hidden="true" d="" display="none"/></g><g transform="translate(347.1428571428571,348.4908526273295)"><path class="background" aria-hidden="true" d="M6,0L71.14285714285714,0C74.45434728982114,0,77.14285714285714,2.688509853036,77.14285714285714,6L77.14285714285714,51.5091473726705C77.14285714285714,51.5091473726705,77.14285714285714,51.5091473726705,77.14285714285714,51.5091473726705L0,51.5091473726705C0,51.5091473726705,0,51.5091473726705,0,51.5091473726705L0,6C0,2.688509853036,2.688509853036,0,6,0Z"/><g clip-path="url(#clip5)"><g class="mark-group role-scope" role="graphics-object" aria-roledescription="group mark container"><g transform="translate(0,-348.4908526273295)"><path class="background" aria-hidden="true" d="M0,0h77.14285714285714v0h-77.14285714285714Z"/><g><g class="mark-rect role-mark layer_0_marks" role="graphics-object" aria-roledescription="rect mark container"><path aria-label="Libraries: toml (0.10.2); Execution Time (seconds, lower=better): 7.1672497; parser: toml (0.10.2); Execution Time (s): 7.1672; Slowdown: 20.68" role="graphics-symbol" aria-roledescription="bar" d="M0,348.4908526273295h77.14285714285714v51.5091473726705h-77.14285714285714Z" fill="#e7298a"/></g></g><path class="foreground" aria-hidden="true" d="" display="none"/></g></g></g><path class="foreground" aria-hidden="true" d="" display="none"/></g><g transform="translate(432.85714285714283,346.5066387617458)"><path class="background" aria-hidden="true" d="M6,0L71.14285714285714,0C74.45434728982114,0,77.14285714285714,2.688509853036,77.14285714285714,6L77.14285714285714,53.49336123825418C77.14285714285714,53.49336123825418,77.14285714285714,53.49336123825418,77.14285714285714,53.49336123825418L0,53.49336123825418C0,53.49336123825418,0,53.49336123825418,0,53.49336123825418L0,6C0,2.688509853036,2.688509853036,0,6,0Z"/><g clip-path="url(#clip6)"><g class="mark-group role-scope" role="graphics-object" aria-roledescription="group mark container"><g transform="translate(0,-346.5066387617458)"><path class="background" aria-hidden="true" d="M0,0h77.14285714285714v0h-77.14285714285714Z"/><g><g class="mark-rect role-mark layer_0_marks" role="graphics-object" aria-roledescription="rect mark container"><path aria-label="Libraries: qtoml (0.3.1); Execution Time (seconds, lower=better): 7.4433435; parser: qtoml (0.3.1); Execution Time (s): 7.4433; Slowdown: 21.48" role="graphics-symbol" aria-roledescription="bar" d="M0,346.5066387617458h77.14285714285714v53.49336123825418h-77.14285714285714Z" fill="#d95f02"/></g></g><path class="foreground" aria-hidden="true" d="" display="none"/></g></g></g><path class="foreground" aria-hidden="true" d="" display="none"/></g><g transform="translate(518.5714285714284,36.36363636363642)"><path class="background" aria-hidden="true" d="M6,0L71.14285714285714,0C74.45434728982114,0,77.14285714285714,2.688509853036,77.14285714285714,6L77.14285714285714,363.63636363636357C77.14285714285714,363.63636363636357,77.14285714285714,363.63636363636357,77.14285714285714,363.63636363636357L0,363.63636363636357C0,363.63636363636357,0,363.63636363636357,0,363.63636363636357L0,6C0,2.688509853036,2.688509853036,0,6,0Z"/><g clip-path="url(#clip7)"><g class="mark-group role-scope" role="graphics-object" aria-roledescription="group mark container"><g transform="translate(0,-36.36363636363642)"><path class="background" aria-hidden="true" d="M0,0h77.14285714285714v0h-77.14285714285714Z"/><g><g class="mark-rect role-mark layer_0_marks" role="graphics-object" aria-roledescription="rect mark container"><path aria-label="Libraries: tomlkit (0.13.3); Execution Time (seconds, lower=better): 50.5982481; parser: tomlkit (0.13.3); Execution Time (s): 50.5982; Slowdown: 146.02" role="graphics-symbol" aria-roledescription="bar" d="M0,36.36363636363642h77.14285714285714v363.63636363636357h-77.14285714285714Z" fill="#e6ab02"/></g></g><path class="foreground" aria-hidden="true" d="" display="none"/></g></g></g><path class="foreground" aria-hidden="true" d="" display="none"/></g></g><g class="mark-text role-mark layer_1_marks" role="graphics-object" aria-roledescription="text mark container"><text aria-label="Libraries: toml_rs (0.0.10); Execution Time (seconds, lower=better): 0.3465043; parser: toml_rs (0.0.10); label: 0.3465s (x1.00); Execution Time (s): 0.3465; Slowdown: 1.00" role="graphics-symbol" aria-roledescription="text mark" text-anchor="middle" transform="translate(42.85714285714285,393.5097643027637)" font-family="sans-serif" font-size="9px" font-weight="bold" fill="#66a61e">0.3465s (x1.00)</text><text aria-label="Libraries: rtoml (0.13.0); Execution Time (seconds, lower=better): 0.6068961; parser: rtoml (0.13.0); label: 0.6069s (x1.75); Execution Time (s): 0.6069; Slowdown: 1.75" role="graphics-symbol" aria-roledescription="text mark" text-anchor="middle" transform="translate(128.57142857142856,391.6383966007486)" font-family="sans-serif" font-size="9px" font-weight="bold" fill="#7570b3">0.6069s (x1.75)</text><text aria-label="Libraries: pytomlpp (1.0.13); Execution Time (seconds, lower=better): 0.791171500001; parser: pytomlpp (1.0.13); label: 0.7912s (x2.28); Execution Time (s): 0.7912; Slowdown: 2.28" role="graphics-symbol" aria-roledescription="text mark" text-anchor="middle" transform="translate(214.28571428571428,390.3140575400066)" font-family="sans-serif" font-size="9px" font-weight="bold" fill="#1b9e77">0.7912s (x2.28)</text><text aria-label="Libraries: tomllib (built-in); Execution Time (seconds, lower=better): 3.0187497; parser: tomllib (built-in); label: 3.0187s (x8.71); Execution Time (s): 3.0187; Slowdown: 8.71" role="graphics-symbol" aria-roledescription="text mark" text-anchor="middle" transform="translate(299.99999999999994,374.30503614537974)" font-family="sans-serif" font-size="9px" font-weight="bold" fill="#a6761d">3.0187s (x8.71)</text><text aria-label="Libraries: toml (0.10.2); Execution Time (seconds, lower=better): 7.1672497; parser: toml (0.10.2); label: 7.1672s (x20.68); Execution Time (s): 7.1672; Slowdown: 20.68" role="graphics-symbol" aria-roledescription="text mark" text-anchor="middle" transform="translate(385.71428571428567,344.4908526273295)" font-family="sans-serif" font-size="9px" font-weight="bold" fill="#e7298a">7.1672s (x20.68)</text><text aria-label="Libraries: qtoml (0.3.1); Execution Time (seconds, lower=better): 7.4433435; parser: qtoml (0.3.1); label: 7.4433s (x21.48); Execution Time (s): 7.4433; Slowdown: 21.48" role="graphics-symbol" aria-roledescription="text mark" text-anchor="middle" transform="translate(471.4285714285714,342.5066387617458)" font-family="sans-serif" font-size="9px" font-weight="bold" fill="#d95f02">7.4433s (x21.48)</text><text aria-label="Libraries: tomlkit (0.13.3); Execution Time (seconds, lower=better): 50.5982481; parser: tomlkit (0.13.3); label: 50.5982s (x146.02); Execution Time (s): 50.5982; Slowdown: 146.02" role="graphics-symbol" aria-roledescription="text mark" text-anchor="middle" transform="translate(557.142857142857,32.36363636363642)" font-family="sans-serif" font-size="9px" font-weight="bold" fill="#e6ab02">50.5982s (x146.02)</text></g><g class="mark-group role-title"><g transform="translate(300,-31.270602264198168)"><path class="background" aria-hidden="true" d="M0,0h0v0h0Z" pointer-events="none"/><g><g class="mark-text role-title-text" role="graphics-symbol" aria-roledescription="title" aria-label="Title text 'TOML parsers benchmark (loads)'" pointer-events="none"><text text-anchor="middle" transform="translate(0,10)" font-family="sans-serif" font-size="13px" font-weight="bold" fill="#000" opacity="1">TOML parsers benchmark (loads)</text></g><g class="mark-text role-title-subtitle" role="graphics-symbol" aria-roledescription="subtitle" aria-label="Subtitle text 'Python: 3.13.8 (Windows 10) | CPU: 11th Gen Intel(R) Core(TM) i5-11300H @ 3.10GHz'" pointer-events="none"><text text-anchor="middle" transform="translate(0,25)" font-family="sans-serif" font-size="12px" fill="#000" opacity="1">Python: 3.13.8 (Windows 10) | CPU: 11th Gen Intel(R) Core(TM) i5-11300H @ 3.10GHz</text></g></g><path class="foreground" aria-hidden="true" d="" pointer-events="none" display="none"/></g></g></g><path class="foreground" aria-hidden="true" d="" display="none"/></g></g></g><defs><clipPath id="clip1"><path d="M1.2451178486181504,0L75.89773929423899,0C76.58493854215699,0,77.14285714285714,0.5579186007001474,77.14285714285714,1.2451178486181504L77.14285714285714,2.490235697236301C77.14285714285714,2.490235697236301,77.14285714285714,2.490235697236301,77.14285714285714,2.490235697236301L0,2.490235697236301C0,2.490235697236301,0,2.490235697236301,0,2.490235697236301L0,1.2451178486181504C0,0.5579186007001474,0.5579186007001474,0,1.2451178486181504,0Z"/></clipPath><clipPath id="clip2"><path d="M2.180801699625704,0L74.96205544323143,0C76.1656726666969,0,77.14285714285714,0.9771844761602267,77.14285714285714,2.180801699625704L77.14285714285714,4.361603399251408C77.14285714285714,4.361603399251408,77.14285714285714,4.361603399251408,77.14285714285714,4.361603399251408L0,4.361603399251408C0,4.361603399251408,0,4.361603399251408,0,4.361603399251408L0,2.180801699625704C0,0.9771844761602267,0.9771844761602267,0,2.180801699625704,0Z"/></clipPath><clipPath id="clip3"><path d="M2.8429712299966923,0L74.29988591286045,0C75.8689644488998,0,77.14285714285714,1.2738926939573305,77.14285714285714,2.8429712299966923L77.14285714285714,5.6859424599933845C77.14285714285714,5.6859424599933845,77.14285714285714,5.6859424599933845,77.14285714285714,5.6859424599933845L0,5.6859424599933845C0,5.6859424599933845,0,5.6859424599933845,0,5.6859424599933845L0,2.8429712299966923C0,1.2738926939573305,1.2738926939573305,0,2.8429712299966923,0Z"/></clipPath><clipPath id="clip4"><path d="M6,0L71.14285714285714,0C74.45434728982114,0,77.14285714285714,2.688509853036,77.14285714285714,6L77.14285714285714,21.694963854620255C77.14285714285714,21.694963854620255,77.14285714285714,21.694963854620255,77.14285714285714,21.694963854620255L0,21.694963854620255C0,21.694963854620255,0,21.694963854620255,0,21.694963854620255L0,6C0,2.688509853036,2.688509853036,0,6,0Z"/></clipPath><clipPath id="clip5"><path d="M6,0L71.14285714285714,0C74.45434728982114,0,77.14285714285714,2.688509853036,77.14285714285714,6L77.14285714285714,51.5091473726705C77.14285714285714,51.5091473726705,77.14285714285714,51.5091473726705,77.14285714285714,51.5091473726705L0,51.5091473726705C0,51.5091473726705,0,51.5091473726705,0,51.5091473726705L0,6C0,2.688509853036,2.688509853036,0,6,0Z"/></clipPath><clipPath id="clip6"><path d="M6,0L71.14285714285714,0C74.45434728982114,0,77.14285714285714,2.688509853036,77.14285714285714,6L77.14285714285714,53.49336123825418C77.14285714285714,53.49336123825418,77.14285714285714,53.49336123825418,77.14285714285714,53.49336123825418L0,53.49336123825418C0,53.49336123825418,0,53.49336123825418,0,53.49336123825418L0,6C0,2.688509853036,2.688509853036,0,6,0Z"/></clipPath><clipPath id="clip7"><path d="M6,0L71.14285714285714,0C74.45434728982114,0,77.14285714285714,2.688509853036,77.14285714285714,6L77.14285714285714,363.63636363636357C77.14285714285714,363.63636363636357,77.14285714285714,363.63636363636357,77.14285714285714,363.63636363636357L0,363.63636363636357C0,363.63636363636357,0,363.63636363636357,0,363.63636363636357L0,6C0,2.688509853036,2.688509853036,0,6,0Z"/></clipPath></defs></svg>