<svg width="128" height="128" viewBox="0 0 128 128" xmlns="http://www.w3.org/2000/svg">
  <!-- 
    Icon: Insert Appendix
    Description: A document with a plus sign, in the Microsoft Fluent UI style.
    Represents adding a full document as an appendix.
  -->
  <defs>
    <linearGradient id="fluent-blue-gradient" x1="0%" y1="0%" x2="0%" y2="100%">
      <stop offset="0%" style="stop-color:#4A89E8;stop-opacity:1" />
      <stop offset="100%" style="stop-color:#2863B8;stop-opacity:1" />
    </linearGradient>
  </defs>
  
  <g>
    <!-- Main document shape -->
    <path d="M36,18 C33.79,18 32,19.79 32,22 L32,106 C32,108.21 33.79,110 36,110 L92,110 C94.21,110 96,108.21 96,106 L96,40 L74,18 L36,18 Z" fill="url(#fluent-blue-gradient)" />
    
    <!-- Page fold -->
    <path d="M96,40 L74,40 C72.9,40 72,39.1 72,38 L72,18 L74,18 L96,40 Z" fill="#2863B8" opacity="0.5"/>

    <!-- Plus Symbol -->
    <rect x="56" y="62" width="16" height="32" rx="2" fill="white"/>
    <rect x="48" y="70" width="32" height="16" rx="2" fill="white"/>
  </g>
</svg>
