<svg width="128" height="128" viewBox="0 0 128 128" xmlns="http://www.w3.org/2000/svg">
  <!-- 
    Icon: Insert Image
    Description: A document with an image/photo symbol, in the Microsoft Fluent UI style.
    Represents inserting a PDF page rendered as a raster image.
  -->
  <defs>
    <linearGradient id="fluent-purple-gradient" x1="0%" y1="0%" x2="0%" y2="100%">
      <stop offset="0%" style="stop-color:#9C27B0;stop-opacity:1" />
      <stop offset="100%" style="stop-color:#7B1FA2;stop-opacity:1" />
    </linearGradient>
  </defs>
  
  <g>
    <!-- Main document shape -->
    <path d="M36,18 C33.79,18 32,19.79 32,22 L32,106 C32,108.21 33.79,110 36,110 L92,110 C94.21,110 96,108.21 96,106 L96,40 L74,18 L36,18 Z" fill="url(#fluent-purple-gradient)" />
    
    <!-- Page fold -->
    <path d="M96,40 L74,40 C72.9,40 72,39.1 72,38 L72,18 L74,18 L96,40 Z" fill="#7B1FA2" opacity="0.5"/>

    <!-- Image frame rectangle -->
    <rect x="46" y="54" width="36" height="40" rx="2" fill="none" stroke="white" stroke-width="2.5"/>
    
    <!-- Sun/moon circle (top left of image) -->
    <circle cx="56" cy="66" r="4.5" fill="white"/>
    
    <!-- Mountain/landscape shapes -->
    <path d="M50 86 L56 78 L62 84 L68 76 L78 86 Z" fill="white"/>
    <path d="M46 90 L54 80 L62 88 L70 78 L82 90 Z" fill="white" opacity="0.7"/>
  </g>
</svg>
