<svg width="460" height="460" viewBox="0 0 460 460" fill="none" xmlns="http://www.w3.org/2000/svg">
<g clip-path="url(#clip0_271_3)">
<mask id="mask0_271_3" style="mask-type:alpha" maskUnits="userSpaceOnUse" x="20" y="20" width="420" height="420">
<circle cx="230" cy="230" r="210" fill="#D9D9D9"/>
</mask>
<g mask="url(#mask0_271_3)">
<path d="M23.76 382.175V123.875H90.549L120.069 203.579L148.851 123.875H215.64V382.175H162.135V213.911L119.331 319.814L76.896 213.911L76.527 382.175H23.76ZM312.912 329.039H326.565C336.405 329.039 345.261 326.21 353.133 320.552C361.005 314.894 367.278 306.53 371.952 295.46C376.626 284.144 378.963 269.999 378.963 253.025C378.963 236.051 376.626 222.029 371.952 210.959C367.278 199.643 361.005 191.156 353.133 185.498C345.261 179.84 336.405 177.011 326.565 177.011H312.912V329.039ZM249.444 382.175V123.875H331.362C352.272 123.875 371.091 129.041 387.819 139.373C404.547 149.459 417.831 164.219 427.671 183.653C437.757 202.841 442.8 225.965 442.8 253.025C442.8 280.085 437.757 303.332 427.671 322.766C417.831 341.954 404.547 356.714 387.819 367.046C371.091 377.132 352.272 382.175 331.362 382.175H249.444Z" fill="#1B303D"/>
<rect x="198" y="128.175" width="70" height="254" fill="#1B303D"/>
<circle cx="230.538" cy="165.073" r="11.2589" stroke="#1B303D" stroke-width="7"/>
<path d="M235.927 166.963V168.272C236.743 167.954 238.393 168.685 239.427 170.488V170.543C239.427 170.597 239.426 170.707 239.425 170.925C239.421 171.36 239.415 172.232 239.402 173.975C239.376 177.462 239.324 184.437 239.22 198.385L237.769 393.66L237.768 393.659C237.76 395.632 236.758 397.395 235.669 398.565C234.554 399.762 232.743 400.983 230.479 400.983C228.213 400.983 226.404 399.76 225.292 398.563C224.198 397.386 223.203 395.623 223.188 393.66L221.737 198.385C221.736 198.276 221.736 198.167 221.735 198.059C221.734 197.951 221.733 197.843 221.732 197.736C221.731 197.629 221.731 197.522 221.73 197.416C221.729 197.309 221.729 197.203 221.728 197.097C221.727 196.992 221.726 196.887 221.725 196.782C221.725 196.677 221.724 196.573 221.723 196.469C221.723 196.366 221.721 196.262 221.72 196.159C221.72 196.056 221.719 195.953 221.719 195.85C221.718 195.748 221.717 195.646 221.717 195.545C221.716 195.443 221.714 195.342 221.714 195.242C221.713 195.141 221.712 195.041 221.712 194.941C221.711 194.841 221.71 194.742 221.71 194.643C221.709 194.544 221.708 194.446 221.708 194.347C221.707 194.249 221.706 194.152 221.705 194.054C221.704 193.957 221.704 193.86 221.703 193.763C221.702 193.667 221.702 193.57 221.701 193.474C221.7 193.379 221.7 193.283 221.699 193.188C221.698 193.093 221.698 192.999 221.697 192.905C221.696 192.811 221.696 192.717 221.695 192.624C221.694 192.53 221.693 192.437 221.692 192.344C221.691 192.252 221.691 192.16 221.69 192.068C221.69 191.976 221.689 191.885 221.688 191.794C221.688 191.703 221.687 191.612 221.686 191.521C221.686 191.431 221.685 191.341 221.684 191.252C221.684 191.162 221.683 191.073 221.682 190.984C221.682 190.896 221.681 190.807 221.68 190.719C221.68 190.632 221.679 190.544 221.678 190.457C221.678 190.37 221.677 190.282 221.677 190.196C221.676 190.11 221.675 190.024 221.675 189.938C221.674 189.853 221.673 189.767 221.673 189.682C221.672 189.597 221.671 189.513 221.671 189.428C221.67 189.344 221.669 189.261 221.669 189.177C221.668 189.094 221.667 189.01 221.667 188.927C221.666 188.845 221.666 188.762 221.666 188.68C221.665 188.599 221.664 188.517 221.664 188.436C221.663 188.355 221.662 188.274 221.662 188.194C221.661 188.114 221.661 188.033 221.66 187.953C221.659 187.873 221.659 187.794 221.658 187.716C221.657 187.637 221.657 187.558 221.656 187.479C221.655 187.401 221.656 187.323 221.655 187.246C221.654 187.168 221.654 187.09 221.653 187.013C221.653 186.937 221.652 186.86 221.651 186.784C221.651 186.708 221.65 186.632 221.649 186.556C221.649 186.481 221.649 186.406 221.648 186.332C221.646 186.03 221.647 186.186 221.644 185.887C221.644 185.814 221.644 185.741 221.643 185.669C221.643 185.596 221.642 185.524 221.641 185.452C221.641 185.38 221.64 185.308 221.639 185.237C221.639 185.166 221.639 185.095 221.638 185.024C221.638 184.954 221.637 184.883 221.636 184.813C221.636 184.744 221.636 184.674 221.635 184.605C221.635 184.536 221.634 184.467 221.634 184.398C221.633 184.33 221.632 184.262 221.632 184.194C221.631 184.126 221.631 184.058 221.631 183.991C221.63 183.924 221.629 183.857 221.629 183.791C221.628 183.724 221.628 183.658 221.628 183.593C221.627 183.527 221.626 183.46 221.626 183.395C221.625 183.33 221.625 183.265 221.625 183.201C221.624 183.136 221.623 183.072 221.623 183.009C221.622 182.945 221.622 182.881 221.622 182.818C221.621 182.755 221.62 182.691 221.62 182.629C221.619 182.566 221.619 182.504 221.619 182.442C221.618 182.38 221.618 182.319 221.618 182.258C221.617 182.196 221.616 182.135 221.616 182.075C221.616 182.014 221.615 181.953 221.615 181.893C221.615 181.833 221.614 181.774 221.614 181.715C221.614 181.655 221.612 181.596 221.612 181.537C221.612 181.478 221.612 181.42 221.611 181.362C221.611 181.304 221.611 181.246 221.61 181.188C221.61 181.131 221.609 181.073 221.608 181.016C221.608 180.96 221.608 180.903 221.607 180.846C221.607 180.79 221.607 180.734 221.606 180.678C221.606 180.623 221.605 180.567 221.604 180.512C221.604 180.457 221.604 180.403 221.603 180.348C221.603 180.294 221.603 180.24 221.602 180.186C221.602 180.132 221.602 180.078 221.601 180.025C221.601 179.972 221.6 179.919 221.599 179.866C221.599 179.813 221.599 179.761 221.598 179.709C221.598 179.657 221.598 179.605 221.597 179.553C221.597 179.502 221.597 179.451 221.596 179.4C221.596 179.349 221.596 179.298 221.595 179.248C221.595 179.198 221.595 179.148 221.594 179.098C221.594 179.049 221.593 178.999 221.593 178.95C221.592 178.901 221.592 178.851 221.592 178.802C221.591 178.754 221.591 178.706 221.591 178.658C221.59 178.61 221.59 178.562 221.59 178.514C221.589 178.467 221.589 178.42 221.589 178.373C221.588 178.326 221.588 178.279 221.588 178.233C221.587 178.187 221.587 178.14 221.587 178.094C221.586 178.049 221.586 178.003 221.586 177.958C221.585 177.913 221.585 177.868 221.585 177.823C221.584 177.778 221.584 177.733 221.584 177.689L221.582 177.427C221.581 177.385 221.581 177.342 221.581 177.3C221.58 177.257 221.58 177.215 221.58 177.173C221.58 177.131 221.579 177.088 221.579 177.047C221.579 177.005 221.578 176.964 221.578 176.924C221.578 176.883 221.577 176.842 221.577 176.802C221.577 176.761 221.576 176.72 221.576 176.68C221.576 176.641 221.575 176.601 221.575 176.561C221.575 176.522 221.574 176.483 221.574 176.444C221.574 176.405 221.574 176.366 221.574 176.328C221.574 176.29 221.573 176.251 221.573 176.214C221.573 176.176 221.572 176.138 221.572 176.1C221.572 176.063 221.571 176.026 221.571 175.989C221.571 175.952 221.57 175.915 221.57 175.879C221.57 175.842 221.569 175.806 221.569 175.77C221.569 175.735 221.568 175.699 221.568 175.664C221.568 175.628 221.568 175.592 221.568 175.557C221.568 175.523 221.567 175.488 221.567 175.454C221.567 175.42 221.566 175.385 221.566 175.351C221.566 175.317 221.565 175.283 221.565 175.25C221.565 175.216 221.565 175.183 221.565 175.15C221.565 175.117 221.564 175.084 221.564 175.052C221.564 175.019 221.563 174.986 221.563 174.954C221.563 174.922 221.562 174.89 221.562 174.858C221.562 174.827 221.562 174.795 221.562 174.764C221.562 174.733 221.562 174.702 221.561 174.672C221.561 174.641 221.561 174.61 221.56 174.58C221.56 174.55 221.561 174.519 221.56 174.489C221.56 174.459 221.56 174.429 221.559 174.4C221.559 174.371 221.559 174.342 221.558 174.313C221.558 174.284 221.559 174.255 221.558 174.226C221.558 174.198 221.558 174.169 221.557 174.141C221.557 174.113 221.557 174.086 221.556 174.058C221.556 174.031 221.557 174.003 221.556 173.975C221.556 173.948 221.556 173.921 221.555 173.894C221.555 173.868 221.555 173.841 221.554 173.815C221.554 173.789 221.555 173.762 221.554 173.736C221.554 173.71 221.554 173.684 221.553 173.659C221.553 173.633 221.554 173.608 221.553 173.583C221.553 173.558 221.553 173.532 221.552 173.508C221.552 173.483 221.553 173.459 221.552 173.434C221.552 173.41 221.552 173.386 221.552 173.362C221.551 173.338 221.551 173.314 221.551 173.291C221.55 173.267 221.551 173.244 221.551 173.22C221.55 173.197 221.55 173.175 221.55 173.152C221.549 173.129 221.55 173.106 221.55 173.084C221.549 173.061 221.549 173.039 221.549 173.017C221.548 172.995 221.549 172.973 221.549 172.952C221.548 172.93 221.548 172.909 221.548 172.887C221.547 172.866 221.548 172.846 221.548 172.825C221.547 172.804 221.547 172.783 221.547 172.762C221.546 172.742 221.547 172.722 221.547 172.702C221.546 172.682 221.546 172.662 221.546 172.642V172.525C221.546 172.506 221.545 172.488 221.545 172.469C221.545 172.451 221.545 172.432 221.545 172.414C221.545 172.396 221.544 172.377 221.544 172.359V172.254C221.544 172.236 221.543 172.219 221.543 172.202C221.543 172.185 221.543 172.168 221.543 172.151C221.543 172.135 221.542 172.118 221.542 172.102V172.007C221.542 171.991 221.541 171.975 221.541 171.96V171.87C221.541 171.855 221.54 171.84 221.54 171.826V171.742C221.54 171.728 221.539 171.714 221.539 171.701V171.622C221.539 171.609 221.538 171.596 221.538 171.584V171.474C221.538 171.463 221.537 171.451 221.537 171.439V171.34C221.537 171.329 221.536 171.319 221.536 171.308V171.219C221.536 171.209 221.535 171.2 221.535 171.19V171.084C221.535 171.075 221.534 171.067 221.534 171.059V170.945C221.534 170.938 221.533 170.931 221.533 170.925V170.813C221.533 170.808 221.532 170.802 221.532 170.797V170.684C221.532 170.68 221.531 170.676 221.531 170.673V170.543C221.531 170.541 221.53 170.539 221.53 170.538V170.489C222.546 168 225.026 166.967 225.03 170.44V166.963H235.927Z" stroke="#1B303D" stroke-width="7"/>
<circle cx="230.538" cy="165.073" r="11.2589" stroke="#1B303D" stroke-width="7"/>
<path d="M221.562 190.443V212.316H210.819C210.817 212.322 210.594 212.365 210.148 212.609C209.631 212.893 209.017 213.34 208.434 213.929C207.237 215.137 206.459 216.628 206.459 218.141C206.459 218.951 206.871 220.17 208.214 221.904C209.53 223.602 211.5 225.485 214.034 227.571C219.142 231.774 225.882 236.283 232.958 241.409C239.912 246.446 247.071 252.001 252.5 258.038C257.906 264.048 261.938 270.91 261.938 278.553C261.938 293.259 251.041 303.336 241.365 310.841C236.288 314.78 231.722 317.887 228.146 320.99C226.406 322.5 225.101 323.848 224.245 325.079C223.395 326.301 223.114 327.226 223.114 327.95C223.114 329.946 224.115 331.975 226.26 334.361C228.428 336.773 231.331 339.092 234.571 341.815C240.666 346.937 248.168 353.576 248.168 363.427C248.168 366.127 248.203 370.078 247.017 373.337C246.395 375.045 245.38 376.751 243.699 378.017C241.995 379.3 239.873 379.931 237.408 379.931H234.408V363.427C234.408 361.608 233.508 360.075 231.312 358.269C228.961 356.337 226.004 354.752 222.356 352.377C218.909 350.132 215.186 347.36 212.345 343.453C209.454 339.477 207.578 334.472 207.578 327.95C207.578 314.463 218.1 306.162 227.002 299.377C231.662 295.826 235.959 292.66 239.157 289.193C242.297 285.789 244.062 282.419 244.062 278.553C244.062 275.13 241.588 271.539 236.416 267.335C231.339 263.209 224.578 259.194 217.433 254.628C210.425 250.15 203.142 245.195 197.614 239.385C192.053 233.541 188.033 226.585 188.033 218.141C188.033 202.028 201.511 190.443 214.771 190.443H221.562Z" stroke="#1B303D" stroke-width="6"/>
<path d="M239.308 190.443V212.316H250.05C250.052 212.322 250.276 212.365 250.721 212.609C251.239 212.893 251.852 213.34 252.436 213.929C253.632 215.137 254.41 216.628 254.41 218.141C254.41 218.951 253.999 220.17 252.656 221.904C251.339 223.602 249.37 225.485 246.835 227.571C241.728 231.774 234.987 236.283 227.911 241.409C220.957 246.446 213.798 252.001 208.369 258.038C202.964 264.048 198.931 270.91 198.931 278.553C198.931 293.259 209.829 303.336 219.504 310.841C224.582 314.78 229.147 317.887 232.723 320.99C234.464 322.5 235.768 323.848 236.624 325.079C237.474 326.301 237.755 327.226 237.755 327.95C237.755 329.946 236.754 331.975 234.61 334.361C232.441 336.773 229.538 339.092 226.298 341.815C220.204 346.937 212.701 353.576 212.701 363.427C212.701 366.127 212.667 370.078 213.853 373.337C214.474 375.045 215.489 376.751 217.17 378.017C218.874 379.3 220.997 379.931 223.461 379.931H226.461V363.427C226.461 361.608 227.361 360.075 229.558 358.269C231.908 356.337 234.866 354.752 238.513 352.377C241.961 350.132 245.683 347.36 248.525 343.453C251.416 339.477 253.291 334.472 253.291 327.95C253.291 314.463 242.769 306.162 233.867 299.377C229.207 295.826 224.91 292.66 221.712 289.193C218.573 285.789 216.807 282.419 216.807 278.553C216.807 275.13 219.281 271.539 224.453 267.335C229.531 263.209 236.291 259.194 243.437 254.628C250.444 250.15 257.727 245.195 263.255 239.385C268.817 233.541 272.836 226.585 272.836 218.141C272.836 202.028 259.358 190.443 246.098 190.443H239.308Z" stroke="#1B303D" stroke-width="6"/>
<path d="M221.871 189.573H187.42C184.669 189.573 181.772 187.918 179.745 186.109C178.388 184.899 176.98 183.223 176.203 181.281H169.178C165.803 181.281 162.965 179.498 161.064 177.325C159.838 175.924 158.869 174.21 158.336 172.396H154.845C151.536 172.396 148.612 170.633 146.624 168.645C144.69 166.712 143.02 163.935 143.02 161.164V154.314H209.729V157.314C209.729 161.89 211.649 165.969 214.014 169.015C215.19 170.53 216.432 171.729 217.501 172.551C218.675 173.453 219.319 173.654 219.327 173.657L221.871 174.048V189.573Z" stroke="#1B303D" stroke-width="6"/>
<path d="M239.147 189.573H273.597C276.348 189.573 279.245 187.918 281.273 186.109C282.629 184.899 284.038 183.223 284.815 181.281H291.839C295.214 181.281 298.052 179.498 299.953 177.325C301.179 175.924 302.149 174.21 302.681 172.396H306.172C309.481 172.396 312.405 170.633 314.394 168.645C316.327 166.712 317.997 163.935 317.997 161.164V154.314H251.288V157.314C251.288 161.89 249.369 165.969 247.003 169.015C245.827 170.53 244.586 171.729 243.516 172.551C242.342 173.453 241.698 173.654 241.691 173.657L239.147 174.048V189.573Z" stroke="#1B303D" stroke-width="6"/>
<circle cx="230.538" cy="165.073" r="9.25886" stroke="#E9D985" stroke-width="3"/>
<path d="M234.417 171.963C234.413 172.448 234.408 173.09 234.402 173.938C234.376 177.425 234.324 184.4 234.22 198.347L232.769 393.623V393.634C232.769 393.968 232.545 394.583 232.01 395.158C231.483 395.724 230.905 395.983 230.479 395.983C230.055 395.983 229.48 395.725 228.954 395.159C228.42 394.585 228.191 393.966 228.188 393.623C228.185 393.187 228.182 392.751 228.178 392.317C228.175 391.883 228.172 391.45 228.169 391.017C228.165 390.585 228.162 390.153 228.159 389.722C228.156 389.292 228.153 388.861 228.15 388.432C228.147 388.003 228.144 387.575 228.14 387.148C228.137 386.721 228.134 386.294 228.131 385.868C228.127 385.442 228.124 385.017 228.121 384.594C228.118 384.17 228.115 383.746 228.112 383.324C228.109 382.902 228.105 382.48 228.102 382.059C228.099 381.639 228.097 381.219 228.094 380.8C228.09 380.381 228.087 379.962 228.084 379.545C228.081 379.128 228.078 378.711 228.075 378.296C228.072 377.88 228.068 377.465 228.065 377.051C228.062 376.637 228.059 376.224 228.056 375.811C228.053 375.399 228.05 374.988 228.047 374.577C228.044 374.166 228.041 373.756 228.038 373.347C228.035 372.938 228.032 372.53 228.029 372.123C228.026 371.715 228.022 371.308 228.019 370.902C228.016 370.496 228.013 370.091 228.01 369.687C228.007 369.283 228.005 368.88 228.002 368.478C227.999 368.076 227.996 367.674 227.993 367.273C227.99 366.872 227.987 366.472 227.984 366.073C227.981 365.674 227.977 365.275 227.974 364.878C227.971 364.48 227.969 364.083 227.966 363.687C227.963 363.291 227.96 362.896 227.957 362.502C227.954 362.107 227.951 361.714 227.948 361.321C227.945 360.928 227.942 360.536 227.939 360.145C227.936 359.754 227.933 359.364 227.93 358.974C227.928 358.585 227.925 358.196 227.923 357.808C227.92 357.421 227.917 357.033 227.914 356.647C227.911 356.261 227.908 355.875 227.905 355.49C227.902 355.105 227.899 354.722 227.896 354.339C227.893 353.956 227.89 353.573 227.887 353.192C227.885 352.811 227.882 352.429 227.88 352.05C227.877 351.67 227.874 351.29 227.871 350.912C227.868 350.534 227.866 350.157 227.863 349.78C227.86 349.403 227.857 349.027 227.854 348.652C227.851 348.277 227.848 347.903 227.845 347.529C227.843 347.155 227.84 346.782 227.838 346.41C227.835 346.038 227.832 345.667 227.829 345.297C227.826 344.926 227.824 344.556 227.821 344.187C227.818 343.819 227.816 343.451 227.813 343.084C227.811 342.717 227.807 342.35 227.804 341.984C227.802 341.619 227.799 341.253 227.797 340.889C227.794 340.525 227.792 340.161 227.789 339.799C227.786 339.436 227.783 339.075 227.78 338.714C227.777 338.353 227.775 337.992 227.772 337.633C227.77 337.273 227.767 336.914 227.764 336.556C227.762 336.198 227.759 335.841 227.757 335.484C227.754 335.128 227.751 334.772 227.749 334.418C227.746 334.063 227.744 333.709 227.741 333.355C227.738 333.002 227.735 332.649 227.732 332.298C227.73 331.946 227.727 331.594 227.724 331.244C227.722 330.894 227.72 330.544 227.718 330.195C227.715 329.846 227.712 329.498 227.71 329.151C227.707 328.804 227.704 328.458 227.702 328.112C227.699 327.766 227.697 327.421 227.694 327.077C227.692 326.733 227.689 326.389 227.686 326.047C227.684 325.704 227.681 325.361 227.678 325.02C227.676 324.679 227.673 324.338 227.671 323.999C227.668 323.659 227.666 323.32 227.664 322.982C227.661 322.644 227.659 322.306 227.656 321.969C227.651 321.347 227.646 320.576 227.641 319.959C227.639 319.625 227.636 319.292 227.634 318.96C227.631 318.628 227.628 318.296 227.626 317.966C227.623 317.635 227.621 317.305 227.619 316.975C227.616 316.646 227.614 316.318 227.611 315.99C227.609 315.662 227.607 315.335 227.604 315.009C227.602 314.682 227.6 314.357 227.597 314.032C227.595 313.707 227.592 313.383 227.59 313.059C227.587 312.736 227.585 312.413 227.583 312.092C227.58 311.77 227.577 311.448 227.575 311.128C227.573 310.807 227.57 310.488 227.568 310.169C227.566 309.85 227.564 309.531 227.561 309.214C227.559 308.896 227.557 308.579 227.554 308.263C227.552 307.947 227.549 307.632 227.547 307.317C227.544 307.003 227.542 306.689 227.54 306.376C227.537 306.063 227.535 305.75 227.533 305.438C227.531 305.127 227.528 304.816 227.526 304.506C227.524 304.195 227.522 303.886 227.519 303.577C227.517 303.268 227.515 302.959 227.512 302.652L227.506 301.732C227.503 301.426 227.501 301.121 227.499 300.816C227.497 300.512 227.494 300.207 227.492 299.904C227.49 299.601 227.487 299.299 227.485 298.997C227.483 298.695 227.481 298.394 227.478 298.094C227.476 297.793 227.474 297.494 227.471 297.195C227.469 296.896 227.468 296.598 227.466 296.301C227.463 296.003 227.461 295.706 227.459 295.41C227.457 295.114 227.454 294.818 227.452 294.523C227.45 294.229 227.447 293.935 227.445 293.641C227.443 293.348 227.441 293.055 227.439 292.763C227.437 292.472 227.435 292.181 227.432 291.89C227.43 291.6 227.428 291.309 227.426 291.02C227.423 290.731 227.422 290.443 227.42 290.155C227.418 289.867 227.415 289.58 227.413 289.294C227.411 289.008 227.409 288.722 227.407 288.437C227.405 288.152 227.402 287.867 227.4 287.584C227.398 287.3 227.396 287.017 227.394 286.735C227.392 286.453 227.39 286.171 227.387 285.89C227.385 285.61 227.384 285.33 227.382 285.051C227.38 284.771 227.378 284.492 227.376 284.214C227.374 283.936 227.371 283.658 227.369 283.382C227.367 283.105 227.365 282.828 227.363 282.552C227.361 282.277 227.359 282.002 227.357 281.728C227.355 281.454 227.352 281.181 227.35 280.908C227.348 280.635 227.346 280.364 227.344 280.093C227.342 279.821 227.341 279.55 227.339 279.28C227.337 279.01 227.335 278.74 227.333 278.471C227.331 278.203 227.329 277.935 227.327 277.668C227.325 277.4 227.323 277.134 227.321 276.868C227.319 276.602 227.317 276.336 227.315 276.071C227.313 275.806 227.311 275.542 227.309 275.279C227.307 275.016 227.305 274.753 227.303 274.491C227.302 274.229 227.3 273.967 227.298 273.707C227.296 273.446 227.294 273.186 227.292 272.927C227.29 272.667 227.288 272.408 227.286 272.15C227.284 271.892 227.282 271.634 227.28 271.378C227.278 271.121 227.276 270.865 227.274 270.609C227.272 270.354 227.27 270.099 227.268 269.844C227.266 269.591 227.264 269.337 227.262 269.085C227.261 268.832 227.259 268.579 227.258 268.328C227.256 268.076 227.254 267.825 227.252 267.575C227.25 267.325 227.248 267.075 227.246 266.826C227.244 266.577 227.243 266.328 227.241 266.081C227.239 265.833 227.237 265.586 227.235 265.34C227.233 265.093 227.231 264.847 227.229 264.601C227.227 264.356 227.226 264.112 227.224 263.868C227.223 263.624 227.22 263.381 227.219 263.138C227.217 262.896 227.215 262.653 227.214 262.412C227.212 262.171 227.21 261.93 227.208 261.69C227.206 261.45 227.205 261.21 227.203 260.971C227.201 260.733 227.199 260.494 227.197 260.257C227.195 260.019 227.194 259.783 227.192 259.547C227.19 259.31 227.189 259.074 227.187 258.839C227.184 258.366 227.18 257.904 227.177 257.436C227.175 257.204 227.173 256.971 227.172 256.74C227.17 256.509 227.167 256.278 227.166 256.048C227.164 255.818 227.163 255.589 227.161 255.36C227.159 255.131 227.158 254.902 227.156 254.675C227.154 254.447 227.153 254.22 227.151 253.994C227.149 253.767 227.148 253.541 227.146 253.316C227.145 253.091 227.142 252.866 227.14 252.642C227.139 252.419 227.137 252.195 227.135 251.972C227.134 251.75 227.132 251.528 227.131 251.306C227.129 251.085 227.127 250.864 227.126 250.643C227.124 250.423 227.122 250.203 227.121 249.984C227.119 249.765 227.118 249.547 227.116 249.329C227.114 249.111 227.113 248.894 227.111 248.677C227.109 248.461 227.108 248.244 227.106 248.029C227.105 247.814 227.103 247.599 227.101 247.385C227.1 247.17 227.098 246.956 227.096 246.743C227.095 246.53 227.094 246.317 227.093 246.105C227.091 245.893 227.089 245.682 227.088 245.471C227.086 245.261 227.084 245.051 227.083 244.842C227.081 244.632 227.079 244.423 227.078 244.215C227.076 244.006 227.076 243.798 227.074 243.591C227.072 243.384 227.071 243.177 227.069 242.971C227.068 242.766 227.066 242.56 227.064 242.355C227.063 242.15 227.061 241.946 227.059 241.742C227.058 241.538 227.057 241.335 227.055 241.133C227.054 240.93 227.052 240.728 227.051 240.527C227.047 240.033 227.045 239.815 227.042 239.326C227.04 239.127 227.039 238.928 227.038 238.73C227.036 238.532 227.034 238.335 227.033 238.138C227.031 237.942 227.031 237.745 227.029 237.55C227.028 237.354 227.026 237.159 227.024 236.965C227.021 236.605 227.018 236.16 227.015 235.804C227.014 235.612 227.013 235.42 227.011 235.229C227.01 235.038 227.009 234.848 227.008 234.658C227.006 234.468 227.004 234.278 227.003 234.09C227.001 233.901 227 233.713 226.999 233.525C226.997 233.338 226.996 233.15 226.995 232.964C226.993 232.777 226.991 232.591 226.99 232.405C226.989 232.22 226.987 232.035 226.986 231.85C226.985 231.666 226.984 231.482 226.982 231.299C226.981 231.115 226.98 230.933 226.978 230.751C226.977 230.569 226.976 230.387 226.974 230.206C226.973 230.025 226.972 229.844 226.97 229.664C226.969 229.484 226.967 229.304 226.966 229.126C226.964 228.947 226.963 228.768 226.962 228.591C226.96 228.413 226.959 228.236 226.958 228.059C226.956 227.883 226.955 227.707 226.954 227.531C226.953 227.355 226.951 227.18 226.95 227.006C226.949 226.831 226.947 226.657 226.946 226.483C226.945 226.31 226.943 226.137 226.942 225.965C226.941 225.792 226.94 225.62 226.938 225.449C226.937 225.278 226.937 225.107 226.935 224.936C226.934 224.766 226.933 224.597 226.931 224.427C226.93 224.258 226.929 224.09 226.927 223.922C226.926 223.754 226.925 223.586 226.924 223.419C226.922 223.252 226.921 223.085 226.92 222.919C226.918 222.753 226.917 222.587 226.916 222.423C226.915 222.258 226.914 222.092 226.913 221.928C226.912 221.765 226.91 221.601 226.909 221.438C226.908 221.276 226.906 221.113 226.905 220.952C226.904 220.79 226.903 220.628 226.902 220.468C226.901 220.307 226.899 220.146 226.898 219.986C226.897 219.826 226.895 219.667 226.894 219.509C226.893 219.35 226.893 219.192 226.891 219.034C226.89 218.876 226.889 218.719 226.887 218.562C226.886 218.406 226.885 218.249 226.884 218.094C226.882 217.938 226.882 217.782 226.881 217.628C226.879 217.473 226.878 217.319 226.877 217.166C226.876 217.012 226.875 216.858 226.874 216.706C226.873 216.553 226.871 216.401 226.87 216.25C226.869 216.098 226.868 215.947 226.867 215.797C226.866 215.646 226.865 215.495 226.864 215.345C226.863 215.196 226.861 215.047 226.86 214.898C226.859 214.75 226.858 214.601 226.857 214.454C226.856 214.306 226.854 214.159 226.853 214.012C226.852 213.866 226.851 213.72 226.85 213.574C226.849 213.428 226.848 213.283 226.847 213.138C226.846 212.994 226.845 212.849 226.844 212.706C226.842 212.562 226.842 212.419 226.841 212.276C226.84 212.133 226.839 211.991 226.838 211.849C226.837 211.708 226.836 211.566 226.835 211.426C226.834 211.285 226.833 211.144 226.832 211.005C226.831 210.865 226.829 210.725 226.828 210.587C226.827 210.448 226.826 210.309 226.825 210.171C226.824 210.033 226.823 209.895 226.822 209.759C226.821 209.622 226.82 209.485 226.819 209.349C226.818 209.213 226.817 209.078 226.816 208.943C226.815 208.808 226.814 208.673 226.813 208.539C226.812 208.405 226.811 208.271 226.81 208.138C226.809 208.005 226.808 207.872 226.807 207.74C226.806 207.608 226.805 207.476 226.804 207.344C226.803 207.213 226.802 207.082 226.802 206.952C226.801 206.822 226.8 206.692 226.799 206.562C226.798 206.433 226.797 206.304 226.796 206.176C226.795 206.047 226.794 205.919 226.793 205.792C226.792 205.664 226.791 205.537 226.79 205.41C226.789 205.283 226.788 205.158 226.787 205.032C226.786 204.906 226.785 204.781 226.784 204.656C226.783 204.531 226.782 204.407 226.781 204.283C226.78 204.159 226.78 204.035 226.779 203.912C226.778 203.789 226.777 203.667 226.776 203.545C226.775 203.423 226.774 203.301 226.773 203.179C226.772 203.058 226.771 202.937 226.77 202.817C226.769 202.697 226.769 202.577 226.768 202.458C226.767 202.338 226.766 202.219 226.765 202.1C226.765 201.982 226.763 201.863 226.762 201.746C226.76 201.415 226.76 201.373 226.758 201.046C226.757 200.93 226.755 200.814 226.755 200.699C226.754 200.584 226.754 200.469 226.753 200.355C226.752 200.241 226.751 200.128 226.75 200.014C226.749 199.901 226.748 199.789 226.747 199.677C226.746 199.564 226.746 199.452 226.745 199.341C226.744 199.229 226.743 199.117 226.742 199.007C226.741 198.896 226.741 198.786 226.74 198.677C226.739 198.567 226.738 198.456 226.737 198.347C226.736 198.239 226.736 198.13 226.735 198.022C226.734 197.914 226.733 197.806 226.732 197.699C226.731 197.592 226.731 197.485 226.73 197.379C226.729 197.272 226.728 197.166 226.727 197.06C226.727 196.955 226.726 196.85 226.725 196.745C226.725 196.64 226.724 196.536 226.723 196.432C226.723 196.329 226.721 196.225 226.72 196.122C226.72 196.019 226.719 195.915 226.719 195.813C226.718 195.711 226.717 195.609 226.717 195.508C226.716 195.406 226.714 195.305 226.714 195.205C226.713 195.104 226.712 195.004 226.712 194.904C226.711 194.804 226.71 194.705 226.71 194.606C226.709 194.507 226.708 194.408 226.708 194.31C226.707 194.212 226.706 194.114 226.705 194.016C226.704 193.919 226.704 193.823 226.703 193.726C226.702 193.63 226.702 193.533 226.701 193.437C226.7 193.342 226.7 193.246 226.699 193.151C226.698 193.056 226.698 192.962 226.697 192.868C226.696 192.774 226.695 192.679 226.694 192.586C226.693 192.493 226.693 192.4 226.692 192.307C226.691 192.215 226.691 192.122 226.69 192.03C226.69 191.938 226.689 191.847 226.688 191.757C226.688 191.666 226.687 191.574 226.686 191.484C226.686 191.394 226.685 191.304 226.684 191.215C226.684 191.125 226.683 191.036 226.682 190.947C226.682 190.858 226.681 190.77 226.68 190.682C226.68 190.594 226.679 190.507 226.678 190.42C226.678 190.332 226.677 190.245 226.677 190.159C226.676 190.073 226.675 189.987 226.675 189.901C226.674 189.816 226.673 189.73 226.673 189.645C226.672 189.56 226.671 189.476 226.671 189.391C226.67 189.307 226.669 189.223 226.669 189.139C226.668 189.056 226.667 188.973 226.667 188.89C226.666 188.808 226.665 188.725 226.665 188.643C226.664 188.562 226.664 188.48 226.664 188.399C226.663 188.318 226.662 188.236 226.662 188.156C226.661 188.076 226.661 187.995 226.66 187.916C226.659 187.836 226.659 187.757 226.658 187.678C226.657 187.599 226.657 187.52 226.656 187.442C226.655 187.364 226.655 187.285 226.654 187.208C226.653 187.13 226.654 187.053 226.653 186.976C226.653 186.9 226.652 186.823 226.651 186.747C226.651 186.671 226.65 186.595 226.649 186.519C226.649 186.444 226.649 186.369 226.648 186.295C226.648 186.22 226.647 186.145 226.646 186.071C226.646 185.997 226.645 185.924 226.644 185.85C226.644 185.777 226.643 185.704 226.642 185.632C226.642 185.559 226.642 185.487 226.641 185.415C226.641 185.343 226.64 185.271 226.639 185.2C226.639 185.129 226.639 185.058 226.638 184.987C226.638 184.916 226.637 184.846 226.636 184.776C226.636 184.706 226.635 184.637 226.635 184.568C226.634 184.499 226.634 184.43 226.634 184.361C226.633 184.293 226.632 184.225 226.632 184.157C226.631 184.089 226.631 184.021 226.631 183.954C226.63 183.887 226.629 183.82 226.629 183.754C226.628 183.687 226.628 183.621 226.628 183.555C226.627 183.49 226.626 183.423 226.626 183.358C226.625 183.293 226.625 183.228 226.625 183.164C226.624 183.099 226.623 183.035 226.623 182.971C226.621 182.761 226.619 182.421 226.618 182.22C226.617 182.159 226.616 182.098 226.616 182.037C226.616 181.976 226.615 181.916 226.615 181.856C226.615 181.796 226.613 181.737 226.613 181.677C226.613 181.618 226.612 181.559 226.612 181.5C226.612 181.441 226.612 181.383 226.611 181.325C226.611 181.267 226.61 181.209 226.609 181.151C226.609 181.094 226.609 181.036 226.608 180.979C226.608 180.922 226.608 180.866 226.607 180.809C226.607 180.753 226.606 180.697 226.605 180.641C226.605 180.586 226.605 180.53 226.604 180.475C226.604 180.42 226.604 180.366 226.603 180.311C226.603 180.257 226.603 180.202 226.602 180.148C226.602 180.095 226.602 180.041 226.601 179.988C226.601 179.935 226.6 179.882 226.599 179.829C226.599 179.776 226.599 179.724 226.598 179.672C226.598 179.62 226.598 179.568 226.597 179.516C226.597 179.465 226.597 179.414 226.596 179.363C226.596 179.312 226.596 179.261 226.595 179.211C226.595 179.16 226.594 179.11 226.594 179.06C226.593 179.011 226.593 178.961 226.593 178.912C226.592 178.863 226.592 178.814 226.592 178.765C226.591 178.717 226.591 178.669 226.591 178.621C226.59 178.573 226.59 178.525 226.59 178.477C226.589 178.43 226.589 178.383 226.589 178.336C226.588 178.289 226.588 178.242 226.588 178.196C226.587 178.15 226.587 178.103 226.587 178.057C226.586 178.012 226.586 177.966 226.586 177.921C226.585 177.875 226.585 177.831 226.585 177.786C226.584 177.741 226.584 177.696 226.584 177.652C226.583 177.608 226.583 177.564 226.583 177.52C226.582 177.477 226.582 177.433 226.582 177.39C226.581 177.347 226.581 177.305 226.581 177.262C226.58 177.22 226.58 177.177 226.58 177.135C226.58 177.093 226.579 177.051 226.579 177.01C226.579 176.968 226.578 176.927 226.578 176.886C226.578 176.846 226.577 176.805 226.577 176.764C226.577 176.724 226.576 176.683 226.576 176.643C226.576 176.603 226.575 176.564 226.575 176.524C226.575 176.485 226.574 176.446 226.574 176.407C226.574 176.368 226.573 176.329 226.573 176.291C226.573 176.252 226.573 176.214 226.573 176.177C226.573 176.139 226.572 176.101 226.572 176.063C226.572 176.026 226.571 175.989 226.571 175.952C226.571 175.915 226.57 175.878 226.57 175.842C226.57 175.805 226.569 175.769 226.569 175.733C226.569 175.697 226.568 175.661 226.568 175.626C226.568 175.59 226.568 175.555 226.568 175.52C226.568 175.486 226.567 175.451 226.567 175.417C226.567 175.382 226.566 175.348 226.566 175.314C226.566 175.28 226.565 175.246 226.565 175.213C226.565 175.179 226.564 175.146 226.564 175.113C226.564 175.08 226.564 175.047 226.564 175.014C226.564 174.982 226.563 174.949 226.563 174.917C226.563 174.885 226.562 174.853 226.562 174.821C226.562 174.79 226.562 174.758 226.561 174.727C226.561 174.696 226.562 174.665 226.561 174.635C226.561 174.604 226.561 174.573 226.56 174.543C226.56 174.512 226.56 174.482 226.559 174.452C226.559 174.422 226.56 174.392 226.559 174.363L226.557 174.189C226.557 174.161 226.558 174.132 226.557 174.104L226.555 173.938C226.555 173.911 226.556 173.884 226.555 173.857C226.555 173.831 226.555 173.804 226.554 173.778C226.554 173.752 226.555 173.725 226.554 173.699C226.554 173.673 226.554 173.647 226.553 173.622C226.553 173.596 226.554 173.571 226.553 173.546C226.553 173.52 226.553 173.495 226.552 173.47C226.552 173.446 226.552 173.421 226.552 173.397C226.551 173.373 226.552 173.349 226.552 173.325C226.551 173.301 226.551 173.277 226.551 173.254C226.55 173.23 226.551 173.207 226.551 173.183C226.55 173.16 226.55 173.138 226.55 173.115C226.549 173.092 226.55 173.069 226.55 173.047C226.549 173.024 226.549 173.002 226.549 172.98C226.548 172.958 226.549 172.936 226.549 172.915C226.548 172.893 226.548 172.872 226.548 172.85C226.547 172.829 226.548 172.808 226.548 172.788C226.547 172.767 226.547 172.746 226.547 172.725C226.546 172.705 226.547 172.685 226.547 172.665C226.546 172.645 226.546 172.625 226.546 172.605C226.546 172.585 226.546 172.565 226.546 172.546C226.546 172.526 226.545 172.507 226.545 172.488V172.377C226.545 172.358 226.544 172.34 226.544 172.322C226.544 172.304 226.544 172.286 226.544 172.268C226.544 172.251 226.543 172.233 226.543 172.216V172.114C226.543 172.098 226.542 172.081 226.542 172.065V171.963H234.417Z" fill="#E9D985" stroke="#E9D985" stroke-width="3"/>
<circle cx="230.538" cy="165.073" r="7.75886" fill="#E9D985"/>
<path d="M218.562 209.316V193.443L214.771 193.443C203.103 193.443 191.033 203.749 191.033 218.141C191.033 247.755 247.063 258.949 247.063 278.553C247.063 298.158 210.578 304.377 210.578 327.949C210.578 351.522 237.409 350.989 237.409 363.427V376.931C245.168 376.931 245.168 369.113 245.168 363.427C245.168 346.902 220.114 340.269 220.114 327.949C220.114 315.63 258.938 304.791 258.938 278.553C258.938 252.315 203.459 232.356 203.459 218.141C203.459 213.047 208.612 209.316 210.744 209.316H218.562Z" fill="#E9D985"/>
<path d="M242.307 209.316V193.443L246.098 193.443C257.766 193.443 269.836 203.749 269.836 218.141C269.836 247.755 213.807 258.949 213.807 278.553C213.807 298.158 250.291 304.377 250.291 327.949C250.291 351.522 223.461 350.989 223.461 363.427V376.931C215.702 376.931 215.702 369.113 215.702 363.427C215.702 346.902 240.755 340.269 240.755 327.949C240.755 315.63 201.931 304.791 201.931 278.553C201.931 252.315 257.411 232.356 257.411 218.141C257.411 213.047 252.258 209.316 250.126 209.316H242.307Z" fill="#E9D985"/>
<path d="M146.02 157.314H206.729C206.729 168.153 215.791 176.148 218.87 176.622V186.573H187.42C184.044 186.573 178.595 182.13 178.595 178.281H169.178C164.618 178.281 160.886 173.424 160.886 169.396H154.845C150.344 169.396 146.02 164.481 146.02 161.164V157.314Z" fill="#E9D985"/>
<path d="M314.997 157.314H254.289C254.289 168.153 245.227 176.148 242.147 176.622V186.573H273.597C276.973 186.573 282.422 182.13 282.422 178.281H291.839C296.4 178.281 300.131 173.424 300.131 169.396H306.172C310.674 169.396 314.997 164.481 314.997 161.164V157.314Z" fill="#E9D985"/>
<path d="M273 100.697C273 123.861 254.243 142.639 231.106 142.639C207.968 142.639 189.211 123.861 189.211 100.697C189.211 77.5327 239.484 42.9841 231.106 22.8518C246.858 22.8518 273 77.5327 273 100.697Z" fill="#EE4C2C"/>
<path d="M251.445 81.8989C262.924 93.3777 262.924 111.792 251.445 123.35C240.206 134.829 221.712 134.829 210.233 123.35C198.755 111.871 198.755 93.3777 210.233 81.8989L230.799 61.3328V71.6158L228.886 73.529L215.255 87.16C206.646 95.6097 206.646 109.48 215.255 118.089C223.705 126.698 237.575 126.698 246.184 118.089C254.793 109.639 254.793 95.7691 246.184 87.16L251.445 81.8989ZM241.162 80.6235C239.049 80.6235 237.336 78.9104 237.336 76.7972C237.336 74.684 239.049 72.971 241.162 72.971C243.275 72.971 244.989 74.684 244.989 76.7972C244.989 78.9104 243.275 80.6235 241.162 80.6235Z" fill="white"/>
</g>
<circle cx="230" cy="230" r="224.5" stroke="#1B303D" stroke-width="11"/>
</g>
<defs>
<clipPath id="clip0_271_3">
<rect width="460" height="460" fill="white"/>
</clipPath>
</defs>
</svg>
