<?xml version="1.0" encoding="utf-8" standalone="no"?>
<!DOCTYPE svg PUBLIC "-//W3C//DTD SVG 1.1//EN"
  "http://www.w3.org/Graphics/SVG/1.1/DTD/svg11.dtd">
<svg xmlns:xlink="http://www.w3.org/1999/xlink" width="576pt" height="576pt" viewBox="0 0 576 576" xmlns="http://www.w3.org/2000/svg" version="1.1">
 <metadata>
  <rdf:RDF xmlns:dc="http://purl.org/dc/elements/1.1/" xmlns:cc="http://creativecommons.org/ns#" xmlns:rdf="http://www.w3.org/1999/02/22-rdf-syntax-ns#">
   <cc:Work>
    <dc:type rdf:resource="http://purl.org/dc/dcmitype/StillImage"/>
    <dc:date>2024-11-14T16:39:38.516075</dc:date>
    <dc:format>image/svg+xml</dc:format>
    <dc:creator>
     <cc:Agent>
      <dc:title>Matplotlib v3.9.2, https://matplotlib.org/</dc:title>
     </cc:Agent>
    </dc:creator>
   </cc:Work>
  </rdf:RDF>
 </metadata>
 <defs>
  <style type="text/css">*{stroke-linejoin: round; stroke-linecap: butt}</style>
 </defs>
 <g id="figure_1">
  <g id="patch_1">
   <path d="M 0 576
L 576 576
L 576 0
L 0 0
z
" style="fill: #ffffff"/>
  </g>
  <g id="axes_1">
   <g id="patch_2">
    <path d="M 47.722845 243.799317
L 245.677155 243.799317
L 245.677155 45.845006
L 47.722845 45.845006
z
" style="fill: #ffffff"/>
   </g>
   <g id="matplotlib.axis_1"/>
   <g id="matplotlib.axis_2"/>
   <g id="line2d_1">
    <path d="M 196.188578 144.822162
L 196.088941 141.683402
L 195.790433 138.557281
L 195.294255 135.456387
L 194.602405 132.393205
L 193.717668 129.38007
L 192.643609 126.429115
L 191.38455 123.552223
L 189.945563 120.760977
L 188.332441 118.066617
L 186.55168 115.479992
L 184.61045 113.011517
L 182.516568 110.671133
L 180.278466 108.468263
L 177.905155 106.411777
L 175.406191 104.509956
L 172.791639 102.770459
L 170.072024 101.200288
L 167.258298 99.805768
L 164.361792 98.592513
L 161.394167 97.565408
L 158.367374 96.728589
L 155.293601 96.085427
L 152.185225 95.63851
L 149.054761 95.389638
L 145.914816 95.339813
L 142.778032 95.489237
L 139.657041 95.837306
L 136.564409 96.382621
L 133.51259 97.122984
L 130.513872 98.055415
L 127.580329 99.176159
L 124.723775 100.480704
L 121.955711 101.963796
L 119.287284 103.619464
L 116.729238 105.44104
L 114.291874 107.42119
L 111.985006 109.551941
L 109.817922 111.824712
L 107.79935 114.230353
L 105.937417 116.759176
L 104.239621 119.400998
L 102.712798 122.145183
L 101.363095 124.98068
L 100.195949 127.896071
L 99.216057 130.879618
L 98.427367 133.919307
L 97.833054 137.002897
L 97.43551 140.117973
L 97.236338 143.251991
L 97.236338 146.392332
L 97.43551 149.52635
L 97.833054 152.641426
L 98.427367 155.725017
L 99.216057 158.764705
L 100.195949 161.748252
L 101.363095 164.663644
L 102.712798 167.49914
L 104.239621 170.243325
L 105.937417 172.885148
L 107.79935 175.413971
L 109.817922 177.819611
L 111.985006 180.092383
L 114.291874 182.223133
L 116.729238 184.203283
L 119.287284 186.02486
L 121.955711 187.680527
L 124.723775 189.163619
L 127.580329 190.468164
L 130.513872 191.588908
L 133.51259 192.521339
L 136.564409 193.261703
L 139.657041 193.807017
L 142.778032 194.155087
L 145.914816 194.30451
L 149.054761 194.254686
L 152.185225 194.005814
L 155.293601 193.558897
L 158.367374 192.915734
L 161.394167 192.078915
L 164.361792 191.051811
L 167.258298 189.838555
L 170.072024 188.444035
L 172.791639 186.873865
L 175.406191 185.134367
L 177.905155 183.232546
L 180.278466 181.176061
L 182.516568 178.97319
L 184.61045 176.632806
L 186.55168 174.164332
L 188.332441 171.577707
L 189.945563 168.883347
L 191.38455 166.092101
L 192.643609 163.215208
L 193.717668 160.264253
L 194.602405 157.251118
L 195.294255 154.187937
L 195.790433 151.087042
L 196.088941 147.960921
L 196.188578 144.822162
" clip-path="url(#p314ab1a11b)" style="fill: none; stroke: #0063b9; stroke-width: 1.5; stroke-linecap: square"/>
   </g>
   <g id="patch_3">
    <path d="M 47.722845 243.799317
L 47.722845 45.845006
" style="fill: none; stroke: #000000; stroke-width: 0.8; stroke-linejoin: miter; stroke-linecap: square"/>
   </g>
   <g id="patch_4">
    <path d="M 245.677155 243.799317
L 245.677155 45.845006
" style="fill: none; stroke: #000000; stroke-width: 0.8; stroke-linejoin: miter; stroke-linecap: square"/>
   </g>
   <g id="patch_5">
    <path d="M 47.722845 243.799317
L 245.677155 243.799317
" style="fill: none; stroke: #000000; stroke-width: 0.8; stroke-linejoin: miter; stroke-linecap: square"/>
   </g>
   <g id="patch_6">
    <path d="M 47.722845 45.845006
L 245.677155 45.845006
" style="fill: none; stroke: #000000; stroke-width: 0.8; stroke-linejoin: miter; stroke-linecap: square"/>
   </g>
   <g id="text_1">
    <!-- $e_\mathrm{abs} = 0$ -->
    <g transform="translate(114.753211 39.845006) scale(0.2 -0.2)">
     <defs>
      <path id="CMMI12-65" d="M 1146 1472
C 1318 1472 1754 1484 2061 1600
C 2547 1786 2592 2160 2592 2275
C 2592 2559 2349 2816 1926 2816
C 1254 2816 288 2205 288 1066
C 288 400 672 -64 1254 -64
C 2125 -64 2675 609 2675 691
C 2675 729 2637 761 2611 761
C 2592 761 2586 755 2528 698
C 2118 159 1510 64 1267 64
C 902 64 710 349 710 818
C 710 907 710 1066 806 1472
L 1146 1472
z
M 838 1600
C 1114 2591 1722 2687 1926 2687
C 2208 2687 2400 2520 2400 2275
C 2400 1600 1376 1600 1107 1600
L 838 1600
z
" transform="scale(0.015625)"/>
      <path id="CMR17-61" d="M 2304 1656
C 2304 2048 2304 2275 2035 2534
C 1798 2751 1523 2816 1306 2816
C 800 2816 435 2408 435 1977
C 435 1740 627 1728 666 1728
C 749 1728 896 1779 896 1958
C 896 2118 774 2188 666 2188
C 640 2188 608 2182 589 2176
C 723 2594 1069 2713 1293 2713
C 1613 2713 1965 2421 1965 1875
L 1965 1632
C 1587 1619 1133 1568 774 1373
C 371 1147 256 822 256 576
C 256 77 832 -64 1171 -64
C 1523 -64 1850 135 1990 505
C 2003 219 2182 -39 2464 -39
C 2598 -39 2938 51 2938 563
L 2938 926
L 2822 926
L 2822 557
C 2822 161 2650 109 2566 109
C 2304 109 2304 446 2304 732
L 2304 1656
z
M 1965 887
C 1965 323 1568 38 1216 38
C 896 38 646 278 646 576
C 646 771 730 1114 1101 1322
C 1408 1497 1760 1523 1965 1536
L 1965 887
z
" transform="scale(0.015625)"/>
      <path id="CMR17-62" d="M 960 4416
L 198 4345
L 198 4179
C 576 4179 634 4141 634 3843
L 634 -13
L 749 -13
L 934 445
C 1120 141 1395 -64 1766 -64
C 2406 -64 3053 503 3053 1382
C 3053 2209 2477 2816 1830 2816
C 1434 2816 1152 2603 960 2351
L 960 4416
z
M 973 2022
C 973 2138 973 2157 1062 2293
C 1312 2681 1670 2713 1792 2713
C 1984 2713 2643 2610 2643 1388
C 2643 109 1888 38 1734 38
C 1536 38 1248 115 1043 490
C 973 613 973 626 973 742
L 973 2022
z
" transform="scale(0.015625)"/>
      <path id="CMR17-73" d="M 1978 2688
C 1978 2803 1971 2809 1933 2809
C 1907 2809 1901 2803 1824 2707
C 1805 2681 1747 2617 1728 2592
C 1523 2809 1235 2816 1126 2816
C 416 2816 160 2444 160 2073
C 160 1497 813 1363 998 1324
C 1402 1241 1542 1216 1677 1100
C 1760 1024 1901 883 1901 652
C 1901 384 1747 38 1158 38
C 602 38 403 460 288 1024
C 269 1113 269 1120 218 1120
C 166 1120 160 1113 160 985
L 160 64
C 160 -52 166 -58 205 -58
C 237 -58 243 -52 275 0
C 314 57 410 211 448 275
C 576 102 800 -64 1158 -64
C 1792 -64 2131 281 2131 780
C 2131 1107 1958 1280 1875 1356
C 1683 1555 1459 1600 1190 1651
C 838 1728 390 1817 390 2208
C 390 2374 480 2726 1126 2726
C 1811 2726 1850 2086 1862 1881
C 1869 1849 1901 1843 1920 1843
C 1978 1843 1978 1862 1978 1971
L 1978 2688
z
" transform="scale(0.015625)"/>
      <path id="CMR17-3d" d="M 4115 2048
C 4211 2048 4307 2048 4307 2156
C 4307 2272 4198 2272 4090 2272
L 512 2272
C 403 2272 294 2272 294 2156
C 294 2048 390 2048 486 2048
L 4115 2048
z
M 4090 927
C 4198 927 4307 927 4307 1043
C 4307 1152 4211 1152 4115 1152
L 486 1152
C 390 1152 294 1152 294 1043
C 294 927 403 927 512 927
L 4090 927
z
" transform="scale(0.015625)"/>
      <path id="CMR17-30" d="M 2688 2038
C 2688 2430 2682 3099 2413 3613
C 2176 4063 1798 4224 1466 4224
C 1158 4224 768 4082 525 3620
C 269 3137 243 2539 243 2038
C 243 1671 250 1112 448 623
C 723 -39 1216 -128 1466 -128
C 1760 -128 2208 -7 2470 604
C 2662 1048 2688 1568 2688 2038
z
M 1466 -26
C 1056 -26 813 328 723 816
C 653 1196 653 1749 653 2109
C 653 2604 653 3015 736 3407
C 858 3954 1216 4121 1466 4121
C 1728 4121 2067 3947 2189 3420
C 2272 3054 2278 2623 2278 2109
C 2278 1691 2278 1176 2202 797
C 2067 96 1690 -26 1466 -26
z
" transform="scale(0.015625)"/>
     </defs>
     <use xlink:href="#CMMI12-65" transform="scale(0.996264)"/>
     <use xlink:href="#CMR17-61" transform="translate(45.212001 -14.943915) scale(0.697382)"/>
     <use xlink:href="#CMR17-62" transform="translate(77.195183 -14.943915) scale(0.697382)"/>
     <use xlink:href="#CMR17-73" transform="translate(112.821791 -14.943915) scale(0.697382)"/>
     <use xlink:href="#CMR17-3d" transform="translate(166.054754 0) scale(0.996264)"/>
     <use xlink:href="#CMR17-30" transform="translate(265.443552 0) scale(0.996264)"/>
    </g>
   </g>
   <g id="legend_1">
    <g id="patch_7">
     <path d="M 98.068796 281.961053
L 195.331204 281.961053
Q 197.331204 281.961053 197.331204 279.961053
L 197.331204 267.023875
Q 197.331204 265.023875 195.331204 265.023875
L 98.068796 265.023875
Q 96.068796 265.023875 96.068796 267.023875
L 96.068796 279.961053
Q 96.068796 281.961053 98.068796 281.961053
z
" style="fill: #ffffff; opacity: 0.8; stroke: #cccccc; stroke-linejoin: miter"/>
    </g>
    <g id="line2d_2">
     <path d="M 100.068796 272.523875
L 110.068796 272.523875
L 120.068796 272.523875
" style="fill: none; stroke: #0063b9; stroke-width: 1.5; stroke-linecap: square"/>
    </g>
    <g id="text_2">
     <!-- $e_1$=0.0, $e_2$=0.0 -->
     <g transform="translate(128.068796 276.023875) scale(0.1 -0.1)">
      <defs>
       <path id="CMR17-31" d="M 1702 4083
C 1702 4217 1696 4224 1606 4224
C 1357 3927 979 3833 621 3820
C 602 3820 570 3820 563 3808
C 557 3795 557 3782 557 3648
C 755 3648 1088 3686 1344 3839
L 1344 467
C 1344 243 1331 166 781 166
L 589 166
L 589 0
C 896 6 1216 12 1523 12
C 1830 12 2150 6 2458 0
L 2458 166
L 2266 166
C 1715 166 1702 236 1702 467
L 1702 4083
z
" transform="scale(0.015625)"/>
       <path id="CMR17-2e" d="M 1062 262
C 1062 422 934 524 800 524
C 672 524 538 422 538 262
C 538 102 666 0 800 0
C 928 0 1062 102 1062 262
z
" transform="scale(0.015625)"/>
       <path id="CMR17-2c" d="M 1011 102
C 1024 44 1024 25 1024 -76
C 1024 -451 896 -795 627 -1108
C 595 -1140 595 -1152 595 -1165
C 595 -1191 621 -1216 646 -1216
C 685 -1216 1126 -776 1126 -82
C 1126 128 1101 524 800 524
C 659 524 538 428 538 262
C 538 96 659 0 800 0
C 877 0 960 32 1011 102
z
" transform="scale(0.015625)"/>
       <path id="CMR17-32" d="M 2669 990
L 2554 990
C 2490 537 2438 460 2413 422
C 2381 371 1920 371 1830 371
L 602 371
C 832 620 1280 1073 1824 1596
C 2214 1966 2669 2400 2669 3033
C 2669 3788 2067 4224 1395 4224
C 691 4224 262 3603 262 3027
C 262 2777 448 2745 525 2745
C 589 2745 781 2783 781 3007
C 781 3206 614 3264 525 3264
C 486 3264 448 3257 422 3244
C 544 3788 915 4057 1306 4057
C 1862 4057 2227 3616 2227 3033
C 2227 2477 1901 1998 1536 1583
L 262 147
L 262 0
L 2515 0
L 2669 990
z
" transform="scale(0.015625)"/>
      </defs>
      <use xlink:href="#CMMI12-65" transform="scale(0.996264)"/>
      <use xlink:href="#CMR17-31" transform="translate(45.212001 -14.943915) scale(0.697382)"/>
      <use xlink:href="#CMR17-3d" transform="translate(77.693315 0) scale(0.996264)"/>
      <use xlink:href="#CMR17-30" transform="translate(149.408103 0) scale(0.996264)"/>
      <use xlink:href="#CMR17-2e" transform="translate(195.098581 0) scale(0.996264)"/>
      <use xlink:href="#CMR17-30" transform="translate(219.969639 0) scale(0.996264)"/>
      <use xlink:href="#CMR17-2c" transform="translate(265.660116 0) scale(0.996264)"/>
      <use xlink:href="#CMMI12-65" transform="translate(320.607141 0) scale(0.996264)"/>
      <use xlink:href="#CMR17-32" transform="translate(365.819142 -14.943915) scale(0.697382)"/>
      <use xlink:href="#CMR17-3d" transform="translate(398.300456 0) scale(0.996264)"/>
      <use xlink:href="#CMR17-30" transform="translate(470.015244 0) scale(0.996264)"/>
      <use xlink:href="#CMR17-2e" transform="translate(515.705721 0) scale(0.996264)"/>
      <use xlink:href="#CMR17-30" transform="translate(540.57678 0) scale(0.996264)"/>
     </g>
    </g>
   </g>
  </g>
  <g id="axes_2">
   <g id="patch_8">
    <path d="M 330.322845 243.799317
L 528.277155 243.799317
L 528.277155 45.845006
L 330.322845 45.845006
z
" style="fill: #ffffff"/>
   </g>
   <g id="matplotlib.axis_3"/>
   <g id="matplotlib.axis_4"/>
   <g id="line2d_3">
    <path d="M 493.635151 144.822162
L 493.505624 142.62503
L 493.117563 140.436745
L 492.472531 138.266119
L 491.573126 136.121892
L 490.422969 134.012698
L 489.026691 131.947029
L 487.389915 129.933204
L 485.519232 127.979332
L 483.422173 126.09328
L 481.107184 124.282643
L 478.583585 122.55471
L 475.861539 120.916441
L 472.952005 119.374432
L 469.866701 117.934892
L 466.618049 116.603618
L 463.21913 115.38597
L 459.683631 114.28685
L 456.025788 113.310686
L 452.260329 112.461407
L 448.402417 111.742434
L 444.467587 111.156661
L 440.471682 110.706447
L 436.430792 110.393605
L 432.36119 110.219395
L 428.279261 110.184518
L 424.201442 110.289114
L 420.144153 110.532763
L 416.123732 110.914483
L 412.156367 111.432737
L 408.258033 112.085439
L 404.444428 112.86996
L 400.730907 113.783141
L 397.132424 114.821306
L 393.663469 115.980273
L 390.338009 117.255376
L 387.169436 118.641482
L 384.170507 120.133007
L 381.353299 121.723947
L 378.729155 123.407895
L 376.308643 125.178071
L 374.101508 127.027347
L 372.116637 128.948276
L 370.362024 130.933124
L 368.844733 132.973898
L 367.570875 135.062381
L 366.545577 137.190163
L 365.77297 139.348677
L 365.256164 141.52923
L 364.997239 143.723042
L 364.997239 145.921281
L 365.256164 148.115094
L 365.77297 150.295647
L 366.545577 152.45416
L 367.570875 154.581942
L 368.844733 156.670425
L 370.362024 158.711199
L 372.116637 160.696047
L 374.101508 162.616976
L 376.308643 164.466252
L 378.729155 166.236428
L 381.353299 167.920376
L 384.170507 169.511316
L 387.169436 171.002842
L 390.338009 172.388947
L 393.663469 173.66405
L 397.132424 174.823017
L 400.730907 175.861182
L 404.444428 176.774363
L 408.258033 177.558884
L 412.156367 178.211586
L 416.123732 178.72984
L 420.144153 179.11156
L 424.201442 179.355209
L 428.279261 179.459806
L 432.36119 179.424928
L 436.430792 179.250718
L 440.471682 178.937876
L 444.467587 178.487662
L 448.402417 177.901889
L 452.260329 177.182916
L 456.025788 176.333637
L 459.683631 175.357473
L 463.21913 174.258354
L 466.618049 173.040705
L 469.866701 171.709431
L 472.952005 170.269891
L 475.861539 168.727882
L 478.583585 167.089613
L 481.107184 165.361681
L 483.422173 163.551043
L 485.519232 161.664991
L 487.389915 159.711119
L 489.026691 157.697294
L 490.422969 155.631626
L 491.573126 153.522431
L 492.472531 151.378204
L 493.117563 149.207578
L 493.505624 147.019293
L 493.635151 144.822162
" clip-path="url(#p9c36ac62f0)" style="fill: none; stroke: #0063b9; stroke-width: 1.5; stroke-linecap: square"/>
   </g>
   <g id="line2d_4">
    <path d="M 474.791822 99.33034
L 473.146625 97.868323
L 471.324874 96.595373
L 469.333903 95.516614
L 467.18173 94.636392
L 464.87702 93.958251
L 462.429055 93.48492
L 459.84769 93.218306
L 457.143321 93.159483
L 454.326836 93.308687
L 451.409578 93.665318
L 448.403291 94.227939
L 445.320083 94.994285
L 442.172367 95.961271
L 438.972819 97.125002
L 435.734322 98.480793
L 432.469916 100.023184
L 429.192746 101.745964
L 425.916008 103.642198
L 422.652896 105.704249
L 419.416549 107.923813
L 416.22 110.291954
L 413.076119 112.799137
L 409.997566 115.435264
L 406.996737 118.189723
L 404.085715 121.05142
L 401.276223 124.008834
L 398.579572 127.050056
L 396.006622 130.162841
L 393.567732 133.334652
L 391.272724 136.552721
L 389.130838 139.804087
L 387.150699 143.075659
L 385.340281 146.354264
L 383.706872 149.626699
L 382.257051 152.879789
L 380.996656 156.100433
L 379.930761 159.275663
L 379.063658 162.392695
L 378.39884 165.438976
L 377.938982 168.40224
L 377.685938 171.270556
L 377.640725 174.032373
L 377.803525 176.676572
L 378.173684 179.192503
L 378.74971 181.570038
L 379.529284 183.799602
L 380.509268 185.872217
L 381.685714 187.779538
L 383.053887 189.513885
L 384.608276 191.068275
L 386.342623 192.436447
L 388.249945 193.612894
L 390.32256 194.592877
L 392.552124 195.372452
L 394.929658 195.948478
L 397.44559 196.318637
L 400.089788 196.481437
L 402.851606 196.436224
L 405.719921 196.183179
L 408.683186 195.723322
L 411.729467 195.058503
L 414.846498 194.191401
L 418.021729 193.125506
L 421.242373 191.86511
L 424.495462 190.415289
L 427.767898 188.781881
L 431.046503 186.971462
L 434.318075 184.991324
L 437.569441 182.849438
L 440.787509 180.554429
L 443.959321 178.11554
L 447.072105 175.542589
L 450.113327 172.845939
L 453.070741 170.036446
L 455.932439 167.125425
L 458.686897 164.124596
L 461.323025 161.046043
L 463.830207 157.902162
L 466.198348 154.705613
L 468.417913 151.469266
L 470.479964 148.206154
L 472.376197 144.929416
L 474.098978 141.652246
L 475.641369 138.38784
L 476.99716 135.149343
L 478.160891 131.949794
L 479.127877 128.802079
L 479.894223 125.71887
L 480.456844 122.712584
L 480.813475 119.795325
L 480.962679 116.978841
L 480.903856 114.274471
L 480.637242 111.693107
L 480.163911 109.245141
L 479.485769 106.940432
L 478.605547 104.788259
L 477.526789 102.797288
L 476.253839 100.975537
L 474.791822 99.33034
" clip-path="url(#p9c36ac62f0)" style="fill: none; stroke: #ba1a13; stroke-width: 1.5; stroke-linecap: square"/>
   </g>
   <g id="line2d_5">
    <path d="M 429.3 80.487011
L 427.102868 80.616538
L 424.914584 81.004599
L 422.743958 81.649631
L 420.59973 82.549036
L 418.490536 83.699193
L 416.424868 85.09547
L 414.411043 86.732246
L 412.457171 88.60293
L 410.571118 90.699989
L 408.760481 93.014978
L 407.032549 95.538577
L 405.39428 98.260623
L 403.852271 101.170156
L 402.412731 104.255461
L 401.081456 107.504113
L 399.863808 110.903032
L 398.764689 114.438531
L 397.788524 118.096374
L 396.939246 121.861833
L 396.220272 125.719744
L 395.634499 129.654575
L 395.184285 133.65048
L 394.871444 137.691369
L 394.697233 141.760972
L 394.662356 145.842901
L 394.766952 149.92072
L 395.010601 153.978008
L 395.392321 157.99843
L 395.910576 161.965795
L 396.563277 165.864128
L 397.347798 169.677734
L 398.26098 173.391254
L 399.299144 176.989737
L 400.458111 180.458693
L 401.733215 183.784152
L 403.11932 186.952726
L 404.610845 189.951654
L 406.201785 192.768863
L 407.885734 195.393006
L 409.65591 197.813519
L 411.505186 200.020654
L 413.426115 202.005524
L 415.410963 203.760138
L 417.451737 205.277428
L 419.54022 206.551287
L 421.668002 207.576584
L 423.826515 208.349192
L 426.007068 208.865998
L 428.200881 209.124923
L 430.399119 209.124923
L 432.592932 208.865998
L 434.773485 208.349192
L 436.931998 207.576584
L 439.05978 206.551287
L 441.148263 205.277428
L 443.189037 203.760138
L 445.173885 202.005524
L 447.094814 200.020654
L 448.94409 197.813519
L 450.714266 195.393006
L 452.398215 192.768863
L 453.989155 189.951654
L 455.48068 186.952726
L 456.866785 183.784152
L 458.141889 180.458693
L 459.300856 176.989737
L 460.33902 173.391254
L 461.252202 169.677734
L 462.036723 165.864128
L 462.689424 161.965795
L 463.207679 157.99843
L 463.589399 153.978008
L 463.833048 149.92072
L 463.937644 145.842901
L 463.902767 141.760972
L 463.728556 137.691369
L 463.415715 133.65048
L 462.965501 129.654575
L 462.379728 125.719744
L 461.660754 121.861833
L 460.811476 118.096374
L 459.835311 114.438531
L 458.736192 110.903032
L 457.518544 107.504113
L 456.187269 104.255461
L 454.747729 101.170156
L 453.20572 98.260623
L 451.567451 95.538577
L 449.839519 93.014978
L 448.028882 90.699989
L 446.142829 88.60293
L 444.188957 86.732246
L 442.175132 85.09547
L 440.109464 83.699193
L 438.00027 82.549036
L 435.856042 81.649631
L 433.685416 81.004599
L 431.497132 80.616538
L 429.3 80.487011
" clip-path="url(#p9c36ac62f0)" style="fill: none; stroke: #34ba09; stroke-width: 1.5; stroke-linecap: square"/>
   </g>
   <g id="line2d_6">
    <path d="M 474.791822 190.313983
L 476.253839 188.668787
L 477.526789 186.847035
L 478.605547 184.856065
L 479.485769 182.703892
L 480.163911 180.399182
L 480.637242 177.951217
L 480.903856 175.369852
L 480.962679 172.665483
L 480.813475 169.848998
L 480.456844 166.931739
L 479.894223 163.925453
L 479.127877 160.842245
L 478.160891 157.694529
L 476.99716 154.494981
L 475.641369 151.256483
L 474.098978 147.992078
L 472.376197 144.714907
L 470.479964 141.438169
L 468.417913 138.175057
L 466.198348 134.938711
L 463.830207 131.742161
L 461.323025 128.59828
L 458.686897 125.519728
L 455.932439 122.518899
L 453.070741 119.607877
L 450.113327 116.798385
L 447.072105 114.101734
L 443.959321 111.528784
L 440.787509 109.089894
L 437.569441 106.794886
L 434.318075 104.653
L 431.046503 102.672861
L 427.767898 100.862442
L 424.495462 99.229034
L 421.242373 97.779213
L 418.021729 96.518818
L 414.846498 95.452923
L 411.729467 94.58582
L 408.683186 93.921002
L 405.719921 93.461144
L 402.851606 93.208099
L 400.089788 93.162886
L 397.44559 93.325687
L 394.929658 93.695845
L 392.552124 94.271872
L 390.32256 95.051446
L 388.249945 96.03143
L 386.342623 97.207876
L 384.608276 98.576049
L 383.053887 100.130438
L 381.685714 101.864785
L 380.509268 103.772106
L 379.529284 105.844722
L 378.74971 108.074285
L 378.173684 110.45182
L 377.803525 112.967752
L 377.640725 115.61195
L 377.685938 118.373767
L 377.938982 121.242083
L 378.39884 124.205347
L 379.063658 127.251628
L 379.930761 130.36866
L 380.996656 133.54389
L 382.257051 136.764535
L 383.706872 140.017624
L 385.340281 143.290059
L 387.150699 146.568664
L 389.130838 149.840236
L 391.272724 153.091603
L 393.567732 156.309671
L 396.006622 159.481483
L 398.579572 162.594267
L 401.276223 165.635489
L 404.085715 168.592903
L 406.996737 171.454601
L 409.997566 174.209059
L 413.076119 176.845187
L 416.22 179.352369
L 419.416549 181.72051
L 422.652896 183.940075
L 425.916008 186.002125
L 429.192746 187.898359
L 432.469916 189.62114
L 435.734322 191.163531
L 438.972819 192.519321
L 442.172367 193.683053
L 445.320083 194.650038
L 448.403291 195.416385
L 451.409578 195.979006
L 454.326836 196.335636
L 457.143321 196.484841
L 459.84769 196.426017
L 462.429055 196.159403
L 464.87702 195.686073
L 467.18173 195.007931
L 469.333903 194.127709
L 471.324874 193.048951
L 473.146625 191.776
L 474.791822 190.313983
" clip-path="url(#p9c36ac62f0)" style="fill: none; stroke: #ed6018; stroke-width: 1.5; stroke-linecap: square"/>
   </g>
   <g id="patch_9">
    <path d="M 330.322845 243.799317
L 330.322845 45.845006
" style="fill: none; stroke: #000000; stroke-width: 0.8; stroke-linejoin: miter; stroke-linecap: square"/>
   </g>
   <g id="patch_10">
    <path d="M 528.277155 243.799317
L 528.277155 45.845006
" style="fill: none; stroke: #000000; stroke-width: 0.8; stroke-linejoin: miter; stroke-linecap: square"/>
   </g>
   <g id="patch_11">
    <path d="M 330.322845 243.799317
L 528.277155 243.799317
" style="fill: none; stroke: #000000; stroke-width: 0.8; stroke-linejoin: miter; stroke-linecap: square"/>
   </g>
   <g id="patch_12">
    <path d="M 330.322845 45.845006
L 528.277155 45.845006
" style="fill: none; stroke: #000000; stroke-width: 0.8; stroke-linejoin: miter; stroke-linecap: square"/>
   </g>
   <g id="text_3">
    <!-- $e_\mathrm{abs} = 0.3$ -->
    <g transform="translate(390.074446 39.845006) scale(0.2 -0.2)">
     <defs>
      <path id="CMMI12-3a" d="M 1178 307
C 1178 492 1024 620 870 620
C 685 620 557 467 557 313
C 557 128 710 0 864 0
C 1050 0 1178 153 1178 307
z
" transform="scale(0.015625)"/>
      <path id="CMR17-33" d="M 1414 2176
C 1984 2176 2234 1673 2234 1094
C 2234 322 1824 25 1453 25
C 1114 25 563 193 390 691
C 422 678 454 678 486 678
C 640 678 755 780 755 947
C 755 1132 614 1216 486 1216
C 378 1216 211 1164 211 927
C 211 335 787 -128 1466 -128
C 2176 -128 2720 432 2720 1087
C 2720 1718 2208 2176 1600 2246
C 2086 2347 2554 2776 2554 3353
C 2554 3856 2048 4224 1472 4224
C 890 4224 378 3862 378 3347
C 378 3123 544 3084 627 3084
C 762 3084 877 3167 877 3334
C 877 3500 762 3584 627 3584
C 602 3584 570 3584 544 3571
C 730 3999 1235 4076 1459 4076
C 1683 4076 2106 3966 2106 3347
C 2106 3167 2080 2851 1862 2574
C 1670 2329 1453 2316 1242 2297
C 1210 2297 1062 2284 1037 2284
C 992 2278 966 2272 966 2227
C 966 2182 973 2176 1101 2176
L 1414 2176
z
" transform="scale(0.015625)"/>
     </defs>
     <use xlink:href="#CMMI12-65" transform="scale(0.996264)"/>
     <use xlink:href="#CMR17-61" transform="translate(45.212001 -14.943915) scale(0.697382)"/>
     <use xlink:href="#CMR17-62" transform="translate(77.195183 -14.943915) scale(0.697382)"/>
     <use xlink:href="#CMR17-73" transform="translate(112.821791 -14.943915) scale(0.697382)"/>
     <use xlink:href="#CMR17-3d" transform="translate(166.054754 0) scale(0.996264)"/>
     <use xlink:href="#CMR17-30" transform="translate(265.443552 0) scale(0.996264)"/>
     <use xlink:href="#CMMI12-3a" transform="translate(311.134029 0) scale(0.996264)"/>
     <use xlink:href="#CMR17-33" transform="translate(338.231206 0) scale(0.996264)"/>
    </g>
   </g>
   <g id="legend_2">
    <g id="patch_13">
     <path d="M 322.377155 288.929642
L 536.222845 288.929642
Q 538.222845 288.929642 538.222845 286.929642
L 538.222845 260.055285
Q 538.222845 258.055285 536.222845 258.055285
L 322.377155 258.055285
Q 320.377155 258.055285 320.377155 260.055285
L 320.377155 286.929642
Q 320.377155 288.929642 322.377155 288.929642
z
" style="fill: #ffffff; opacity: 0.8; stroke: #cccccc; stroke-linejoin: miter"/>
    </g>
    <g id="line2d_7">
     <path d="M 324.377155 265.555285
L 334.377155 265.555285
L 344.377155 265.555285
" style="fill: none; stroke: #0063b9; stroke-width: 1.5; stroke-linecap: square"/>
    </g>
    <g id="text_4">
     <!-- $e_1$=0.3, $e_2$=0.0 -->
     <g transform="translate(352.377155 269.055285) scale(0.1 -0.1)">
      <use xlink:href="#CMMI12-65" transform="scale(0.996264)"/>
      <use xlink:href="#CMR17-31" transform="translate(45.212001 -14.943915) scale(0.697382)"/>
      <use xlink:href="#CMR17-3d" transform="translate(77.693315 0) scale(0.996264)"/>
      <use xlink:href="#CMR17-30" transform="translate(149.408103 0) scale(0.996264)"/>
      <use xlink:href="#CMR17-2e" transform="translate(195.098581 0) scale(0.996264)"/>
      <use xlink:href="#CMR17-33" transform="translate(219.969639 0) scale(0.996264)"/>
      <use xlink:href="#CMR17-2c" transform="translate(265.660116 0) scale(0.996264)"/>
      <use xlink:href="#CMMI12-65" transform="translate(320.607141 0) scale(0.996264)"/>
      <use xlink:href="#CMR17-32" transform="translate(365.819142 -14.943915) scale(0.697382)"/>
      <use xlink:href="#CMR17-3d" transform="translate(398.300456 0) scale(0.996264)"/>
      <use xlink:href="#CMR17-30" transform="translate(470.015244 0) scale(0.996264)"/>
      <use xlink:href="#CMR17-2e" transform="translate(515.705721 0) scale(0.996264)"/>
      <use xlink:href="#CMR17-30" transform="translate(540.57678 0) scale(0.996264)"/>
     </g>
    </g>
    <g id="line2d_8">
     <path d="M 324.377155 279.492464
L 334.377155 279.492464
L 344.377155 279.492464
" style="fill: none; stroke: #ba1a13; stroke-width: 1.5; stroke-linecap: square"/>
    </g>
    <g id="text_5">
     <!-- $e_1$=0.0, $e_2$=0.3 -->
     <g transform="translate(352.377155 282.992464) scale(0.1 -0.1)">
      <use xlink:href="#CMMI12-65" transform="scale(0.996264)"/>
      <use xlink:href="#CMR17-31" transform="translate(45.212001 -14.943915) scale(0.697382)"/>
      <use xlink:href="#CMR17-3d" transform="translate(77.693315 0) scale(0.996264)"/>
      <use xlink:href="#CMR17-30" transform="translate(149.408103 0) scale(0.996264)"/>
      <use xlink:href="#CMR17-2e" transform="translate(195.098581 0) scale(0.996264)"/>
      <use xlink:href="#CMR17-30" transform="translate(219.969639 0) scale(0.996264)"/>
      <use xlink:href="#CMR17-2c" transform="translate(265.660116 0) scale(0.996264)"/>
      <use xlink:href="#CMMI12-65" transform="translate(320.607141 0) scale(0.996264)"/>
      <use xlink:href="#CMR17-32" transform="translate(365.819142 -14.943915) scale(0.697382)"/>
      <use xlink:href="#CMR17-3d" transform="translate(398.300456 0) scale(0.996264)"/>
      <use xlink:href="#CMR17-30" transform="translate(470.015244 0) scale(0.996264)"/>
      <use xlink:href="#CMR17-2e" transform="translate(515.705721 0) scale(0.996264)"/>
      <use xlink:href="#CMR17-33" transform="translate(540.57678 0) scale(0.996264)"/>
     </g>
    </g>
    <g id="line2d_9">
     <path d="M 437.639563 265.555285
L 447.639563 265.555285
L 457.639563 265.555285
" style="fill: none; stroke: #34ba09; stroke-width: 1.5; stroke-linecap: square"/>
    </g>
    <g id="text_6">
     <!-- $e_1$=-0.3, $e_2$=0.0 -->
     <g transform="translate(465.639563 269.055285) scale(0.1 -0.1)">
      <defs>
       <path id="CMR17-2d" d="M 1632 1254
L 1632 1536
L 26 1536
L 26 1254
L 1632 1254
z
" transform="scale(0.015625)"/>
      </defs>
      <use xlink:href="#CMMI12-65" transform="scale(0.996264)"/>
      <use xlink:href="#CMR17-31" transform="translate(45.212001 -14.943915) scale(0.697382)"/>
      <use xlink:href="#CMR17-3d" transform="translate(77.693315 0) scale(0.996264)"/>
      <use xlink:href="#CMR17-2d" transform="translate(149.408103 0) scale(0.996264)"/>
      <use xlink:href="#CMR17-30" transform="translate(179.48407 0) scale(0.996264)"/>
      <use xlink:href="#CMR17-2e" transform="translate(225.174547 0) scale(0.996264)"/>
      <use xlink:href="#CMR17-33" transform="translate(250.045605 0) scale(0.996264)"/>
      <use xlink:href="#CMR17-2c" transform="translate(295.736082 0) scale(0.996264)"/>
      <use xlink:href="#CMMI12-65" transform="translate(350.683107 0) scale(0.996264)"/>
      <use xlink:href="#CMR17-32" transform="translate(395.895108 -14.943915) scale(0.697382)"/>
      <use xlink:href="#CMR17-3d" transform="translate(428.376422 0) scale(0.996264)"/>
      <use xlink:href="#CMR17-30" transform="translate(500.091211 0) scale(0.996264)"/>
      <use xlink:href="#CMR17-2e" transform="translate(545.781688 0) scale(0.996264)"/>
      <use xlink:href="#CMR17-30" transform="translate(570.652746 0) scale(0.996264)"/>
     </g>
    </g>
    <g id="line2d_10">
     <path d="M 437.639563 279.492464
L 447.639563 279.492464
L 457.639563 279.492464
" style="fill: none; stroke: #ed6018; stroke-width: 1.5; stroke-linecap: square"/>
    </g>
    <g id="text_7">
     <!-- $e_1$=0.0, $e_2$=-0.3 -->
     <g transform="translate(465.639563 282.992464) scale(0.1 -0.1)">
      <use xlink:href="#CMMI12-65" transform="scale(0.996264)"/>
      <use xlink:href="#CMR17-31" transform="translate(45.212001 -14.943915) scale(0.697382)"/>
      <use xlink:href="#CMR17-3d" transform="translate(77.693315 0) scale(0.996264)"/>
      <use xlink:href="#CMR17-30" transform="translate(149.408103 0) scale(0.996264)"/>
      <use xlink:href="#CMR17-2e" transform="translate(195.098581 0) scale(0.996264)"/>
      <use xlink:href="#CMR17-30" transform="translate(219.969639 0) scale(0.996264)"/>
      <use xlink:href="#CMR17-2c" transform="translate(265.660116 0) scale(0.996264)"/>
      <use xlink:href="#CMMI12-65" transform="translate(320.607141 0) scale(0.996264)"/>
      <use xlink:href="#CMR17-32" transform="translate(365.819142 -14.943915) scale(0.697382)"/>
      <use xlink:href="#CMR17-3d" transform="translate(398.300456 0) scale(0.996264)"/>
      <use xlink:href="#CMR17-2d" transform="translate(470.015244 0) scale(0.996264)"/>
      <use xlink:href="#CMR17-30" transform="translate(500.091211 0) scale(0.996264)"/>
      <use xlink:href="#CMR17-2e" transform="translate(545.781688 0) scale(0.996264)"/>
      <use xlink:href="#CMR17-33" transform="translate(570.652746 0) scale(0.996264)"/>
     </g>
    </g>
   </g>
  </g>
  <g id="axes_3">
   <g id="patch_14">
    <path d="M 47.722845 521.917815
L 245.677155 521.917815
L 245.677155 323.963505
L 47.722845 323.963505
z
" style="fill: #ffffff"/>
   </g>
   <g id="matplotlib.axis_5"/>
   <g id="matplotlib.axis_6"/>
   <g id="line2d_11">
    <path d="M 230.830582 422.94066
L 230.6612 421.999032
L 230.153736 421.061196
L 229.310233 420.130928
L 228.134088 419.211973
L 226.630036 418.308033
L 224.804135 417.422746
L 222.663735 416.559678
L 220.217457 415.722305
L 217.475149 414.913996
L 214.447856 414.138009
L 211.147765 413.397467
L 207.588166 412.695351
L 203.783392 412.03449
L 199.748763 411.417545
L 195.500525 410.846998
L 191.055785 410.325149
L 186.43244 409.854098
L 181.649107 409.435742
L 176.725046 409.071765
L 171.680084 408.763634
L 166.534536 408.512588
L 161.309122 408.31964
L 156.024882 408.185564
L 150.703094 408.110903
L 145.365187 408.095955
L 140.032655 408.140783
L 134.72697 408.245203
L 129.469496 408.408798
L 124.281403 408.630907
L 119.183582 408.910636
L 114.19656 409.246859
L 109.340417 409.638223
L 104.634709 410.08315
L 100.098383 410.579851
L 95.749704 411.126324
L 91.606185 411.720369
L 87.684509 412.359594
L 84.000468 413.041425
L 80.568896 413.763117
L 77.40361 414.521764
L 74.517356 415.314311
L 71.921756 416.137566
L 69.627262 416.988215
L 67.643113 417.862833
L 65.977298 418.757897
L 64.636524 419.669804
L 63.626191 420.594881
L 62.950368 421.529404
L 62.611774 422.469609
L 62.611774 423.411711
L 62.950368 424.351917
L 63.626191 425.286439
L 64.636524 426.211517
L 65.977298 427.123423
L 67.643113 428.018487
L 69.627262 428.893105
L 71.921756 429.743754
L 74.517356 430.567009
L 77.40361 431.359556
L 80.568896 432.118203
L 84.000468 432.839895
L 87.684509 433.521726
L 91.606185 434.160951
L 95.749704 434.754997
L 100.098383 435.301469
L 104.634709 435.79817
L 109.340417 436.243097
L 114.19656 436.634461
L 119.183582 436.970684
L 124.281403 437.250413
L 129.469496 437.472522
L 134.72697 437.636117
L 140.032655 437.740538
L 145.365187 437.785365
L 150.703094 437.770417
L 156.024882 437.695756
L 161.309122 437.561681
L 166.534536 437.368732
L 171.680084 437.117686
L 176.725046 436.809555
L 181.649107 436.445578
L 186.43244 436.027222
L 191.055785 435.556171
L 195.500525 435.034322
L 199.748763 434.463775
L 203.783392 433.84683
L 207.588166 433.185969
L 211.147765 432.483853
L 214.447856 431.743311
L 217.475149 430.967324
L 220.217457 430.159016
L 222.663735 429.321642
L 224.804135 428.458574
L 226.630036 427.573287
L 228.134088 426.669347
L 229.310233 425.750392
L 230.153736 424.820124
L 230.6612 423.882288
L 230.830582 422.94066
" clip-path="url(#pa4af1380aa)" style="fill: none; stroke: #0063b9; stroke-width: 1.5; stroke-linecap: square"/>
   </g>
   <g id="line2d_12">
    <path d="M 206.189305 363.451355
L 205.403702 362.905295
L 204.381721 362.600976
L 203.127475 362.539623
L 201.646016 362.721485
L 199.943308 363.145827
L 198.026209 363.810942
L 195.902437 364.714152
L 193.580544 365.85182
L 191.06988 367.219364
L 188.380554 368.811278
L 185.523395 370.621152
L 182.509908 372.641698
L 179.352227 374.86478
L 176.063067 377.281447
L 172.655672 379.881967
L 169.143763 382.65587
L 165.541481 385.591985
L 161.863331 388.67849
L 158.124124 391.902957
L 154.338915 395.252402
L 150.522948 398.713337
L 146.691587 402.271828
L 142.860259 405.913544
L 139.044393 409.623823
L 135.259354 413.387724
L 131.520381 417.190091
L 127.842532 421.015614
L 124.240615 424.848888
L 120.729134 428.674478
L 117.322229 432.476981
L 114.033618 436.241084
L 110.876542 439.951631
L 107.863715 443.59368
L 105.007268 447.152568
L 102.318703 450.613962
L 99.808846 453.963926
L 97.487803 457.18897
L 95.36492 460.276108
L 93.448745 463.21291
L 91.746994 465.987549
L 90.26652 468.588854
L 89.013283 471.00635
L 87.992331 473.230302
L 87.207773 475.251755
L 86.66277 477.06257
L 86.359515 478.655455
L 86.29923 480.023997
L 86.482158 481.162684
L 86.907562 482.066931
L 87.573729 482.733098
L 88.477976 483.158502
L 89.616663 483.34143
L 90.985205 483.281145
L 92.57809 482.97789
L 94.388905 482.432887
L 96.410358 481.64833
L 98.63431 480.627377
L 101.051806 479.37414
L 103.653111 477.893666
L 106.42775 476.191915
L 109.364552 474.27574
L 112.45169 472.152857
L 115.676734 469.831814
L 119.026698 467.321957
L 122.488092 464.633392
L 126.04698 461.776945
L 129.689029 458.764118
L 133.399576 455.607042
L 137.163679 452.318431
L 140.966182 448.911526
L 144.791772 445.400045
L 148.625046 441.798128
L 152.450569 438.120279
L 156.252936 434.381306
L 160.016837 430.596267
L 163.727116 426.780401
L 167.368832 422.949073
L 170.927323 419.117712
L 174.388258 415.301745
L 177.737703 411.516536
L 180.96217 407.777329
L 184.048675 404.099179
L 186.98479 400.496897
L 189.758693 396.984988
L 192.359213 393.577593
L 194.77588 390.288433
L 196.998962 387.130752
L 199.019508 384.117265
L 200.829382 381.260106
L 202.421296 378.57078
L 203.78884 376.060116
L 204.926508 373.738223
L 205.829718 371.614451
L 206.494833 369.697352
L 206.919176 367.994644
L 207.101037 366.513185
L 207.039684 365.258939
L 206.735365 364.236958
L 206.189305 363.451355
" clip-path="url(#pa4af1380aa)" style="fill: none; stroke: #ba1a13; stroke-width: 1.5; stroke-linecap: square"/>
   </g>
   <g id="line2d_13">
    <path d="M 146.7 338.810078
L 145.758372 338.97946
L 144.820536 339.486924
L 143.890268 340.330427
L 142.971313 341.506572
L 142.067373 343.010624
L 141.182086 344.836525
L 140.319018 346.976925
L 139.481645 349.423203
L 138.673336 352.165511
L 137.897349 355.192804
L 137.156807 358.492895
L 136.454691 362.052494
L 135.79383 365.857268
L 135.176885 369.891897
L 134.606338 374.140135
L 134.084489 378.584875
L 133.613438 383.20822
L 133.195082 387.991553
L 132.831105 392.915614
L 132.522974 397.960576
L 132.271928 403.106124
L 132.078979 408.331538
L 131.944904 413.615778
L 131.870243 418.937566
L 131.855295 424.275473
L 131.900122 429.608005
L 132.004543 434.91369
L 132.168138 440.171164
L 132.390247 445.359257
L 132.669976 450.457078
L 133.006199 455.4441
L 133.397563 460.300243
L 133.84249 465.005951
L 134.339191 469.542277
L 134.885663 473.890956
L 135.479709 478.034475
L 136.118934 481.956151
L 136.800765 485.640192
L 137.522457 489.071764
L 138.281104 492.23705
L 139.073651 495.123304
L 139.896906 497.718904
L 140.747555 500.013398
L 141.622173 501.997547
L 142.517237 503.663362
L 143.429144 505.004136
L 144.354221 506.014469
L 145.288743 506.690292
L 146.228949 507.028886
L 147.171051 507.028886
L 148.111257 506.690292
L 149.045779 506.014469
L 149.970856 505.004136
L 150.882763 503.663362
L 151.777827 501.997547
L 152.652445 500.013398
L 153.503094 497.718904
L 154.326349 495.123304
L 155.118896 492.23705
L 155.877543 489.071764
L 156.599235 485.640192
L 157.281066 481.956151
L 157.920291 478.034475
L 158.514337 473.890956
L 159.060809 469.542277
L 159.55751 465.005951
L 160.002437 460.300243
L 160.393801 455.4441
L 160.730024 450.457078
L 161.009753 445.359257
L 161.231862 440.171164
L 161.395457 434.91369
L 161.499878 429.608005
L 161.544705 424.275473
L 161.529757 418.937566
L 161.455096 413.615778
L 161.321021 408.331538
L 161.128072 403.106124
L 160.877026 397.960576
L 160.568895 392.915614
L 160.204918 387.991553
L 159.786562 383.20822
L 159.315511 378.584875
L 158.793662 374.140135
L 158.223115 369.891897
L 157.60617 365.857268
L 156.945309 362.052494
L 156.243193 358.492895
L 155.502651 355.192804
L 154.726664 352.165511
L 153.918355 349.423203
L 153.080982 346.976925
L 152.217914 344.836525
L 151.332627 343.010624
L 150.428687 341.506572
L 149.509732 340.330427
L 148.579464 339.486924
L 147.641628 338.97946
L 146.7 338.810078
" clip-path="url(#pa4af1380aa)" style="fill: none; stroke: #34ba09; stroke-width: 1.5; stroke-linecap: square"/>
   </g>
   <g id="line2d_14">
    <path d="M 206.189305 482.429965
L 206.735365 481.644362
L 207.039684 480.622381
L 207.101037 479.368135
L 206.919176 477.886676
L 206.494833 476.183968
L 205.829718 474.266869
L 204.926508 472.143097
L 203.78884 469.821204
L 202.421296 467.31054
L 200.829382 464.621214
L 199.019508 461.764055
L 196.998962 458.750568
L 194.77588 455.592887
L 192.359213 452.303727
L 189.758693 448.896332
L 186.98479 445.384423
L 184.048675 441.782141
L 180.96217 438.103991
L 177.737703 434.364784
L 174.388258 430.579576
L 170.927323 426.763608
L 167.368832 422.932247
L 163.727116 419.100919
L 160.016837 415.285053
L 156.252936 411.500014
L 152.450569 407.761041
L 148.625046 404.083192
L 144.791772 400.481275
L 140.966182 396.969794
L 137.163679 393.562889
L 133.399576 390.274278
L 129.689029 387.117202
L 126.04698 384.104375
L 122.488092 381.247928
L 119.026698 378.559363
L 115.676734 376.049506
L 112.45169 373.728463
L 109.364552 371.60558
L 106.42775 369.689405
L 103.653111 367.987654
L 101.051806 366.50718
L 98.63431 365.253943
L 96.410358 364.232991
L 94.388905 363.448433
L 92.57809 362.90343
L 90.985205 362.600175
L 89.616663 362.53989
L 88.477976 362.722818
L 87.573729 363.148222
L 86.907562 363.814389
L 86.482158 364.718636
L 86.29923 365.857323
L 86.359515 367.225865
L 86.66277 368.81875
L 87.207773 370.629565
L 87.992331 372.651018
L 89.013283 374.87497
L 90.26652 377.292466
L 91.746994 379.893771
L 93.448745 382.66841
L 95.36492 385.605212
L 97.487803 388.69235
L 99.808846 391.917394
L 102.318703 395.267358
L 105.007268 398.728752
L 107.863715 402.28764
L 110.876542 405.929689
L 114.033618 409.640236
L 117.322229 413.404339
L 120.729134 417.206842
L 124.240615 421.032432
L 127.842532 424.865706
L 131.520381 428.691229
L 135.259354 432.493596
L 139.044393 436.257497
L 142.860259 439.967776
L 146.691587 443.609492
L 150.522948 447.167983
L 154.338915 450.628918
L 158.124124 453.978363
L 161.863331 457.20283
L 165.541481 460.289335
L 169.143763 463.22545
L 172.655672 465.999353
L 176.063067 468.599873
L 179.352227 471.01654
L 182.509908 473.239622
L 185.523395 475.260168
L 188.380554 477.070042
L 191.06988 478.661956
L 193.580544 480.0295
L 195.902437 481.167168
L 198.026209 482.070378
L 199.943308 482.735493
L 201.646016 483.159836
L 203.127475 483.341697
L 204.381721 483.280344
L 205.403702 482.976025
L 206.189305 482.429965
" clip-path="url(#pa4af1380aa)" style="fill: none; stroke: #ed6018; stroke-width: 1.5; stroke-linecap: square"/>
   </g>
   <g id="patch_15">
    <path d="M 47.722845 521.917815
L 47.722845 323.963505
" style="fill: none; stroke: #000000; stroke-width: 0.8; stroke-linejoin: miter; stroke-linecap: square"/>
   </g>
   <g id="patch_16">
    <path d="M 245.677155 521.917815
L 245.677155 323.963505
" style="fill: none; stroke: #000000; stroke-width: 0.8; stroke-linejoin: miter; stroke-linecap: square"/>
   </g>
   <g id="patch_17">
    <path d="M 47.722845 521.917815
L 245.677155 521.917815
" style="fill: none; stroke: #000000; stroke-width: 0.8; stroke-linejoin: miter; stroke-linecap: square"/>
   </g>
   <g id="patch_18">
    <path d="M 47.722845 323.963505
L 245.677155 323.963505
" style="fill: none; stroke: #000000; stroke-width: 0.8; stroke-linejoin: miter; stroke-linecap: square"/>
   </g>
   <g id="text_8">
    <!-- $e_\mathrm{abs} = 0.7$ -->
    <g transform="translate(107.474446 317.963505) scale(0.2 -0.2)">
     <defs>
      <path id="CMR17-37" d="M 2886 3955
L 2886 4096
L 1382 4096
C 634 4096 621 4166 595 4288
L 480 4288
L 294 3104
L 410 3104
C 429 3226 474 3552 550 3673
C 589 3724 1062 3724 1171 3724
L 2579 3724
L 1869 2670
C 1395 1961 1069 1003 1069 166
C 1069 89 1069 -128 1299 -128
C 1530 -128 1530 89 1530 172
L 1530 466
C 1530 1514 1709 2204 2003 2644
L 2886 3955
z
" transform="scale(0.015625)"/>
     </defs>
     <use xlink:href="#CMMI12-65" transform="scale(0.996264)"/>
     <use xlink:href="#CMR17-61" transform="translate(45.212001 -14.943915) scale(0.697382)"/>
     <use xlink:href="#CMR17-62" transform="translate(77.195183 -14.943915) scale(0.697382)"/>
     <use xlink:href="#CMR17-73" transform="translate(112.821791 -14.943915) scale(0.697382)"/>
     <use xlink:href="#CMR17-3d" transform="translate(166.054754 0) scale(0.996264)"/>
     <use xlink:href="#CMR17-30" transform="translate(265.443552 0) scale(0.996264)"/>
     <use xlink:href="#CMMI12-3a" transform="translate(311.134029 0) scale(0.996264)"/>
     <use xlink:href="#CMR17-37" transform="translate(338.231206 0) scale(0.996264)"/>
    </g>
   </g>
   <g id="legend_3">
    <g id="patch_19">
     <path d="M 39.777155 567.04814
L 253.622845 567.04814
Q 255.622845 567.04814 255.622845 565.04814
L 255.622845 538.173784
Q 255.622845 536.173784 253.622845 536.173784
L 39.777155 536.173784
Q 37.777155 536.173784 37.777155 538.173784
L 37.777155 565.04814
Q 37.777155 567.04814 39.777155 567.04814
z
" style="fill: #ffffff; opacity: 0.8; stroke: #cccccc; stroke-linejoin: miter"/>
    </g>
    <g id="line2d_15">
     <path d="M 41.777155 543.673784
L 51.777155 543.673784
L 61.777155 543.673784
" style="fill: none; stroke: #0063b9; stroke-width: 1.5; stroke-linecap: square"/>
    </g>
    <g id="text_9">
     <!-- $e_1$=0.7, $e_2$=0.0 -->
     <g transform="translate(69.777155 547.173784) scale(0.1 -0.1)">
      <use xlink:href="#CMMI12-65" transform="scale(0.996264)"/>
      <use xlink:href="#CMR17-31" transform="translate(45.212001 -14.943915) scale(0.697382)"/>
      <use xlink:href="#CMR17-3d" transform="translate(77.693315 0) scale(0.996264)"/>
      <use xlink:href="#CMR17-30" transform="translate(149.408103 0) scale(0.996264)"/>
      <use xlink:href="#CMR17-2e" transform="translate(195.098581 0) scale(0.996264)"/>
      <use xlink:href="#CMR17-37" transform="translate(219.969639 0) scale(0.996264)"/>
      <use xlink:href="#CMR17-2c" transform="translate(265.660116 0) scale(0.996264)"/>
      <use xlink:href="#CMMI12-65" transform="translate(320.607141 0) scale(0.996264)"/>
      <use xlink:href="#CMR17-32" transform="translate(365.819142 -14.943915) scale(0.697382)"/>
      <use xlink:href="#CMR17-3d" transform="translate(398.300456 0) scale(0.996264)"/>
      <use xlink:href="#CMR17-30" transform="translate(470.015244 0) scale(0.996264)"/>
      <use xlink:href="#CMR17-2e" transform="translate(515.705721 0) scale(0.996264)"/>
      <use xlink:href="#CMR17-30" transform="translate(540.57678 0) scale(0.996264)"/>
     </g>
    </g>
    <g id="line2d_16">
     <path d="M 41.777155 557.610962
L 51.777155 557.610962
L 61.777155 557.610962
" style="fill: none; stroke: #ba1a13; stroke-width: 1.5; stroke-linecap: square"/>
    </g>
    <g id="text_10">
     <!-- $e_1$=0.0, $e_2$=0.7 -->
     <g transform="translate(69.777155 561.110962) scale(0.1 -0.1)">
      <use xlink:href="#CMMI12-65" transform="scale(0.996264)"/>
      <use xlink:href="#CMR17-31" transform="translate(45.212001 -14.943915) scale(0.697382)"/>
      <use xlink:href="#CMR17-3d" transform="translate(77.693315 0) scale(0.996264)"/>
      <use xlink:href="#CMR17-30" transform="translate(149.408103 0) scale(0.996264)"/>
      <use xlink:href="#CMR17-2e" transform="translate(195.098581 0) scale(0.996264)"/>
      <use xlink:href="#CMR17-30" transform="translate(219.969639 0) scale(0.996264)"/>
      <use xlink:href="#CMR17-2c" transform="translate(265.660116 0) scale(0.996264)"/>
      <use xlink:href="#CMMI12-65" transform="translate(320.607141 0) scale(0.996264)"/>
      <use xlink:href="#CMR17-32" transform="translate(365.819142 -14.943915) scale(0.697382)"/>
      <use xlink:href="#CMR17-3d" transform="translate(398.300456 0) scale(0.996264)"/>
      <use xlink:href="#CMR17-30" transform="translate(470.015244 0) scale(0.996264)"/>
      <use xlink:href="#CMR17-2e" transform="translate(515.705721 0) scale(0.996264)"/>
      <use xlink:href="#CMR17-37" transform="translate(540.57678 0) scale(0.996264)"/>
     </g>
    </g>
    <g id="line2d_17">
     <path d="M 155.039563 543.673784
L 165.039563 543.673784
L 175.039563 543.673784
" style="fill: none; stroke: #34ba09; stroke-width: 1.5; stroke-linecap: square"/>
    </g>
    <g id="text_11">
     <!-- $e_1$=-0.7, $e_2$=0.0 -->
     <g transform="translate(183.039563 547.173784) scale(0.1 -0.1)">
      <use xlink:href="#CMMI12-65" transform="scale(0.996264)"/>
      <use xlink:href="#CMR17-31" transform="translate(45.212001 -14.943915) scale(0.697382)"/>
      <use xlink:href="#CMR17-3d" transform="translate(77.693315 0) scale(0.996264)"/>
      <use xlink:href="#CMR17-2d" transform="translate(149.408103 0) scale(0.996264)"/>
      <use xlink:href="#CMR17-30" transform="translate(179.48407 0) scale(0.996264)"/>
      <use xlink:href="#CMR17-2e" transform="translate(225.174547 0) scale(0.996264)"/>
      <use xlink:href="#CMR17-37" transform="translate(250.045605 0) scale(0.996264)"/>
      <use xlink:href="#CMR17-2c" transform="translate(295.736082 0) scale(0.996264)"/>
      <use xlink:href="#CMMI12-65" transform="translate(350.683107 0) scale(0.996264)"/>
      <use xlink:href="#CMR17-32" transform="translate(395.895108 -14.943915) scale(0.697382)"/>
      <use xlink:href="#CMR17-3d" transform="translate(428.376422 0) scale(0.996264)"/>
      <use xlink:href="#CMR17-30" transform="translate(500.091211 0) scale(0.996264)"/>
      <use xlink:href="#CMR17-2e" transform="translate(545.781688 0) scale(0.996264)"/>
      <use xlink:href="#CMR17-30" transform="translate(570.652746 0) scale(0.996264)"/>
     </g>
    </g>
    <g id="line2d_18">
     <path d="M 155.039563 557.610962
L 165.039563 557.610962
L 175.039563 557.610962
" style="fill: none; stroke: #ed6018; stroke-width: 1.5; stroke-linecap: square"/>
    </g>
    <g id="text_12">
     <!-- $e_1$=0.0, $e_2$=-0.7 -->
     <g transform="translate(183.039563 561.110962) scale(0.1 -0.1)">
      <use xlink:href="#CMMI12-65" transform="scale(0.996264)"/>
      <use xlink:href="#CMR17-31" transform="translate(45.212001 -14.943915) scale(0.697382)"/>
      <use xlink:href="#CMR17-3d" transform="translate(77.693315 0) scale(0.996264)"/>
      <use xlink:href="#CMR17-30" transform="translate(149.408103 0) scale(0.996264)"/>
      <use xlink:href="#CMR17-2e" transform="translate(195.098581 0) scale(0.996264)"/>
      <use xlink:href="#CMR17-30" transform="translate(219.969639 0) scale(0.996264)"/>
      <use xlink:href="#CMR17-2c" transform="translate(265.660116 0) scale(0.996264)"/>
      <use xlink:href="#CMMI12-65" transform="translate(320.607141 0) scale(0.996264)"/>
      <use xlink:href="#CMR17-32" transform="translate(365.819142 -14.943915) scale(0.697382)"/>
      <use xlink:href="#CMR17-3d" transform="translate(398.300456 0) scale(0.996264)"/>
      <use xlink:href="#CMR17-2d" transform="translate(470.015244 0) scale(0.996264)"/>
      <use xlink:href="#CMR17-30" transform="translate(500.091211 0) scale(0.996264)"/>
      <use xlink:href="#CMR17-2e" transform="translate(545.781688 0) scale(0.996264)"/>
      <use xlink:href="#CMR17-37" transform="translate(570.652746 0) scale(0.996264)"/>
     </g>
    </g>
   </g>
  </g>
  <g id="axes_4">
   <g id="patch_20">
    <path d="M 330.322845 521.917815
L 528.277155 521.917815
L 528.277155 323.963505
L 330.322845 323.963505
z
" style="fill: #ffffff"/>
   </g>
   <g id="matplotlib.axis_7"/>
   <g id="matplotlib.axis_8"/>
   <g id="line2d_19">
    <path d="M 528.277155 422.94066
L 528.077882 422.94066
L 527.480866 422.94066
L 526.488509 422.94066
L 525.104809 422.94066
L 523.335337 422.94066
L 521.187217 422.94066
L 518.6691 422.94066
L 515.791126 422.94066
L 512.564882 422.94066
L 509.003359 422.94066
L 505.1209 422.94066
L 500.933136 422.94066
L 496.456931 422.94066
L 491.710309 422.94066
L 486.712383 422.94066
L 481.483277 422.94066
L 476.044048 422.94066
L 470.416596 422.94066
L 464.623583 422.94066
L 458.688334 422.94066
L 452.634749 422.94066
L 446.487203 422.94066
L 440.27045 422.94066
L 434.009523 422.94066
L 427.729632 422.94066
L 421.456065 422.94066
L 415.214082 422.94066
L 409.028819 422.94066
L 402.92518 422.94066
L 396.927743 422.94066
L 391.060658 422.94066
L 385.34755 422.94066
L 379.811422 422.94066
L 374.474568 422.94066
L 369.358476 422.94066
L 364.483747 422.94066
L 359.870011 422.94066
L 355.535845 422.94066
L 351.498701 422.94066
L 347.774835 422.94066
L 344.379242 422.94066
L 341.325596 422.94066
L 338.626191 422.94066
L 336.291897 422.94066
L 334.332115 422.94066
L 332.754734 422.94066
L 331.566108 422.94066
L 330.771021 422.94066
L 330.372675 422.94066
L 330.372675 422.94066
L 330.771021 422.94066
L 331.566108 422.94066
L 332.754734 422.94066
L 334.332115 422.94066
L 336.291897 422.94066
L 338.626191 422.94066
L 341.325596 422.94066
L 344.379242 422.94066
L 347.774835 422.94066
L 351.498701 422.94066
L 355.535845 422.94066
L 359.870011 422.94066
L 364.483747 422.94066
L 369.358476 422.94066
L 374.474568 422.94066
L 379.811422 422.94066
L 385.34755 422.94066
L 391.060658 422.94066
L 396.927743 422.94066
L 402.92518 422.94066
L 409.028819 422.94066
L 415.214082 422.94066
L 421.456065 422.94066
L 427.729632 422.94066
L 434.009523 422.94066
L 440.27045 422.94066
L 446.487203 422.94066
L 452.634749 422.94066
L 458.688334 422.94066
L 464.623583 422.94066
L 470.416596 422.94066
L 476.044048 422.94066
L 481.483277 422.94066
L 486.712383 422.94066
L 491.710309 422.94066
L 496.456931 422.94066
L 500.933136 422.94066
L 505.1209 422.94066
L 509.003359 422.94066
L 512.564882 422.94066
L 515.791126 422.94066
L 518.6691 422.94066
L 521.187217 422.94066
L 523.335337 422.94066
L 525.104809 422.94066
L 526.488509 422.94066
L 527.480866 422.94066
L 528.077882 422.94066
L 528.277155 422.94066
" clip-path="url(#pfad4fa64e8)" style="fill: none; stroke: #0063b9; stroke-width: 1.5; stroke-linecap: square"/>
   </g>
   <g id="line2d_20">
    <path d="M 499.287418 352.953242
L 499.14651 353.09415
L 498.724356 353.516304
L 498.022654 354.218006
L 497.04423 355.19643
L 495.793024 356.447636
L 494.274074 357.966586
L 492.493497 359.747163
L 490.458461 361.782199
L 488.177162 364.063498
L 485.658786 366.581874
L 482.913472 369.327188
L 479.952276 372.288384
L 476.787122 375.453538
L 473.430753 378.809907
L 469.896685 382.343975
L 466.199149 386.041511
L 462.353033 389.887627
L 458.373824 393.866836
L 454.277545 397.963115
L 450.08069 402.15997
L 445.800159 406.440501
L 441.453188 410.787472
L 437.057279 415.183381
L 432.630135 419.610525
L 428.189582 424.051078
L 423.7535 428.48716
L 419.339752 432.900908
L 414.96611 437.27455
L 410.650186 441.590474
L 406.409358 445.831302
L 402.260702 449.979958
L 398.220924 454.019736
L 394.306291 457.934369
L 390.532565 461.708095
L 386.914942 465.325718
L 383.467988 468.772672
L 380.205584 472.035076
L 377.140866 475.099794
L 374.286174 477.954486
L 371.653003 480.587657
L 369.251956 482.988704
L 367.092702 485.147958
L 365.183935 487.056725
L 363.53334 488.70732
L 362.147564 490.093096
L 361.032188 491.208472
L 360.191702 492.048958
L 359.629491 492.611169
L 359.347818 492.892842
L 359.347818 492.892842
L 359.629491 492.611169
L 360.191702 492.048958
L 361.032188 491.208472
L 362.147564 490.093096
L 363.53334 488.70732
L 365.183935 487.056725
L 367.092702 485.147958
L 369.251956 482.988704
L 371.653003 480.587657
L 374.286174 477.954486
L 377.140866 475.099794
L 380.205584 472.035076
L 383.467988 468.772672
L 386.914942 465.325718
L 390.532565 461.708095
L 394.306291 457.934369
L 398.220924 454.019736
L 402.260702 449.979958
L 406.409358 445.831302
L 410.650186 441.590474
L 414.96611 437.27455
L 419.339752 432.900908
L 423.7535 428.48716
L 428.189582 424.051078
L 432.630135 419.610525
L 437.057279 415.183381
L 441.453188 410.787472
L 445.800159 406.440501
L 450.08069 402.15997
L 454.277545 397.963115
L 458.373824 393.866836
L 462.353033 389.887627
L 466.199149 386.041511
L 469.896685 382.343975
L 473.430753 378.809907
L 476.787122 375.453538
L 479.952276 372.288384
L 482.913472 369.327188
L 485.658786 366.581874
L 488.177162 364.063498
L 490.458461 361.782199
L 492.493497 359.747163
L 494.274074 357.966586
L 495.793024 356.447636
L 497.04423 355.19643
L 498.022654 354.218006
L 498.724356 353.516304
L 499.14651 353.09415
L 499.287418 352.953242
" clip-path="url(#pfad4fa64e8)" style="fill: none; stroke: #ba1a13; stroke-width: 1.5; stroke-linecap: square"/>
   </g>
   <g id="line2d_21">
    <path d="M 429.3 323.963505
L 429.3 324.162778
L 429.3 324.759794
L 429.3 325.752151
L 429.3 327.135851
L 429.3 328.905323
L 429.3 331.053443
L 429.3 333.57156
L 429.3 336.449534
L 429.3 339.675778
L 429.3 343.237301
L 429.3 347.11976
L 429.3 351.307524
L 429.3 355.783729
L 429.3 360.530351
L 429.3 365.528277
L 429.3 370.757383
L 429.3 376.196612
L 429.3 381.824064
L 429.3 387.617077
L 429.3 393.552326
L 429.3 399.605911
L 429.3 405.753457
L 429.3 411.97021
L 429.3 418.231137
L 429.3 424.511028
L 429.3 430.784595
L 429.3 437.026578
L 429.3 443.211841
L 429.3 449.31548
L 429.3 455.312917
L 429.3 461.180002
L 429.3 466.89311
L 429.3 472.429238
L 429.3 477.766092
L 429.3 482.882184
L 429.3 487.756913
L 429.3 492.370649
L 429.3 496.704815
L 429.3 500.741959
L 429.3 504.465825
L 429.3 507.861418
L 429.3 510.915064
L 429.3 513.614469
L 429.3 515.948763
L 429.3 517.908545
L 429.3 519.485926
L 429.3 520.674552
L 429.3 521.469639
L 429.3 521.867985
L 429.3 521.867985
L 429.3 521.469639
L 429.3 520.674552
L 429.3 519.485926
L 429.3 517.908545
L 429.3 515.948763
L 429.3 513.614469
L 429.3 510.915064
L 429.3 507.861418
L 429.3 504.465825
L 429.3 500.741959
L 429.3 496.704815
L 429.3 492.370649
L 429.3 487.756913
L 429.3 482.882184
L 429.3 477.766092
L 429.3 472.429238
L 429.3 466.89311
L 429.3 461.180002
L 429.3 455.312917
L 429.3 449.31548
L 429.3 443.211841
L 429.3 437.026578
L 429.3 430.784595
L 429.3 424.511028
L 429.3 418.231137
L 429.3 411.97021
L 429.3 405.753457
L 429.3 399.605911
L 429.3 393.552326
L 429.3 387.617077
L 429.3 381.824064
L 429.3 376.196612
L 429.3 370.757383
L 429.3 365.528277
L 429.3 360.530351
L 429.3 355.783729
L 429.3 351.307524
L 429.3 347.11976
L 429.3 343.237301
L 429.3 339.675778
L 429.3 336.449534
L 429.3 333.57156
L 429.3 331.053443
L 429.3 328.905323
L 429.3 327.135851
L 429.3 325.752151
L 429.3 324.759794
L 429.3 324.162778
L 429.3 323.963505
" clip-path="url(#pfad4fa64e8)" style="fill: none; stroke: #34ba09; stroke-width: 1.5; stroke-linecap: square"/>
   </g>
   <g id="line2d_22">
    <path d="M 499.287418 492.928078
L 499.14651 492.78717
L 498.724356 492.365016
L 498.022654 491.663314
L 497.04423 490.68489
L 495.793024 489.433684
L 494.274074 487.914734
L 492.493497 486.134157
L 490.458461 484.099121
L 488.177162 481.817822
L 485.658786 479.299446
L 482.913472 476.554133
L 479.952276 473.592937
L 476.787122 470.427782
L 473.430753 467.071413
L 469.896685 463.537345
L 466.199149 459.839809
L 462.353033 455.993693
L 458.373824 452.014484
L 454.277545 447.918205
L 450.08069 443.72135
L 445.800159 439.440819
L 441.453188 435.093848
L 437.057279 430.697939
L 432.630135 426.270795
L 428.189582 421.830242
L 423.7535 417.39416
L 419.339752 412.980412
L 414.96611 408.60677
L 410.650186 404.290846
L 406.409358 400.050018
L 402.260702 395.901362
L 398.220924 391.861584
L 394.306291 387.946951
L 390.532565 384.173225
L 386.914942 380.555602
L 383.467988 377.108648
L 380.205584 373.846244
L 377.140866 370.781526
L 374.286174 367.926834
L 371.653003 365.293663
L 369.251956 362.892616
L 367.092702 360.733362
L 365.183935 358.824595
L 363.53334 357.174
L 362.147564 355.788224
L 361.032188 354.672848
L 360.191702 353.832362
L 359.629491 353.270151
L 359.347818 352.988478
L 359.347818 352.988478
L 359.629491 353.270151
L 360.191702 353.832362
L 361.032188 354.672848
L 362.147564 355.788224
L 363.53334 357.174
L 365.183935 358.824595
L 367.092702 360.733362
L 369.251956 362.892616
L 371.653003 365.293663
L 374.286174 367.926834
L 377.140866 370.781526
L 380.205584 373.846244
L 383.467988 377.108648
L 386.914942 380.555602
L 390.532565 384.173225
L 394.306291 387.946951
L 398.220924 391.861584
L 402.260702 395.901362
L 406.409358 400.050018
L 410.650186 404.290846
L 414.96611 408.60677
L 419.339752 412.980412
L 423.7535 417.39416
L 428.189582 421.830242
L 432.630135 426.270795
L 437.057279 430.697939
L 441.453188 435.093848
L 445.800159 439.440819
L 450.08069 443.72135
L 454.277545 447.918205
L 458.373824 452.014484
L 462.353033 455.993693
L 466.199149 459.839809
L 469.896685 463.537345
L 473.430753 467.071413
L 476.787122 470.427782
L 479.952276 473.592937
L 482.913472 476.554133
L 485.658786 479.299446
L 488.177162 481.817822
L 490.458461 484.099121
L 492.493497 486.134157
L 494.274074 487.914734
L 495.793024 489.433684
L 497.04423 490.68489
L 498.022654 491.663314
L 498.724356 492.365016
L 499.14651 492.78717
L 499.287418 492.928078
" clip-path="url(#pfad4fa64e8)" style="fill: none; stroke: #ed6018; stroke-width: 1.5; stroke-linecap: square"/>
   </g>
   <g id="patch_21">
    <path d="M 330.322845 521.917815
L 330.322845 323.963505
" style="fill: none; stroke: #000000; stroke-width: 0.8; stroke-linejoin: miter; stroke-linecap: square"/>
   </g>
   <g id="patch_22">
    <path d="M 528.277155 521.917815
L 528.277155 323.963505
" style="fill: none; stroke: #000000; stroke-width: 0.8; stroke-linejoin: miter; stroke-linecap: square"/>
   </g>
   <g id="patch_23">
    <path d="M 330.322845 521.917815
L 528.277155 521.917815
" style="fill: none; stroke: #000000; stroke-width: 0.8; stroke-linejoin: miter; stroke-linecap: square"/>
   </g>
   <g id="patch_24">
    <path d="M 330.322845 323.963505
L 528.277155 323.963505
" style="fill: none; stroke: #000000; stroke-width: 0.8; stroke-linejoin: miter; stroke-linecap: square"/>
   </g>
   <g id="text_13">
    <!-- $e_\mathrm{abs} = 1$ -->
    <g transform="translate(397.353211 317.963505) scale(0.2 -0.2)">
     <use xlink:href="#CMMI12-65" transform="scale(0.996264)"/>
     <use xlink:href="#CMR17-61" transform="translate(45.212001 -14.943915) scale(0.697382)"/>
     <use xlink:href="#CMR17-62" transform="translate(77.195183 -14.943915) scale(0.697382)"/>
     <use xlink:href="#CMR17-73" transform="translate(112.821791 -14.943915) scale(0.697382)"/>
     <use xlink:href="#CMR17-3d" transform="translate(166.054754 0) scale(0.996264)"/>
     <use xlink:href="#CMR17-31" transform="translate(265.443552 0) scale(0.996264)"/>
    </g>
   </g>
   <g id="legend_4">
    <g id="patch_25">
     <path d="M 322.377155 567.04814
L 536.222845 567.04814
Q 538.222845 567.04814 538.222845 565.04814
L 538.222845 538.173784
Q 538.222845 536.173784 536.222845 536.173784
L 322.377155 536.173784
Q 320.377155 536.173784 320.377155 538.173784
L 320.377155 565.04814
Q 320.377155 567.04814 322.377155 567.04814
z
" style="fill: #ffffff; opacity: 0.8; stroke: #cccccc; stroke-linejoin: miter"/>
    </g>
    <g id="line2d_23">
     <path d="M 324.377155 543.673784
L 334.377155 543.673784
L 344.377155 543.673784
" style="fill: none; stroke: #0063b9; stroke-width: 1.5; stroke-linecap: square"/>
    </g>
    <g id="text_14">
     <!-- $e_1$=1.0, $e_2$=0.0 -->
     <g transform="translate(352.377155 547.173784) scale(0.1 -0.1)">
      <use xlink:href="#CMMI12-65" transform="scale(0.996264)"/>
      <use xlink:href="#CMR17-31" transform="translate(45.212001 -14.943915) scale(0.697382)"/>
      <use xlink:href="#CMR17-3d" transform="translate(77.693315 0) scale(0.996264)"/>
      <use xlink:href="#CMR17-31" transform="translate(149.408103 0) scale(0.996264)"/>
      <use xlink:href="#CMR17-2e" transform="translate(195.098581 0) scale(0.996264)"/>
      <use xlink:href="#CMR17-30" transform="translate(219.969639 0) scale(0.996264)"/>
      <use xlink:href="#CMR17-2c" transform="translate(265.660116 0) scale(0.996264)"/>
      <use xlink:href="#CMMI12-65" transform="translate(320.607141 0) scale(0.996264)"/>
      <use xlink:href="#CMR17-32" transform="translate(365.819142 -14.943915) scale(0.697382)"/>
      <use xlink:href="#CMR17-3d" transform="translate(398.300456 0) scale(0.996264)"/>
      <use xlink:href="#CMR17-30" transform="translate(470.015244 0) scale(0.996264)"/>
      <use xlink:href="#CMR17-2e" transform="translate(515.705721 0) scale(0.996264)"/>
      <use xlink:href="#CMR17-30" transform="translate(540.57678 0) scale(0.996264)"/>
     </g>
    </g>
    <g id="line2d_24">
     <path d="M 324.377155 557.610962
L 334.377155 557.610962
L 344.377155 557.610962
" style="fill: none; stroke: #ba1a13; stroke-width: 1.5; stroke-linecap: square"/>
    </g>
    <g id="text_15">
     <!-- $e_1$=0.0, $e_2$=1.0 -->
     <g transform="translate(352.377155 561.110962) scale(0.1 -0.1)">
      <use xlink:href="#CMMI12-65" transform="scale(0.996264)"/>
      <use xlink:href="#CMR17-31" transform="translate(45.212001 -14.943915) scale(0.697382)"/>
      <use xlink:href="#CMR17-3d" transform="translate(77.693315 0) scale(0.996264)"/>
      <use xlink:href="#CMR17-30" transform="translate(149.408103 0) scale(0.996264)"/>
      <use xlink:href="#CMR17-2e" transform="translate(195.098581 0) scale(0.996264)"/>
      <use xlink:href="#CMR17-30" transform="translate(219.969639 0) scale(0.996264)"/>
      <use xlink:href="#CMR17-2c" transform="translate(265.660116 0) scale(0.996264)"/>
      <use xlink:href="#CMMI12-65" transform="translate(320.607141 0) scale(0.996264)"/>
      <use xlink:href="#CMR17-32" transform="translate(365.819142 -14.943915) scale(0.697382)"/>
      <use xlink:href="#CMR17-3d" transform="translate(398.300456 0) scale(0.996264)"/>
      <use xlink:href="#CMR17-31" transform="translate(470.015244 0) scale(0.996264)"/>
      <use xlink:href="#CMR17-2e" transform="translate(515.705721 0) scale(0.996264)"/>
      <use xlink:href="#CMR17-30" transform="translate(540.57678 0) scale(0.996264)"/>
     </g>
    </g>
    <g id="line2d_25">
     <path d="M 437.639563 543.673784
L 447.639563 543.673784
L 457.639563 543.673784
" style="fill: none; stroke: #34ba09; stroke-width: 1.5; stroke-linecap: square"/>
    </g>
    <g id="text_16">
     <!-- $e_1$=-1.0, $e_2$=0.0 -->
     <g transform="translate(465.639563 547.173784) scale(0.1 -0.1)">
      <use xlink:href="#CMMI12-65" transform="scale(0.996264)"/>
      <use xlink:href="#CMR17-31" transform="translate(45.212001 -14.943915) scale(0.697382)"/>
      <use xlink:href="#CMR17-3d" transform="translate(77.693315 0) scale(0.996264)"/>
      <use xlink:href="#CMR17-2d" transform="translate(149.408103 0) scale(0.996264)"/>
      <use xlink:href="#CMR17-31" transform="translate(179.48407 0) scale(0.996264)"/>
      <use xlink:href="#CMR17-2e" transform="translate(225.174547 0) scale(0.996264)"/>
      <use xlink:href="#CMR17-30" transform="translate(250.045605 0) scale(0.996264)"/>
      <use xlink:href="#CMR17-2c" transform="translate(295.736082 0) scale(0.996264)"/>
      <use xlink:href="#CMMI12-65" transform="translate(350.683107 0) scale(0.996264)"/>
      <use xlink:href="#CMR17-32" transform="translate(395.895108 -14.943915) scale(0.697382)"/>
      <use xlink:href="#CMR17-3d" transform="translate(428.376422 0) scale(0.996264)"/>
      <use xlink:href="#CMR17-30" transform="translate(500.091211 0) scale(0.996264)"/>
      <use xlink:href="#CMR17-2e" transform="translate(545.781688 0) scale(0.996264)"/>
      <use xlink:href="#CMR17-30" transform="translate(570.652746 0) scale(0.996264)"/>
     </g>
    </g>
    <g id="line2d_26">
     <path d="M 437.639563 557.610962
L 447.639563 557.610962
L 457.639563 557.610962
" style="fill: none; stroke: #ed6018; stroke-width: 1.5; stroke-linecap: square"/>
    </g>
    <g id="text_17">
     <!-- $e_1$=0.0, $e_2$=-1.0 -->
     <g transform="translate(465.639563 561.110962) scale(0.1 -0.1)">
      <use xlink:href="#CMMI12-65" transform="scale(0.996264)"/>
      <use xlink:href="#CMR17-31" transform="translate(45.212001 -14.943915) scale(0.697382)"/>
      <use xlink:href="#CMR17-3d" transform="translate(77.693315 0) scale(0.996264)"/>
      <use xlink:href="#CMR17-30" transform="translate(149.408103 0) scale(0.996264)"/>
      <use xlink:href="#CMR17-2e" transform="translate(195.098581 0) scale(0.996264)"/>
      <use xlink:href="#CMR17-30" transform="translate(219.969639 0) scale(0.996264)"/>
      <use xlink:href="#CMR17-2c" transform="translate(265.660116 0) scale(0.996264)"/>
      <use xlink:href="#CMMI12-65" transform="translate(320.607141 0) scale(0.996264)"/>
      <use xlink:href="#CMR17-32" transform="translate(365.819142 -14.943915) scale(0.697382)"/>
      <use xlink:href="#CMR17-3d" transform="translate(398.300456 0) scale(0.996264)"/>
      <use xlink:href="#CMR17-2d" transform="translate(470.015244 0) scale(0.996264)"/>
      <use xlink:href="#CMR17-31" transform="translate(500.091211 0) scale(0.996264)"/>
      <use xlink:href="#CMR17-2e" transform="translate(545.781688 0) scale(0.996264)"/>
      <use xlink:href="#CMR17-30" transform="translate(570.652746 0) scale(0.996264)"/>
     </g>
    </g>
   </g>
  </g>
 </g>
 <defs>
  <clipPath id="p314ab1a11b">
   <rect x="47.722845" y="45.845006" width="197.954311" height="197.954311"/>
  </clipPath>
  <clipPath id="p9c36ac62f0">
   <rect x="330.322845" y="45.845006" width="197.954311" height="197.954311"/>
  </clipPath>
  <clipPath id="pa4af1380aa">
   <rect x="47.722845" y="323.963505" width="197.954311" height="197.954311"/>
  </clipPath>
  <clipPath id="pfad4fa64e8">
   <rect x="330.322845" y="323.963505" width="197.954311" height="197.954311"/>
  </clipPath>
 </defs>
</svg>
