<svg width="253" height="44" viewBox="0 0 253 44" fill="none" xmlns="http://www.w3.org/2000/svg">
<path d="M52.65 9H51.8L49.3875 5.3H46.725V9H46.025V-3.57628e-07H49.1C50.1083 -3.57628e-07 50.8833 0.2375 51.425 0.712499C51.975 1.17917 52.25 1.84167 52.25 2.7C52.25 3.325 52.05 3.85417 51.65 4.2875C51.2583 4.72083 50.7458 5.02083 50.1125 5.1875L52.65 9ZM49.125 0.599999H46.725V4.7H49.1C49.8417 4.7 50.4292 4.51667 50.8625 4.15C51.2958 3.78333 51.5125 3.3 51.5125 2.7C51.5125 2.025 51.3083 1.50833 50.9 1.15C50.5 0.783333 49.9083 0.599999 49.125 0.599999ZM58.3407 7.225H59.0532C58.8949 7.825 58.5741 8.30417 58.0907 8.6625C57.6157 9.0125 57.0366 9.1875 56.3532 9.1875C55.4449 9.1875 54.7032 8.8875 54.1282 8.2875C53.5532 7.67917 53.2657 6.83333 53.2657 5.75C53.2657 4.66667 53.5407 3.825 54.0907 3.225C54.6491 2.61667 55.3616 2.3125 56.2282 2.3125C57.1032 2.3125 57.8116 2.61667 58.3532 3.225C58.8949 3.83333 59.1657 4.72917 59.1657 5.9125H53.9532C53.9866 6.79583 54.2241 7.46667 54.6657 7.925C55.1157 8.38333 55.6824 8.6125 56.3657 8.6125C56.8574 8.6125 57.2782 8.49167 57.6282 8.25C57.9782 8 58.2157 7.65833 58.3407 7.225ZM56.2282 2.8625C55.6116 2.8625 55.0949 3.07917 54.6782 3.5125C54.2616 3.94583 54.0241 4.55833 53.9657 5.35H58.4657C58.4241 4.54167 58.1991 3.925 57.7907 3.5C57.3824 3.075 56.8616 2.8625 56.2282 2.8625ZM61.4568 9H60.7818V2.5H61.3443L61.4193 3.5125C61.6277 3.1125 61.911 2.8125 62.2693 2.6125C62.6277 2.4125 63.011 2.3125 63.4193 2.3125C64.4277 2.3125 65.0735 2.74167 65.3568 3.6C65.5652 3.16667 65.861 2.84583 66.2443 2.6375C66.636 2.42083 67.0485 2.3125 67.4818 2.3125C68.1402 2.3125 68.6527 2.50833 69.0193 2.9C69.3943 3.28333 69.5818 3.82917 69.5818 4.5375V9H68.9068V4.575C68.9068 3.45 68.386 2.8875 67.3443 2.8875C66.811 2.8875 66.3735 3.0875 66.0318 3.4875C65.6902 3.8875 65.5193 4.38333 65.5193 4.975V9H64.8443V4.575C64.8443 3.45 64.3318 2.8875 63.3068 2.8875C62.7818 2.8875 62.3402 3.0875 61.9818 3.4875C61.6318 3.8875 61.4568 4.37917 61.4568 4.9625V9ZM71.0636 5.75C71.0636 4.65 71.3427 3.80417 71.9011 3.2125C72.4594 2.6125 73.1802 2.3125 74.0636 2.3125C74.9552 2.3125 75.6761 2.6125 76.2261 3.2125C76.7761 3.80417 77.0511 4.65 77.0511 5.75C77.0511 6.85 76.7761 7.7 76.2261 8.3C75.6761 8.89167 74.9594 9.1875 74.0761 9.1875C73.1927 9.1875 72.4677 8.8875 71.9011 8.2875C71.3427 7.67917 71.0636 6.83333 71.0636 5.75ZM72.4011 3.6125C71.9761 4.1125 71.7636 4.825 71.7636 5.75C71.7636 6.675 71.9761 7.3875 72.4011 7.8875C72.8344 8.3875 73.3886 8.6375 74.0636 8.6375C74.7552 8.6375 75.3094 8.39167 75.7261 7.9C76.1427 7.4 76.3511 6.68333 76.3511 5.75C76.3511 4.81667 76.1427 4.10417 75.7261 3.6125C75.3094 3.1125 74.7552 2.8625 74.0636 2.8625C73.3802 2.8625 72.8261 3.1125 72.4011 3.6125ZM81.0416 3.0875H79.5291V7.7C79.5291 8.30833 79.8124 8.6125 80.3791 8.6125C80.6458 8.6125 80.9083 8.57917 81.1666 8.5125V9.0625C80.8833 9.14583 80.6083 9.1875 80.3416 9.1875C79.8666 9.1875 79.4999 9.05833 79.2416 8.8C78.9833 8.54167 78.8541 8.17083 78.8541 7.6875V3.0875H77.9166V2.5H78.8541L78.8916 0.937499H79.5291V2.5H81.0416V3.0875ZM87.015 7.225H87.7275C87.5692 7.825 87.2484 8.30417 86.765 8.6625C86.29 9.0125 85.7109 9.1875 85.0275 9.1875C84.1192 9.1875 83.3775 8.8875 82.8025 8.2875C82.2275 7.67917 81.94 6.83333 81.94 5.75C81.94 4.66667 82.215 3.825 82.765 3.225C83.3234 2.61667 84.0359 2.3125 84.9025 2.3125C85.7775 2.3125 86.4859 2.61667 87.0275 3.225C87.5692 3.83333 87.84 4.72917 87.84 5.9125H82.6275C82.6609 6.79583 82.8984 7.46667 83.34 7.925C83.79 8.38333 84.3567 8.6125 85.04 8.6125C85.5317 8.6125 85.9525 8.49167 86.3025 8.25C86.6525 8 86.89 7.65833 87.015 7.225ZM84.9025 2.8625C84.2859 2.8625 83.7692 3.07917 83.3525 3.5125C82.9359 3.94583 82.6984 4.55833 82.64 5.35H87.14C87.0984 4.54167 86.8734 3.925 86.465 3.5C86.0567 3.075 85.5359 2.8625 84.9025 2.8625ZM100.416 9H99.6412L98.6287 6.45H94.0787L93.0662 9H92.3287L95.9412 -3.57628e-07H96.8162L100.416 9ZM96.3787 0.675L94.3162 5.8625H98.4037L96.3787 0.675ZM101.405 2.5H102.08V6.9C102.08 7.45833 102.23 7.88333 102.53 8.175C102.83 8.46667 103.247 8.6125 103.78 8.6125C104.347 8.6125 104.81 8.4125 105.168 8.0125C105.535 7.60417 105.718 7.09583 105.718 6.4875V2.5H106.393V9H105.843L105.755 7.9625C105.53 8.3625 105.226 8.66667 104.843 8.875C104.46 9.08333 104.055 9.1875 103.63 9.1875C102.964 9.1875 102.426 8.99167 102.018 8.6C101.61 8.20833 101.405 7.64167 101.405 6.9V2.5ZM110.754 3.0875H109.241V7.7C109.241 8.30833 109.524 8.6125 110.091 8.6125C110.358 8.6125 110.62 8.57917 110.879 8.5125V9.0625C110.595 9.14583 110.32 9.1875 110.054 9.1875C109.579 9.1875 109.212 9.05833 108.954 8.8C108.695 8.54167 108.566 8.17083 108.566 7.6875V3.0875H107.629V2.5H108.566L108.604 0.937499H109.241V2.5H110.754V3.0875ZM111.652 5.75C111.652 4.65 111.931 3.80417 112.489 3.2125C113.048 2.6125 113.769 2.3125 114.652 2.3125C115.544 2.3125 116.264 2.6125 116.814 3.2125C117.364 3.80417 117.639 4.65 117.639 5.75C117.639 6.85 117.364 7.7 116.814 8.3C116.264 8.89167 115.548 9.1875 114.664 9.1875C113.781 9.1875 113.056 8.8875 112.489 8.2875C111.931 7.67917 111.652 6.83333 111.652 5.75ZM112.989 3.6125C112.564 4.1125 112.352 4.825 112.352 5.75C112.352 6.675 112.564 7.3875 112.989 7.8875C113.423 8.3875 113.977 8.6375 114.652 8.6375C115.344 8.6375 115.898 8.39167 116.314 7.9C116.731 7.4 116.939 6.68333 116.939 5.75C116.939 4.81667 116.731 4.10417 116.314 3.6125C115.898 3.1125 115.344 2.8625 114.652 2.8625C113.969 2.8625 113.414 3.1125 112.989 3.6125ZM119.867 9H119.192V2.5H119.755L119.83 3.5125C120.038 3.1125 120.322 2.8125 120.68 2.6125C121.038 2.4125 121.422 2.3125 121.83 2.3125C122.838 2.3125 123.484 2.74167 123.767 3.6C123.976 3.16667 124.272 2.84583 124.655 2.6375C125.047 2.42083 125.459 2.3125 125.892 2.3125C126.551 2.3125 127.063 2.50833 127.43 2.9C127.805 3.28333 127.992 3.82917 127.992 4.5375V9H127.317V4.575C127.317 3.45 126.797 2.8875 125.755 2.8875C125.222 2.8875 124.784 3.0875 124.442 3.4875C124.101 3.8875 123.93 4.38333 123.93 4.975V9H123.255V4.575C123.255 3.45 122.742 2.8875 121.717 2.8875C121.192 2.8875 120.751 3.0875 120.392 3.4875C120.042 3.8875 119.867 4.37917 119.867 4.9625V9ZM130.362 4.1875H129.662C129.712 3.62917 129.966 3.17917 130.424 2.8375C130.883 2.4875 131.47 2.3125 132.187 2.3125C132.92 2.3125 133.503 2.50417 133.937 2.8875C134.378 3.27083 134.599 3.79167 134.599 4.45V9H134.049L133.949 7.925C133.449 8.76667 132.683 9.1875 131.649 9.1875C131.008 9.1875 130.483 9.025 130.074 8.7C129.674 8.36667 129.474 7.91667 129.474 7.35C129.474 6.775 129.666 6.32083 130.049 5.9875C130.441 5.65417 131.083 5.4125 131.974 5.2625L133.924 4.9375V4.375C133.924 3.90833 133.766 3.54167 133.449 3.275C133.141 3 132.708 2.8625 132.149 2.8625C131.641 2.8625 131.224 2.98333 130.899 3.225C130.583 3.46667 130.403 3.7875 130.362 4.1875ZM131.824 8.6125C132.366 8.6125 132.849 8.42917 133.274 8.0625C133.708 7.69583 133.924 7.2375 133.924 6.6875V5.475L132.174 5.775C131.433 5.9 130.912 6.08333 130.612 6.325C130.32 6.56667 130.174 6.89167 130.174 7.3C130.174 7.725 130.324 8.05 130.624 8.275C130.924 8.5 131.324 8.6125 131.824 8.6125ZM138.903 3.0875H137.39V7.7C137.39 8.30833 137.674 8.6125 138.24 8.6125C138.507 8.6125 138.77 8.57917 139.028 8.5125V9.0625C138.745 9.14583 138.47 9.1875 138.203 9.1875C137.728 9.1875 137.361 9.05833 137.103 8.8C136.845 8.54167 136.715 8.17083 136.715 7.6875V3.0875H135.778V2.5H136.715L136.753 0.937499H137.39V2.5H138.903V3.0875ZM140.987 0.925H140.175V-3.57628e-07H140.987V0.925ZM140.912 9H140.237V2.5H140.912V9ZM142.463 5.75C142.463 4.65 142.742 3.80417 143.3 3.2125C143.858 2.6125 144.579 2.3125 145.463 2.3125C146.354 2.3125 147.075 2.6125 147.625 3.2125C148.175 3.80417 148.45 4.65 148.45 5.75C148.45 6.85 148.175 7.7 147.625 8.3C147.075 8.89167 146.358 9.1875 145.475 9.1875C144.592 9.1875 143.867 8.8875 143.3 8.2875C142.742 7.67917 142.463 6.83333 142.463 5.75ZM143.8 3.6125C143.375 4.1125 143.163 4.825 143.163 5.75C143.163 6.675 143.375 7.3875 143.8 7.8875C144.233 8.3875 144.788 8.6375 145.463 8.6375C146.154 8.6375 146.708 8.39167 147.125 7.9C147.542 7.4 147.75 6.68333 147.75 5.75C147.75 4.81667 147.542 4.10417 147.125 3.6125C146.708 3.1125 146.154 2.8625 145.463 2.8625C144.779 2.8625 144.225 3.1125 143.8 3.6125ZM150.678 9H150.003V2.5H150.566L150.641 3.6125C150.857 3.19583 151.157 2.875 151.541 2.65C151.932 2.425 152.353 2.3125 152.803 2.3125C153.495 2.3125 154.041 2.51667 154.441 2.925C154.849 3.325 155.053 3.875 155.053 4.575V9H154.378V4.6C154.378 4.05833 154.224 3.6375 153.916 3.3375C153.616 3.0375 153.195 2.8875 152.653 2.8875C152.136 2.8875 151.678 3.08333 151.278 3.475C150.878 3.85833 150.678 4.35417 150.678 4.9625V9ZM160.722 -3.57628e-07H163.26C164.568 -3.57628e-07 165.618 0.391666 166.41 1.175C167.201 1.95833 167.597 3.06667 167.597 4.5C167.597 5.9 167.189 7 166.372 7.8C165.564 8.6 164.514 9 163.222 9H160.722V-3.57628e-07ZM163.285 0.5875H161.422V8.4H163.31C164.385 8.4 165.247 8.0625 165.897 7.3875C166.556 6.70417 166.885 5.74167 166.885 4.5C166.885 3.25 166.551 2.2875 165.885 1.6125C165.226 0.929166 164.36 0.5875 163.285 0.5875ZM173.905 7.225H174.617C174.459 7.825 174.138 8.30417 173.655 8.6625C173.18 9.0125 172.601 9.1875 171.917 9.1875C171.009 9.1875 170.267 8.8875 169.692 8.2875C169.117 7.67917 168.83 6.83333 168.83 5.75C168.83 4.66667 169.105 3.825 169.655 3.225C170.213 2.61667 170.926 2.3125 171.792 2.3125C172.667 2.3125 173.376 2.61667 173.917 3.225C174.459 3.83333 174.73 4.72917 174.73 5.9125H169.517C169.551 6.79583 169.788 7.46667 170.23 7.925C170.68 8.38333 171.246 8.6125 171.93 8.6125C172.421 8.6125 172.842 8.49167 173.192 8.25C173.542 8 173.78 7.65833 173.905 7.225ZM171.792 2.8625C171.176 2.8625 170.659 3.07917 170.242 3.5125C169.826 3.94583 169.588 4.55833 169.53 5.35H174.03C173.988 4.54167 173.763 3.925 173.355 3.5C172.946 3.075 172.426 2.8625 171.792 2.8625ZM180.439 2.5H181.139L178.702 9H177.789L175.352 2.5H176.089L178.252 8.425L180.439 2.5ZM186.771 7.225H187.483C187.325 7.825 187.004 8.30417 186.521 8.6625C186.046 9.0125 185.467 9.1875 184.783 9.1875C183.875 9.1875 183.133 8.8875 182.558 8.2875C181.983 7.67917 181.696 6.83333 181.696 5.75C181.696 4.66667 181.971 3.825 182.521 3.225C183.079 2.61667 183.792 2.3125 184.658 2.3125C185.533 2.3125 186.242 2.61667 186.783 3.225C187.325 3.83333 187.596 4.72917 187.596 5.9125H182.383C182.417 6.79583 182.654 7.46667 183.096 7.925C183.546 8.38333 184.113 8.6125 184.796 8.6125C185.288 8.6125 185.708 8.49167 186.058 8.25C186.408 8 186.646 7.65833 186.771 7.225ZM184.658 2.8625C184.042 2.8625 183.525 3.07917 183.108 3.5125C182.692 3.94583 182.454 4.55833 182.396 5.35H186.896C186.854 4.54167 186.629 3.925 186.221 3.5C185.813 3.075 185.292 2.8625 184.658 2.8625ZM189.887 -3.57628e-07V9H189.212V-3.57628e-07H189.887ZM191.437 5.75C191.437 4.65 191.716 3.80417 192.275 3.2125C192.833 2.6125 193.554 2.3125 194.437 2.3125C195.329 2.3125 196.05 2.6125 196.6 3.2125C197.15 3.80417 197.425 4.65 197.425 5.75C197.425 6.85 197.15 7.7 196.6 8.3C196.05 8.89167 195.333 9.1875 194.45 9.1875C193.566 9.1875 192.841 8.8875 192.275 8.2875C191.716 7.67917 191.437 6.83333 191.437 5.75ZM192.775 3.6125C192.35 4.1125 192.137 4.825 192.137 5.75C192.137 6.675 192.35 7.3875 192.775 7.8875C193.208 8.3875 193.762 8.6375 194.437 8.6375C195.129 8.6375 195.683 8.39167 196.1 7.9C196.516 7.4 196.725 6.68333 196.725 5.75C196.725 4.81667 196.516 4.10417 196.1 3.6125C195.683 3.1125 195.129 2.8625 194.437 2.8625C193.754 2.8625 193.2 3.1125 192.775 3.6125ZM198.978 2.5H199.528L199.64 3.7125C199.848 3.2875 200.148 2.95 200.54 2.7C200.94 2.44167 201.407 2.3125 201.94 2.3125C202.765 2.3125 203.428 2.60417 203.928 3.1875C204.428 3.7625 204.678 4.59167 204.678 5.675C204.678 6.79167 204.415 7.65833 203.89 8.275C203.365 8.88333 202.69 9.1875 201.865 9.1875C201.357 9.1875 200.911 9.06667 200.528 8.825C200.153 8.58333 199.861 8.25417 199.653 7.8375V11.25H198.978V2.5ZM203.978 5.6625C203.978 4.74583 203.778 4.05417 203.378 3.5875C202.986 3.12083 202.461 2.8875 201.803 2.8875C201.186 2.8875 200.665 3.125 200.24 3.6C199.815 4.06667 199.603 4.78333 199.603 5.75C199.603 6.675 199.798 7.38333 200.19 7.875C200.59 8.36667 201.115 8.6125 201.765 8.6125C202.423 8.6125 202.957 8.3625 203.365 7.8625C203.773 7.35417 203.978 6.62083 203.978 5.6625ZM206.904 9H206.229V2.5H206.791L206.866 3.5125C207.074 3.1125 207.358 2.8125 207.716 2.6125C208.074 2.4125 208.458 2.3125 208.866 2.3125C209.874 2.3125 210.52 2.74167 210.804 3.6C211.012 3.16667 211.308 2.84583 211.691 2.6375C212.083 2.42083 212.495 2.3125 212.929 2.3125C213.587 2.3125 214.099 2.50833 214.466 2.9C214.841 3.28333 215.029 3.82917 215.029 4.5375V9H214.354V4.575C214.354 3.45 213.833 2.8875 212.791 2.8875C212.258 2.8875 211.82 3.0875 211.479 3.4875C211.137 3.8875 210.966 4.38333 210.966 4.975V9H210.291V4.575C210.291 3.45 209.779 2.8875 208.754 2.8875C208.229 2.8875 207.787 3.0875 207.429 3.4875C207.079 3.8875 206.904 4.37917 206.904 4.9625V9ZM221.585 7.225H222.298C222.14 7.825 221.819 8.30417 221.335 8.6625C220.86 9.0125 220.281 9.1875 219.598 9.1875C218.69 9.1875 217.948 8.8875 217.373 8.2875C216.798 7.67917 216.51 6.83333 216.51 5.75C216.51 4.66667 216.785 3.825 217.335 3.225C217.894 2.61667 218.606 2.3125 219.473 2.3125C220.348 2.3125 221.056 2.61667 221.598 3.225C222.14 3.83333 222.41 4.72917 222.41 5.9125H217.198C217.231 6.79583 217.469 7.46667 217.91 7.925C218.36 8.38333 218.927 8.6125 219.61 8.6125C220.102 8.6125 220.523 8.49167 220.873 8.25C221.223 8 221.46 7.65833 221.585 7.225ZM219.473 2.8625C218.856 2.8625 218.34 3.07917 217.923 3.5125C217.506 3.94583 217.269 4.55833 217.21 5.35H221.71C221.669 4.54167 221.444 3.925 221.035 3.5C220.627 3.075 220.106 2.8625 219.473 2.8625ZM224.701 9H224.026V2.5H224.589L224.664 3.6125C224.881 3.19583 225.181 2.875 225.564 2.65C225.956 2.425 226.376 2.3125 226.826 2.3125C227.518 2.3125 228.064 2.51667 228.464 2.925C228.872 3.325 229.076 3.875 229.076 4.575V9H228.401V4.6C228.401 4.05833 228.247 3.6375 227.939 3.3375C227.639 3.0375 227.218 2.8875 226.676 2.8875C226.16 2.8875 225.701 3.08333 225.301 3.475C224.901 3.85833 224.701 4.35417 224.701 4.9625V9ZM233.373 3.0875H231.861V7.7C231.861 8.30833 232.144 8.6125 232.711 8.6125C232.977 8.6125 233.24 8.57917 233.498 8.5125V9.0625C233.215 9.14583 232.94 9.1875 232.673 9.1875C232.198 9.1875 231.831 9.05833 231.573 8.8C231.315 8.54167 231.186 8.17083 231.186 7.6875V3.0875H230.248V2.5H231.186L231.223 0.937499H231.861V2.5H233.373V3.0875ZM244.793 9H243.843L239.218 4.575V9H238.518V-3.57628e-07H239.218V4.1875L243.555 -3.57628e-07H244.418L239.93 4.3375L244.793 9ZM246.651 0.925H245.839V-3.57628e-07H246.651V0.925ZM246.576 9H245.901V2.5H246.576V9ZM250.939 3.0875H249.427V7.7C249.427 8.30833 249.71 8.6125 250.277 8.6125C250.543 8.6125 250.806 8.57917 251.064 8.5125V9.0625C250.781 9.14583 250.506 9.1875 250.239 9.1875C249.764 9.1875 249.397 9.05833 249.139 8.8C248.881 8.54167 248.752 8.17083 248.752 7.6875V3.0875H247.814V2.5H248.752L248.789 0.937499H249.427V2.5H250.939V3.0875Z" fill="black"/>
<path d="M61.666 39H59.592L53.7055 29.972H47.209V39H45.501V17.04H53.004C55.4643 17.04 57.3553 17.6195 58.677 18.7785C60.019 19.9172 60.69 21.5337 60.69 23.628C60.69 25.153 60.202 26.4442 59.226 27.5015C58.2703 28.5588 57.0198 29.2908 55.4745 29.6975L61.666 39ZM53.065 18.504H47.209V28.508H53.004C54.8137 28.508 56.2472 28.0607 57.3045 27.166C58.3618 26.2713 58.8905 25.092 58.8905 23.628C58.8905 21.981 58.3923 20.7203 57.396 19.846C56.42 18.9513 54.9763 18.504 53.065 18.504ZM82.1286 39H80.2376L77.7671 32.778H66.6651L64.1946 39H62.3951L71.2096 17.04H73.3446L82.1286 39ZM72.2771 18.687L67.2446 31.3445H77.2181L72.2771 18.687ZM84.8472 17.04H91.0387C94.231 17.04 96.793 17.9957 98.7247 19.907C100.656 21.8183 101.622 24.5227 101.622 28.02C101.622 31.436 100.626 34.12 98.6332 36.072C96.6609 38.024 94.0989 39 90.9472 39H84.8472V17.04ZM91.0997 18.4735H86.5552V37.536H91.1607C93.7837 37.536 95.8882 36.7125 97.4742 35.0655C99.0805 33.3982 99.8837 31.0497 99.8837 28.02C99.8837 24.97 99.0704 22.6215 97.4437 20.9745C95.8374 19.3072 93.7227 18.4735 91.0997 18.4735ZM121.008 39H118.69L107.405 28.203V39H105.697V17.04H107.405V27.2575L117.988 17.04H120.093L109.143 27.6235L121.008 39ZM125.543 19.297H123.561V17.04H125.543V19.297ZM125.36 39H123.713V23.14H125.36V39ZM136.005 24.5735H132.314V35.828C132.314 37.3123 133.006 38.0545 134.388 38.0545C135.039 38.0545 135.68 37.9732 136.31 37.8105V39.1525C135.619 39.3558 134.948 39.4575 134.297 39.4575C133.138 39.4575 132.243 39.1423 131.613 38.512C130.983 37.8817 130.667 36.9768 130.667 35.7975V24.5735H128.38V23.14H130.667L130.759 19.3275H132.314V23.14H136.005V24.5735Z" fill="black"/>
<path d="M161.49 33.0525C161.49 32.3205 161.317 31.7308 160.971 31.2835C160.646 30.8362 159.985 30.3888 158.989 29.9415C158.013 29.4942 156.538 28.996 154.566 28.447C152.085 27.7557 150.347 26.9322 149.351 25.9765C148.375 25.0208 147.887 23.7703 147.887 22.225C147.887 20.578 148.578 19.2258 149.961 18.1685C151.364 17.1112 153.295 16.5825 155.756 16.5825C158.135 16.5825 160.107 17.1112 161.673 18.1685C163.259 19.2258 164.184 20.6797 164.448 22.53H161.246C161.083 21.4523 160.534 20.6187 159.599 20.029C158.663 19.4393 157.382 19.1445 155.756 19.1445C154.17 19.1445 152.98 19.419 152.187 19.968C151.394 20.517 150.998 21.2287 150.998 22.103C150.998 22.9977 151.353 23.7093 152.065 24.238C152.777 24.7667 154.342 25.3665 156.762 26.0375C159.751 26.8712 161.805 27.7963 162.923 28.813C164.041 29.8297 164.601 31.2022 164.601 32.9305C164.601 34.7198 163.828 36.255 162.283 37.536C160.737 38.817 158.653 39.4575 156.03 39.4575C153.651 39.4575 151.648 38.8577 150.022 37.658C148.395 36.4583 147.429 34.852 147.124 32.839H150.327C150.51 34.0997 151.089 35.096 152.065 35.828C153.061 36.5397 154.363 36.8955 155.969 36.8955C157.718 36.8955 159.07 36.5295 160.026 35.7975C161.002 35.0655 161.49 34.1505 161.49 33.0525ZM178.915 34.425H182.087C181.68 35.9297 180.857 37.1497 179.616 38.085C178.376 39 176.831 39.4575 174.98 39.4575C172.642 39.4575 170.761 38.7357 169.338 37.292C167.915 35.8483 167.203 33.7743 167.203 31.07C167.203 28.386 167.904 26.3222 169.307 24.8785C170.71 23.4145 172.551 22.6825 174.828 22.6825C177.146 22.6825 178.966 23.4247 180.287 24.909C181.609 26.373 182.27 28.6402 182.27 31.7105H170.192C170.314 33.4795 170.812 34.8012 171.686 35.6755C172.561 36.5498 173.689 36.987 175.072 36.987C176.007 36.987 176.821 36.7532 177.512 36.2855C178.203 35.7975 178.671 35.1773 178.915 34.425ZM174.889 25.031C173.689 25.031 172.683 25.4072 171.869 26.1595C171.056 26.8915 170.538 27.9692 170.314 29.3925H179.281C179.179 27.9488 178.732 26.861 177.939 26.129C177.166 25.397 176.15 25.031 174.889 25.031ZM188.709 39H185.781V23.14H188.19L188.587 25.4885C189.481 23.6178 190.823 22.6825 192.613 22.6825C193.202 22.6825 193.782 22.7537 194.351 22.896V25.824C193.66 25.641 193.04 25.5495 192.491 25.5495C191.393 25.5495 190.488 25.9968 189.776 26.8915C189.064 27.7862 188.709 29.1688 188.709 31.0395V39ZM206.839 23.14H209.889L204.308 39H200.343L194.822 23.14H198.025L202.417 36.621L206.839 23.14ZM215.43 20.4865H212.136V17.04H215.43V20.4865ZM215.247 39H212.319V23.14H215.247V39ZM229.867 33.9065H233.069C232.845 35.4925 232.103 36.8142 230.843 37.8715C229.602 38.9288 228.026 39.4575 226.115 39.4575C223.919 39.4575 222.12 38.7357 220.717 37.292C219.314 35.828 218.612 33.7947 218.612 31.192C218.612 28.569 219.293 26.495 220.656 24.97C222.018 23.445 223.828 22.6825 226.085 22.6825C227.915 22.6825 229.45 23.14 230.69 24.055C231.93 24.97 232.683 26.2307 232.947 27.837H229.714C229.511 26.983 229.094 26.3222 228.464 25.8545C227.854 25.3868 227.081 25.153 226.146 25.153C224.783 25.153 223.706 25.6715 222.913 26.7085C222.12 27.7252 221.723 29.2502 221.723 31.2835C221.723 33.1338 222.14 34.547 222.974 35.523C223.807 36.499 224.875 36.987 226.176 36.987C227.172 36.987 227.996 36.7227 228.647 36.194C229.318 35.645 229.724 34.8825 229.867 33.9065ZM247.212 34.425H250.384C249.978 35.9297 249.154 37.1497 247.914 38.085C246.673 39 245.128 39.4575 243.278 39.4575C240.939 39.4575 239.059 38.7357 237.635 37.292C236.212 35.8483 235.5 33.7743 235.5 31.07C235.5 28.386 236.202 26.3222 237.605 24.8785C239.008 23.4145 240.848 22.6825 243.125 22.6825C245.443 22.6825 247.263 23.4247 248.585 24.909C249.906 26.373 250.567 28.6402 250.567 31.7105H238.489C238.611 33.4795 239.109 34.8012 239.984 35.6755C240.858 36.5498 241.987 36.987 243.369 36.987C244.305 36.987 245.118 36.7532 245.809 36.2855C246.501 35.7975 246.968 35.1773 247.212 34.425ZM243.186 25.031C241.987 25.031 240.98 25.4072 240.167 26.1595C239.353 26.8915 238.835 27.9692 238.611 29.3925H247.578C247.477 27.9488 247.029 26.861 246.236 26.129C245.464 25.397 244.447 25.031 243.186 25.031Z" fill="#00BCEB"/>
<path d="M19.8692 10.6057L21.0482 10.0351C21.9627 11.2758 23.2821 12.5713 24.3991 13.2053C25.5161 13.8394 26.6951 14.2198 26.6951 14.2198C27.519 14.546 29.1773 13.5858 29.1773 13.5858L33.5211 10.6057C33.5211 10.6057 34.4257 12.746 35.2586 13.5858C32.1767 15.6816 28.3909 17.5205 27.0674 17.9607C25.8143 18.3775 20.5437 14.9668 20.2962 14.3043C19.9334 18.4134 19.1812 20.1502 18.504 24.3646C17.3644 21.4052 16.7236 19.7822 15.5254 17.9607C16.8 17.0306 17.7506 15.4691 18.504 14.7905C19.2574 14.1119 20.1478 10.5269 19.8692 10.6057Z" fill="black"/>
<path d="M21.659 7.75691C21.2995 7.75691 20.8801 8.39096 20.8801 8.39096C20.8801 8.39096 21.0599 7.50329 21.5991 7.50329C22.1383 7.50329 23.097 7.69351 23.5763 7.50329C24.0556 7.31308 24.3552 6.74243 24.3552 6.74243C24.3552 6.74243 24.2931 7.24967 24.169 7.37648C24.169 7.37648 23.9828 7.6301 23.7967 7.75691C23.6105 7.88372 22.0185 7.75691 21.659 7.75691Z" fill="black"/>
<path d="M38.0961 11.7167L37.5003 12.0569L37.6906 11.7167C37.6906 11.7167 37.7982 11.4935 37.4408 10.9613C37.4408 10.9613 36.8451 10.2309 35.7132 9.25695C35.4298 9.02946 35.2044 9.01006 34.9983 9.38689C35.0767 9.2167 35.155 9.03248 35.2366 8.83087L35.3671 8.94756C35.4808 9.04759 35.6164 9.16522 35.7132 9.25695C36.8451 10.2309 37.4408 10.9613 37.4408 10.9613L38.0961 11.7167Z" fill="black"/>
<path d="M33.5686 11.2043C34.2635 10.6761 34.6305 10.1862 34.9983 9.38689M35.2366 8.83087C35.3558 8.94069 35.5745 9.12543 35.7132 9.25695M35.2366 8.83087C35.155 9.03248 35.0767 9.2167 34.9983 9.38689M35.2366 8.83087L35.7132 9.25695M37.4408 10.9613C37.4408 10.9613 37.4408 10.9613 38.0961 11.7167L37.5003 12.0569L37.6906 11.7167C37.6906 11.7167 37.7982 11.4935 37.4408 10.9613ZM37.4408 10.9613C37.4408 10.9613 36.8451 10.2309 35.7132 9.25695M35.7132 9.25695C35.4298 9.02946 35.2044 9.01006 34.9983 9.38689" stroke="black" stroke-width="0.3" stroke-linecap="round"/>
<path d="M20.7522 10.2931L20.8801 8.39091L19.985 8.89815L18.7703 7.88367V10.1662L19.985 9.46879L20.7522 10.2931Z" fill="black"/>
<path d="M18.3261 5.78923C18.3261 6.35988 17.7056 6.99393 17.7056 6.99393C17.7056 6.99393 17.8953 6.8044 17.8917 5.78923C17.8881 4.77407 17.5194 4.0773 17.7056 3.18963C17.8917 2.30196 19.0707 1.22407 19.6913 0.843643C20.3118 0.463213 22.3596 0.716844 22.9802 1.09725L22.9816 1.09813C23.6014 1.47812 24.0912 1.77834 24.4694 2.8092C23.9082 2.20448 23.1663 1.79472 22.5458 1.6045C21.9252 1.41429 20.6841 1.35088 20.0016 1.6045C19.319 1.85812 18.3261 2.80918 18.3261 3.50663V5.78923Z" fill="black"/>
<path d="M35.6868 8.93547C35.6792 8.93831 35.6724 8.93988 35.6665 8.9401C35.6732 8.93855 35.68 8.93701 35.6868 8.93547C35.982 8.82516 37.5351 6.79115 37.7763 6.53071C38.0238 6.26358 37.8717 5.31075 37.7763 5.009C37.681 4.70724 38.4013 5.50672 38.4589 6.3405C38.4589 6.3405 38.6451 6.27709 38.8933 5.89667C39.1415 5.51623 39.0795 4.24814 39.2656 4.50175C39.4518 4.75537 39.4518 5.45283 39.4518 5.45283L42.7407 0C42.7407 0 39.7621 6.91114 39.2656 7.22817C38.7692 7.5452 38.4985 7.14189 37.7763 7.92562C37.0621 8.70076 36.2969 8.79682 35.6868 8.93547Z" fill="black"/>
<path d="M39.193 9.0524C39.3171 8.86219 39.3171 8.16473 39.3171 8.16473C39.3171 8.16473 39.1485 7.37507 40.0617 6.96004C40.975 6.54501 40.726 7.20463 40.372 7.27706C40.372 7.27706 39.9971 7.68757 39.9376 7.84771C39.8781 8.00785 39.8737 8.65268 39.9376 9.24262C40.0016 9.83255 39.193 10.4473 39.193 10.4473C38.8827 10.3839 39.0689 9.24262 39.193 9.0524Z" fill="black"/>
<path fill-rule="evenodd" clip-rule="evenodd" d="M15.2495 16.9024H15.2495C12.1904 17.0019 1.16145 17.3608 11.5544 43.9999C11.5544 43.9999 2.9291 26.6202 2.9291 21.3561C2.9291 16.092 6.50389 12.0882 6.50389 12.0882C6.50389 12.0882 1.7604 10.2506 0.650121 9.53252C-0.460156 8.81446 0.065768 7.56111 0.650121 7.40183C0.826009 7.35388 1.23484 7.37762 1.82722 7.41202C3.20289 7.49189 5.56843 7.62924 8.30514 7.05977C11.1345 6.47104 12.0107 5.94776 12.6981 5.53723C12.962 5.37969 13.198 5.23874 13.5059 5.11708C14.6161 4.67841 15.0593 5.11709 15.0593 5.11709C19.3202 8.05462 17.1474 16.5025 15.9057 16.8524C15.7907 16.8848 15.5616 16.8923 15.2495 16.9024ZM16.3667 11.4823C16.2409 11.098 14.7144 10.1711 14.7144 10.1711C14.7144 10.1711 11.5014 9.74503 10.6636 9.98851C10.1978 10.1238 9.71609 10.5159 9.22657 10.9143L9.22657 10.9143C8.8354 11.2326 8.43927 11.555 8.04238 11.7537C7.1488 12.201 6.50413 12.0882 6.50413 12.0882C6.50413 12.0882 8.99555 13.711 9.05512 13.8698C9.08476 13.9488 9.14389 13.7232 9.21051 13.469L9.21051 13.469C9.27779 13.2123 9.35269 12.9265 9.41255 12.8959C9.53169 12.8351 10.4253 13.4805 10.4253 13.4805C10.4253 13.4805 10.6636 11.7537 10.9614 11.4823C11.1892 11.2747 11.6259 11.5516 11.9254 11.7415C12.0176 11.7999 12.0968 11.8501 12.1529 11.8754C12.3912 11.9829 13.4039 11.8754 13.4039 11.8754C14.0651 11.9139 14.6515 12.3753 14.7144 12.6059C14.7405 12.7016 14.7649 12.8514 14.789 12.9994C14.823 13.208 14.8564 13.4131 14.8932 13.458C14.956 13.5349 15.0652 13.6117 15.191 13.458C15.2482 13.3881 15.2267 13.2049 15.204 13.0115C15.1767 12.7795 15.1477 12.5329 15.2506 12.4491C15.4055 12.3229 15.4243 12.3521 15.4608 12.4092C15.4688 12.4216 15.4776 12.4353 15.4889 12.4491C15.6007 12.6383 15.6252 12.941 15.6469 13.209C15.6643 13.4247 15.6799 13.6178 15.7378 13.711C15.8164 13.8377 15.8921 13.7263 15.9535 13.6358C15.9935 13.577 16.0275 13.527 16.0523 13.5573C16.0837 13.5958 16.0837 13.615 16.0837 13.6342C16.0837 13.6534 16.0837 13.6726 16.1152 13.711C16.1781 13.7879 16.3782 13.6763 16.4296 13.4805C16.4296 13.4805 16.4925 11.8665 16.3667 11.4823ZM10.685 9.81776L8.54793 9.5443L5.69579 9.15501C6.33833 9.23918 7.01324 9.32319 7.65666 9.40327C8.99236 9.56953 10.1923 9.71888 10.685 9.81776ZM4.54099 8.99739L5.69579 9.15501C5.29287 9.10223 4.90269 9.04938 4.54099 8.99739Z" fill="black"/>
</svg>
