<?xml version="1.0" encoding="utf-8" standalone="no"?>
<!DOCTYPE svg PUBLIC "-//W3C//DTD SVG 1.1//EN"
  "http://www.w3.org/Graphics/SVG/1.1/DTD/svg11.dtd">
<svg xmlns:xlink="http://www.w3.org/1999/xlink" width="460.8pt" height="345.6pt" viewBox="0 0 460.8 345.6" xmlns="http://www.w3.org/2000/svg" version="1.1">
 <metadata>
  <rdf:RDF xmlns:dc="http://purl.org/dc/elements/1.1/" xmlns:cc="http://creativecommons.org/ns#" xmlns:rdf="http://www.w3.org/1999/02/22-rdf-syntax-ns#">
   <cc:Work>
    <dc:type rdf:resource="http://purl.org/dc/dcmitype/StillImage"/>
    <dc:date>2025-10-16T09:04:56.265459</dc:date>
    <dc:format>image/svg+xml</dc:format>
    <dc:creator>
     <cc:Agent>
      <dc:title>Matplotlib v3.10.6, https://matplotlib.org/</dc:title>
     </cc:Agent>
    </dc:creator>
   </cc:Work>
  </rdf:RDF>
 </metadata>
 <defs>
  <style type="text/css">*{stroke-linejoin: round; stroke-linecap: butt}</style>
 </defs>
 <g id="figure_1">
  <g id="patch_1">
   <path d="M 0 345.6 
L 460.8 345.6 
L 460.8 0 
L 0 0 
z
" style="fill: #ffffff"/>
  </g>
  <g id="axes_1">
   <g id="patch_2">
    <path d="M 36.76 286.36 
L 443.52 286.36 
L 443.52 17.28 
L 36.76 17.28 
z
" style="fill: #ffffff"/>
   </g>
   <g id="matplotlib.axis_1">
    <g id="xtick_1">
     <g id="line2d_1">
      <defs>
       <path id="mbecdcbbbdf" d="M 0 0 
L 0 3.5 
" style="stroke: #000000; stroke-width: 0.8"/>
      </defs>
      <g>
       <use xlink:href="#mbecdcbbbdf" x="36.76" y="286.36" style="stroke: #000000; stroke-width: 0.8"/>
      </g>
     </g>
     <g id="text_1">
      <!-- 0.0 -->
      <g transform="translate(24.0375 305.5175) scale(0.16 -0.16)">
       <defs>
        <path id="DejaVuSans-30" d="M 2034 4250 
Q 1547 4250 1301 3770 
Q 1056 3291 1056 2328 
Q 1056 1369 1301 889 
Q 1547 409 2034 409 
Q 2525 409 2770 889 
Q 3016 1369 3016 2328 
Q 3016 3291 2770 3770 
Q 2525 4250 2034 4250 
z
M 2034 4750 
Q 2819 4750 3233 4129 
Q 3647 3509 3647 2328 
Q 3647 1150 3233 529 
Q 2819 -91 2034 -91 
Q 1250 -91 836 529 
Q 422 1150 422 2328 
Q 422 3509 836 4129 
Q 1250 4750 2034 4750 
z
" transform="scale(0.015625)"/>
        <path id="DejaVuSans-2e" d="M 684 794 
L 1344 794 
L 1344 0 
L 684 0 
L 684 794 
z
" transform="scale(0.015625)"/>
       </defs>
       <use xlink:href="#DejaVuSans-30"/>
       <use xlink:href="#DejaVuSans-2e" transform="translate(63.623047 0)"/>
       <use xlink:href="#DejaVuSans-30" transform="translate(95.410156 0)"/>
      </g>
     </g>
    </g>
    <g id="xtick_2">
     <g id="line2d_2">
      <g>
       <use xlink:href="#mbecdcbbbdf" x="110.716364" y="286.36" style="stroke: #000000; stroke-width: 0.8"/>
      </g>
     </g>
     <g id="text_2">
      <!-- 0.2 -->
      <g transform="translate(97.993864 305.5175) scale(0.16 -0.16)">
       <defs>
        <path id="DejaVuSans-32" d="M 1228 531 
L 3431 531 
L 3431 0 
L 469 0 
L 469 531 
Q 828 903 1448 1529 
Q 2069 2156 2228 2338 
Q 2531 2678 2651 2914 
Q 2772 3150 2772 3378 
Q 2772 3750 2511 3984 
Q 2250 4219 1831 4219 
Q 1534 4219 1204 4116 
Q 875 4013 500 3803 
L 500 4441 
Q 881 4594 1212 4672 
Q 1544 4750 1819 4750 
Q 2544 4750 2975 4387 
Q 3406 4025 3406 3419 
Q 3406 3131 3298 2873 
Q 3191 2616 2906 2266 
Q 2828 2175 2409 1742 
Q 1991 1309 1228 531 
z
" transform="scale(0.015625)"/>
       </defs>
       <use xlink:href="#DejaVuSans-30"/>
       <use xlink:href="#DejaVuSans-2e" transform="translate(63.623047 0)"/>
       <use xlink:href="#DejaVuSans-32" transform="translate(95.410156 0)"/>
      </g>
     </g>
    </g>
    <g id="xtick_3">
     <g id="line2d_3">
      <g>
       <use xlink:href="#mbecdcbbbdf" x="184.672727" y="286.36" style="stroke: #000000; stroke-width: 0.8"/>
      </g>
     </g>
     <g id="text_3">
      <!-- 0.4 -->
      <g transform="translate(171.950227 305.5175) scale(0.16 -0.16)">
       <defs>
        <path id="DejaVuSans-34" d="M 2419 4116 
L 825 1625 
L 2419 1625 
L 2419 4116 
z
M 2253 4666 
L 3047 4666 
L 3047 1625 
L 3713 1625 
L 3713 1100 
L 3047 1100 
L 3047 0 
L 2419 0 
L 2419 1100 
L 313 1100 
L 313 1709 
L 2253 4666 
z
" transform="scale(0.015625)"/>
       </defs>
       <use xlink:href="#DejaVuSans-30"/>
       <use xlink:href="#DejaVuSans-2e" transform="translate(63.623047 0)"/>
       <use xlink:href="#DejaVuSans-34" transform="translate(95.410156 0)"/>
      </g>
     </g>
    </g>
    <g id="xtick_4">
     <g id="line2d_4">
      <g>
       <use xlink:href="#mbecdcbbbdf" x="258.629091" y="286.36" style="stroke: #000000; stroke-width: 0.8"/>
      </g>
     </g>
     <g id="text_4">
      <!-- 0.6 -->
      <g transform="translate(245.906591 305.5175) scale(0.16 -0.16)">
       <defs>
        <path id="DejaVuSans-36" d="M 2113 2584 
Q 1688 2584 1439 2293 
Q 1191 2003 1191 1497 
Q 1191 994 1439 701 
Q 1688 409 2113 409 
Q 2538 409 2786 701 
Q 3034 994 3034 1497 
Q 3034 2003 2786 2293 
Q 2538 2584 2113 2584 
z
M 3366 4563 
L 3366 3988 
Q 3128 4100 2886 4159 
Q 2644 4219 2406 4219 
Q 1781 4219 1451 3797 
Q 1122 3375 1075 2522 
Q 1259 2794 1537 2939 
Q 1816 3084 2150 3084 
Q 2853 3084 3261 2657 
Q 3669 2231 3669 1497 
Q 3669 778 3244 343 
Q 2819 -91 2113 -91 
Q 1303 -91 875 529 
Q 447 1150 447 2328 
Q 447 3434 972 4092 
Q 1497 4750 2381 4750 
Q 2619 4750 2861 4703 
Q 3103 4656 3366 4563 
z
" transform="scale(0.015625)"/>
       </defs>
       <use xlink:href="#DejaVuSans-30"/>
       <use xlink:href="#DejaVuSans-2e" transform="translate(63.623047 0)"/>
       <use xlink:href="#DejaVuSans-36" transform="translate(95.410156 0)"/>
      </g>
     </g>
    </g>
    <g id="xtick_5">
     <g id="line2d_5">
      <g>
       <use xlink:href="#mbecdcbbbdf" x="332.585455" y="286.36" style="stroke: #000000; stroke-width: 0.8"/>
      </g>
     </g>
     <g id="text_5">
      <!-- 0.8 -->
      <g transform="translate(319.862955 305.5175) scale(0.16 -0.16)">
       <defs>
        <path id="DejaVuSans-38" d="M 2034 2216 
Q 1584 2216 1326 1975 
Q 1069 1734 1069 1313 
Q 1069 891 1326 650 
Q 1584 409 2034 409 
Q 2484 409 2743 651 
Q 3003 894 3003 1313 
Q 3003 1734 2745 1975 
Q 2488 2216 2034 2216 
z
M 1403 2484 
Q 997 2584 770 2862 
Q 544 3141 544 3541 
Q 544 4100 942 4425 
Q 1341 4750 2034 4750 
Q 2731 4750 3128 4425 
Q 3525 4100 3525 3541 
Q 3525 3141 3298 2862 
Q 3072 2584 2669 2484 
Q 3125 2378 3379 2068 
Q 3634 1759 3634 1313 
Q 3634 634 3220 271 
Q 2806 -91 2034 -91 
Q 1263 -91 848 271 
Q 434 634 434 1313 
Q 434 1759 690 2068 
Q 947 2378 1403 2484 
z
M 1172 3481 
Q 1172 3119 1398 2916 
Q 1625 2713 2034 2713 
Q 2441 2713 2670 2916 
Q 2900 3119 2900 3481 
Q 2900 3844 2670 4047 
Q 2441 4250 2034 4250 
Q 1625 4250 1398 4047 
Q 1172 3844 1172 3481 
z
" transform="scale(0.015625)"/>
       </defs>
       <use xlink:href="#DejaVuSans-30"/>
       <use xlink:href="#DejaVuSans-2e" transform="translate(63.623047 0)"/>
       <use xlink:href="#DejaVuSans-38" transform="translate(95.410156 0)"/>
      </g>
     </g>
    </g>
    <g id="xtick_6">
     <g id="line2d_6">
      <g>
       <use xlink:href="#mbecdcbbbdf" x="406.541818" y="286.36" style="stroke: #000000; stroke-width: 0.8"/>
      </g>
     </g>
     <g id="text_6">
      <!-- 1.0 -->
      <g transform="translate(393.819318 305.5175) scale(0.16 -0.16)">
       <defs>
        <path id="DejaVuSans-31" d="M 794 531 
L 1825 531 
L 1825 4091 
L 703 3866 
L 703 4441 
L 1819 4666 
L 2450 4666 
L 2450 531 
L 3481 531 
L 3481 0 
L 794 0 
L 794 531 
z
" transform="scale(0.015625)"/>
       </defs>
       <use xlink:href="#DejaVuSans-31"/>
       <use xlink:href="#DejaVuSans-2e" transform="translate(63.623047 0)"/>
       <use xlink:href="#DejaVuSans-30" transform="translate(95.410156 0)"/>
      </g>
     </g>
    </g>
    <g id="text_7">
     <!-- Normalized time [-] -->
     <g transform="translate(162.48375 325.0025) scale(0.16 -0.16)">
      <defs>
       <path id="DejaVuSans-4e" d="M 628 4666 
L 1478 4666 
L 3547 763 
L 3547 4666 
L 4159 4666 
L 4159 0 
L 3309 0 
L 1241 3903 
L 1241 0 
L 628 0 
L 628 4666 
z
" transform="scale(0.015625)"/>
       <path id="DejaVuSans-6f" d="M 1959 3097 
Q 1497 3097 1228 2736 
Q 959 2375 959 1747 
Q 959 1119 1226 758 
Q 1494 397 1959 397 
Q 2419 397 2687 759 
Q 2956 1122 2956 1747 
Q 2956 2369 2687 2733 
Q 2419 3097 1959 3097 
z
M 1959 3584 
Q 2709 3584 3137 3096 
Q 3566 2609 3566 1747 
Q 3566 888 3137 398 
Q 2709 -91 1959 -91 
Q 1206 -91 779 398 
Q 353 888 353 1747 
Q 353 2609 779 3096 
Q 1206 3584 1959 3584 
z
" transform="scale(0.015625)"/>
       <path id="DejaVuSans-72" d="M 2631 2963 
Q 2534 3019 2420 3045 
Q 2306 3072 2169 3072 
Q 1681 3072 1420 2755 
Q 1159 2438 1159 1844 
L 1159 0 
L 581 0 
L 581 3500 
L 1159 3500 
L 1159 2956 
Q 1341 3275 1631 3429 
Q 1922 3584 2338 3584 
Q 2397 3584 2469 3576 
Q 2541 3569 2628 3553 
L 2631 2963 
z
" transform="scale(0.015625)"/>
       <path id="DejaVuSans-6d" d="M 3328 2828 
Q 3544 3216 3844 3400 
Q 4144 3584 4550 3584 
Q 5097 3584 5394 3201 
Q 5691 2819 5691 2113 
L 5691 0 
L 5113 0 
L 5113 2094 
Q 5113 2597 4934 2840 
Q 4756 3084 4391 3084 
Q 3944 3084 3684 2787 
Q 3425 2491 3425 1978 
L 3425 0 
L 2847 0 
L 2847 2094 
Q 2847 2600 2669 2842 
Q 2491 3084 2119 3084 
Q 1678 3084 1418 2786 
Q 1159 2488 1159 1978 
L 1159 0 
L 581 0 
L 581 3500 
L 1159 3500 
L 1159 2956 
Q 1356 3278 1631 3431 
Q 1906 3584 2284 3584 
Q 2666 3584 2933 3390 
Q 3200 3197 3328 2828 
z
" transform="scale(0.015625)"/>
       <path id="DejaVuSans-61" d="M 2194 1759 
Q 1497 1759 1228 1600 
Q 959 1441 959 1056 
Q 959 750 1161 570 
Q 1363 391 1709 391 
Q 2188 391 2477 730 
Q 2766 1069 2766 1631 
L 2766 1759 
L 2194 1759 
z
M 3341 1997 
L 3341 0 
L 2766 0 
L 2766 531 
Q 2569 213 2275 61 
Q 1981 -91 1556 -91 
Q 1019 -91 701 211 
Q 384 513 384 1019 
Q 384 1609 779 1909 
Q 1175 2209 1959 2209 
L 2766 2209 
L 2766 2266 
Q 2766 2663 2505 2880 
Q 2244 3097 1772 3097 
Q 1472 3097 1187 3025 
Q 903 2953 641 2809 
L 641 3341 
Q 956 3463 1253 3523 
Q 1550 3584 1831 3584 
Q 2591 3584 2966 3190 
Q 3341 2797 3341 1997 
z
" transform="scale(0.015625)"/>
       <path id="DejaVuSans-6c" d="M 603 4863 
L 1178 4863 
L 1178 0 
L 603 0 
L 603 4863 
z
" transform="scale(0.015625)"/>
       <path id="DejaVuSans-69" d="M 603 3500 
L 1178 3500 
L 1178 0 
L 603 0 
L 603 3500 
z
M 603 4863 
L 1178 4863 
L 1178 4134 
L 603 4134 
L 603 4863 
z
" transform="scale(0.015625)"/>
       <path id="DejaVuSans-7a" d="M 353 3500 
L 3084 3500 
L 3084 2975 
L 922 459 
L 3084 459 
L 3084 0 
L 275 0 
L 275 525 
L 2438 3041 
L 353 3041 
L 353 3500 
z
" transform="scale(0.015625)"/>
       <path id="DejaVuSans-65" d="M 3597 1894 
L 3597 1613 
L 953 1613 
Q 991 1019 1311 708 
Q 1631 397 2203 397 
Q 2534 397 2845 478 
Q 3156 559 3463 722 
L 3463 178 
Q 3153 47 2828 -22 
Q 2503 -91 2169 -91 
Q 1331 -91 842 396 
Q 353 884 353 1716 
Q 353 2575 817 3079 
Q 1281 3584 2069 3584 
Q 2775 3584 3186 3129 
Q 3597 2675 3597 1894 
z
M 3022 2063 
Q 3016 2534 2758 2815 
Q 2500 3097 2075 3097 
Q 1594 3097 1305 2825 
Q 1016 2553 972 2059 
L 3022 2063 
z
" transform="scale(0.015625)"/>
       <path id="DejaVuSans-64" d="M 2906 2969 
L 2906 4863 
L 3481 4863 
L 3481 0 
L 2906 0 
L 2906 525 
Q 2725 213 2448 61 
Q 2172 -91 1784 -91 
Q 1150 -91 751 415 
Q 353 922 353 1747 
Q 353 2572 751 3078 
Q 1150 3584 1784 3584 
Q 2172 3584 2448 3432 
Q 2725 3281 2906 2969 
z
M 947 1747 
Q 947 1113 1208 752 
Q 1469 391 1925 391 
Q 2381 391 2643 752 
Q 2906 1113 2906 1747 
Q 2906 2381 2643 2742 
Q 2381 3103 1925 3103 
Q 1469 3103 1208 2742 
Q 947 2381 947 1747 
z
" transform="scale(0.015625)"/>
       <path id="DejaVuSans-20" transform="scale(0.015625)"/>
       <path id="DejaVuSans-74" d="M 1172 4494 
L 1172 3500 
L 2356 3500 
L 2356 3053 
L 1172 3053 
L 1172 1153 
Q 1172 725 1289 603 
Q 1406 481 1766 481 
L 2356 481 
L 2356 0 
L 1766 0 
Q 1100 0 847 248 
Q 594 497 594 1153 
L 594 3053 
L 172 3053 
L 172 3500 
L 594 3500 
L 594 4494 
L 1172 4494 
z
" transform="scale(0.015625)"/>
       <path id="DejaVuSans-5b" d="M 550 4863 
L 1875 4863 
L 1875 4416 
L 1125 4416 
L 1125 -397 
L 1875 -397 
L 1875 -844 
L 550 -844 
L 550 4863 
z
" transform="scale(0.015625)"/>
       <path id="DejaVuSans-2d" d="M 313 2009 
L 1997 2009 
L 1997 1497 
L 313 1497 
L 313 2009 
z
" transform="scale(0.015625)"/>
       <path id="DejaVuSans-5d" d="M 1947 4863 
L 1947 -844 
L 622 -844 
L 622 -397 
L 1369 -397 
L 1369 4416 
L 622 4416 
L 622 4863 
L 1947 4863 
z
" transform="scale(0.015625)"/>
      </defs>
      <use xlink:href="#DejaVuSans-4e"/>
      <use xlink:href="#DejaVuSans-6f" transform="translate(74.804688 0)"/>
      <use xlink:href="#DejaVuSans-72" transform="translate(135.986328 0)"/>
      <use xlink:href="#DejaVuSans-6d" transform="translate(175.349609 0)"/>
      <use xlink:href="#DejaVuSans-61" transform="translate(272.761719 0)"/>
      <use xlink:href="#DejaVuSans-6c" transform="translate(334.041016 0)"/>
      <use xlink:href="#DejaVuSans-69" transform="translate(361.824219 0)"/>
      <use xlink:href="#DejaVuSans-7a" transform="translate(389.607422 0)"/>
      <use xlink:href="#DejaVuSans-65" transform="translate(442.097656 0)"/>
      <use xlink:href="#DejaVuSans-64" transform="translate(503.621094 0)"/>
      <use xlink:href="#DejaVuSans-20" transform="translate(567.097656 0)"/>
      <use xlink:href="#DejaVuSans-74" transform="translate(598.884766 0)"/>
      <use xlink:href="#DejaVuSans-69" transform="translate(638.09375 0)"/>
      <use xlink:href="#DejaVuSans-6d" transform="translate(665.876953 0)"/>
      <use xlink:href="#DejaVuSans-65" transform="translate(763.289062 0)"/>
      <use xlink:href="#DejaVuSans-20" transform="translate(824.8125 0)"/>
      <use xlink:href="#DejaVuSans-5b" transform="translate(856.599609 0)"/>
      <use xlink:href="#DejaVuSans-2d" transform="translate(895.613281 0)"/>
      <use xlink:href="#DejaVuSans-5d" transform="translate(931.697266 0)"/>
     </g>
    </g>
   </g>
   <g id="matplotlib.axis_2">
    <g id="text_8">
     <!-- Amplitude [mV] -->
     <g transform="translate(29.4325 214.86625) rotate(-90) scale(0.16 -0.16)">
      <defs>
       <path id="DejaVuSans-41" d="M 2188 4044 
L 1331 1722 
L 3047 1722 
L 2188 4044 
z
M 1831 4666 
L 2547 4666 
L 4325 0 
L 3669 0 
L 3244 1197 
L 1141 1197 
L 716 0 
L 50 0 
L 1831 4666 
z
" transform="scale(0.015625)"/>
       <path id="DejaVuSans-70" d="M 1159 525 
L 1159 -1331 
L 581 -1331 
L 581 3500 
L 1159 3500 
L 1159 2969 
Q 1341 3281 1617 3432 
Q 1894 3584 2278 3584 
Q 2916 3584 3314 3078 
Q 3713 2572 3713 1747 
Q 3713 922 3314 415 
Q 2916 -91 2278 -91 
Q 1894 -91 1617 61 
Q 1341 213 1159 525 
z
M 3116 1747 
Q 3116 2381 2855 2742 
Q 2594 3103 2138 3103 
Q 1681 3103 1420 2742 
Q 1159 2381 1159 1747 
Q 1159 1113 1420 752 
Q 1681 391 2138 391 
Q 2594 391 2855 752 
Q 3116 1113 3116 1747 
z
" transform="scale(0.015625)"/>
       <path id="DejaVuSans-75" d="M 544 1381 
L 544 3500 
L 1119 3500 
L 1119 1403 
Q 1119 906 1312 657 
Q 1506 409 1894 409 
Q 2359 409 2629 706 
Q 2900 1003 2900 1516 
L 2900 3500 
L 3475 3500 
L 3475 0 
L 2900 0 
L 2900 538 
Q 2691 219 2414 64 
Q 2138 -91 1772 -91 
Q 1169 -91 856 284 
Q 544 659 544 1381 
z
M 1991 3584 
L 1991 3584 
z
" transform="scale(0.015625)"/>
       <path id="DejaVuSans-56" d="M 1831 0 
L 50 4666 
L 709 4666 
L 2188 738 
L 3669 4666 
L 4325 4666 
L 2547 0 
L 1831 0 
z
" transform="scale(0.015625)"/>
      </defs>
      <use xlink:href="#DejaVuSans-41"/>
      <use xlink:href="#DejaVuSans-6d" transform="translate(68.408203 0)"/>
      <use xlink:href="#DejaVuSans-70" transform="translate(165.820312 0)"/>
      <use xlink:href="#DejaVuSans-6c" transform="translate(229.296875 0)"/>
      <use xlink:href="#DejaVuSans-69" transform="translate(257.080078 0)"/>
      <use xlink:href="#DejaVuSans-74" transform="translate(284.863281 0)"/>
      <use xlink:href="#DejaVuSans-75" transform="translate(324.072266 0)"/>
      <use xlink:href="#DejaVuSans-64" transform="translate(387.451172 0)"/>
      <use xlink:href="#DejaVuSans-65" transform="translate(450.927734 0)"/>
      <use xlink:href="#DejaVuSans-20" transform="translate(512.451172 0)"/>
      <use xlink:href="#DejaVuSans-5b" transform="translate(544.238281 0)"/>
      <use xlink:href="#DejaVuSans-6d" transform="translate(583.251953 0)"/>
      <use xlink:href="#DejaVuSans-56" transform="translate(680.664062 0)"/>
      <use xlink:href="#DejaVuSans-5d" transform="translate(749.072266 0)"/>
     </g>
    </g>
   </g>
   <g id="line2d_7">
    <path d="M 36.76 99.076678 
L 38.784353 98.986748 
L 41.48349 98.605945 
L 44.857412 97.81831 
L 51.605255 96.11146 
L 54.304393 95.730657 
L 56.328746 95.640727 
L 58.353099 95.730657 
L 61.052236 96.11146 
L 64.426158 96.899095 
L 71.174001 98.605945 
L 73.873139 98.986748 
L 76.572276 99.076678 
L 152.822906 99.076678 
L 153.497691 99.4509 
L 164.969025 112.174442 
L 165.643809 112.174442 
L 177.115143 99.4509 
L 178.464711 29.510909 
L 179.81428 99.378317 
L 193.984751 112.047153 
L 194.659536 112.047153 
L 208.830007 99.378317 
L 209.504791 99.076678 
L 307.34852 98.969554 
L 310.722442 98.65686 
L 314.771148 98.047005 
L 320.169423 96.957285 
L 330.291188 94.817188 
L 334.339894 94.207333 
L 337.713816 93.894639 
L 341.087737 93.787515 
L 344.461659 93.894639 
L 347.835581 94.207333 
L 351.884287 94.817188 
L 357.282561 95.906908 
L 367.404326 98.047005 
L 371.453033 98.65686 
L 374.826954 98.969554 
L 378.200876 99.076678 
L 406.541818 99.076678 
L 406.541818 99.076678 
" clip-path="url(#p1a6d432017)" style="fill: none; stroke: #081d58; stroke-width: 3; stroke-linecap: square"/>
   </g>
   <g id="line2d_8">
    <path d="M 36.76 117.209439 
L 38.939461 117.056183 
L 41.118921 116.637479 
L 47.657303 115.074854 
L 49.836764 114.921598 
L 52.016224 115.074854 
L 54.195685 115.493558 
L 60.734067 117.056183 
L 62.913527 117.209439 
L 149.365465 117.209439 
L 158.083308 131.882188 
L 166.074663 118.432168 
L 167.527637 71.859174 
L 168.980611 117.583806 
L 195.134138 131.061028 
L 222.014153 117.209439 
L 316.457446 117.130542 
L 319.363393 116.797644 
L 322.995828 116.116336 
L 329.53421 114.809319 
L 332.440157 114.476421 
L 335.346105 114.406364 
L 338.252052 114.613023 
L 341.158 115.055467 
L 346.969895 116.26784 
L 350.602329 116.902703 
L 353.508276 117.174189 
L 357.140711 117.209439 
L 406.541818 117.209439 
L 406.541818 117.209439 
" clip-path="url(#p1a6d432017)" style="fill: none; stroke: #192b7c; stroke-width: 3; stroke-linecap: square"/>
   </g>
   <g id="line2d_9">
    <path d="M 36.76 135.3422 
L 37.442254 135.219336 
L 38.124509 134.865562 
L 39.489017 133.658672 
L 40.853526 132.286246 
L 41.53578 131.744233 
L 42.218034 131.39046 
L 42.900288 131.267595 
L 43.582543 131.39046 
L 44.264797 131.744233 
L 45.629306 132.951124 
L 46.993814 134.323549 
L 47.676068 134.865562 
L 48.358323 135.219336 
L 49.040577 135.3422 
L 146.602939 135.3422 
L 154.78999 147.616187 
L 162.294787 136.365032 
L 162.977041 133.353343 
L 170.481838 89.598497 
L 171.164093 89.598497 
L 178.66889 133.353343 
L 179.351144 135.859512 
L 194.360738 147.240362 
L 210.052586 135.3422 
L 300.110151 135.245357 
L 305.568185 134.910333 
L 311.708474 134.299825 
L 321.942288 133.001595 
L 330.129339 132.039732 
L 336.269628 131.544268 
L 341.727662 131.341014 
L 346.503442 131.368787 
L 351.961476 131.631935 
L 358.101765 132.181276 
L 366.288816 133.179049 
L 377.887139 134.596577 
L 384.027427 135.105896 
L 389.485461 135.324294 
L 397.672513 135.3422 
L 406.541818 135.3422 
L 406.541818 135.3422 
" clip-path="url(#p1a6d432017)" style="fill: none; stroke: #243d98; stroke-width: 3; stroke-linecap: square"/>
   </g>
   <g id="line2d_10">
    <path d="M 36.76 153.474961 
L 40.061623 153.373346 
L 44.683896 152.973124 
L 50.626818 152.452074 
L 53.928442 152.370315 
L 57.230065 152.491401 
L 61.852338 152.905089 
L 67.79526 153.409179 
L 71.757208 153.474961 
L 142.411948 153.474961 
L 143.072273 153.96581 
L 149.675519 163.78278 
L 150.335844 163.78278 
L 156.939091 153.96581 
L 157.599416 152.053796 
L 170.145584 98.049531 
L 170.805909 98.049531 
L 183.352078 152.053796 
L 184.012403 153.699556 
L 196.558571 162.234176 
L 197.218896 162.234176 
L 209.765065 153.699556 
L 210.42539 153.474961 
L 306.832792 153.373059 
L 312.775714 153.028317 
L 319.378961 152.41262 
L 330.604481 151.082764 
L 339.849026 150.081409 
L 346.452273 149.604711 
L 352.395195 149.419918 
L 357.677792 149.47103 
L 363.620714 149.764198 
L 370.223961 150.337086 
L 379.468506 151.403854 
L 391.354351 152.746119 
L 397.957597 153.248093 
L 403.900519 153.460527 
L 406.541818 153.474961 
L 406.541818 153.474961 
" clip-path="url(#p1a6d432017)" style="fill: none; stroke: #2258a5; stroke-width: 3; stroke-linecap: square"/>
   </g>
   <g id="line2d_11">
    <path d="M 36.76 171.607722 
L 40.952538 171.503789 
L 45.983583 171.129698 
L 52.691643 170.355233 
L 61.076718 169.382003 
L 66.107763 169.028339 
L 70.300301 168.944995 
L 74.492839 169.069352 
L 79.523884 169.463279 
L 86.231944 170.249351 
L 94.617019 171.208211 
L 99.648064 171.540888 
L 104.679109 171.607722 
L 183.498817 171.607722 
L 184.337324 171.980874 
L 196.914937 183.175418 
L 197.753445 183.175418 
L 210.331058 171.980874 
L 212.008073 126.562058 
L 213.685088 171.893946 
L 238.001806 180.194445 
L 263.157032 171.607722 
L 336.945694 171.532846 
L 337.784201 171.312253 
L 339.461216 170.488702 
L 341.138231 169.312268 
L 343.653754 167.440996 
L 345.330769 166.509072 
L 346.169276 166.21961 
L 347.007784 166.07087 
L 347.846291 166.07087 
L 348.684799 166.21961 
L 349.523307 166.509072 
L 351.200322 167.440996 
L 356.231367 170.957836 
L 357.069874 171.312253 
L 357.908382 171.532846 
L 359.585397 171.607722 
L 406.541818 171.607722 
L 406.541818 171.607722 
" clip-path="url(#p1a6d432017)" style="fill: none; stroke: #2076b3; stroke-width: 3; stroke-linecap: square"/>
   </g>
   <g id="line2d_12">
    <path d="M 36.76 189.740483 
L 38.818155 189.633519 
L 41.562361 189.200432 
L 49.108929 187.687241 
L 51.167084 187.580277 
L 53.225239 187.687241 
L 55.969445 188.120329 
L 63.516013 189.633519 
L 65.574168 189.740483 
L 125.946709 189.740483 
L 126.632761 190.449463 
L 134.179329 206.047017 
L 134.86538 206.047017 
L 142.411948 190.449463 
L 143.098 187.688941 
L 154.074825 122.039608 
L 154.760877 122.039608 
L 165.737703 187.688941 
L 166.423754 190.376843 
L 180.144787 203.104039 
L 194.55187 189.740483 
L 322.15747 189.656088 
L 325.587728 189.319649 
L 329.017986 188.749186 
L 333.134296 187.812362 
L 338.622709 186.292734 
L 346.855328 183.985584 
L 350.971638 183.068808 
L 354.401896 182.520218 
L 357.832154 182.20875 
L 361.262412 182.155984 
L 364.69267 182.365578 
L 368.122928 182.823008 
L 371.553186 183.496578 
L 375.669496 184.523582 
L 391.448683 188.749186 
L 394.878941 189.319649 
L 398.309199 189.656088 
L 401.739457 189.740483 
L 406.541818 189.740483 
L 406.541818 189.740483 
" clip-path="url(#p1a6d432017)" style="fill: none; stroke: #2195c0; stroke-width: 3; stroke-linecap: square"/>
   </g>
   <g id="line2d_13">
    <path d="M 36.76 207.873244 
L 41.690424 207.771514 
L 48.029541 207.40186 
L 59.299082 206.699041 
L 64.229506 206.625876 
L 69.159931 206.755477 
L 76.203394 207.196901 
L 85.359896 207.771514 
L 90.994667 207.873244 
L 141.707602 207.873244 
L 142.411948 208.308732 
L 155.090182 223.986288 
L 155.794528 223.986288 
L 168.472762 208.308732 
L 169.177108 205.013459 
L 174.811879 159.256904 
L 175.516225 159.256904 
L 181.150996 205.013459 
L 181.855342 208.584724 
L 190.307498 217.122481 
L 199.464 207.873244 
L 332.585455 207.77494 
L 348.78542 207.325572 
L 360.054961 207.131888 
L 369.91581 207.197735 
L 383.29839 207.552974 
L 396.68097 207.851528 
L 406.541818 207.873244 
L 406.541818 207.873244 
" clip-path="url(#p1a6d432017)" style="fill: none; stroke: #37acc3; stroke-width: 3; stroke-linecap: square"/>
   </g>
   <g id="line2d_14">
    <path d="M 36.76 226.006005 
L 38.068962 225.845492 
L 39.377924 225.410688 
L 42.65033 224.048155 
L 43.959292 223.81113 
L 45.268254 223.892141 
L 46.577216 224.267601 
L 50.504103 225.845492 
L 51.813065 226.006005 
L 167.001738 226.006005 
L 167.656219 226.43946 
L 175.509992 236.842384 
L 176.164473 236.842384 
L 184.018246 226.43946 
L 184.672727 218.156835 
L 186.636171 171.061815 
L 187.290652 171.061815 
L 189.254095 218.156835 
L 189.908576 226.125162 
L 211.506452 233.989539 
L 212.160933 233.989539 
L 233.758809 226.125162 
L 234.41329 226.006005 
L 294.625551 225.918824 
L 297.897957 225.57187 
L 301.170362 224.985857 
L 305.097249 224.03043 
L 310.987578 222.304759 
L 317.532389 220.433904 
L 321.459276 219.561528 
L 324.731681 219.066781 
L 328.004087 218.823875 
L 331.276492 218.85114 
L 334.548898 219.146518 
L 337.821303 219.68772 
L 341.74819 220.603011 
L 346.984039 222.106559 
L 354.837812 224.374114 
L 358.764698 225.24649 
L 362.037104 225.741237 
L 365.309509 225.984143 
L 370.545358 226.006005 
L 406.541818 226.006005 
L 406.541818 226.006005 
" clip-path="url(#p1a6d432017)" style="fill: none; stroke: #57bec1; stroke-width: 3; stroke-linecap: square"/>
   </g>
   <g id="line2d_15">
    <path d="M 36.76 244.138766 
L 40.025182 244.023839 
L 44.106659 243.603423 
L 53.902203 242.351703 
L 57.167385 242.208864 
L 60.432567 242.295443 
L 63.697748 242.590834 
L 70.228112 243.49391 
L 74.309589 243.961237 
L 77.57477 244.131445 
L 90.635497 244.138766 
L 139.613221 244.138766 
L 140.429516 244.839643 
L 149.408766 260.258949 
L 150.225061 260.258949 
L 159.204311 244.839643 
L 160.836901 199.939307 
L 162.469492 244.494976 
L 191.856127 257.318529 
L 222.059057 244.138766 
L 324.912278 244.043241 
L 334.707823 243.900628 
L 343.687072 244.081197 
L 351.850026 244.138766 
L 406.541818 244.138766 
L 406.541818 244.138766 
" clip-path="url(#p1a6d432017)" style="fill: none; stroke: #7ecdbb; stroke-width: 3; stroke-linecap: square"/>
   </g>
   <g id="line2d_16">
    <path d="M 36.76 262.271527 
L 38.330199 262.173081 
L 39.900398 261.891848 
L 42.255696 261.221212 
L 46.181193 259.997212 
L 47.751392 259.675655 
L 49.32159 259.529102 
L 50.891789 259.578549 
L 52.461988 259.816912 
L 54.817286 260.447706 
L 59.527883 261.891848 
L 61.098081 262.173081 
L 62.66828 262.271527 
L 187.499085 262.271527 
L 188.284185 262.836173 
L 196.135179 274.129091 
L 196.920278 274.129091 
L 204.771272 262.836173 
L 206.341471 190.447057 
L 207.91167 262.39277 
L 231.464652 269.667344 
L 232.249751 269.667344 
L 255.802733 262.39277 
L 256.587832 262.271527 
L 307.619294 262.197348 
L 309.974592 261.814802 
L 312.32989 261.134509 
L 314.685188 260.208411 
L 317.825586 258.715501 
L 324.106381 255.621568 
L 326.461679 254.695469 
L 328.816977 254.015177 
L 331.172276 253.63263 
L 333.527574 253.577036 
L 335.882872 253.852639 
L 338.23817 254.438397 
L 340.593468 255.289589 
L 343.733866 256.722766 
L 351.58486 260.54039 
L 353.940158 261.391581 
L 356.295456 261.97734 
L 358.650755 262.252943 
L 363.361351 262.271527 
L 406.541818 262.271527 
L 406.541818 262.271527 
" clip-path="url(#p1a6d432017)" style="fill: none; stroke: #abdeb7; stroke-width: 3; stroke-linecap: square"/>
   </g>
   <g id="line2d_17">
    <path d="M 436.124364 235.072385 
L 436.124364 144.408581 
" clip-path="url(#p1a6d432017)" style="fill: none; stroke: #000000; stroke-width: 1.5; stroke-linecap: square"/>
   </g>
   <g id="patch_3">
    <path d="M 36.76 286.36 
L 36.76 17.28 
" style="fill: none; stroke: #000000; stroke-width: 0.8; stroke-linejoin: miter; stroke-linecap: square"/>
   </g>
   <g id="patch_4">
    <path d="M 36.76 286.36 
L 443.52 286.36 
" style="fill: none; stroke: #000000; stroke-width: 0.8; stroke-linejoin: miter; stroke-linecap: square"/>
   </g>
   <g id="text_9">
    <!-- 5 mV -->
    <g transform="translate(426.094955 210.637983) rotate(-90) scale(0.16 -0.16)">
     <defs>
      <path id="DejaVuSans-35" d="M 691 4666 
L 3169 4666 
L 3169 4134 
L 1269 4134 
L 1269 2991 
Q 1406 3038 1543 3061 
Q 1681 3084 1819 3084 
Q 2600 3084 3056 2656 
Q 3513 2228 3513 1497 
Q 3513 744 3044 326 
Q 2575 -91 1722 -91 
Q 1428 -91 1123 -41 
Q 819 9 494 109 
L 494 744 
Q 775 591 1075 516 
Q 1375 441 1709 441 
Q 2250 441 2565 725 
Q 2881 1009 2881 1497 
Q 2881 1984 2565 2268 
Q 2250 2553 1709 2553 
Q 1456 2553 1204 2497 
Q 953 2441 691 2322 
L 691 4666 
z
" transform="scale(0.015625)"/>
     </defs>
     <use xlink:href="#DejaVuSans-35"/>
     <use xlink:href="#DejaVuSans-20" transform="translate(63.623047 0)"/>
     <use xlink:href="#DejaVuSans-6d" transform="translate(95.410156 0)"/>
     <use xlink:href="#DejaVuSans-56" transform="translate(192.822266 0)"/>
    </g>
   </g>
  </g>
 </g>
 <defs>
  <clipPath id="p1a6d432017">
   <rect x="36.76" y="17.28" width="406.76" height="269.08"/>
  </clipPath>
 </defs>
</svg>
