<?xml version="1.0" encoding="UTF-8" standalone="no"?>
<svg
   width="1500"
   height="1500"
   version="1.1"
   id="svg35"
   xmlns:inkscape="http://www.inkscape.org/namespaces/inkscape"
   xmlns:sodipodi="http://sodipodi.sourceforge.net/DTD/sodipodi-0.dtd"
   xmlns="http://www.w3.org/2000/svg"
   xmlns:svg="http://www.w3.org/2000/svg">
  <sodipodi:namedview
     id="namedview37"
     pagecolor="#ffffff"
     bordercolor="#000000"
     borderopacity="0.25"
     inkscape:showpageshadow="2"
     inkscape:pageopacity="0.0"
     inkscape:pagecheckerboard="0"
     inkscape:deskcolor="#d1d1d1" />
  <defs
     id="defs29">
    <mask
       id="overlay_mask">
      <g
         fill="white"
         id="g26">
        <g
           transform="translate(459.05172413793105, 232.75862068965512) scale(2.586206896551724)"
           id="g24">
          <g
             transform="translate(0, 0) scale(1 1) rotate(0)"
             fill="#fff"
             id="g22">
            <svg
               width="225"
               height="400"
               viewBox="0 0 225 400"
               version="1.1"
               id="svg20">
              <defs
                 id="defs2" />
              <g
                 id="g18">
                <g
                   id="g16">
                  <g
                     id="g5">
                    <path
                       style="stroke: none; stroke-width: 1; stroke-dasharray: none; stroke-linecap: butt; stroke-dashoffset: 0; stroke-linejoin: miter; stroke-miterlimit: 4;  fill-rule: nonzero; opacity: 1"
                       d="M 86.12233192826506,0.239285444628905 C 62.826381865098654,3.6551138996386214 44.790807622647264,12.46795131356373 29.282946436903046,27.97581249930795 C 16.09784860056544,41.09259376654538 7.011744910239514,57.28362064329153 2.7078010569272806,75.3875114548431 C -5.421870665995925,110.02401198864186 4.962247837233718,145.34367821344256 31.05917723350808,171.3039744715166 C 35.43143765592055,175.67623489392906 41.23834602943714,180.66334443824326 44.03932536254507,182.50789180394855 L 49.02643490685932,185.85540368985806 L 42.5363608423408,191.93557833977542 C 34.884905103119024,199.04050152619567 30.307694973405944,205.53057559071414 27.301765932997398,213.66024731363729 C 23.13445521788549,224.7275315078689 23.271088356085897,222.06318531296125 23.271088356085897,312.03610681791776 L 23.271088356085897,394.3575725836524 L 52.98879591467062,394.3575725836524 L 82.70650347325534,394.3575725836524 L 83.0480863187563,316.13510096392946 C 83.45798573335748,228.2116765319788 83.0480863187563,235.58986599479982 88.85499469227284,223.56614983316558 C 92.1341900090822,216.80280949224635 97.80446524439839,209.62956973672584 103.61137361791492,204.91572646881235 C 109.69154826783227,199.99693349359836 115.84003948684983,196.7860547458892 129.02513732318738,191.7306286324748 C 148.49535951674284,184.21580603145338 157.649779776169,178.6821639343376 167.96558171029847,167.95646258560708 C 180.53583042473417,154.83968131836963 189.69025068416033,137.1456899214192 193.78924483017198,118.01705057336466 C 195.9753750413783,107.83788177743565 195.9753750413783,89.93894067318465 193.85756139927213,80.23798786095699 C 190.9199489279639,66.916256886419 185.31799026174792,53.52620934278079 178.0764339371272,42.52724171764942 C 171.9962592872099,33.23618832002299 161.95372362948132,23.125336093194136 152.45772052455413,16.635262028675612 C 142.82508428142665,10.008554825956708 129.02513732318738,4.269963021540377 116.52320517785176,1.5373002575326211 C 111.53609563353751,0.44423515192946184 90.69954205797814,-0.4438802463730269 86.12233192826506,0.239285444628905 M 55.038292987676414,20.324356760086147 C 57.770955751684255,23.05701952409396 56.60957407698095,24.901566889799227 49.231384614159936,29.547093588612483 C 43.62942594794396,33.09955518182258 34.95322167221923,42.04902573394813 30.23937840430574,49.15394892036832 C 25.73048484369292,56.053922399488044 24.295836892588852,57.14698750509112 21.836440404981772,55.57570641578667 C 20.948325006679283,54.960857293884914 19.991893039276533,53.66284248098117 19.786943331975976,52.70641051357845 C 18.693878226372874,48.47078322936639 35.08985481041958,29.410460450412074 45.81555615915016,22.51048697129235 C 48.821485199558765,20.529306467386704 51.82741423996731,18.958025378082255 52.51057993096924,18.958025378082255 C 53.12542905287097,18.958025378082255 54.28681072757428,19.57287449998404 55.038292987676414,20.324356760086147 M 116.1816223323508,23.330285800494693 C 131.6211669489948,27.360963377406165 147.26566127293944,37.47181560423502 156.89829751606692,49.70048147316987 C 170.76656104340634,67.32615630102015 176.43683627872252,86.4547956490747 173.9091232220154,107.56461550103484 C 171.7229930108091,126.14672229628786 164.0032207024871,141.58626691293182 150.13495717514752,155.04463102567018 C 142.14191859042472,162.76440333399222 139.06767298091603,164.95053354519848 129.98156929059013,169.2544773985107 C 113.79054241384392,176.97424970683278 94.18368708208806,178.75048050343776 76.7629619615384,173.96832066642418 C 69.52140563691773,171.98714016251853 57.361056337083085,165.83864894350103 51.55414796356655,161.19312224468774 C 21.768123835881568,137.55558933602032 12.477070438255112,96.2240650304025 29.4195795751034,62.68062960220689 C 39.66706494013266,42.253975441248684 61.05015106849362,26.4045314100035 84.20946799345961,22.032270987591062 C 92.54408942368337,20.460989898286527 107.50541805662607,21.07583902018831 116.1816223323508,23.330285800494693"
                       class="c1"
                       id="i1" />
                  </g>
                  <g
                     id="g8">
                    <path
                       style="stroke: none; stroke-width: 1; stroke-dasharray: none; stroke-linecap: butt; stroke-dashoffset: 0; stroke-linejoin: miter; stroke-miterlimit: 4;  fill-rule: nonzero; opacity: 1"
                       d="M 87.98984417142935,49.13082638928827 C 78.69879077380284,51.248640031394245 70.29585277447887,55.8941667302075 62.78103017345745,63.13572305482819 C 57.04243836904112,68.66936515194396 53.28502706853038,74.06637411085933 51.03058028822397,80.14654876077668 C 44.95040563830662,96.13262593022228 46.5216867276111,113.14345163617077 55.26620757243603,127.55824771631183 C 58.47708632014519,132.81862353702684 66.12854205936702,140.94829525995 70.77406875818025,144.0225408694588 C 79.10869018840401,149.48786639747436 90.44924065903638,152.35716229968256 101.31157514596731,151.74231317778077 C 129.93621759894887,150.1027155193761 150.49950489810755,128.37804654551417 150.49950489810755,99.75340409253255 C 150.49950489810755,90.46235069490612 148.92822380880312,83.76732692308696 144.89754623189157,75.50102206196343 C 142.574782882485,70.78717879405002 140.86686865498007,68.53273201374355 135.81144254156567,63.54562246942933 C 129.04810220064644,56.782282128510104 123.51446010353061,53.3664536735003 114.97488896600629,50.42884120219199 C 108.62144803968818,48.2427109909857 94.68486794324843,47.627861869084 87.98984417142935,49.13082638928827 M 95.16308392694975,57.73871409591277 C 96.73436501625429,59.309995185217275 96.93931472355484,62.657507071126815 95.57298334155092,63.81888874583015 C 95.0947673578496,64.22878816043126 92.29378802474162,65.18522012783401 89.35617555343327,65.93670238793621 C 86.41856308212488,66.68818464803832 82.59283521251399,68.12283259914241 80.8849209850091,69.14758113564534 C 76.99087654629795,71.40202791595172 71.04733503458101,76.93567001306755 68.45130540877364,80.69308131357823 C 65.30874323016468,85.27029144329126 63.05429644985827,92.99006375161332 63.05429644985827,99.13855497063085 C 63.05429644985827,105.15041305144797 62.09786448245552,106.926643848053 58.88698573474636,106.926643848053 C 56.08600640163843,106.926643848053 54.85630815783486,104.74051363684674 54.85630815783486,99.54845438523199 C 54.85630815783486,80.96634758997905 67.42655687227074,63.75057217672989 85.12054826922116,58.01198037231356 C 91.20072291913851,56.03079986840791 93.38685313034472,55.96248329930776 95.16308392694975,57.73871409591277"
                       class="c1"
                       id="i2" />
                  </g>
                  <g
                     id="g11">
                    <path
                       style="stroke: none; stroke-width: 1; stroke-dasharray: none; stroke-linecap: butt; stroke-dashoffset: 0; stroke-linejoin: miter; stroke-miterlimit: 4;  fill-rule: nonzero; opacity: 1"
                       d="M 140.52349906844114,218.7430526058987 C 132.12056106911723,220.92918281710502 125.5621704354985,224.54996097941535 119.96021176928258,230.08360307653106 C 114.76815251766777,235.27566232814593 111.69390690815902,240.12613873425977 109.09787728235159,247.23106192068002 L 107.2533299166463,252.21817146499427 L 107.2533299166463,326.00006609320457 L 107.2533299166463,399.78196072141486 L 129.72948115061035,399.98691042871553 C 142.50467957234684,400.0552269978157 152.54721523007544,399.850277290515 152.8887980755764,399.50869444501404 C 153.23038092107737,399.1671115995131 153.5036471974782,374.29988044704226 153.5036471974782,340.4148621733456 C 153.5036471974782,308.2377581271539 153.70859690477874,281.93587902357893 153.91354661207941,281.93587902357893 C 154.18681288848012,281.93587902357893 155.75809397778465,284.5319086493863 157.32937506708907,287.74278739709547 C 158.96897272549376,290.9536661448047 160.54025381479823,293.549695770612 160.81352009119905,293.549695770612 C 161.56500235130113,293.549695770612 178.9174109027506,285.96655660049043 179.53226002465237,285.35170747858865 C 179.87384287015334,285.07844120218783 178.71246119545003,281.59429617807797 177.0045469679452,277.6319351702667 L 173.8619847893362,270.45869541474616 L 173.8619847893362,245.1815648476741 C 173.8619847893362,228.44400541812644 173.58871851293543,219.69948457330145 173.17881909833426,219.4262182969007 C 171.53922143992958,218.40146976039773 160.06203783109686,217.03513837839387 153.70859690477874,217.10345494749401 C 148.78980392956475,217.10345494749401 145.10070919815428,217.5816709311955 140.52349906844114,218.7430526058987"
                       class="c1"
                       id="i3" />
                  </g>
                  <g
                     id="g14">
                    <path
                       style="stroke: none; stroke-width: 1; stroke-dasharray: none; stroke-linecap: butt; stroke-dashoffset: 0; stroke-linejoin: miter; stroke-miterlimit: 4;  fill-rule: nonzero; opacity: 1"
                       d="M 174.25927191425734,300.37767409614156 C 168.99889609354233,302.7004374455481 164.49000253292945,304.749934518554 164.21673625652875,304.9548842258545 C 163.94346998012793,305.2281505022553 164.89990194753068,307.8924966971629 166.3345498986347,310.8984257375715 C 167.70088128063867,313.90435477798 176.3770855563634,333.511210109736 185.5315058157895,354.55271339259593 C 194.75424264431575,375.5259001063557 202.61064809083814,392.80999208870503 203.0205475054393,393.0149417960056 C 203.97697947284206,393.35652464150655 222.9689856826962,385.3634860567838 224.33531706470006,384.0654712438801 C 225.018482755702,383.4506221219784 224.19868392649965,381.05954220347155 220.099689780488,372.0417550822458 C 210.80863638286155,351.2052015066864 197.00868942462216,320.53106198069895 191.88494674210762,309.19051151006664 C 189.08396740899963,302.97370372194894 186.6245709213926,297.5083781939333 186.419621214092,297.03016221023194 C 185.80477209219026,295.6638308282281 184.30180757198593,296.0737302428293 174.25927191425734,300.37767409614156"
                       class="c1"
                       id="i4" />
                  </g>
                </g>
              </g>
            </svg>
          </g>
        </g>
      </g>
    </mask>
  </defs>
  <rect
     width="100%"
     height="100%"
     fill="#835102"
     id="rect31" />
  <rect
     width="100%"
     height="100%"
     fill="#fff"
     mask="url(#overlay_mask)"
     id="rect33" />
</svg>
