<?xml version="1.0" encoding="UTF-8" standalone="no"?>
<!-- Created with Inkscape (http://www.inkscape.org/) -->

<svg
   width="210mm"
   height="297mm"
   viewBox="0 0 210 297"
   version="1.1"
   id="svg1"
   inkscape:version="1.4 (e7c3feb1, 2024-10-09)"
   sodipodi:docname="pyfurnace.svg"
   xmlns:inkscape="http://www.inkscape.org/namespaces/inkscape"
   xmlns:sodipodi="http://sodipodi.sourceforge.net/DTD/sodipodi-0.dtd"
   xmlns="http://www.w3.org/2000/svg"
   xmlns:svg="http://www.w3.org/2000/svg">
  <sodipodi:namedview
     id="namedview1"
     pagecolor="#ffffff"
     bordercolor="#000000"
     borderopacity="0.25"
     inkscape:showpageshadow="2"
     inkscape:pageopacity="0.0"
     inkscape:pagecheckerboard="0"
     inkscape:deskcolor="#d1d1d1"
     inkscape:document-units="mm"
     showgrid="true"
     inkscape:zoom="3.4455331"
     inkscape:cx="473.94698"
     inkscape:cy="576.10824"
     inkscape:window-width="1920"
     inkscape:window-height="1027"
     inkscape:window-x="0"
     inkscape:window-y="25"
     inkscape:window-maximized="0"
     inkscape:current-layer="layer3">
    <inkscape:grid
       id="grid1"
       units="mm"
       originx="0"
       originy="0"
       spacingx="0.99999998"
       spacingy="1"
       empcolor="#0099e5"
       empopacity="0.30196078"
       color="#0099e5"
       opacity="0.14901961"
       empspacing="5"
       dotted="false"
       gridanglex="30"
       gridanglez="30"
       visible="true" />
  </sodipodi:namedview>
  <defs
     id="defs1">
    <inkscape:path-effect
       effect="powerstroke"
       id="path-effect40"
       is_visible="true"
       lpeversion="1.3"
       scale_width="1.6"
       interpolator_type="CentripetalCatmullRom"
       interpolator_beta="0.2"
       start_linecap_type="zerowidth"
       end_linecap_type="zerowidth"
       offset_points="0.2,0.15000001 | 7.5,0.15000001 | 13.643936,0.230847"
       linejoin_type="round"
       miter_limit="4"
       not_jump="false"
       sort_points="true"
       message="" />
    <inkscape:path-effect
       effect="spiro"
       id="path-effect16"
       is_visible="true"
       lpeversion="1" />
    <inkscape:path-effect
       effect="powerstroke"
       id="path-effect24"
       is_visible="true"
       lpeversion="1.3"
       scale_width="1.6"
       interpolator_type="CentripetalCatmullRom"
       interpolator_beta="0.2"
       start_linecap_type="zerowidth"
       end_linecap_type="zerowidth"
       offset_points="0.2,0.15000001 | 7.5,0.15000001 | 14.8,0.15000001"
       linejoin_type="round"
       miter_limit="4"
       not_jump="false"
       sort_points="true"
       message="" />
    <inkscape:path-effect
       effect="spiro"
       id="path-effect12"
       is_visible="true"
       lpeversion="1" />
    <inkscape:path-effect
       effect="powerstroke"
       id="path-effect1"
       is_visible="true"
       lpeversion="1.3"
       scale_width="1.6"
       interpolator_type="CentripetalCatmullRom"
       interpolator_beta="0.2"
       start_linecap_type="zerowidth"
       end_linecap_type="zerowidth"
       offset_points="0.2,0.15000001 | 7.5,0.15000001 | 13.643936,0.230847"
       linejoin_type="round"
       miter_limit="4"
       not_jump="false"
       sort_points="true"
       message="" />
    <rect
       x="414.8453"
       y="518.84768"
       width="185.10871"
       height="41.911406"
       id="rect1" />
    <inkscape:path-effect
       effect="spiro"
       id="path-effect18"
       is_visible="true"
       lpeversion="1" />
    <inkscape:path-effect
       effect="spiro"
       id="path-effect14"
       is_visible="true"
       lpeversion="1" />
    <inkscape:path-effect
       effect="spiro"
       id="path-effect11"
       is_visible="true"
       lpeversion="1" />
    <inkscape:path-effect
       effect="powerstroke"
       id="path-effect32"
       is_visible="true"
       lpeversion="1.3"
       scale_width="1.4"
       interpolator_type="CentripetalCatmullRom"
       interpolator_beta="0.2"
       start_linecap_type="zerowidth"
       end_linecap_type="zerowidth"
       offset_points="0.2,0.15000001 | 7,0.15000001 | 13.8,0.15000001"
       linejoin_type="round"
       miter_limit="4"
       not_jump="false"
       sort_points="true"
       message="" />
    <inkscape:path-effect
       effect="spiro"
       id="path-effect23"
       is_visible="true"
       lpeversion="1" />
    <inkscape:path-effect
       effect="spiro"
       id="path-effect17"
       is_visible="true"
       lpeversion="1" />
    <inkscape:path-effect
       effect="spiro"
       id="path-effect15"
       is_visible="true"
       lpeversion="1" />
    <inkscape:path-effect
       effect="spiro"
       id="path-effect13"
       is_visible="true"
       lpeversion="1" />
    <inkscape:path-effect
       effect="spiro"
       id="path-effect10"
       is_visible="true"
       lpeversion="1" />
    <inkscape:path-effect
       effect="spiro"
       id="path-effect8"
       is_visible="true"
       lpeversion="1" />
    <inkscape:path-effect
       effect="spiro"
       id="path-effect5"
       is_visible="true"
       lpeversion="1" />
    <inkscape:path-effect
       effect="spiro"
       id="path-effect3"
       is_visible="true"
       lpeversion="1" />
    <inkscape:path-effect
       effect="powerstroke"
       id="path-effect38"
       is_visible="true"
       lpeversion="1.3"
       scale_width="1.4"
       interpolator_type="CentripetalCatmullRom"
       interpolator_beta="0.2"
       start_linecap_type="zerowidth"
       end_linecap_type="zerowidth"
       offset_points="0.2,0.15000001 | 2,0.15000001 | 3.8,0.15000001"
       linejoin_type="round"
       miter_limit="4"
       not_jump="false"
       sort_points="true"
       message="" />
    <inkscape:path-effect
       effect="powerstroke"
       id="path-effect37"
       is_visible="true"
       lpeversion="1.3"
       scale_width="1.4"
       interpolator_type="CentripetalCatmullRom"
       interpolator_beta="0.2"
       start_linecap_type="zerowidth"
       end_linecap_type="zerowidth"
       offset_points="0.2,0.15000001 | 2,0.15000001 | 3.8,0.15000001"
       linejoin_type="round"
       miter_limit="4"
       not_jump="false"
       sort_points="true"
       message="" />
    <inkscape:path-effect
       effect="powerstroke"
       id="path-effect36"
       is_visible="true"
       lpeversion="1.3"
       scale_width="1.4"
       interpolator_type="CentripetalCatmullRom"
       interpolator_beta="0.2"
       start_linecap_type="zerowidth"
       end_linecap_type="zerowidth"
       offset_points="0.2,0.15000001 | 2,0.15000001 | 3.8,0.15000001"
       linejoin_type="round"
       miter_limit="4"
       not_jump="false"
       sort_points="true"
       message="" />
    <inkscape:path-effect
       effect="powerstroke"
       id="path-effect35"
       is_visible="true"
       lpeversion="1.3"
       scale_width="1.4"
       interpolator_type="CentripetalCatmullRom"
       interpolator_beta="0.2"
       start_linecap_type="zerowidth"
       end_linecap_type="zerowidth"
       offset_points="0.2,0.15000001 | 2,0.15000001 | 3.8,0.15000001"
       linejoin_type="round"
       miter_limit="4"
       not_jump="false"
       sort_points="true"
       message="" />
    <inkscape:path-effect
       effect="powerstroke"
       id="path-effect34"
       is_visible="true"
       lpeversion="1.3"
       scale_width="1.4"
       interpolator_type="CentripetalCatmullRom"
       interpolator_beta="0.2"
       start_linecap_type="zerowidth"
       end_linecap_type="zerowidth"
       offset_points="0.2,0.15000001 | 2,0.15000001 | 3.8,0.15000001"
       linejoin_type="round"
       miter_limit="4"
       not_jump="false"
       sort_points="true"
       message="" />
    <inkscape:path-effect
       effect="powerstroke"
       id="path-effect33"
       is_visible="true"
       lpeversion="1.3"
       scale_width="1.4"
       interpolator_type="CentripetalCatmullRom"
       interpolator_beta="0.2"
       start_linecap_type="zerowidth"
       end_linecap_type="zerowidth"
       offset_points="0.2,0.15000001 | 2,0.15000001 | 3.8,0.15000001"
       linejoin_type="round"
       miter_limit="4"
       not_jump="false"
       sort_points="true"
       message="" />
    <inkscape:path-effect
       effect="powerstroke"
       id="path-effect31"
       is_visible="true"
       lpeversion="1.3"
       scale_width="1.4"
       interpolator_type="CentripetalCatmullRom"
       interpolator_beta="0.2"
       start_linecap_type="zerowidth"
       end_linecap_type="zerowidth"
       offset_points="0.2,0.15000001 | 7,0.15000001 | 13.8,0.15000001"
       linejoin_type="round"
       miter_limit="4"
       not_jump="false"
       sort_points="true"
       message="" />
    <inkscape:path-effect
       effect="powerstroke"
       id="path-effect30"
       is_visible="true"
       lpeversion="1.3"
       scale_width="1.4"
       interpolator_type="CentripetalCatmullRom"
       interpolator_beta="0.2"
       start_linecap_type="zerowidth"
       end_linecap_type="zerowidth"
       offset_points="0.2,0.15000001 | 3,0.15000001 | 5.8,0.15000001"
       linejoin_type="round"
       miter_limit="4"
       not_jump="false"
       sort_points="true"
       message="" />
    <inkscape:path-effect
       effect="powerstroke"
       id="path-effect29"
       is_visible="true"
       lpeversion="1.3"
       scale_width="1.4"
       interpolator_type="CentripetalCatmullRom"
       interpolator_beta="0.2"
       start_linecap_type="zerowidth"
       end_linecap_type="zerowidth"
       offset_points="0.2,0.15000001 | 2,0.15000001 | 3.8,0.15000001"
       linejoin_type="round"
       miter_limit="4"
       not_jump="false"
       sort_points="true"
       message="" />
    <inkscape:path-effect
       effect="powerstroke"
       id="path-effect28"
       is_visible="true"
       lpeversion="1.3"
       scale_width="1.4"
       interpolator_type="CentripetalCatmullRom"
       interpolator_beta="0.2"
       start_linecap_type="zerowidth"
       end_linecap_type="zerowidth"
       offset_points="0.2,0.15000001 | 2,0.15000001 | 3.8,0.15000001"
       linejoin_type="round"
       miter_limit="4"
       not_jump="false"
       sort_points="true"
       message="" />
    <inkscape:path-effect
       effect="powerstroke"
       id="path-effect27"
       is_visible="true"
       lpeversion="1.3"
       scale_width="1.4"
       interpolator_type="CentripetalCatmullRom"
       interpolator_beta="0.2"
       start_linecap_type="zerowidth"
       end_linecap_type="zerowidth"
       offset_points="0.2,0.15000001 | 8,0.15000001 | 15.8,0.15000001"
       linejoin_type="round"
       miter_limit="4"
       not_jump="false"
       sort_points="true"
       message="" />
    <inkscape:path-effect
       effect="spiro"
       id="path-effect26"
       is_visible="true"
       lpeversion="1" />
    <inkscape:path-effect
       effect="spiro"
       id="path-effect25"
       is_visible="true"
       lpeversion="1" />
    <inkscape:path-effect
       effect="spiro"
       id="path-effect22"
       is_visible="true"
       lpeversion="1" />
    <inkscape:path-effect
       effect="spiro"
       id="path-effect21"
       is_visible="true"
       lpeversion="1" />
    <inkscape:path-effect
       effect="spiro"
       id="path-effect20"
       is_visible="true"
       lpeversion="1" />
    <inkscape:path-effect
       effect="spiro"
       id="path-effect19"
       is_visible="true"
       lpeversion="1" />
    <inkscape:path-effect
       effect="skeletal"
       id="path-effect7"
       is_visible="true"
       lpeversion="1"
       pattern="m 101,145 a 1,1 0 0 1 -1,1 1,1 0 0 1 -1,-1 1,1 0 0 1 1,-1 1,1 0 0 1 1,1 z"
       copytype="repeated_stretched"
       prop_scale="1.33"
       scale_y_rel="false"
       spacing="0"
       normal_offset="0"
       tang_offset="0"
       prop_units="false"
       vertical_pattern="false"
       hide_knot="false"
       fuse_tolerance="0" />
  </defs>
  <g
     inkscape:groupmode="layer"
     id="layer2"
     inkscape:label="Construction_lines"
     style="display:none">
    <circle
       style="display:none;fill:none;fill-rule:evenodd;stroke:#808080;stroke-width:0.1;stroke-linecap:round;stroke-linejoin:round;stroke-dasharray:none;paint-order:stroke markers fill"
       id="path2"
       cx="100"
       cy="145"
       sodipodi:insensitive="true"
       r="3.5" />
    <circle
       style="display:inline;fill:none;fill-rule:evenodd;stroke:#808080;stroke-width:0.1;stroke-linecap:round;stroke-linejoin:round;stroke-dasharray:none;paint-order:stroke markers fill"
       id="circle21"
       cx="100"
       cy="145"
       sodipodi:insensitive="true"
       r="4" />
    <ellipse
       style="display:none;fill:none;fill-rule:evenodd;stroke:#808080;stroke-width:0.1;stroke-linecap:round;stroke-linejoin:round;stroke-dasharray:none;paint-order:stroke markers fill"
       id="circle16"
       cx="100"
       cy="146"
       ry="3"
       rx="4"
       inkscape:label="circle16" />
    <ellipse
       style="display:none;fill:none;fill-rule:evenodd;stroke:#808080;stroke-width:0.1;stroke-linecap:round;stroke-linejoin:round;stroke-dasharray:none;paint-order:stroke markers fill"
       id="circle15"
       cx="100"
       cy="144.74998"
       rx="3.25"
       ry="4.25" />
    <ellipse
       style="display:inline;fill:none;fill-rule:evenodd;stroke:#808080;stroke-width:0.1;stroke-linecap:round;stroke-linejoin:round;stroke-dasharray:none;paint-order:stroke markers fill"
       id="ellipse35"
       cx="100"
       cy="144.49998"
       rx="2.75"
       ry="4.5" />
    <ellipse
       style="display:inline;fill:none;fill-rule:evenodd;stroke:#808080;stroke-width:0.1;stroke-linecap:round;stroke-linejoin:round;stroke-dasharray:none;paint-order:stroke markers fill"
       id="ellipse34"
       cx="100"
       cy="144.49998"
       rx="2.5"
       ry="4.5" />
    <ellipse
       style="display:inline;fill:none;fill-rule:evenodd;stroke:#808080;stroke-width:0.1;stroke-linecap:round;stroke-linejoin:round;stroke-dasharray:none;paint-order:stroke markers fill"
       id="ellipse21"
       cx="100"
       cy="144.24998"
       rx="2.25"
       ry="4.75" />
    <ellipse
       style="display:inline;fill:none;fill-rule:evenodd;stroke:#808080;stroke-width:0.1;stroke-linecap:round;stroke-linejoin:round;stroke-dasharray:none;paint-order:stroke markers fill"
       id="circle14"
       cx="100"
       cy="144"
       rx="2"
       ry="5" />
    <g
       id="g1"
       inkscape:label="RNA_circles">
      <ellipse
         style="display:inline;fill:none;fill-rule:evenodd;stroke:#808080;stroke-width:0.1;stroke-linecap:round;stroke-linejoin:round;stroke-dasharray:none;paint-order:stroke markers fill"
         id="ellipse16"
         cx="100"
         cy="143"
         rx="1"
         ry="6" />
      <ellipse
         style="display:inline;fill:none;fill-rule:evenodd;stroke:#808080;stroke-width:0.1;stroke-linecap:round;stroke-linejoin:round;stroke-dasharray:none;paint-order:stroke markers fill"
         id="ellipse17"
         cx="100"
         cy="147.2"
         rx="1.2"
         ry="1.8" />
      <ellipse
         style="display:inline;fill:none;fill-rule:evenodd;stroke:#808080;stroke-width:0.1;stroke-linecap:round;stroke-linejoin:round;stroke-dasharray:none;paint-order:stroke markers fill"
         id="ellipse18"
         cx="100"
         cy="143.59999"
         rx="1.2"
         ry="1.8" />
      <ellipse
         style="display:inline;fill:none;fill-rule:evenodd;stroke:#808080;stroke-width:0.1;stroke-linecap:round;stroke-linejoin:round;stroke-dasharray:none;paint-order:stroke markers fill"
         id="ellipse1"
         cx="100.8881"
         cy="138.2411"
         rx="1"
         ry="2" />
    </g>
    <circle
       style="display:inline;fill:none;fill-rule:evenodd;stroke:#808080;stroke-width:0.1;stroke-linecap:round;stroke-linejoin:round;stroke-dasharray:none;paint-order:stroke markers fill"
       id="path21"
       cx="98"
       cy="144"
       r="2" />
    <circle
       style="display:inline;fill:none;fill-rule:evenodd;stroke:#808080;stroke-width:0.1;stroke-linecap:round;stroke-linejoin:round;stroke-dasharray:none;paint-order:stroke markers fill"
       id="circle22"
       cx="100.25115"
       cy="144"
       r="3.25" />
    <circle
       style="display:inline;fill:none;fill-rule:evenodd;stroke:#808080;stroke-width:0.1;stroke-linecap:round;stroke-linejoin:round;stroke-dasharray:none;paint-order:stroke markers fill"
       id="circle23"
       cx="102"
       cy="145"
       r="2" />
    <circle
       style="display:inline;fill:none;fill-rule:evenodd;stroke:#808080;stroke-width:0.1;stroke-linecap:round;stroke-linejoin:round;stroke-dasharray:none;paint-order:stroke markers fill"
       id="circle24"
       cx="100.98311"
       cy="143.65797"
       r="2.5" />
    <circle
       style="display:inline;fill:none;fill-rule:evenodd;stroke:#808080;stroke-width:0.1;stroke-linecap:round;stroke-linejoin:round;stroke-dasharray:none;paint-order:stroke markers fill"
       id="circle25"
       cx="101.75"
       cy="142.90858"
       r="1.5" />
  </g>
  <g
     inkscape:groupmode="layer"
     id="layer3"
     inkscape:label="frame"
     inkscape:export-filename="logo.png"
     inkscape:export-xdpi="463.50354"
     inkscape:export-ydpi="463.50354">
    <rect
       style="fill:none;fill-opacity:1;fill-rule:evenodd;stroke:none;stroke-width:0.100438;stroke-linecap:round;stroke-linejoin:round;stroke-dasharray:none;stroke-opacity:1;paint-order:stroke markers fill"
       id="rect40"
       width="13.7"
       height="13.7"
       x="93.150002"
       y="136.58398"
       inkscape:label="rect40" />
  </g>
  <g
     inkscape:groupmode="layer"
     id="layer4"
     inkscape:label="text"
     transform="translate(0,0.02162029)">
    <text
       xml:space="preserve"
       style="font-style:normal;font-variant:normal;font-weight:normal;font-stretch:normal;font-size:8.46667px;font-family:'Courier Prime';-inkscape-font-specification:'Courier Prime';text-align:center;letter-spacing:0px;word-spacing:0px;text-anchor:middle;fill:#D00000;fill-opacity:1;fill-rule:evenodd;stroke-width:0.1;stroke-linecap:round;stroke-linejoin:round;paint-order:stroke markers fill"
       x="129.51227"
       y="146.73515"
       id="text4"
       inkscape:export-filename="logo_text.png"
       inkscape:export-xdpi="558.64166"
       inkscape:export-ydpi="558.64166"><tspan
         sodipodi:role="line"
         id="tspan4"
         style="font-style:normal;font-variant:normal;font-weight:normal;font-stretch:normal;font-family:'Courier Prime';-inkscape-font-specification:'Courier Prime';stroke-width:0.1"
         x="129.51227"
         y="146.73515">py<tspan
   style="font-style:normal;font-variant:normal;font-weight:normal;font-stretch:normal;font-family:'Courier Prime';-inkscape-font-specification:'Courier Prime';fill:#00856A;fill-opacity:1"
   id="tspan5">Fu</tspan>RNA<tspan
   style="font-style:normal;font-variant:normal;font-weight:normal;font-stretch:normal;font-family:'Courier Prime';-inkscape-font-specification:'Courier Prime';fill:#00856A;fill-opacity:1"
   id="tspan6">ce</tspan></tspan></text>
  </g>
  <g
     inkscape:label="Logo"
     inkscape:groupmode="layer"
     id="layer1"
     inkscape:export-filename="logo_text.png"
     inkscape:export-xdpi="558.64166"
     inkscape:export-ydpi="558.64166"
     sodipodi:insensitive="true">
    <path
       style="display:inline;fill:none;fill-rule:evenodd;stroke:#00856a;stroke-width:0.5;stroke-linecap:round;stroke-linejoin:round;stroke-dasharray:none;paint-order:stroke markers fill"
       id="path1"
       sodipodi:type="arc"
       sodipodi:cx="100"
       sodipodi:cy="145"
       sodipodi:rx="5"
       sodipodi:ry="5"
       sodipodi:start="5.0614548"
       sodipodi:end="4.3633231"
       sodipodi:arc-type="arc"
       d="m 101.7101,140.30154 a 5,5 0 0 1 3.21394,5.5667 A 5,5 0 0 1 100,150 a 5,5 0 0 1 -4.924039,-4.13176 5,5 0 0 1 3.213938,-5.5667"
       sodipodi:open="true"
       sodipodi:insensitive="true" />
    <path
       style="fill:#d00000;fill-rule:nonzero;stroke:none;stroke-width:0.3;stroke-linecap:round;stroke-linejoin:round;stroke-dasharray:none;stroke-opacity:1;paint-order:stroke markers fill"
       d="m 97.999999,148.47592 c -0.04083,-0.0644 -0.07654,-0.22287 -0.216021,-0.39226 -0.183264,-0.22256 -0.603041,-0.5873 -0.959437,-1.17442 -0.260736,-0.43143 -0.452557,-0.945 -0.527332,-1.49853 0.04126,0.0485 0.08355,0.0946 0.126432,0.13822 0.292825,0.29801 0.70125,0.56399 1.202832,0.66951 a 0.25382399,0.24413897 77.21377 0 0 0.239902,-0.3977 c -0.209564,-0.2905 -0.361187,-0.61524 -0.455208,-0.94952 -0.100609,-0.3577 -0.131342,-0.7111 -0.110484,-1.03889 0.02993,-0.47963 0.175372,-0.90114 0.333148,-1.22778 0.142555,-0.29513 0.298841,-0.52265 0.39457,-0.67578 0.156453,-0.25027 0.207499,-0.43565 0.261182,-0.52019 -0.0811,0.0243 -0.313901,0.0357 -0.570036,0.23556 -0.163812,0.12781 -0.383133,0.35909 -0.578555,0.69768 -0.214238,0.37119 -0.398524,0.8753 -0.428901,1.45707 -0.0203,0.39655 0.03186,0.81789 0.168909,1.23496 0.05537,0.1685 0.123777,0.33371 0.204812,0.49348 -0.137806,-0.0759 -0.260395,-0.16876 -0.362591,-0.27276 -0.216785,-0.22063 -0.381643,-0.53567 -0.435729,-0.89264 a 0.24387401,0.25376293 44.299366 0 0 -0.491348,0.0158 c -0.169893,1.02849 0.05608,2.04411 0.522151,2.83365 0.399606,0.67958 0.926206,1.08694 1.218004,1.2115 0.219656,0.0938 0.393572,0.0494 0.4637,0.0531 z"
       id="path22"
       inkscape:path-effect="#path-effect22;#path-effect30"
       inkscape:original-d="m 97.999999,148.47592 c -0.476195,-0.47187 -0.952389,-0.94375 -1.428581,-1.41562 -0.476195,-0.47188 -0.528196,-2.64674 -0.528196,-2.64674 0,0 0.389781,0.69887 0.530209,0.98819 0.14043,0.28932 1.094496,0.57049 1.094496,0.57049 0,0 -0.567893,-1.94421 -0.66154,-2.15663 -0.0557,-0.12635 -0.206599,-0.49876 1.283196,-2.40703"
       sodipodi:nodetypes="cscsczc"
       inkscape:label="path22" />
    <path
       style="display:inline;fill:#00856a;fill-opacity:1;fill-rule:nonzero;stroke:none;stroke-width:0.3;stroke-linecap:round;stroke-linejoin:round;stroke-dasharray:none;stroke-opacity:1;paint-order:stroke markers fill"
       d="m 100,148.99999 c -0.02883,-0.0499 -0.03489,-0.1857 -0.132702,-0.3047 -0.05044,-0.0614 -0.131156,-0.13428 -0.223514,-0.23176 -0.09622,-0.10155 -0.205624,-0.231 -0.293682,-0.39536 -0.11291,-0.21434 -0.199248,-0.50407 -0.162323,-0.81909 0.01562,-0.1332 0.05321,-0.2723 0.11512,-0.41707 0.05839,-0.13654 0.136657,-0.27398 0.232523,-0.41018 0.188284,-0.26739 0.419466,-0.50248 0.693508,-0.77617 0.25733,-0.25697 0.54094,-0.53762 0.77197,-0.86452 0.11798,-0.16687 0.22237,-0.34725 0.30235,-0.53826 0.0819,-0.19567 0.13767,-0.40115 0.15684,-0.61319 0.0377,-0.42377 -0.0746,-0.82125 -0.25057,-1.14329 -0.0968,-0.17719 -0.21249,-0.33226 -0.32315,-0.46572 -0.11614,-0.14008 -0.24015,-0.27125 -0.36383,-0.40024 -0.12004,-0.12521 -0.23829,-0.24721 -0.34771,-0.37316 -0.10752,-0.12378 -0.203705,-0.24821 -0.28322,-0.37957 -0.131799,-0.209 -0.225036,-0.44245 -0.284058,-0.6892 -0.05912,-0.24715 -0.08342,-0.50567 -0.07845,-0.76241 0.0013,-0.15843 0.0135,-0.31575 0.03583,-0.47079 0.01,0.0512 0.02085,0.10203 0.03256,0.15248 0.18636,0.80252 0.575981,1.47973 1.016591,1.99062 0.16528,0.18887 0.35758,0.37271 0.48953,0.49935 0.0498,0.0478 0.0894,0.0857 0.13431,0.12906 0.11446,0.11049 0.21573,0.20883 0.30986,0.3117 0.35046,0.36542 0.55718,0.74592 0.62386,0.97879 0.034,-0.20575 0.14621,-0.71423 -0.10216,-1.30453 -0.0718,-0.1626 -0.16316,-0.31656 -0.26908,-0.46482 -0.0395,-0.0553 -0.0812,-0.11033 -0.12507,-0.16601 -0.13382,-0.16975 -0.28549,-0.34011 -0.42583,-0.5163 -0.35614,-0.4394 -0.6794,-0.99912 -0.84699,-1.65344 -0.14349,-0.55956 -0.17046,-1.18675 -0.0341,-1.8127 a 0.38333529,0.37556163 69.943705 0 0 -0.669558,-0.31981 c -0.554198,0.74819 -0.861695,1.69506 -0.833081,2.65466 0.01196,0.30617 0.0588,0.61672 0.148519,0.91581 0.0897,0.29905 0.222164,0.58625 0.40478,0.8451 0.114282,0.15713 0.24215,0.2966 0.369014,0.4236 0.126166,0.12631 0.264156,0.2526 0.383156,0.36511 0.12723,0.12028 0.24404,0.23561 0.34856,0.35657 0.0999,0.11555 0.19311,0.24263 0.26623,0.38271 0.13156,0.2521 0.19899,0.55688 0.15389,0.85703 -0.0221,0.14926 -0.0714,0.29753 -0.14391,0.44308 -0.0709,0.14243 -0.16277,0.27996 -0.26897,0.40985 -0.21381,0.26163 -0.47469,0.48654 -0.755963,0.73112 -0.285276,0.24805 -0.580147,0.50807 -0.828315,0.82256 -0.131211,0.16632 -0.246916,0.34614 -0.337746,0.53731 -0.09669,0.20349 -0.16371,0.41678 -0.192789,0.63671 -0.06897,0.52181 0.08684,0.98777 0.301185,1.30751 0.164969,0.24848 0.365261,0.41726 0.538092,0.5207 0.167158,0.10004 0.315389,0.14394 0.415152,0.15221 0.191026,0.0158 0.290444,-0.10862 0.333354,-0.13135 z"
       id="path19"
       sodipodi:nodetypes="cszzsssscsssc"
       inkscape:original-d="m 100,148.99999 c -0.32275,-0.24556 -0.645499,-0.49112 -0.968248,-0.73669 -0.322749,-0.24556 -0.174639,-0.40699 -0.231754,-1.0633 -0.05711,-0.65631 0.743628,-1.57217 1.200002,-1.8 1.90865,-0.95281 0.55799,-0.837 1.2,-1.80001 0.27181,-0.40771 0.60387,-0.49417 -0.20223,-1.00016 -0.40305,-0.253 -1.043945,-1.00293 -1.342435,-1.57334 -0.298489,-0.5704 -0.254572,-0.96129 -0.457905,-1.60626 C 98.945729,138.62183 100,137 100,137 c 0,0 -0.192437,1.2437 0,2 0.19244,0.7563 0.79803,1.41866 0.93179,1.82203 0.26752,0.80675 0.82624,0.44776 0.87684,1.04362 0.0506,0.59586 0.0193,0.41239 0.36301,1.14166"
       inkscape:path-effect="#path-effect19;#path-effect1" />
    <path
       style="fill:#d00000;fill-rule:nonzero;stroke:none;stroke-width:0.3;stroke-linecap:round;stroke-linejoin:round;stroke-dasharray:none;stroke-opacity:1;paint-order:stroke markers fill"
       d="m 101.56292,148.68202 c 0.0854,-5.4e-4 0.301,0.0535 0.5822,-0.0513 0.18592,-0.0693 0.44474,-0.21553 0.71704,-0.45069 0.31343,-0.27069 0.6278,-0.64484 0.86691,-1.11665 0.24085,-0.49428 0.34784,-1.00049 0.39853,-1.47703 a 0.21000001,0.21000001 54.324769 0 0 -0.41029,-0.0814 c -0.0781,0.26545 -0.25539,0.51404 -0.47824,0.71395 -0.27622,0.25468 -0.58811,0.37993 -0.72885,0.49653 -0.10128,0.0839 -0.14931,0.21662 -0.18508,0.25799 0.0454,0.0267 0.14618,0.1381 0.30571,0.14431 0.22746,0.009 0.639,-0.15622 0.98166,-0.53149 0.26369,-0.295 0.41214,-0.63765 0.50774,-0.96283 l -0.41029,-0.0814 c -0.0454,0.42644 -0.20557,0.86707 -0.44363,1.27597 -0.22367,0.40049 -0.50073,0.71609 -0.76295,0.96351 -0.22703,0.21421 -0.4343,0.36943 -0.56891,0.48595 -0.20735,0.17949 -0.30246,0.34911 -0.37155,0.41465 z"
       id="path25"
       inkscape:path-effect="#path-effect25;#path-effect37"
       inkscape:original-d="m 101.56292,148.68202 c 0.48399,-0.51704 1.45078,-1.22433 1.93478,-1.74137 0.48399,-0.51703 0.42108,-1.3765 0.42108,-1.3765 0,0 -0.32866,0.55893 -0.49299,0.83839 -0.16433,0.27947 -0.89643,0.42929 -1.10065,0.57085"
       sodipodi:nodetypes="cscsc" />
    <path
       style="fill:#d00000;fill-rule:nonzero;stroke:none;stroke-width:0.3;stroke-linecap:round;stroke-linejoin:round;stroke-dasharray:none;stroke-opacity:1;paint-order:stroke markers fill"
       d="m 101.83132,146.00975 c 0.0737,0.0117 0.23361,0.0909 0.46153,0.025 0.14737,-0.0426 0.35136,-0.14863 0.56125,-0.33061 0.24093,-0.2089 0.47651,-0.50718 0.63454,-0.88462 0.1487,-0.35384 0.2134,-0.74112 0.19779,-1.1261 -0.0166,-0.40884 -0.12152,-0.78097 -0.27344,-1.09834 a 0.21000001,0.21000001 27.687922 0 0 -0.39657,0.12517 c 0.0386,0.23156 -0.0219,0.48584 -0.14106,0.70561 -0.0835,0.16176 -0.19233,0.28848 -0.29271,0.39179 -0.0873,0.0899 -0.16503,0.15912 -0.21203,0.22265 -0.0727,0.0982 -0.0918,0.2354 -0.11807,0.2816 0.0469,0.0189 0.16352,0.11326 0.31997,0.0867 0.0998,-0.0169 0.23469,-0.0804 0.3718,-0.19599 0.15737,-0.13271 0.30867,-0.32696 0.40818,-0.57228 0.13189,-0.33917 0.12879,-0.68544 0.0782,-0.98907 l -0.39657,0.12517 c 0.12676,0.2648 0.19907,0.5824 0.19219,0.92296 -0.006,0.3213 -0.0828,0.63177 -0.21524,0.9066 -0.14192,0.29328 -0.33474,0.52365 -0.51837,0.70293 -0.15934,0.15557 -0.30647,0.26791 -0.40092,0.35708 -0.14622,0.13805 -0.20955,0.28925 -0.26049,0.34377 z"
       id="path26"
       inkscape:path-effect="#path-effect26;#path-effect38"
       inkscape:original-d="m 101.83132,146.00975 c 0.47285,-0.43234 0.9457,-0.86467 1.41855,-1.29701 0.47285,-0.43233 -0.0263,-2.027 -0.0263,-2.027 0,0 -0.15076,0.43759 -0.10964,0.84734 0.0411,0.40974 -0.65554,0.64286 -0.86138,0.78881"
       sodipodi:nodetypes="cscsc" />
    <g
       id="g10"
       transform="translate(-0.05943086,0.03293413)">
      <path
         style="fill:none;fill-rule:evenodd;stroke:#00856a;stroke-width:0.5;stroke-linecap:round;stroke-linejoin:round;stroke-dasharray:none;stroke-opacity:1;paint-order:stroke markers fill"
         d="m 100.00008,146.72766 h 0.75"
         id="path3"
         inkscape:path-effect="#path-effect3"
         inkscape:original-d="m 100.00008,146.72766 h 0.75"
         sodipodi:nodetypes="cc"
         transform="translate(0.29727086,-0.26810132)" />
      <path
         style="fill:none;fill-rule:evenodd;stroke:#00856a;stroke-width:0.5;stroke-linecap:round;stroke-linejoin:round;stroke-dasharray:none;stroke-opacity:1;paint-order:stroke markers fill"
         d="m 100.01595,146.72766 h 1.5"
         id="path4"
         inkscape:path-effect="#path-effect5"
         inkscape:original-d="m 100.01595,146.72766 h 1.5"
         sodipodi:nodetypes="cc"
         transform="translate(-0.09359914,0.51705259)" />
      <path
         style="fill:none;fill-rule:evenodd;stroke:#00856a;stroke-width:0.5;stroke-linecap:round;stroke-linejoin:round;stroke-dasharray:none;stroke-opacity:1;paint-order:stroke markers fill"
         d="m 100,146.72766 h 0.75008"
         id="path8"
         inkscape:path-effect="#path-effect10"
         inkscape:original-d="m 100,146.72766 h 0.75008"
         sodipodi:nodetypes="cc"
         transform="translate(0.29731086,1.3022065)" />
    </g>
    <g
       id="g7"
       transform="translate(-1.1741846,-3.8490826)"
       style="display:inline">
      <path
         style="fill:none;fill-rule:evenodd;stroke:#00856a;stroke-width:0.5;stroke-linecap:round;stroke-linejoin:round;stroke-dasharray:none;stroke-opacity:1;paint-order:stroke markers fill"
         d="m 100.00008,146.72766 h 0.75"
         id="path5"
         inkscape:path-effect="#path-effect11"
         inkscape:original-d="m 100.00008,146.72766 h 0.75"
         sodipodi:nodetypes="cc"
         transform="translate(0.29727086,-0.26810132)" />
      <path
         style="fill:none;fill-rule:evenodd;stroke:#00856a;stroke-width:0.5;stroke-linecap:round;stroke-linejoin:round;stroke-dasharray:none;stroke-opacity:1;paint-order:stroke markers fill"
         d="m 100.01595,146.72766 h 1.5"
         id="path6"
         inkscape:path-effect="#path-effect14"
         inkscape:original-d="m 100.01595,146.72766 h 1.5"
         sodipodi:nodetypes="cc"
         transform="translate(-0.09359914,0.51705259)" />
      <path
         style="fill:none;fill-rule:evenodd;stroke:#00856a;stroke-width:0.5;stroke-linecap:round;stroke-linejoin:round;stroke-dasharray:none;stroke-opacity:1;paint-order:stroke markers fill"
         d="m 100,146.72766 h 0.75008"
         id="path7"
         inkscape:path-effect="#path-effect18"
         inkscape:original-d="m 100,146.72766 h 0.75008"
         sodipodi:nodetypes="cc"
         transform="translate(0.29731086,1.3022065)" />
    </g>
    <path
       style="display:inline;fill:#d00000;fill-opacity:1;fill-rule:nonzero;stroke:none;stroke-width:0.3;stroke-linecap:round;stroke-linejoin:round;stroke-dasharray:none;stroke-opacity:1;paint-order:stroke markers fill"
       d="m 99.564932,138.94531 v 0 0 c 0,0 0.02085,0.10203 0.03256,0.15248 0.18636,0.80252 0.575978,1.47973 1.016588,1.99062 0.16528,0.18887 0.35758,0.37271 0.48953,0.49935 0.0498,0.0478 0.0894,0.0857 0.13431,0.12906 0.11446,0.11049 0.21573,0.20883 0.30986,0.3117 0.35046,0.36542 0.55718,0.74592 0.62386,0.97879 0.034,-0.20575 0.14621,-0.71423 -0.10216,-1.30453 -0.0718,-0.1626 -0.16316,-0.31656 -0.26908,-0.46482 -0.0395,-0.0553 -0.0812,-0.11033 -0.12507,-0.16601 -0.13382,-0.16975 -0.28549,-0.34011 -0.42583,-0.5163 -0.35614,-0.4394 -0.6794,-0.99912 -0.84699,-1.65344 -0.14349,-0.55956 -0.17046,-1.18675 -0.0341,-1.8127 0.0874,-0.40114 -0.427239,-0.64694 -0.669555,-0.31981 0,0 -0.173788,0.73082 -0.196109,1.09342 -0.02232,0.3626 0.06219,1.08219 0.06219,1.08219 z"
       id="path9"
       sodipodi:nodetypes="ccsccsscccssccsczcc" />
  </g>
</svg>
