<?xml version="1.0" encoding="utf-8" standalone="no"?>
<!DOCTYPE svg PUBLIC "-//W3C//DTD SVG 1.1//EN"
  "http://www.w3.org/Graphics/SVG/1.1/DTD/svg11.dtd">
<svg xmlns:xlink="http://www.w3.org/1999/xlink" width="460.8pt" height="345.6pt" viewBox="0 0 460.8 345.6" xmlns="http://www.w3.org/2000/svg" version="1.1">
 <metadata>
  <rdf:RDF xmlns:dc="http://purl.org/dc/elements/1.1/" xmlns:cc="http://creativecommons.org/ns#" xmlns:rdf="http://www.w3.org/1999/02/22-rdf-syntax-ns#">
   <cc:Work>
    <dc:type rdf:resource="http://purl.org/dc/dcmitype/StillImage"/>
    <dc:date>2025-09-30T08:35:49.479186</dc:date>
    <dc:format>image/svg+xml</dc:format>
    <dc:creator>
     <cc:Agent>
      <dc:title>Matplotlib v3.10.6, https://matplotlib.org/</dc:title>
     </cc:Agent>
    </dc:creator>
   </cc:Work>
  </rdf:RDF>
 </metadata>
 <defs>
  <style type="text/css">*{stroke-linejoin: round; stroke-linecap: butt}</style>
 </defs>
 <g id="figure_1">
  <g id="patch_1">
   <path d="M 0 345.6
L 460.8 345.6
L 460.8 0
L 0 0
z
" style="fill: #ffffff"/>
  </g>
  <g id="axes_1">
   <g id="patch_2">
    <path d="M 160.263529 307.584
L 312.056471 307.584
L 312.056471 41.472
L 160.263529 41.472
z
" style="fill: #ffffff"/>
   </g>
   <g id="matplotlib.axis_1">
    <g id="xtick_1">
     <g id="line2d_1">
      <defs>
       <path id="m087fa52112" d="M 0 0
L 0 3.5
" style="stroke: #000000; stroke-width: 0.8"/>
      </defs>
      <g>
       <use xlink:href="#m087fa52112" x="187.143529" y="307.584" style="stroke: #000000; stroke-width: 0.8"/>
      </g>
     </g>
     <g id="text_1">
      <!-- 6 -->
      <g transform="translate(183.962279 322.182437) scale(0.1 -0.1)">
       <defs>
        <path id="DejaVuSans-36" d="M 2113 2584
Q 1688 2584 1439 2293
Q 1191 2003 1191 1497
Q 1191 994 1439 701
Q 1688 409 2113 409
Q 2538 409 2786 701
Q 3034 994 3034 1497
Q 3034 2003 2786 2293
Q 2538 2584 2113 2584
z
M 3366 4563
L 3366 3988
Q 3128 4100 2886 4159
Q 2644 4219 2406 4219
Q 1781 4219 1451 3797
Q 1122 3375 1075 2522
Q 1259 2794 1537 2939
Q 1816 3084 2150 3084
Q 2853 3084 3261 2657
Q 3669 2231 3669 1497
Q 3669 778 3244 343
Q 2819 -91 2113 -91
Q 1303 -91 875 529
Q 447 1150 447 2328
Q 447 3434 972 4092
Q 1497 4750 2381 4750
Q 2619 4750 2861 4703
Q 3103 4656 3366 4563
z
" transform="scale(0.015625)"/>
       </defs>
       <use xlink:href="#DejaVuSans-36"/>
      </g>
     </g>
    </g>
    <g id="xtick_2">
     <g id="line2d_2">
      <g>
       <use xlink:href="#m087fa52112" x="219.821176" y="307.584" style="stroke: #000000; stroke-width: 0.8"/>
      </g>
     </g>
     <g id="text_2">
      <!-- 8 -->
      <g transform="translate(216.639926 322.182437) scale(0.1 -0.1)">
       <defs>
        <path id="DejaVuSans-38" d="M 2034 2216
Q 1584 2216 1326 1975
Q 1069 1734 1069 1313
Q 1069 891 1326 650
Q 1584 409 2034 409
Q 2484 409 2743 651
Q 3003 894 3003 1313
Q 3003 1734 2745 1975
Q 2488 2216 2034 2216
z
M 1403 2484
Q 997 2584 770 2862
Q 544 3141 544 3541
Q 544 4100 942 4425
Q 1341 4750 2034 4750
Q 2731 4750 3128 4425
Q 3525 4100 3525 3541
Q 3525 3141 3298 2862
Q 3072 2584 2669 2484
Q 3125 2378 3379 2068
Q 3634 1759 3634 1313
Q 3634 634 3220 271
Q 2806 -91 2034 -91
Q 1263 -91 848 271
Q 434 634 434 1313
Q 434 1759 690 2068
Q 947 2378 1403 2484
z
M 1172 3481
Q 1172 3119 1398 2916
Q 1625 2713 2034 2713
Q 2441 2713 2670 2916
Q 2900 3119 2900 3481
Q 2900 3844 2670 4047
Q 2441 4250 2034 4250
Q 1625 4250 1398 4047
Q 1172 3844 1172 3481
z
" transform="scale(0.015625)"/>
       </defs>
       <use xlink:href="#DejaVuSans-38"/>
      </g>
     </g>
    </g>
    <g id="xtick_3">
     <g id="line2d_3">
      <g>
       <use xlink:href="#m087fa52112" x="252.498824" y="307.584" style="stroke: #000000; stroke-width: 0.8"/>
      </g>
     </g>
     <g id="text_3">
      <!-- 10 -->
      <g transform="translate(246.136324 322.182437) scale(0.1 -0.1)">
       <defs>
        <path id="DejaVuSans-31" d="M 794 531
L 1825 531
L 1825 4091
L 703 3866
L 703 4441
L 1819 4666
L 2450 4666
L 2450 531
L 3481 531
L 3481 0
L 794 0
L 794 531
z
" transform="scale(0.015625)"/>
        <path id="DejaVuSans-30" d="M 2034 4250
Q 1547 4250 1301 3770
Q 1056 3291 1056 2328
Q 1056 1369 1301 889
Q 1547 409 2034 409
Q 2525 409 2770 889
Q 3016 1369 3016 2328
Q 3016 3291 2770 3770
Q 2525 4250 2034 4250
z
M 2034 4750
Q 2819 4750 3233 4129
Q 3647 3509 3647 2328
Q 3647 1150 3233 529
Q 2819 -91 2034 -91
Q 1250 -91 836 529
Q 422 1150 422 2328
Q 422 3509 836 4129
Q 1250 4750 2034 4750
z
" transform="scale(0.015625)"/>
       </defs>
       <use xlink:href="#DejaVuSans-31"/>
       <use xlink:href="#DejaVuSans-30" transform="translate(63.623047 0)"/>
      </g>
     </g>
    </g>
    <g id="xtick_4">
     <g id="line2d_4">
      <g>
       <use xlink:href="#m087fa52112" x="285.176471" y="307.584" style="stroke: #000000; stroke-width: 0.8"/>
      </g>
     </g>
     <g id="text_4">
      <!-- 12 -->
      <g transform="translate(278.813971 322.182437) scale(0.1 -0.1)">
       <defs>
        <path id="DejaVuSans-32" d="M 1228 531
L 3431 531
L 3431 0
L 469 0
L 469 531
Q 828 903 1448 1529
Q 2069 2156 2228 2338
Q 2531 2678 2651 2914
Q 2772 3150 2772 3378
Q 2772 3750 2511 3984
Q 2250 4219 1831 4219
Q 1534 4219 1204 4116
Q 875 4013 500 3803
L 500 4441
Q 881 4594 1212 4672
Q 1544 4750 1819 4750
Q 2544 4750 2975 4387
Q 3406 4025 3406 3419
Q 3406 3131 3298 2873
Q 3191 2616 2906 2266
Q 2828 2175 2409 1742
Q 1991 1309 1228 531
z
" transform="scale(0.015625)"/>
       </defs>
       <use xlink:href="#DejaVuSans-31"/>
       <use xlink:href="#DejaVuSans-32" transform="translate(63.623047 0)"/>
      </g>
     </g>
    </g>
    <g id="text_5">
     <!-- x [m] -->
     <g transform="translate(222.839688 335.860562) scale(0.1 -0.1)">
      <defs>
       <path id="DejaVuSans-78" d="M 3513 3500
L 2247 1797
L 3578 0
L 2900 0
L 1881 1375
L 863 0
L 184 0
L 1544 1831
L 300 3500
L 978 3500
L 1906 2253
L 2834 3500
L 3513 3500
z
" transform="scale(0.015625)"/>
       <path id="DejaVuSans-20" transform="scale(0.015625)"/>
       <path id="DejaVuSans-5b" d="M 550 4863
L 1875 4863
L 1875 4416
L 1125 4416
L 1125 -397
L 1875 -397
L 1875 -844
L 550 -844
L 550 4863
z
" transform="scale(0.015625)"/>
       <path id="DejaVuSans-6d" d="M 3328 2828
Q 3544 3216 3844 3400
Q 4144 3584 4550 3584
Q 5097 3584 5394 3201
Q 5691 2819 5691 2113
L 5691 0
L 5113 0
L 5113 2094
Q 5113 2597 4934 2840
Q 4756 3084 4391 3084
Q 3944 3084 3684 2787
Q 3425 2491 3425 1978
L 3425 0
L 2847 0
L 2847 2094
Q 2847 2600 2669 2842
Q 2491 3084 2119 3084
Q 1678 3084 1418 2786
Q 1159 2488 1159 1978
L 1159 0
L 581 0
L 581 3500
L 1159 3500
L 1159 2956
Q 1356 3278 1631 3431
Q 1906 3584 2284 3584
Q 2666 3584 2933 3390
Q 3200 3197 3328 2828
z
" transform="scale(0.015625)"/>
       <path id="DejaVuSans-5d" d="M 1947 4863
L 1947 -844
L 622 -844
L 622 -397
L 1369 -397
L 1369 4416
L 622 4416
L 622 4863
L 1947 4863
z
" transform="scale(0.015625)"/>
      </defs>
      <use xlink:href="#DejaVuSans-78"/>
      <use xlink:href="#DejaVuSans-20" transform="translate(59.179688 0)"/>
      <use xlink:href="#DejaVuSans-5b" transform="translate(90.966797 0)"/>
      <use xlink:href="#DejaVuSans-6d" transform="translate(129.980469 0)"/>
      <use xlink:href="#DejaVuSans-5d" transform="translate(227.392578 0)"/>
     </g>
    </g>
   </g>
   <g id="matplotlib.axis_2">
    <g id="ytick_1">
     <g id="line2d_5">
      <defs>
       <path id="m41ba4fb06a" d="M 0 0
L -3.5 0
" style="stroke: #000000; stroke-width: 0.8"/>
      </defs>
      <g>
       <use xlink:href="#m41ba4fb06a" x="160.263529" y="305.238588" style="stroke: #000000; stroke-width: 0.8"/>
      </g>
     </g>
     <g id="text_6">
      <!-- −8 -->
      <g transform="translate(138.521342 309.037807) scale(0.1 -0.1)">
       <defs>
        <path id="DejaVuSans-2212" d="M 678 2272
L 4684 2272
L 4684 1741
L 678 1741
L 678 2272
z
" transform="scale(0.015625)"/>
       </defs>
       <use xlink:href="#DejaVuSans-2212"/>
       <use xlink:href="#DejaVuSans-38" transform="translate(83.789062 0)"/>
      </g>
     </g>
    </g>
    <g id="ytick_2">
     <g id="line2d_6">
      <g>
       <use xlink:href="#m41ba4fb06a" x="160.263529" y="272.560941" style="stroke: #000000; stroke-width: 0.8"/>
      </g>
     </g>
     <g id="text_7">
      <!-- −6 -->
      <g transform="translate(138.521342 276.36016) scale(0.1 -0.1)">
       <use xlink:href="#DejaVuSans-2212"/>
       <use xlink:href="#DejaVuSans-36" transform="translate(83.789062 0)"/>
      </g>
     </g>
    </g>
    <g id="ytick_3">
     <g id="line2d_7">
      <g>
       <use xlink:href="#m41ba4fb06a" x="160.263529" y="239.883294" style="stroke: #000000; stroke-width: 0.8"/>
      </g>
     </g>
     <g id="text_8">
      <!-- −4 -->
      <g transform="translate(138.521342 243.682513) scale(0.1 -0.1)">
       <defs>
        <path id="DejaVuSans-34" d="M 2419 4116
L 825 1625
L 2419 1625
L 2419 4116
z
M 2253 4666
L 3047 4666
L 3047 1625
L 3713 1625
L 3713 1100
L 3047 1100
L 3047 0
L 2419 0
L 2419 1100
L 313 1100
L 313 1709
L 2253 4666
z
" transform="scale(0.015625)"/>
       </defs>
       <use xlink:href="#DejaVuSans-2212"/>
       <use xlink:href="#DejaVuSans-34" transform="translate(83.789062 0)"/>
      </g>
     </g>
    </g>
    <g id="ytick_4">
     <g id="line2d_8">
      <g>
       <use xlink:href="#m41ba4fb06a" x="160.263529" y="207.205647" style="stroke: #000000; stroke-width: 0.8"/>
      </g>
     </g>
     <g id="text_9">
      <!-- −2 -->
      <g transform="translate(138.521342 211.004866) scale(0.1 -0.1)">
       <use xlink:href="#DejaVuSans-2212"/>
       <use xlink:href="#DejaVuSans-32" transform="translate(83.789062 0)"/>
      </g>
     </g>
    </g>
    <g id="ytick_5">
     <g id="line2d_9">
      <g>
       <use xlink:href="#m41ba4fb06a" x="160.263529" y="174.528" style="stroke: #000000; stroke-width: 0.8"/>
      </g>
     </g>
     <g id="text_10">
      <!-- 0 -->
      <g transform="translate(146.901029 178.327219) scale(0.1 -0.1)">
       <use xlink:href="#DejaVuSans-30"/>
      </g>
     </g>
    </g>
    <g id="ytick_6">
     <g id="line2d_10">
      <g>
       <use xlink:href="#m41ba4fb06a" x="160.263529" y="141.850353" style="stroke: #000000; stroke-width: 0.8"/>
      </g>
     </g>
     <g id="text_11">
      <!-- 2 -->
      <g transform="translate(146.901029 145.649572) scale(0.1 -0.1)">
       <use xlink:href="#DejaVuSans-32"/>
      </g>
     </g>
    </g>
    <g id="ytick_7">
     <g id="line2d_11">
      <g>
       <use xlink:href="#m41ba4fb06a" x="160.263529" y="109.172706" style="stroke: #000000; stroke-width: 0.8"/>
      </g>
     </g>
     <g id="text_12">
      <!-- 4 -->
      <g transform="translate(146.901029 112.971925) scale(0.1 -0.1)">
       <use xlink:href="#DejaVuSans-34"/>
      </g>
     </g>
    </g>
    <g id="ytick_8">
     <g id="line2d_12">
      <g>
       <use xlink:href="#m41ba4fb06a" x="160.263529" y="76.495059" style="stroke: #000000; stroke-width: 0.8"/>
      </g>
     </g>
     <g id="text_13">
      <!-- 6 -->
      <g transform="translate(146.901029 80.294278) scale(0.1 -0.1)">
       <use xlink:href="#DejaVuSans-36"/>
      </g>
     </g>
    </g>
    <g id="ytick_9">
     <g id="line2d_13">
      <g>
       <use xlink:href="#m41ba4fb06a" x="160.263529" y="43.817412" style="stroke: #000000; stroke-width: 0.8"/>
      </g>
     </g>
     <g id="text_14">
      <!-- 8 -->
      <g transform="translate(146.901029 47.616631) scale(0.1 -0.1)">
       <use xlink:href="#DejaVuSans-38"/>
      </g>
     </g>
    </g>
    <g id="text_15">
     <!-- z [m] -->
     <g transform="translate(132.441654 187.513156) rotate(-90) scale(0.1 -0.1)">
      <defs>
       <path id="DejaVuSans-7a" d="M 353 3500
L 3084 3500
L 3084 2975
L 922 459
L 3084 459
L 3084 0
L 275 0
L 275 525
L 2438 3041
L 353 3041
L 353 3500
z
" transform="scale(0.015625)"/>
      </defs>
      <use xlink:href="#DejaVuSans-7a"/>
      <use xlink:href="#DejaVuSans-20" transform="translate(52.490234 0)"/>
      <use xlink:href="#DejaVuSans-5b" transform="translate(84.277344 0)"/>
      <use xlink:href="#DejaVuSans-6d" transform="translate(123.291016 0)"/>
      <use xlink:href="#DejaVuSans-5d" transform="translate(220.703125 0)"/>
     </g>
    </g>
   </g>
   <g id="QuadContourSet_1">
    <path clip-path="url(#p877ff176f7)" style="fill: none; stroke: #440154; stroke-width: 1.5"/>
    <path d="M 231.380201 182.844
L 231.416471 182.964245
L 232.852386 187.002
L 233.788235 188.850233
L 235.252459 191.16
L 236.16 192.249729
L 238.531765 194.330692
L 240.340208 195.318
L 240.903529 195.563872
L 243.275294 195.991927
L 245.647059 195.811743
L 247.162928 195.318
L 248.018824 194.991181
L 250.390588 193.390674
L 252.745278 191.16
L 252.762353 191.140098
L 255.134118 187.506424
L 255.39996 187.002
L 257.037833 182.844
L 257.505882 180.992193
L 257.983822 178.686
L 258.323621 174.528
L 258.123102 170.37
L 257.505882 166.922157
L 257.349195 166.212
L 255.784511 162.054
L 255.134118 160.813362
L 253.219953 157.896
L 252.762353 157.344335
L 250.390588 155.175661
L 248.150398 153.738
L 248.018824 153.667248
L 245.647059 152.964579
L 243.275294 152.818193
L 240.903529 153.24922
L 239.761655 153.738
L 238.531765 154.40583
L 236.16 156.44635
L 234.934001 157.896
L 233.788235 159.712504
L 232.610683 162.054
L 231.416471 165.545212
L 231.223538 166.212
L 230.531252 170.37
L 230.333361 174.528
L 230.61483 178.686
L 231.380201 182.844
z
" clip-path="url(#p877ff176f7)" style="fill: none; stroke: #482878; stroke-width: 1.5"/>
    <path d="M 224.295182 182.844
L 224.301176 182.873223
L 225.229925 187.002
L 226.553055 191.16
L 226.672941 191.451506
L 228.480735 195.318
L 229.044706 196.284585
L 231.248849 199.476
L 231.416471 199.677076
L 233.788235 201.994375
L 236.04516 203.634
L 236.16 203.704883
L 238.531765 204.712564
L 240.903529 205.236253
L 243.275294 205.296042
L 245.647059 204.910732
L 248.018824 204.097747
L 248.900088 203.634
L 250.390588 202.768562
L 252.762353 200.926215
L 254.257382 199.476
L 255.134118 198.513288
L 257.505882 195.375546
L 257.542701 195.318
L 259.814948 191.16
L 259.877647 191.019113
L 261.410645 187.002
L 262.249412 184.089457
L 262.560823 182.844
L 263.223893 178.686
L 263.496059 174.528
L 263.362382 170.37
L 262.818764 166.212
L 262.249412 163.716758
L 261.808481 162.054
L 260.257836 157.896
L 259.877647 157.098291
L 258.010055 153.738
L 257.505882 152.982442
L 255.134118 149.978127
L 254.75055 149.58
L 252.762353 147.789997
L 250.390588 146.082528
L 249.150816 145.422
L 248.018824 144.882947
L 245.647059 144.150561
L 243.275294 143.810364
L 240.903529 143.876778
L 238.531765 144.367104
L 236.16 145.301761
L 235.949743 145.422
L 233.788235 146.896825
L 231.416471 149.078291
L 230.975349 149.58
L 229.044706 152.277572
L 228.167293 153.738
L 226.672941 156.912821
L 226.268061 157.896
L 224.985197 162.054
L 224.301176 165.322198
L 224.132095 166.212
L 223.681909 170.37
L 223.563007 174.528
L 223.767106 178.686
L 224.295182 182.844
z
" clip-path="url(#p877ff176f7)" style="fill: none; stroke: #3e4989; stroke-width: 1.5"/>
    <path d="M 219.361033 187.002
L 219.557647 187.83853
L 220.395243 191.16
L 221.762313 195.318
L 221.929412 195.731323
L 223.60104 199.476
L 224.301176 200.77678
L 226.049293 203.634
L 226.672941 204.500957
L 229.044706 207.305464
L 229.544049 207.792
L 231.416471 209.37599
L 233.788235 210.914207
L 236.063992 211.95
L 236.16 211.988679
L 238.531765 212.574761
L 240.903529 212.776258
L 243.275294 212.610033
L 245.647059 212.090598
L 246.025267 211.95
L 248.018824 211.166121
L 250.390588 209.871091
L 252.762353 208.22745
L 253.272382 207.792
L 255.134118 206.076334
L 257.389602 203.634
L 257.505882 203.495133
L 259.877647 200.191213
L 260.327554 199.476
L 262.249412 196.018711
L 262.594025 195.318
L 264.336487 191.16
L 264.621176 190.323664
L 265.624596 187.002
L 266.568869 182.844
L 266.992941 179.952352
L 267.158644 178.686
L 267.387227 174.528
L 267.292992 170.37
L 266.992941 167.409031
L 266.855843 166.212
L 266.014069 162.054
L 264.81844 157.896
L 264.621176 157.363993
L 263.102413 153.738
L 262.249412 152.050298
L 260.828567 149.58
L 259.877647 148.152182
L 257.793288 145.422
L 257.505882 145.086839
L 255.134118 142.721946
L 253.406127 141.264
L 252.762353 140.76795
L 250.390588 139.286612
L 248.018824 138.123506
L 245.647059 137.28367
L 244.8007 137.106
L 243.275294 136.806224
L 240.903529 136.657061
L 238.531765 136.832366
L 237.251163 137.106
L 236.16 137.372299
L 233.788235 138.334683
L 231.416471 139.71573
L 229.395744 141.264
L 229.044706 141.578486
L 226.672941 144.16595
L 225.706486 145.422
L 224.301176 147.610888
L 223.198808 149.58
L 221.929412 152.379003
L 221.375223 153.738
L 220.042582 157.896
L 219.557647 159.932311
L 219.089217 162.054
L 218.462298 166.212
L 218.114629 170.37
L 218.033393 174.528
L 218.212722 178.686
L 218.653043 182.844
L 219.361033 187.002
z
" clip-path="url(#p877ff176f7)" style="fill: none; stroke: #31688e; stroke-width: 1.5"/>
    <path d="M 214.215174 187.002
L 214.814118 189.973841
L 215.065058 191.16
L 216.193747 195.318
L 217.185882 198.264531
L 217.624065 199.476
L 219.432996 203.634
L 219.557647 203.87981
L 221.756453 207.792
L 221.929412 208.05934
L 224.301176 211.296365
L 224.859727 211.95
L 226.672941 213.827846
L 229.044706 215.82656
L 229.462191 216.108
L 231.416471 217.295407
L 233.788235 218.344319
L 236.16 219.014453
L 238.531765 219.326416
L 240.903529 219.297782
L 243.275294 218.943461
L 245.647059 218.275701
L 248.018824 217.303692
L 250.246868 216.108
L 250.390588 216.027987
L 252.762353 214.366302
L 255.134118 212.396609
L 255.591758 211.95
L 257.505882 209.973706
L 259.353767 207.792
L 259.877647 207.12451
L 262.249412 203.698369
L 262.289093 203.634
L 264.611269 199.476
L 264.621176 199.455908
L 266.449885 195.318
L 266.992941 193.878111
L 267.919015 191.16
L 269.068119 187.002
L 269.364706 185.570686
L 269.877993 182.844
L 270.383992 178.686
L 270.603346 174.528
L 270.527771 170.37
L 270.152845 166.212
L 269.477944 162.054
L 269.364706 161.56888
L 268.416686 157.896
L 267.029953 153.738
L 266.992941 153.646894
L 265.158127 149.58
L 264.621176 148.557803
L 262.779566 145.422
L 262.249412 144.620987
L 259.877647 141.437539
L 259.730061 141.264
L 257.505882 138.879318
L 255.610843 137.106
L 255.134118 136.690026
L 252.762353 134.931714
L 250.390588 133.45199
L 249.383532 132.948
L 248.018824 132.296628
L 245.647059 131.437467
L 243.275294 130.842901
L 240.903529 130.519286
L 238.531765 130.476334
L 236.16 130.726953
L 233.788235 131.28744
L 231.416471 132.178044
L 229.925427 132.948
L 229.044706 133.459583
L 226.672941 135.210209
L 224.614155 137.106
L 224.301176 137.437186
L 221.929412 140.37593
L 221.307889 141.264
L 219.557647 144.203868
L 218.910591 145.422
L 217.185882 149.33557
L 217.087265 149.58
L 215.708662 153.738
L 214.814118 157.223333
L 214.651604 157.896
L 213.895633 162.054
L 213.387356 166.212
L 213.111287 170.37
L 213.058018 174.528
L 213.22325 178.686
L 213.607323 182.844
L 214.215174 187.002
z
" clip-path="url(#p877ff176f7)" style="fill: none; stroke: #26828e; stroke-width: 1.5"/>
    <path d="M 209.396638 187.002
L 210.070588 190.799829
L 210.136473 191.16
L 211.102436 195.318
L 212.301582 199.476
L 212.442353 199.88979
L 213.791072 203.634
L 214.814118 206.048355
L 215.611217 207.792
L 217.185882 210.78348
L 217.863823 211.95
L 219.557647 214.529406
L 220.736956 216.108
L 221.929412 217.546132
L 224.301176 219.974408
L 224.639458 220.266
L 226.672941 221.874633
L 229.044706 223.343948
L 231.411528 224.424
L 231.416471 224.426115
L 233.788235 225.133408
L 236.16 225.51031
L 238.531765 225.576894
L 240.903529 225.348893
L 243.275294 224.837868
L 244.507687 224.424
L 245.647059 224.044256
L 248.018824 222.969256
L 250.390588 221.622902
L 252.369156 220.266
L 252.762353 219.991861
L 255.134118 218.030872
L 257.153868 216.108
L 257.505882 215.760311
L 259.877647 213.08313
L 260.768481 211.95
L 262.249412 209.956683
L 263.689819 207.792
L 264.621176 206.280167
L 266.092416 203.634
L 266.992941 201.843715
L 268.076092 199.476
L 269.364706 196.27412
L 269.717582 195.318
L 271.018768 191.16
L 271.736471 188.327872
L 272.046878 187.002
L 272.77498 182.844
L 273.24841 178.686
L 273.458746 174.528
L 273.399163 170.37
L 273.065284 166.212
L 272.455081 162.054
L 271.736471 158.682126
L 271.553713 157.896
L 270.298959 153.738
L 269.364706 151.210686
L 268.702669 149.58
L 266.992941 145.978949
L 266.70033 145.422
L 264.621176 141.920033
L 264.18732 141.264
L 262.249412 138.599333
L 261.032077 137.106
L 259.877647 135.787382
L 257.505882 133.388917
L 257.007205 132.948
L 255.134118 131.370616
L 252.762353 129.64006
L 251.391498 128.79
L 250.390588 128.18543
L 248.018824 127.005203
L 245.647059 126.059232
L 243.275294 125.346476
L 240.903529 124.87025
L 238.531765 124.637443
L 236.16 124.658195
L 233.788235 124.945941
L 231.416471 125.517814
L 229.044706 126.395395
L 226.672941 127.605841
L 224.868909 128.79
L 224.301176 129.202477
L 221.929412 131.280447
L 220.347491 132.948
L 219.557647 133.889924
L 217.230733 137.106
L 217.185882 137.177568
L 214.898534 141.264
L 214.814118 141.442041
L 213.084141 145.422
L 212.442353 147.211888
L 211.647608 149.58
L 210.520049 153.738
L 210.070588 155.856815
L 209.65581 157.896
L 209.026158 162.054
L 208.606454 166.212
L 208.384951 170.37
L 208.354558 174.528
L 208.512134 178.686
L 208.858148 182.844
L 209.396638 187.002
z
" clip-path="url(#p877ff176f7)" style="fill: none; stroke: #1f9e89; stroke-width: 1.5"/>
    <path d="M 218.589567 307.584
L 217.185882 306.705065
L 214.814118 305.509362
L 212.442353 304.599941
L 210.070588 303.940442
L 206.99157 303.426
L 205.327059 303.23483
L 202.955294 303.158498
L 199.299348 303.426
L 198.211765 303.539192
L 195.84 303.939808
L 193.468235 304.489978
L 191.096471 305.194335
L 188.724706 306.062263
L 185.440755 307.584
M 204.705854 187.002
L 205.368795 191.16
L 206.215478 195.318
L 207.698824 200.954676
L 208.525709 203.634
L 210.070588 207.876322
L 212.442353 213.153249
L 214.814118 217.424808
L 217.185882 220.92769
L 220.161839 224.424
L 221.929412 226.140321
L 225.193108 228.582
L 226.672941 229.481578
L 229.044706 230.568412
L 231.416471 231.305642
L 233.788235 231.722659
L 236.16 231.84278
L 238.531765 231.684153
L 240.903529 231.260239
L 243.275294 230.579852
L 245.647059 229.646734
L 248.018824 228.460306
L 250.390588 227.03575
L 253.884181 224.424
L 255.134118 223.394358
L 258.333307 220.266
L 259.877647 218.581383
L 262.249412 215.655552
L 264.838896 211.95
L 267.310004 207.792
L 269.410068 203.634
L 271.736471 197.901645
L 272.619218 195.318
L 274.108235 189.921088
L 274.747128 187.002
L 275.427571 182.844
L 275.871721 178.686
L 276.073725 174.528
L 276.028189 170.37
L 275.730823 166.212
L 275.178305 162.054
L 274.108235 156.881105
L 273.247269 153.738
L 271.736471 149.319529
L 269.364706 144.011712
L 266.992941 139.758635
L 264.621176 136.210504
L 262.040127 132.948
L 259.877647 130.597711
L 257.505882 128.322615
L 255.134118 126.361222
L 252.740595 124.632
L 250.390588 123.179694
L 248.018824 121.937328
L 244.385452 120.474
L 243.275294 120.083608
L 240.903529 119.469948
L 238.531765 119.068041
L 236.16 118.882969
L 233.788235 118.924129
L 231.416471 119.205369
L 229.044706 119.745507
L 226.672941 120.56957
L 224.301176 121.710076
L 221.929412 123.201482
L 219.557647 125.101429
L 217.185882 127.491141
L 216.088411 128.79
L 214.814118 130.471391
L 212.442353 134.195768
L 210.908328 137.106
L 209.101116 141.264
L 207.640009 145.422
L 206.465586 149.58
L 205.327059 154.885786
L 204.807578 157.896
L 204.278752 162.054
L 203.930603 166.212
L 203.754207 170.37
L 203.744268 174.528
L 203.898616 178.686
L 204.217961 182.844
L 204.705854 187.002
L 204.705854 187.002
" clip-path="url(#p877ff176f7)" style="fill: none; stroke: #35b779; stroke-width: 1.5"/>
    <path d="M 227.660905 307.584
L 226.672941 306.476165
L 224.301176 304.231215
L 223.275525 303.426
L 221.929412 302.332963
L 219.557647 300.77048
L 217.185882 299.567241
L 216.424943 299.268
L 214.814118 298.589595
L 212.442353 297.868437
L 210.070588 297.405036
L 207.698824 297.168794
L 205.327059 297.136246
L 202.955294 297.290168
L 200.583529 297.618945
L 198.211765 298.116126
L 195.84 298.78016
L 194.460814 299.268
L 193.468235 299.566359
L 191.096471 300.436244
L 188.724706 301.467493
L 186.352941 302.676057
L 185.08357 303.426
L 183.981176 303.990452
L 181.609412 305.391541
L 179.237647 307.014579
L 178.505521 307.584
M 199.99028 187.002
L 200.583529 191.094761
L 200.59299 191.16
L 201.345784 195.318
L 202.268327 199.476
L 202.955294 202.091169
L 203.37029 203.634
L 204.664445 207.792
L 205.327059 209.659061
L 206.17787 211.95
L 207.698824 215.566535
L 207.941342 216.108
L 210.006827 220.266
L 210.070588 220.384595
L 212.442353 224.392251
L 212.463284 224.424
L 214.814118 227.756332
L 215.48666 228.582
L 217.185882 230.572608
L 219.421765 232.74
L 219.557647 232.868676
L 221.929412 234.762501
L 224.301176 236.210017
L 225.811708 236.898
L 226.672941 237.29296
L 229.044706 238.051009
L 231.416471 238.47631
L 233.788235 238.600673
L 236.16 238.44756
L 238.531765 238.03307
L 240.903529 237.36633
L 242.102332 236.898
L 243.275294 236.479093
L 245.647059 235.390511
L 248.018824 234.063777
L 250.003689 232.74
L 250.390588 232.495853
L 252.762353 230.742035
L 255.134118 228.716619
L 255.272539 228.582
L 257.505882 226.470013
L 259.411462 224.424
L 259.877647 223.92583
L 262.249412 221.086968
L 262.864979 220.266
L 264.621176 217.881574
L 265.800713 216.108
L 266.992941 214.243569
L 268.329404 211.95
L 269.364706 210.061429
L 270.509103 207.792
L 271.736471 205.143407
L 272.386527 203.634
L 273.990026 199.476
L 274.108235 199.127126
L 275.321113 195.318
L 276.429514 191.16
L 276.48 190.926486
L 277.288387 187.002
L 277.926921 182.844
L 278.345245 178.686
L 278.53998 174.528
L 278.507176 170.37
L 278.242672 166.212
L 277.741934 162.054
L 276.999275 157.896
L 276.48 155.696862
L 275.991027 153.738
L 274.706594 149.58
L 274.108235 147.948586
L 273.115084 145.422
L 271.736471 142.36864
L 271.195924 141.264
L 269.364706 137.897065
L 268.893955 137.106
L 266.992941 134.150611
L 266.139156 132.948
L 264.621176 130.919444
L 262.847657 128.79
L 262.249412 128.091843
L 259.877647 125.608167
L 258.831237 124.632
L 257.505882 123.399922
L 255.134118 121.452304
L 253.779488 120.474
L 252.762353 119.723204
L 250.390588 118.201513
L 248.018824 116.890171
L 246.791175 116.316
L 245.647059 115.75338
L 243.275294 114.79425
L 240.903529 114.027116
L 238.531765 113.448194
L 236.16 113.058575
L 233.788235 112.863779
L 231.416471 112.873699
L 229.044706 113.10294
L 226.672941 113.57156
L 224.301176 114.306291
L 221.929412 115.34234
L 220.225281 116.316
L 219.557647 116.713893
L 217.185882 118.44603
L 214.976432 120.474
L 214.814118 120.633767
L 212.442353 123.330576
L 211.46452 124.632
L 210.070588 126.67169
L 208.791304 128.79
L 207.698824 130.822036
L 206.658316 132.948
L 205.327059 136.070966
L 204.915776 137.106
L 203.478854 141.264
L 202.955294 143.055945
L 202.291757 145.422
L 201.321687 149.58
L 200.583529 153.536231
L 200.546564 153.738
L 199.93972 157.896
L 199.498548 162.054
L 199.213292 166.212
L 199.077477 170.37
L 199.087397 174.528
L 199.241793 178.686
L 199.541675 182.844
L 199.99028 187.002
z
" clip-path="url(#p877ff176f7)" style="fill: none; stroke: #6ece58; stroke-width: 1.5"/>
    <path d="M 160.263529 49.181316
L 165.007059 49.097687
L 179.237647 49.174043
L 183.981176 48.79515
L 186.352941 48.435477
L 188.724706 47.927563
L 191.096471 47.239009
L 193.468235 46.329788
L 195.84 45.201079
L 198.211765 43.850579
L 201.331393 41.472
M 234.991119 307.584
L 233.788235 305.595614
L 231.416471 302.176841
L 229.044706 299.257981
L 226.672941 296.643472
L 224.301176 294.530108
L 221.929412 292.730401
L 219.557647 291.397546
L 217.185882 290.356758
L 214.814118 289.618998
L 212.442353 289.20599
L 210.070588 289.069654
L 207.698824 289.174103
L 205.327059 289.493338
L 202.955294 290.009596
L 198.211765 291.499287
L 195.84 292.405202
L 193.468235 293.47164
L 188.724706 295.983298
L 186.352941 297.373806
L 181.609412 300.55965
L 176.865882 304.241966
L 174.494118 306.259097
L 173.123137 307.584
M 195.657534 191.16
L 196.334926 195.318
L 197.152295 199.476
L 198.211765 203.965177
L 199.239183 207.792
L 200.583529 212.112928
L 202.955294 218.580804
L 203.651483 220.266
L 205.541422 224.424
L 207.701822 228.582
L 210.213992 232.74
L 213.233364 236.898
L 214.814118 238.826996
L 217.185882 241.161244
L 219.557647 243.148454
L 221.929412 244.60029
L 224.301176 245.668579
L 226.672941 246.391634
L 229.044706 246.737497
L 231.416471 246.755413
L 233.788235 246.479717
L 236.16 245.932452
L 240.903529 244.206035
L 243.275294 243.048944
L 246.500847 241.056
L 248.018824 240.109474
L 250.390588 238.384065
L 255.134118 234.324166
L 259.877647 229.39549
L 263.867675 224.424
L 264.621176 223.428185
L 266.992941 219.942586
L 269.364706 216.038616
L 271.736471 211.588078
L 274.108235 206.379272
L 275.20769 203.634
L 276.675996 199.476
L 277.910759 195.318
L 278.935738 191.16
L 279.744576 187.002
L 280.346655 182.844
L 280.742639 178.686
L 280.931488 174.528
L 280.910725 170.37
L 280.676379 166.212
L 280.222796 162.054
L 279.542298 157.896
L 278.622501 153.738
L 277.451436 149.58
L 276.012489 145.422
L 274.108235 140.877252
L 271.736471 136.189245
L 269.364706 132.217199
L 266.992941 128.775844
L 263.665041 124.632
L 262.249412 123.013077
L 259.739656 120.474
L 257.505882 118.38532
L 252.762353 114.623115
L 248.894471 112.158
L 248.018824 111.604871
L 245.647059 110.311823
L 243.275294 109.206773
L 240.038504 108
L 238.531765 107.463368
L 236.16 106.805894
L 233.788235 106.326972
L 231.416471 106.029766
L 229.044706 105.922997
L 226.672941 106.021485
L 224.301176 106.347236
L 221.929412 106.931237
L 219.18112 108
L 217.185882 108.969476
L 214.814118 110.498274
L 212.442353 112.485637
L 210.070588 114.913112
L 207.698824 117.942612
L 205.327059 121.672348
L 202.955294 126.274626
L 201.848268 128.79
L 200.258195 132.948
L 198.911782 137.106
L 197.776029 141.264
L 196.81974 145.422
L 195.84 150.846073
L 195.395954 153.738
L 194.899043 157.896
L 194.541317 162.054
L 194.316459 166.212
L 194.220371 170.37
L 194.250917 174.528
L 194.407756 178.686
L 194.692228 182.844
L 195.107299 187.002
L 195.657534 191.16
L 195.657534 191.16
" clip-path="url(#p877ff176f7)" style="fill: none; stroke: #b5de2b; stroke-width: 1.5"/>
    <path d="M 160.263529 58.264854
L 162.635294 58.532069
L 165.007059 58.837329
L 167.378824 59.17077
L 169.750588 59.521109
L 172.122353 59.875817
L 174.494118 60.221267
L 176.865882 60.542827
L 179.237647 60.8248
L 181.609412 61.050166
L 183.981176 61.200053
L 186.352941 61.252848
L 188.724706 61.182844
L 191.096471 60.958253
L 193.468235 60.538309
L 195.84 59.869004
L 198.211765 58.876634
L 199.555545 58.104
L 200.583529 57.547034
L 202.955294 55.858863
L 204.958813 53.946
L 205.327059 53.612663
L 207.698824 50.94892
L 208.527575 49.788
L 210.070588 47.699932
L 211.327913 45.63
L 212.442353 43.811557
L 213.655647 41.472
M 241.42278 307.584
L 240.903529 306.323841
L 239.56764 303.426
L 238.531765 301.127804
L 237.576667 299.268
L 236.16 296.370886
L 235.442176 295.11
L 233.788235 291.962703
L 233.152955 290.952
L 231.416471 287.844834
L 230.688145 286.794
L 229.044706 283.99616
L 227.999509 282.636
L 226.672941 280.457465
L 224.947536 278.478
L 224.301176 277.435088
L 221.929412 275.086113
L 220.342128 274.32
L 219.557647 273.718799
L 217.185882 273.285146
L 214.814118 273.757061
L 213.569736 274.32
L 212.442353 274.615823
L 210.070588 275.568963
L 207.698824 276.763892
L 205.327059 278.167176
L 204.883313 278.478
L 202.955294 279.485865
L 200.583529 280.903814
L 198.211765 282.492396
L 198.022836 282.636
L 195.84 283.971053
L 193.468235 285.590909
L 191.890168 286.794
L 191.096471 287.297726
L 188.724706 288.984007
L 186.352941 290.8697
L 186.259669 290.952
L 183.981176 292.672812
L 181.609412 294.688903
L 181.163348 295.11
L 179.237647 296.693033
L 176.865882 298.900078
L 176.509559 299.268
L 174.494118 301.109835
L 172.272053 303.426
L 172.122353 303.565647
L 169.750588 306.026421
L 168.427004 307.584
M 191.027069 195.318
L 191.096471 195.715515
L 191.747566 199.476
L 192.592743 203.634
L 193.468235 207.370682
L 193.567666 207.792
L 194.651429 211.95
L 195.84 215.987812
L 195.876308 216.108
L 197.216829 220.266
L 198.211765 223.103134
L 198.698096 224.424
L 200.31333 228.582
L 200.583529 229.264963
L 202.067921 232.74
L 202.955294 234.783266
L 203.969171 236.898
L 205.327059 239.763634
L 206.021869 241.056
L 207.698824 244.320368
L 208.238182 245.214
L 210.070588 248.527328
L 210.645818 249.372
L 212.442353 252.413224
L 213.312757 253.53
L 214.814118 255.930132
L 216.446299 257.688
L 217.185882 258.813972
L 219.557647 260.88214
L 221.929412 261.694474
L 224.301176 261.725043
L 226.672941 261.221632
L 229.044706 260.318198
L 231.416471 259.086954
L 233.584253 257.688
L 233.788235 257.595808
L 236.16 256.232566
L 238.531765 254.627422
L 239.918182 253.53
L 240.903529 252.916006
L 243.275294 251.186271
L 245.43834 249.372
L 245.647059 249.226056
L 248.018824 247.316423
L 250.294845 245.214
L 250.390588 245.137041
L 252.762353 242.975569
L 254.606239 241.056
L 255.134118 240.560395
L 257.505882 238.051121
L 258.474073 236.898
L 259.877647 235.341759
L 261.954775 232.74
L 262.249412 232.388212
L 264.621176 229.241524
L 265.070303 228.582
L 266.992941 225.813472
L 267.866644 224.424
L 269.364706 222.034051
L 270.377594 220.266
L 271.736471 217.831284
L 272.624773 216.108
L 274.108235 213.083729
L 274.627612 211.95
L 276.400877 207.792
L 276.48 207.590916
L 277.958874 203.634
L 278.851765 200.921605
L 279.309395 199.476
L 280.460154 195.318
L 281.223529 192.00009
L 281.412918 191.16
L 282.178096 187.002
L 282.748649 182.844
L 283.125762 178.686
L 283.310445 174.528
L 283.301705 170.37
L 283.095837 166.212
L 282.686221 162.054
L 282.063728 157.896
L 281.223529 153.762167
L 281.218498 153.738
L 280.154194 149.58
L 278.851765 145.452021
L 278.841863 145.422
L 277.278373 141.264
L 276.48 139.397416
L 275.435539 137.106
L 274.108235 134.459115
L 273.290618 132.948
L 271.736471 130.257227
L 270.811369 128.79
L 269.364706 126.581234
L 267.956417 124.632
L 266.992941 123.315361
L 264.680224 120.474
L 264.621176 120.400653
L 262.249412 117.702822
L 260.875453 116.316
L 259.877647 115.267995
L 257.505882 113.035507
L 256.459357 112.158
L 255.134118 110.968887
L 252.762353 109.074577
L 251.241225 108
L 250.390588 107.3392
L 248.018824 105.699705
L 245.647059 104.258081
L 244.865952 103.842
L 243.275294 102.877677
L 240.903529 101.619835
L 238.531765 100.526596
L 236.403849 99.684
L 236.16 99.57006
L 233.788235 98.649457
L 231.416471 97.887185
L 229.044706 97.283728
L 226.672941 96.843793
L 224.301176 96.578163
L 221.929412 96.505878
L 219.557647 96.657235
L 217.185882 97.07829
L 214.814118 97.837917
L 212.442353 99.03931
L 211.519364 99.684
L 210.070588 100.650524
L 207.698824 102.821039
L 206.837029 103.842
L 205.327059 105.609652
L 203.716229 108
L 202.955294 109.148576
L 201.288942 112.158
L 200.583529 113.489585
L 199.278943 116.316
L 198.211765 118.79529
L 197.561874 120.474
L 196.073477 124.632
L 195.84 125.335171
L 194.766011 128.79
L 193.629645 132.948
L 193.468235 133.598105
L 192.62819 137.106
L 191.767271 141.264
L 191.096471 145.089838
L 191.038998 145.422
L 190.416337 149.58
L 189.915366 153.738
L 189.530887 157.896
L 189.258868 162.054
L 189.096442 166.212
L 189.041921 170.37
L 189.094789 174.528
L 189.255664 178.686
L 189.526244 182.844
L 189.909223 187.002
L 190.408134 191.16
L 191.027069 195.318
z
" clip-path="url(#p877ff176f7)" style="fill: none; stroke: #fde725; stroke-width: 1.5"/>
   </g>
   <g id="line2d_14">
    <path d="M 245.105355 174.234744
" clip-path="url(#p877ff176f7)" style="fill: none; stroke: #0000ff; stroke-width: 1.5; stroke-linecap: square"/>
    <defs>
     <path id="m75934b6f67" d="M 0 3
C 0.795609 3 1.55874 2.683901 2.12132 2.12132
C 2.683901 1.55874 3 0.795609 3 0
C 3 -0.795609 2.683901 -1.55874 2.12132 -2.12132
C 1.55874 -2.683901 0.795609 -3 0 -3
C -0.795609 -3 -1.55874 -2.683901 -2.12132 -2.12132
C -2.683901 -1.55874 -3 -0.795609 -3 0
C -3 0.795609 -2.683901 1.55874 -2.12132 2.12132
C -1.55874 2.683901 -0.795609 3 0 3
z
" style="stroke: #0000ff"/>
    </defs>
    <g clip-path="url(#p877ff176f7)">
     <use xlink:href="#m75934b6f67" x="245.105355" y="174.234744" style="fill: #0000ff; stroke: #0000ff"/>
    </g>
   </g>
   <g id="line2d_15">
    <path d="M 191.084516 195.318
L 191.804536 199.476
L 193.468235 207.11956
L 194.713375 211.95
L 195.939883 216.108
L 198.211765 222.911132
L 200.583529 229.073007
L 202.955294 234.594462
L 206.12457 241.056
L 208.358844 245.214
L 210.070588 248.309148
L 210.794402 249.372
L 212.442353 252.161699
L 213.508793 253.53
L 214.814118 255.61674
L 216.737283 257.688
L 217.185882 258.370966
L 219.557647 260.519138
L 221.929412 261.38683
L 224.301176 261.45728
L 226.672941 260.98343
L 229.044706 260.102357
L 231.416471 258.888274
L 233.788235 257.456664
L 236.16 256.099502
L 238.531765 254.498966
L 239.755897 253.53
L 240.903529 252.814883
L 243.275294 251.086501
L 250.390588 245.064431
L 252.762353 242.901688
L 258.416424 236.898
L 259.877647 235.27784
L 264.621176 229.177682
L 267.827279 224.424
L 270.341617 220.266
L 272.591545 216.108
L 274.596579 211.95
L 276.48 207.515927
L 277.930847 203.634
L 279.282443 199.476
L 280.434103 195.318
L 281.387392 191.16
L 282.15311 187.002
L 282.724042 182.844
L 283.101366 178.686
L 283.286093 174.528
L 283.277229 170.37
L 283.071064 166.212
L 282.660967 162.054
L 282.037796 157.896
L 281.191938 153.738
L 280.126544 149.58
L 278.81296 145.422
L 276.48 139.468697
L 274.108235 134.523908
L 271.736471 130.317923
L 269.364706 126.639664
L 266.992941 123.373049
L 264.621176 120.458979
L 262.249412 117.758683
L 257.505882 113.091831
L 252.762353 109.133686
L 248.018824 105.764258
L 243.275294 102.951069
L 240.903529 101.694133
L 238.531765 100.602288
L 233.788235 98.741863
L 231.416471 97.983444
L 229.044706 97.384754
L 226.672941 96.950674
L 224.301176 96.692203
L 221.929412 96.628662
L 219.557647 96.79072
L 217.185882 97.224934
L 214.814118 98.000873
L 211.781938 99.684
L 210.070588 100.825695
L 207.698824 103.021799
L 205.327059 105.808033
L 202.955294 109.350367
L 200.583529 113.700502
L 198.211765 119.021462
L 196.153012 124.632
L 194.840475 128.79
L 193.468235 133.877104
L 192.695003 137.106
L 191.830618 141.264
L 190.476537 149.58
L 189.9737 153.738
L 189.587751 157.896
L 189.151401 166.212
L 189.149061 174.528
L 189.580946 182.844
L 189.964554 187.002
L 190.464377 191.16
L 191.084516 195.318
L 191.084516 195.318
" clip-path="url(#p877ff176f7)" style="fill: none; stroke: #ff0000; stroke-width: 2; stroke-linecap: square"/>
   </g>
   <g id="patch_3">
    <path d="M 160.263529 307.584
L 160.263529 41.472
" style="fill: none; stroke: #000000; stroke-width: 0.8; stroke-linejoin: miter; stroke-linecap: square"/>
   </g>
   <g id="patch_4">
    <path d="M 312.056471 307.584
L 312.056471 41.472
" style="fill: none; stroke: #000000; stroke-width: 0.8; stroke-linejoin: miter; stroke-linecap: square"/>
   </g>
   <g id="patch_5">
    <path d="M 160.263529 307.584
L 312.056471 307.584
" style="fill: none; stroke: #000000; stroke-width: 0.8; stroke-linejoin: miter; stroke-linecap: square"/>
   </g>
   <g id="patch_6">
    <path d="M 160.263529 41.472
L 312.056471 41.472
" style="fill: none; stroke: #000000; stroke-width: 0.8; stroke-linejoin: miter; stroke-linecap: square"/>
   </g>
  </g>
 </g>
 <defs>
  <clipPath id="p877ff176f7">
   <rect x="160.263529" y="41.472" width="151.792941" height="266.112"/>
  </clipPath>
 </defs>
</svg>
