<?xml version="1.0" encoding="utf-8" standalone="no"?>
<!DOCTYPE svg PUBLIC "-//W3C//DTD SVG 1.1//EN"
  "http://www.w3.org/Graphics/SVG/1.1/DTD/svg11.dtd">
<svg xmlns:xlink="http://www.w3.org/1999/xlink" width="460.8pt" height="345.6pt" viewBox="0 0 460.8 345.6" xmlns="http://www.w3.org/2000/svg" version="1.1">
 <metadata>
  <rdf:RDF xmlns:dc="http://purl.org/dc/elements/1.1/" xmlns:cc="http://creativecommons.org/ns#" xmlns:rdf="http://www.w3.org/1999/02/22-rdf-syntax-ns#">
   <cc:Work>
    <dc:type rdf:resource="http://purl.org/dc/dcmitype/StillImage"/>
    <dc:date>2025-09-30T08:36:27.798753</dc:date>
    <dc:format>image/svg+xml</dc:format>
    <dc:creator>
     <cc:Agent>
      <dc:title>Matplotlib v3.10.6, https://matplotlib.org/</dc:title>
     </cc:Agent>
    </dc:creator>
   </cc:Work>
  </rdf:RDF>
 </metadata>
 <defs>
  <style type="text/css">*{stroke-linejoin: round; stroke-linecap: butt}</style>
 </defs>
 <g id="figure_1">
  <g id="patch_1">
   <path d="M 0 345.6
L 460.8 345.6
L 460.8 0
L 0 0
z
" style="fill: #ffffff"/>
  </g>
  <g id="axes_1">
   <g id="patch_2">
    <path d="M 162.237396 307.584
L 310.082604 307.584
L 310.082604 41.472
L 162.237396 41.472
z
" style="fill: #ffffff"/>
   </g>
   <g id="matplotlib.axis_1">
    <g id="xtick_1">
     <g id="line2d_1">
      <defs>
       <path id="mc8bf1bb9eb" d="M 0 0
L 0 3.5
" style="stroke: #000000; stroke-width: 0.8"/>
      </defs>
      <g>
       <use xlink:href="#mc8bf1bb9eb" x="210.68876" y="307.584" style="stroke: #000000; stroke-width: 0.8"/>
      </g>
     </g>
     <g id="text_1">
      <!-- 8 -->
      <g transform="translate(207.50751 322.182437) scale(0.1 -0.1)">
       <defs>
        <path id="DejaVuSans-38" d="M 2034 2216
Q 1584 2216 1326 1975
Q 1069 1734 1069 1313
Q 1069 891 1326 650
Q 1584 409 2034 409
Q 2484 409 2743 651
Q 3003 894 3003 1313
Q 3003 1734 2745 1975
Q 2488 2216 2034 2216
z
M 1403 2484
Q 997 2584 770 2862
Q 544 3141 544 3541
Q 544 4100 942 4425
Q 1341 4750 2034 4750
Q 2731 4750 3128 4425
Q 3525 4100 3525 3541
Q 3525 3141 3298 2862
Q 3072 2584 2669 2484
Q 3125 2378 3379 2068
Q 3634 1759 3634 1313
Q 3634 634 3220 271
Q 2806 -91 2034 -91
Q 1263 -91 848 271
Q 434 634 434 1313
Q 434 1759 690 2068
Q 947 2378 1403 2484
z
M 1172 3481
Q 1172 3119 1398 2916
Q 1625 2713 2034 2713
Q 2441 2713 2670 2916
Q 2900 3119 2900 3481
Q 2900 3844 2670 4047
Q 2441 4250 2034 4250
Q 1625 4250 1398 4047
Q 1172 3844 1172 3481
z
" transform="scale(0.015625)"/>
       </defs>
       <use xlink:href="#DejaVuSans-38"/>
      </g>
     </g>
    </g>
    <g id="xtick_2">
     <g id="line2d_2">
      <g>
       <use xlink:href="#mc8bf1bb9eb" x="261.617837" y="307.584" style="stroke: #000000; stroke-width: 0.8"/>
      </g>
     </g>
     <g id="text_2">
      <!-- 10 -->
      <g transform="translate(255.255337 322.182437) scale(0.1 -0.1)">
       <defs>
        <path id="DejaVuSans-31" d="M 794 531
L 1825 531
L 1825 4091
L 703 3866
L 703 4441
L 1819 4666
L 2450 4666
L 2450 531
L 3481 531
L 3481 0
L 794 0
L 794 531
z
" transform="scale(0.015625)"/>
        <path id="DejaVuSans-30" d="M 2034 4250
Q 1547 4250 1301 3770
Q 1056 3291 1056 2328
Q 1056 1369 1301 889
Q 1547 409 2034 409
Q 2525 409 2770 889
Q 3016 1369 3016 2328
Q 3016 3291 2770 3770
Q 2525 4250 2034 4250
z
M 2034 4750
Q 2819 4750 3233 4129
Q 3647 3509 3647 2328
Q 3647 1150 3233 529
Q 2819 -91 2034 -91
Q 1250 -91 836 529
Q 422 1150 422 2328
Q 422 3509 836 4129
Q 1250 4750 2034 4750
z
" transform="scale(0.015625)"/>
       </defs>
       <use xlink:href="#DejaVuSans-31"/>
       <use xlink:href="#DejaVuSans-30" transform="translate(63.623047 0)"/>
      </g>
     </g>
    </g>
    <g id="text_3">
     <!-- x [m] -->
     <g transform="translate(222.839688 335.860562) scale(0.1 -0.1)">
      <defs>
       <path id="DejaVuSans-78" d="M 3513 3500
L 2247 1797
L 3578 0
L 2900 0
L 1881 1375
L 863 0
L 184 0
L 1544 1831
L 300 3500
L 978 3500
L 1906 2253
L 2834 3500
L 3513 3500
z
" transform="scale(0.015625)"/>
       <path id="DejaVuSans-20" transform="scale(0.015625)"/>
       <path id="DejaVuSans-5b" d="M 550 4863
L 1875 4863
L 1875 4416
L 1125 4416
L 1125 -397
L 1875 -397
L 1875 -844
L 550 -844
L 550 4863
z
" transform="scale(0.015625)"/>
       <path id="DejaVuSans-6d" d="M 3328 2828
Q 3544 3216 3844 3400
Q 4144 3584 4550 3584
Q 5097 3584 5394 3201
Q 5691 2819 5691 2113
L 5691 0
L 5113 0
L 5113 2094
Q 5113 2597 4934 2840
Q 4756 3084 4391 3084
Q 3944 3084 3684 2787
Q 3425 2491 3425 1978
L 3425 0
L 2847 0
L 2847 2094
Q 2847 2600 2669 2842
Q 2491 3084 2119 3084
Q 1678 3084 1418 2786
Q 1159 2488 1159 1978
L 1159 0
L 581 0
L 581 3500
L 1159 3500
L 1159 2956
Q 1356 3278 1631 3431
Q 1906 3584 2284 3584
Q 2666 3584 2933 3390
Q 3200 3197 3328 2828
z
" transform="scale(0.015625)"/>
       <path id="DejaVuSans-5d" d="M 1947 4863
L 1947 -844
L 622 -844
L 622 -397
L 1369 -397
L 1369 4416
L 622 4416
L 622 4863
L 1947 4863
z
" transform="scale(0.015625)"/>
      </defs>
      <use xlink:href="#DejaVuSans-78"/>
      <use xlink:href="#DejaVuSans-20" transform="translate(59.179688 0)"/>
      <use xlink:href="#DejaVuSans-5b" transform="translate(90.966797 0)"/>
      <use xlink:href="#DejaVuSans-6d" transform="translate(129.980469 0)"/>
      <use xlink:href="#DejaVuSans-5d" transform="translate(227.392578 0)"/>
     </g>
    </g>
   </g>
   <g id="matplotlib.axis_2">
    <g id="ytick_1">
     <g id="line2d_3">
      <defs>
       <path id="m2f37d34b8c" d="M 0 0
L -3.5 0
" style="stroke: #000000; stroke-width: 0.8"/>
      </defs>
      <g>
       <use xlink:href="#m2f37d34b8c" x="162.237396" y="276.386154" style="stroke: #000000; stroke-width: 0.8"/>
      </g>
     </g>
     <g id="text_4">
      <!-- −4 -->
      <g transform="translate(140.495208 280.185373) scale(0.1 -0.1)">
       <defs>
        <path id="DejaVuSans-2212" d="M 678 2272
L 4684 2272
L 4684 1741
L 678 1741
L 678 2272
z
" transform="scale(0.015625)"/>
        <path id="DejaVuSans-34" d="M 2419 4116
L 825 1625
L 2419 1625
L 2419 4116
z
M 2253 4666
L 3047 4666
L 3047 1625
L 3713 1625
L 3713 1100
L 3047 1100
L 3047 0
L 2419 0
L 2419 1100
L 313 1100
L 313 1709
L 2253 4666
z
" transform="scale(0.015625)"/>
       </defs>
       <use xlink:href="#DejaVuSans-2212"/>
       <use xlink:href="#DejaVuSans-34" transform="translate(83.789062 0)"/>
      </g>
     </g>
    </g>
    <g id="ytick_2">
     <g id="line2d_4">
      <g>
       <use xlink:href="#m2f37d34b8c" x="162.237396" y="225.457077" style="stroke: #000000; stroke-width: 0.8"/>
      </g>
     </g>
     <g id="text_5">
      <!-- −2 -->
      <g transform="translate(140.495208 229.256296) scale(0.1 -0.1)">
       <defs>
        <path id="DejaVuSans-32" d="M 1228 531
L 3431 531
L 3431 0
L 469 0
L 469 531
Q 828 903 1448 1529
Q 2069 2156 2228 2338
Q 2531 2678 2651 2914
Q 2772 3150 2772 3378
Q 2772 3750 2511 3984
Q 2250 4219 1831 4219
Q 1534 4219 1204 4116
Q 875 4013 500 3803
L 500 4441
Q 881 4594 1212 4672
Q 1544 4750 1819 4750
Q 2544 4750 2975 4387
Q 3406 4025 3406 3419
Q 3406 3131 3298 2873
Q 3191 2616 2906 2266
Q 2828 2175 2409 1742
Q 1991 1309 1228 531
z
" transform="scale(0.015625)"/>
       </defs>
       <use xlink:href="#DejaVuSans-2212"/>
       <use xlink:href="#DejaVuSans-32" transform="translate(83.789062 0)"/>
      </g>
     </g>
    </g>
    <g id="ytick_3">
     <g id="line2d_5">
      <g>
       <use xlink:href="#m2f37d34b8c" x="162.237396" y="174.528" style="stroke: #000000; stroke-width: 0.8"/>
      </g>
     </g>
     <g id="text_6">
      <!-- 0 -->
      <g transform="translate(148.874896 178.327219) scale(0.1 -0.1)">
       <use xlink:href="#DejaVuSans-30"/>
      </g>
     </g>
    </g>
    <g id="ytick_4">
     <g id="line2d_6">
      <g>
       <use xlink:href="#m2f37d34b8c" x="162.237396" y="123.598923" style="stroke: #000000; stroke-width: 0.8"/>
      </g>
     </g>
     <g id="text_7">
      <!-- 2 -->
      <g transform="translate(148.874896 127.398142) scale(0.1 -0.1)">
       <use xlink:href="#DejaVuSans-32"/>
      </g>
     </g>
    </g>
    <g id="ytick_5">
     <g id="line2d_7">
      <g>
       <use xlink:href="#m2f37d34b8c" x="162.237396" y="72.669846" style="stroke: #000000; stroke-width: 0.8"/>
      </g>
     </g>
     <g id="text_8">
      <!-- 4 -->
      <g transform="translate(148.874896 76.469064) scale(0.1 -0.1)">
       <use xlink:href="#DejaVuSans-34"/>
      </g>
     </g>
    </g>
    <g id="text_9">
     <!-- z [m] -->
     <g transform="translate(134.415521 187.513156) rotate(-90) scale(0.1 -0.1)">
      <defs>
       <path id="DejaVuSans-7a" d="M 353 3500
L 3084 3500
L 3084 2975
L 922 459
L 3084 459
L 3084 0
L 275 0
L 275 525
L 2438 3041
L 353 3041
L 353 3500
z
" transform="scale(0.015625)"/>
      </defs>
      <use xlink:href="#DejaVuSans-7a"/>
      <use xlink:href="#DejaVuSans-20" transform="translate(52.490234 0)"/>
      <use xlink:href="#DejaVuSans-5b" transform="translate(84.277344 0)"/>
      <use xlink:href="#DejaVuSans-6d" transform="translate(123.291016 0)"/>
      <use xlink:href="#DejaVuSans-5d" transform="translate(220.703125 0)"/>
     </g>
    </g>
   </g>
   <g id="TriContourSet_1">
    <path clip-path="url(#p67b6b37b6f)" style="fill: none; stroke: #440154; stroke-width: 1.5"/>
    <path d="M 258.770522 180.267547
L 258.618637 180.756472
L 258.34849 181.467886
L 258.16666 181.946722
L 257.855217 182.64028
L 257.645592 183.107099
L 257.296462 183.78001
L 257.06147 184.232931
L 256.678594 184.882484
L 256.42089 185.319684
L 256.008467 185.943265
L 255.570873 186.538363
L 255.293281 186.958081
L 254.834981 187.522298
L 254.540447 187.922845
L 254.065925 188.453911
L 253.757455 188.833673
L 253.271135 189.329448
L 252.951745 189.686897
L 252.457923 190.145386
L 252.130592 190.479081
L 251.633375 190.898437
L 251.300994 191.207036
L 250.804249 191.585571
L 250.469583 191.86783
L 249.976894 192.20402
L 249.491529 192.49651
L 249.157181 192.751294
L 248.682066 192.998907
L 248.350448 193.225189
L 247.888154 193.426928
L 247.561466 193.623797
L 247.114204 193.77885
L 246.794414 193.945513
L 246.364033 194.053255
L 246.052874 194.189041
L 245.640873 194.249039
L 245.339831 194.353402
L 244.947374 194.365413
L 244.657694 194.437932
L 244.380386 194.478315
L 244.008321 194.442292
L 243.744168 194.450377
L 243.493739 194.426131
L 243.142621 194.342219
L 242.906291 194.285739
L 242.684254 194.197254
L 242.354372 194.06579
L 242.146664 193.945655
L 241.953179 193.794354
L 241.773694 193.612497
L 241.465099 193.434011
L 241.299288 193.222329
L 241.011826 192.99754
L 240.859283 192.756886
L 240.719542 192.48823
L 240.452878 192.218042
L 240.325423 191.922464
L 240.079075 191.607966
L 239.963362 191.286657
L 239.736728 190.929115
L 239.529112 190.529968
L 239.424581 190.184222
L 239.235219 189.745078
L 239.141307 189.376287
L 238.96939 188.898915
L 238.885541 188.508564
L 238.730238 187.994885
L 238.655914 187.584546
L 238.516387 187.036628
L 238.451078 186.607953
L 238.326502 186.028004
L 238.216078 185.418358
L 238.159306 184.973073
L 238.062275 184.336185
L 238.013604 183.876084
L 237.929257 183.214518
L 237.888294 182.741453
L 237.815982 182.057874
L 237.782384 181.57375
L 237.721524 180.87091
L 237.671607 180.151639
L 237.645083 179.658405
L 237.605676 178.925599
L 237.585992 178.425241
L 237.556746 177.681852
L 237.543723 177.176385
L 237.524374 176.425405
L 237.517892 175.916865
L 237.508262 175.161319
L 237.508262 174.404248
L 237.508262 173.894681
L 237.517892 173.139135
L 237.524374 172.630595
L 237.543723 171.879615
L 237.556746 171.374148
L 237.585992 170.630759
L 237.605676 170.130401
L 237.645083 169.397595
L 237.671607 168.904361
L 237.721524 168.18509
L 237.782384 167.48225
L 237.815982 166.998126
L 237.888294 166.314547
L 237.929257 165.841482
L 238.013604 165.179916
L 238.062275 164.719815
L 238.159306 164.082927
L 238.216078 163.637642
L 238.326502 163.027996
L 238.451078 162.448047
L 238.516387 162.019372
L 238.655914 161.471454
L 238.730238 161.061115
L 238.885541 160.547436
L 238.96939 160.157085
L 239.141307 159.679713
L 239.235219 159.310922
L 239.424581 158.871778
L 239.529112 158.526032
L 239.736728 158.126885
L 239.963362 157.769343
L 240.079075 157.448034
L 240.325423 157.133536
L 240.452878 156.837958
L 240.719542 156.56777
L 240.859283 156.299114
L 241.011826 156.05846
L 241.299288 155.833671
L 241.465099 155.621989
L 241.773694 155.443503
L 241.953179 155.261646
L 242.146664 155.110345
L 242.354372 154.99021
L 242.684254 154.858746
L 242.906291 154.770261
L 243.142621 154.713781
L 243.493739 154.629869
L 243.744168 154.605623
L 244.008321 154.613708
L 244.380386 154.577685
L 244.657694 154.618068
L 244.947374 154.690587
L 245.339831 154.702598
L 245.640873 154.806961
L 246.052874 154.866959
L 246.364033 155.002745
L 246.794414 155.110487
L 247.114204 155.27715
L 247.561466 155.432203
L 247.888154 155.629072
L 248.350448 155.830811
L 248.682066 156.057093
L 249.157181 156.304706
L 249.491529 156.55949
L 249.976894 156.85198
L 250.469583 157.18817
L 250.804249 157.470429
L 251.300994 157.848964
L 251.633375 158.157563
L 252.130592 158.576919
L 252.457923 158.910614
L 252.951745 159.369103
L 253.271135 159.726552
L 253.757455 160.222327
L 254.065925 160.602089
L 254.540447 161.133155
L 254.834981 161.533702
L 255.293281 162.097919
L 255.570873 162.517637
L 256.008467 163.112735
L 256.42089 163.736316
L 256.678594 164.173516
L 257.06147 164.823069
L 257.296462 165.27599
L 257.645592 165.948901
L 257.855217 166.41572
L 258.16666 167.109278
L 258.34849 167.588114
L 258.618637 168.299528
L 258.770522 168.788453
L 258.996179 169.514857
L 259.116289 170.011903
L 259.294739 170.750372
L 259.381608 171.253538
L 259.510672 172.001099
L 259.563229 172.508358
L 259.641314 173.262001
L 259.658906 173.771311
L 259.685043 174.528
L 259.658906 175.284689
L 259.641314 175.793999
L 259.563229 176.547642
L 259.510672 177.054901
L 259.381608 177.802462
L 259.294739 178.305628
L 259.116289 179.044097
L 258.996179 179.541143
L 258.770522 180.267547
z
" clip-path="url(#p67b6b37b6f)" style="fill: none; stroke: #46327e; stroke-width: 1.5"/>
    <path d="M 268.329249 185.224813
L 267.782464 186.984945
L 267.533097 187.641634
L 266.878508 189.365444
L 266.591023 190.005651
L 265.836374 191.686197
L 265.5141 192.307346
L 264.66813 193.937861
L 264.314706 194.537449
L 263.386968 196.111368
L 263.006271 196.686982
L 262.00694 198.197967
L 261.603006 198.747287
L 260.542681 200.189255
L 260.119635 200.710071
L 259.009141 202.077214
L 258.571121 202.567428
L 257.42132 203.854242
L 256.972409 204.311881
L 255.794019 205.513183
L 255.338183 205.936404
L 254.141613 207.047359
L 253.682643 207.434457
L 253.224109 207.783874
L 252.019312 208.800007
L 251.564522 209.110336
L 250.36087 210.027556
L 249.912841 210.297547
L 248.719018 211.112161
L 248.28045 211.340727
L 247.104372 212.049454
L 246.677639 212.235675
L 245.526398 212.835661
L 245.113541 212.978787
L 243.993367 213.467617
L 243.596092 213.567072
L 242.51234 213.942777
L 242.132031 213.99816
L 241.089184 214.259228
L 240.726916 214.270316
L 239.728607 214.415695
L 238.777654 214.4448
L 238.43421 214.411548
L 237.532667 214.324262
L 237.208558 214.246804
L 236.357771 214.043478
L 235.55844 213.724931
L 235.253933 213.60358
L 234.506184 213.171094
L 234.221327 213.006338
L 233.524783 212.461655
L 232.878636 211.806969
L 232.613286 211.599471
L 232.016366 210.837417
L 231.770215 210.588013
L 231.221063 209.72166
L 230.993665 209.431354
L 230.490595 208.46419
L 230.281395 208.134151
L 229.822556 207.070072
L 229.630911 206.701629
L 229.214344 205.544918
L 229.039549 205.139554
L 228.663237 203.894869
L 228.504546 203.454218
L 228.166461 202.126571
L 228.023104 201.652405
L 227.721246 200.247143
L 227.592452 199.741373
L 227.324886 198.264153
L 227.209893 197.728815
L 226.97478 196.185586
L 226.87285 195.622836
L 226.783283 195.034939
L 226.578905 193.431915
L 226.501047 192.821239
L 226.32583 191.164875
L 226.259081 190.533879
L 226.111613 188.830844
L 226.055434 188.182068
L 225.93448 186.43922
L 225.888403 185.775278
L 225.792917 183.999634
L 225.756541 183.323199
L 225.685677 181.521909
L 225.658681 180.835704
L 225.611797 179.016023
L 225.593937 178.322811
L 225.570603 176.492064
L 225.561713 175.794637
L 225.561713 175.095803
L 225.561713 173.261363
L 225.570603 172.563936
L 225.593937 170.733189
L 225.611797 170.039977
L 225.658681 168.220296
L 225.685677 167.534091
L 225.756541 165.732801
L 225.792917 165.056366
L 225.888403 163.280722
L 225.93448 162.61678
L 226.055434 160.873932
L 226.111613 160.225156
L 226.259081 158.522121
L 226.32583 157.891125
L 226.501047 156.234761
L 226.578905 155.624085
L 226.783283 154.021061
L 226.87285 153.433164
L 226.97478 152.870414
L 227.209893 151.327185
L 227.324886 150.791847
L 227.592452 149.314627
L 227.721246 148.808857
L 228.023104 147.403595
L 228.166461 146.929429
L 228.504546 145.601782
L 228.663237 145.161131
L 229.039549 143.916446
L 229.214344 143.511082
L 229.630911 142.354371
L 229.822556 141.985928
L 230.281395 140.921849
L 230.490595 140.59181
L 230.993665 139.624646
L 231.221063 139.33434
L 231.770215 138.467987
L 232.016366 138.218583
L 232.613286 137.456529
L 232.878636 137.249031
L 233.524783 136.594345
L 234.221327 136.049662
L 234.506184 135.884906
L 235.253933 135.45242
L 235.55844 135.331069
L 236.357771 135.012522
L 237.208558 134.809196
L 237.532667 134.731738
L 238.43421 134.644452
L 238.777654 134.6112
L 239.728607 134.640305
L 240.726916 134.785684
L 241.089184 134.796772
L 242.132031 135.05784
L 242.51234 135.113223
L 243.596092 135.488928
L 243.993367 135.588383
L 245.113541 136.077213
L 245.526398 136.220339
L 246.677639 136.820325
L 247.104372 137.006546
L 248.28045 137.715273
L 248.719018 137.943839
L 249.912841 138.758453
L 250.36087 139.028444
L 251.564522 139.945664
L 252.019312 140.255993
L 253.224109 141.272126
L 253.682643 141.621543
L 254.141613 142.008641
L 255.338183 143.119596
L 255.794019 143.542817
L 256.972409 144.744119
L 257.42132 145.201758
L 258.571121 146.488572
L 259.009141 146.978786
L 260.119635 148.345929
L 260.542681 148.866745
L 261.603006 150.308713
L 262.00694 150.858033
L 263.006271 152.369018
L 263.386968 152.944632
L 264.314706 154.518551
L 264.66813 155.118139
L 265.5141 156.748654
L 265.836374 157.369803
L 266.591023 159.050349
L 266.878508 159.690556
L 267.533097 161.414366
L 267.782464 162.071055
L 268.329249 163.831187
L 268.537547 164.501714
L 268.969944 166.291081
L 269.134667 166.972745
L 269.447397 168.784142
L 269.566533 169.474198
L 269.755739 171.300332
L 269.827818 171.996001
L 269.89115 173.829518
L 269.915276 174.528
L 269.89115 175.226482
L 269.827818 177.059999
L 269.755739 177.755668
L 269.566533 179.581802
L 269.447397 180.271858
L 269.134667 182.083255
L 268.969944 182.764919
L 268.537547 184.554286
L 268.329249 185.224813
z
" clip-path="url(#p67b6b37b6f)" style="fill: none; stroke: #365c8d; stroke-width: 1.5"/>
    <path d="M 277.508159 189.567429
L 276.436288 193.017847
L 276.375534 193.213417
L 275.092333 196.592631
L 275.0196 196.784165
L 273.540249 200.078569
L 273.456399 200.265296
L 271.798029 203.461623
L 271.704033 203.642792
L 269.885372 206.728172
L 269.78229 206.903052
L 267.823284 209.865063
L 267.712248 210.03295
L 265.633673 212.859663
L 265.515859 213.019882
L 263.338937 215.699916
L 263.215549 215.85182
L 260.961573 218.374383
L 260.833817 218.517363
L 258.523798 220.872297
L 258.392866 221.005775
L 256.047209 223.183599
L 255.914257 223.307038
L 253.552473 225.298981
L 253.418607 225.411885
L 251.059067 227.209927
L 250.925328 227.31184
L 248.585056 228.908741
L 248.452408 228.999254
L 246.146923 230.388584
L 246.016248 230.467331
L 243.75945 231.643495
L 243.631535 231.71016
L 241.435639 232.668423
L 241.311175 232.722737
L 239.186677 233.459239
L 239.06626 233.500984
L 237.021948 234.01276
L 236.906077 234.041768
L 234.949073 234.326757
L 234.83815 234.342911
L 232.973981 234.399966
L 232.868319 234.4032
L 231.10101 234.232091
L 231.000839 234.222393
L 229.333026 233.823809
L 229.238494 233.801218
L 229.14968 233.765824
L 227.582737 233.14137
L 227.499654 233.093316
L 226.033829 232.245507
L 225.956435 232.184987
L 224.590988 231.117236
L 224.519194 231.044493
L 223.252539 229.7611
L 223.186215 229.676428
L 222.016063 228.18256
L 221.955046 228.086299
L 220.878534 226.387972
L 220.822637 226.280509
L 219.836461 224.384562
L 219.785479 224.266331
L 218.886011 222.180397
L 218.839725 222.051874
L 218.023123 219.784353
L 217.981311 219.646055
L 217.243621 217.206078
L 217.206056 217.058562
L 216.543302 214.455953
L 216.509762 214.299813
L 215.918025 211.545052
L 215.888296 211.380917
L 215.363782 208.485097
L 215.337658 208.313627
L 214.876762 205.288408
L 214.854054 205.110295
L 214.453408 201.967859
L 214.43394 201.783818
L 214.090459 198.536818
L 214.074073 198.347592
L 213.784989 195.009102
L 213.77155 194.815453
L 213.534442 191.398917
L 213.523832 191.201623
L 213.33665 187.720798
L 213.328776 187.520655
L 213.18986 183.989556
L 213.18465 183.787369
L 213.092743 180.220216
L 213.09015 180.0168
L 213.044408 176.427956
L 213.044408 176.224129
L 213.044408 172.628044
L 213.09015 169.0392
L 213.092743 168.835784
L 213.18465 165.268631
L 213.18986 165.066444
L 213.328776 161.535345
L 213.33665 161.335202
L 213.523832 157.854377
L 213.534442 157.657083
L 213.77155 154.240547
L 213.784989 154.046898
L 214.074073 150.708408
L 214.090459 150.519182
L 214.43394 147.272182
L 214.453408 147.088141
L 214.854054 143.945705
L 214.876762 143.767592
L 215.337658 140.742373
L 215.363782 140.570903
L 215.888296 137.675083
L 215.918025 137.510948
L 216.509762 134.756187
L 216.543302 134.600047
L 217.206056 131.997438
L 217.243621 131.849922
L 217.981311 129.409945
L 218.023123 129.271647
L 218.839725 127.004126
L 218.886011 126.875603
L 219.785479 124.789669
L 219.836461 124.671438
L 220.822637 122.775491
L 220.878534 122.668028
L 221.955046 120.969701
L 222.016063 120.87344
L 223.186215 119.379572
L 223.252539 119.2949
L 224.519194 118.011507
L 224.590988 117.938764
L 225.956435 116.871013
L 226.033829 116.810493
L 227.499654 115.962684
L 227.582737 115.91463
L 229.14968 115.290176
L 229.238494 115.254782
L 229.333026 115.232191
L 231.000839 114.833607
L 231.10101 114.823909
L 232.868319 114.6528
L 232.973981 114.656034
L 234.83815 114.713089
L 234.949073 114.729243
L 236.906077 115.014232
L 237.021948 115.04324
L 239.06626 115.555016
L 239.186677 115.596761
L 241.311175 116.333263
L 241.435639 116.387577
L 243.631535 117.34584
L 243.75945 117.412505
L 246.016248 118.588669
L 246.146923 118.667416
L 248.452408 120.056746
L 248.585056 120.147259
L 250.925328 121.74416
L 251.059067 121.846073
L 253.418607 123.644115
L 253.552473 123.757019
L 255.914257 125.748962
L 256.047209 125.872401
L 258.392866 128.050225
L 258.523798 128.183703
L 260.833817 130.538637
L 260.961573 130.681617
L 263.215549 133.20418
L 263.338937 133.356084
L 265.515859 136.036118
L 265.633673 136.196337
L 267.712248 139.02305
L 267.823284 139.190937
L 269.78229 142.152948
L 269.885372 142.327828
L 271.704033 145.413208
L 271.798029 145.594377
L 273.456399 148.790704
L 273.540249 148.977431
L 275.0196 152.271835
L 275.092333 152.463369
L 276.375534 155.842583
L 276.436288 156.038153
L 277.508159 159.488571
L 277.556203 159.68739
L 278.403838 163.195117
L 278.438586 163.396384
L 279.051637 166.947297
L 279.07266 167.150201
L 279.443564 170.730002
L 279.450601 170.933726
L 279.574752 174.528
L 279.450601 178.122274
L 279.443564 178.325998
L 279.07266 181.905799
L 279.051637 182.108703
L 278.438586 185.659616
L 278.403838 185.860883
L 277.556203 189.36861
L 277.508159 189.567429
z
" clip-path="url(#p67b6b37b6f)" style="fill: none; stroke: #277f8e; stroke-width: 1.5"/>
    <path d="M 223.890684 94.935476
L 224.921018 94.83572
L 226.380658 94.6944
L 227.467461 94.727663
L 229.007098 94.774786
L 230.148023 94.940933
L 231.764334 95.176309
L 232.956159 95.474673
L 234.644579 95.897354
L 235.883152 96.326732
L 237.637799 96.935017
L 238.917997 97.49368
L 240.731611 98.28512
L 242.047315 98.970818
L 243.911229 99.942225
L 245.255317 100.752199
L 247.159443 101.899661
L 248.523813 102.830648
L 250.456669 104.149546
L 251.832272 105.197797
L 253.781042 106.68282
L 255.157952 107.844115
L 257.108574 109.489283
L 258.476083 110.758945
L 260.413386 112.557633
L 261.760118 113.930551
L 263.667988 115.875517
L 264.982047 117.346161
L 266.843631 119.429573
L 268.112767 120.992022
L 269.910711 123.205491
L 271.122511 124.853453
L 272.839229 127.188067
L 273.981321 128.914907
L 275.599286 131.361264
L 276.659557 133.160028
L 278.161609 135.708278
L 279.128432 137.571724
L 280.498097 140.211605
L 281.360553 142.132229
L 282.582366 144.853113
L 283.330467 146.823181
L 284.390277 149.614111
L 285.015174 151.62569
L 285.900443 154.475428
L 286.394611 156.520419
L 287.094683 159.41749
L 287.452089 161.487658
L 287.958414 164.420396
L 288.17465 166.507406
L 288.480984 169.464003
L 288.553363 171.55945
L 288.655901 174.528
L 288.553363 177.49655
L 288.480984 179.591997
L 288.17465 182.548594
L 287.958414 184.635604
L 287.452089 187.568342
L 287.094683 189.63851
L 286.394611 192.535581
L 285.900443 194.580572
L 285.015174 197.43031
L 284.390277 199.441889
L 283.330467 202.232819
L 282.582366 204.202887
L 281.360553 206.923771
L 280.498097 208.844395
L 279.128432 211.484276
L 278.161609 213.347722
L 276.659557 215.895972
L 275.599286 217.694736
L 273.981321 220.141093
L 272.839229 221.867933
L 271.122511 224.202547
L 269.910711 225.850509
L 268.112767 228.063978
L 266.843631 229.626427
L 264.982047 231.709839
L 263.667988 233.180483
L 261.760118 235.125449
L 260.413386 236.498367
L 258.476083 238.297055
L 257.108574 239.566717
L 255.157952 241.211885
L 253.781042 242.37318
L 251.832272 243.858203
L 250.456669 244.906454
L 248.523813 246.225352
L 247.159443 247.156339
L 245.255317 248.303801
L 243.911229 249.113775
L 242.047315 250.085182
L 240.731611 250.77088
L 238.917997 251.56232
L 237.637799 252.120983
L 235.883152 252.729268
L 234.644579 253.158646
L 232.956159 253.581327
L 231.764334 253.879691
L 230.148023 254.115067
L 229.007098 254.281214
L 227.467461 254.328337
L 226.380658 254.3616
L 224.921018 254.22028
L 223.890684 254.120524
L 222.513219 253.791329
L 221.540891 253.558957
L 220.246736 253.043214
L 219.333215 252.67916
L 218.478645 252.184891
L 217.268004 251.484676
L 216.471953 250.862182
L 215.344216 249.980315
L 214.605761 249.232102
L 213.559618 248.172134
L 212.877424 247.301215
L 211.910982 246.067413
L 211.28338 245.077296
L 210.394277 243.674629
L 209.81934 242.5693
L 209.004847 241.003416
L 208.48046 239.787325
L 207.737579 238.06453
L 207.261503 236.742575
L 206.587063 234.869805
L 206.156993 233.447308
L 205.547727 231.432104
L 205.161344 229.914794
L 204.613968 227.765271
L 204.268988 226.159257
L 203.780265 223.88407
L 203.474476 222.195819
L 203.041275 219.804129
L 202.772574 218.040439
L 202.391915 215.541878
L 202.15834 213.70985
L 201.827443 211.114478
L 201.627195 209.22149
L 201.34351 206.539757
L 201.174975 204.593432
L 200.936217 201.836137
L 200.797984 199.84431
L 200.602154 197.022556
L 200.493028 194.993249
L 200.338432 192.118397
L 200.257444 190.059781
L 200.142712 187.143408
L 200.08913 185.063772
L 200.013222 182.117621
L 199.986555 180.02534
L 199.948776 177.061274
L 199.948776 174.091229
L 199.948776 171.994726
L 199.986555 169.03066
L 200.013222 166.938379
L 200.08913 163.992228
L 200.142712 161.912592
L 200.257444 158.996219
L 200.338432 156.937603
L 200.493028 154.062751
L 200.602154 152.033444
L 200.797984 149.21169
L 200.936217 147.219863
L 201.174975 144.462568
L 201.34351 142.516243
L 201.627195 139.83451
L 201.827443 137.941522
L 202.15834 135.34615
L 202.391915 133.514122
L 202.772574 131.015561
L 203.041275 129.251871
L 203.474476 126.860181
L 203.780265 125.17193
L 204.268988 122.896743
L 204.613968 121.290729
L 205.161344 119.141206
L 205.547727 117.623896
L 206.156993 115.608692
L 206.587063 114.186195
L 207.261503 112.313425
L 207.737579 110.99147
L 208.48046 109.268675
L 209.004847 108.052584
L 209.81934 106.4867
L 210.394277 105.381371
L 211.28338 103.978704
L 211.910982 102.988587
L 212.877424 101.754785
L 213.559618 100.883866
L 214.605761 99.823898
L 215.344216 99.075685
L 216.471953 98.193818
L 217.268004 97.571324
L 218.478645 96.871109
L 219.333215 96.37684
L 220.246736 96.012786
L 221.540891 95.497043
L 222.513219 95.264671
L 223.890684 94.935476
z
" clip-path="url(#p67b6b37b6f)" style="fill: none; stroke: #1fa187; stroke-width: 1.5"/>
    <path d="M 218.572468 74.808738
L 219.323753 74.736
L 221.814343 74.812228
L 222.606803 74.836482
L 225.221424 75.217237
L 226.053348 75.338387
L 228.784615 76.022136
L 229.653654 76.239693
L 232.492052 77.223684
L 233.395179 77.536771
L 236.328967 78.817041
L 237.262445 79.224399
L 240.277599 80.795793
L 241.236967 81.295781
L 244.31717 83.151971
L 245.297235 83.742577
L 248.423915 85.876088
L 249.418768 86.554933
L 252.57119 88.957175
L 253.574233 89.721525
L 256.729652 92.382826
L 257.733649 93.229603
L 259.360455 94.750553
L 260.867522 96.139246
L 261.864664 97.065042
L 263.466582 98.709682
L 264.950924 100.21131
L 265.461516 100.735688
L 265.932916 101.212396
L 267.495695 102.974105
L 268.944301 104.582622
L 269.442414 105.144326
L 269.902469 105.654966
L 271.411435 107.52665
L 272.810907 109.235578
L 273.291862 109.832347
L 273.736319 110.374864
L 275.176601 112.348985
L 276.513362 114.151444
L 276.972418 114.780874
L 277.396967 115.353083
L 278.753744 117.421694
L 280.014262 119.310425
L 280.446693 119.969982
L 280.847038 120.56958
L 282.1058 122.72435
L 283.276827 124.691748
L 283.678007 125.378776
L 284.049942 126.003347
L 285.19676 128.2356
L 286.265578 130.273744
L 286.631065 130.985477
L 286.970552 131.632507
L 287.992348 133.933254
L 288.947014 136.033936
L 289.272639 136.767508
L 289.575888 137.434391
L 290.460697 139.794369
L 291.290287 141.94913
L 291.572235 142.701587
L 291.835777 143.385638
L 292.572997 145.795343
L 293.267832 147.995508
L 293.723485 149.462285
L 294.855953 154.148723
L 295.216284 155.639862
L 296.03534 160.383998
L 296.295949 161.893496
L 296.791489 166.676226
L 296.949161 168.198003
L 297.11503 173.00007
L 297.167807 174.528
L 297.11503 176.05593
L 296.949161 180.857997
L 296.791489 182.379774
L 296.295949 187.162504
L 296.03534 188.672002
L 295.216284 193.416138
L 294.855953 194.907277
L 293.723485 199.593715
L 293.267832 201.060492
L 292.572997 203.260657
L 291.835777 205.670362
L 291.572235 206.354413
L 291.290287 207.10687
L 290.460697 209.261631
L 289.575888 211.621609
L 289.272639 212.288492
L 288.947014 213.022064
L 287.992348 215.122746
L 286.970552 217.423493
L 286.631065 218.070523
L 286.265578 218.782256
L 285.19676 220.8204
L 284.049942 223.052653
L 283.678007 223.677224
L 283.276827 224.364252
L 282.1058 226.33165
L 280.847038 228.48642
L 280.446693 229.086018
L 280.014262 229.745575
L 278.753744 231.634306
L 277.396967 233.702917
L 276.972418 234.275126
L 276.513362 234.904556
L 275.176601 236.707015
L 273.736319 238.681136
L 273.291862 239.223653
L 272.810907 239.820422
L 271.411435 241.52935
L 269.902469 243.401034
L 269.442414 243.911674
L 268.944301 244.473378
L 267.495695 246.081895
L 265.932916 247.843604
L 265.461516 248.320312
L 264.950924 248.84469
L 263.466582 250.346318
L 261.864664 251.990958
L 260.867522 252.916754
L 259.360455 254.305447
L 257.733649 255.826397
L 256.729652 256.673174
L 253.574233 259.334475
L 252.57119 260.098825
L 249.418768 262.501067
L 248.423915 263.179912
L 245.297235 265.313423
L 244.31717 265.904029
L 241.236967 267.760219
L 240.277599 268.260207
L 237.262445 269.831601
L 236.328967 270.238959
L 233.395179 271.519229
L 232.492052 271.832316
L 229.653654 272.816307
L 228.784615 273.033864
L 226.053348 273.717613
L 225.221424 273.838763
L 222.606803 274.219518
L 221.814343 274.243772
L 219.323753 274.32
L 218.572468 274.247262
L 216.211286 274.018655
L 215.502296 273.849217
L 213.274044 273.316696
L 212.607935 273.05124
L 210.514449 272.21695
L 208.55606 271.08425
L 207.932936 270.723845
L 206.108654 269.297296
L 205.5282 268.843393
L 203.835909 267.128739
L 203.297453 266.583167
L 201.734092 264.587312
L 201.236658 263.952267
L 199.798404 261.683247
L 199.340777 260.961287
L 198.023214 258.42824
L 197.603989 257.62227
L 196.40227 254.835395
L 196.019905 253.948662
L 194.928898 250.919181
L 194.581759 249.955256
L 193.596182 246.695367
L 193.282589 245.65813
L 192.397129 242.180961
L 192.115391 241.074588
L 191.324811 237.394139
L 191.073263 236.223087
L 190.372496 232.354178
L 190.149524 231.123162
L 189.533752 227.081372
L 189.337825 225.795347
L 188.802549 221.596951
L 188.632234 220.261098
L 188.173333 215.923
L 188.027319 214.542697
L 187.641093 210.082367
L 187.518203 208.663171
L 187.201418 204.098568
L 187.100623 202.646195
L 186.850542 197.995699
L 186.770971 196.515996
L 186.585374 191.798334
L 186.52632 190.29726
L 186.403529 185.531428
L 186.364459 184.015027
L 186.303346 179.220215
L 186.283901 177.694593
L 186.283901 172.890107
L 186.283901 171.361407
L 186.303346 169.835785
L 186.364459 165.040973
L 186.403529 163.524572
L 186.52632 158.75874
L 186.585374 157.257666
L 186.770971 152.540004
L 186.850542 151.060301
L 187.100623 146.409805
L 187.201418 144.957432
L 187.518203 140.392829
L 187.641093 138.973633
L 188.027319 134.513303
L 188.173333 133.133
L 188.632234 128.794902
L 188.802549 127.459049
L 189.337825 123.260653
L 189.533752 121.974628
L 190.149524 117.932838
L 190.372496 116.701822
L 191.073263 112.832913
L 191.324811 111.661861
L 192.115391 107.981412
L 192.397129 106.875039
L 193.282589 103.39787
L 193.596182 102.360633
L 194.581759 99.100744
L 194.928898 98.136819
L 196.019905 95.107338
L 196.40227 94.220605
L 197.603989 91.43373
L 198.023214 90.62776
L 199.340777 88.094713
L 199.798404 87.372753
L 201.236658 85.103733
L 201.734092 84.468688
L 203.297453 82.472833
L 203.835909 81.927261
L 205.5282 80.212607
L 206.108654 79.758704
L 207.932936 78.332155
L 208.55606 77.97175
L 210.514449 76.83905
L 212.607935 76.00476
L 213.274044 75.739304
L 215.502296 75.206783
L 216.211286 75.037345
L 218.572468 74.808738
z
" clip-path="url(#p67b6b37b6f)" style="fill: none; stroke: #4ac16d; stroke-width: 1.5"/>
    <path d="M 201.123413 291.75474
L 200.802949 291.569389
L 198.025597 289.963014
L 197.727078 289.729579
L 195.139914 287.706472
L 194.862994 287.425892
L 192.463017 284.9942
L 192.207195 284.667606
L 189.990064 281.83712
L 189.754713 281.465826
L 187.715007 278.247944
L 187.499406 277.833445
L 185.630861 274.241124
L 185.434216 273.78509
L 183.72996 269.832795
L 183.551431 269.337062
L 182.004185 265.040707
L 181.842909 264.507271
L 180.445181 259.884156
L 180.300287 259.315165
L 179.044543 254.383906
L 178.915176 253.781651
L 177.793989 248.562105
L 177.679318 247.929011
L 176.685503 242.442194
L 176.58474 241.78081
L 175.711464 236.048817
L 175.623873 235.361807
L 174.864755 229.407717
L 174.789662 228.697847
L 174.138856 222.545636
L 174.075656 221.815764
L 173.527917 215.490205
L 173.47608 214.74327
L 173.026822 208.269834
L 172.9859 207.508843
L 172.631239 200.913596
L 172.600868 200.141615
L 172.337658 193.451112
L 172.317565 192.671249
L 172.143424 185.912432
L 172.133424 185.127827
L 172.046755 178.327911
L 172.046755 171.514277
L 172.046755 170.728089
L 172.133424 163.928173
L 172.143424 163.143568
L 172.317565 156.384751
L 172.337658 155.604888
L 172.600868 148.914385
L 172.631239 148.142404
L 172.9859 141.547157
L 173.026822 140.786166
L 173.47608 134.31273
L 173.527917 133.565795
L 174.075656 127.240236
L 174.138856 126.510364
L 174.789662 120.358153
L 174.864755 119.648283
L 175.623873 113.694193
L 175.711464 113.007183
L 176.58474 107.27519
L 176.685503 106.613806
L 177.679318 101.126989
L 177.793989 100.493895
L 178.915176 95.274349
L 179.044543 94.672094
L 180.300287 89.740835
L 180.445181 89.171844
L 181.842909 84.548729
L 182.004185 84.015293
L 183.551431 79.718938
L 183.72996 79.223205
L 185.434216 75.27091
L 185.630861 74.814876
L 187.499406 71.222555
L 187.715007 70.808056
L 189.754713 67.590174
L 189.990064 67.21888
L 192.207195 64.388394
L 192.463017 64.0618
L 194.862994 61.630108
L 195.139914 61.349528
L 197.727078 59.326421
L 198.025597 59.092986
L 200.802949 57.486611
L 201.123413 57.30126
L 201.465984 57.16474
L 204.434927 55.981565
L 204.79955 55.894425
L 207.959617 55.139214
L 208.345992 55.101806
L 211.694577 54.7776
L 212.102129 54.790074
L 215.634238 54.898179
L 216.062085 54.960484
L 219.770092 55.500464
L 220.217026 55.61235
L 224.090459 56.582032
L 224.554924 56.743048
L 228.580289 58.138526
L 229.060363 58.348024
L 233.221008 60.163679
L 233.714397 60.420816
L 237.990434 62.649338
L 238.494467 62.953078
L 242.862756 65.585492
L 243.374394 65.934612
L 247.808595 68.960319
L 248.074559 69.164146
L 248.324446 69.353413
L 250.632149 71.122337
L 252.795153 72.76023
L 253.061372 72.986037
L 253.311495 73.195716
L 255.621405 75.155401
L 257.786452 76.969924
L 258.050843 77.216803
L 258.299268 77.446047
L 260.593313 79.588603
L 262.743671 81.57245
L 263.004021 81.839406
L 263.248695 82.087294
L 265.50768 84.404092
L 267.625574 86.549275
L 267.879571 86.835234
L 268.118346 87.100766
L 270.322194 89.582478
L 272.389037 91.880359
L 272.6343 92.184169
L 272.864963 92.466278
L 274.993006 95.10291
L 276.989657 97.544236
L 277.223771 97.864674
L 277.444082 98.162222
L 279.47537 100.943159
L 281.382434 103.5181
L 281.602994 103.853875
L 281.810719 104.165665
L 283.724374 107.079708
L 285.522519 109.777896
L 285.727169 110.127655
L 285.920121 110.452432
L 287.695704 113.487847
L 289.366004 116.298417
L 289.552484 116.660754
L 289.728563 116.997209
L 291.346451 120.141774
L 292.870737 123.053408
L 293.036923 123.426863
L 293.194158 123.773642
L 294.635927 127.014695
L 295.99714 130.015669
L 296.14109 130.398738
L 296.277678 130.754445
L 297.526473 134.078935
L 298.709007 137.157166
L 298.829 137.548307
L 298.943343 137.911508
L 299.98423 141.306049
L 300.974256 144.449142
L 301.06883 144.846779
L 301.159569 145.216014
L 301.979852 148.666936
L 302.765615 151.862235
L 302.833597 152.264768
L 302.899642 152.638548
L 304.061213 159.366595
L 304.142301 160.149223
L 304.845067 166.932004
L 304.87221 167.717797
L 305.107442 174.528
L 304.87221 181.338203
L 304.845067 182.123996
L 304.142301 188.906777
L 304.061213 189.689405
L 302.899642 196.417452
L 302.833597 196.791232
L 302.765615 197.193765
L 301.979852 200.389064
L 301.159569 203.839986
L 301.06883 204.209221
L 300.974256 204.606858
L 299.98423 207.749951
L 298.943343 211.144492
L 298.829 211.507693
L 298.709007 211.898834
L 297.526473 214.977065
L 296.277678 218.301555
L 296.14109 218.657262
L 295.99714 219.040331
L 294.635927 222.041305
L 293.194158 225.282358
L 293.036923 225.629137
L 292.870737 226.002592
L 291.346451 228.914226
L 289.728563 232.058791
L 289.552484 232.395246
L 289.366004 232.757583
L 287.695704 235.568153
L 285.920121 238.603568
L 285.727169 238.928345
L 285.522519 239.278104
L 283.724374 241.976292
L 281.810719 244.890335
L 281.602994 245.202125
L 281.382434 245.5379
L 279.47537 248.112841
L 277.444082 250.893778
L 277.223771 251.191326
L 276.989657 251.511764
L 274.993006 253.95309
L 272.864963 256.589722
L 272.6343 256.871831
L 272.389037 257.175641
L 270.322194 259.473522
L 268.118346 261.955234
L 267.879571 262.220766
L 267.625574 262.506725
L 265.50768 264.651908
L 263.248695 266.968706
L 263.004021 267.216594
L 262.743671 267.48355
L 260.593313 269.467397
L 258.299268 271.609953
L 258.050843 271.839197
L 257.786452 272.086076
L 255.621405 273.900599
L 253.311495 275.860284
L 253.061372 276.069963
L 252.795153 276.29577
L 250.632149 277.933663
L 248.324446 279.702587
L 248.074559 279.891854
L 247.808595 280.095681
L 243.374394 283.121388
L 242.862756 283.470508
L 238.494467 286.102922
L 237.990434 286.406662
L 233.714397 288.635184
L 233.221008 288.892321
L 229.060363 290.707976
L 228.580289 290.917474
L 224.554924 292.312952
L 224.090459 292.473968
L 220.217026 293.44365
L 219.770092 293.555536
L 216.062085 294.095516
L 215.634238 294.157821
L 212.102129 294.265926
L 211.694577 294.2784
L 208.345992 293.954194
L 207.959617 293.916786
L 204.79955 293.161575
L 204.434927 293.074435
L 201.465984 291.89126
L 201.123413 291.75474
z
" clip-path="url(#p67b6b37b6f)" style="fill: none; stroke: #a0da39; stroke-width: 1.5"/>
    <path clip-path="url(#p67b6b37b6f)" style="fill: none; stroke: #fde725; stroke-width: 1.5"/>
   </g>
   <g id="line2d_8">
    <path d="M 310.082604 174.528
L 309.791076 166.088005
L 308.920127 157.681994
L 307.480574 149.343816
L 305.490175 141.107047
L 302.973231 133.004851
L 299.960046 125.069855
L 296.486265 117.334009
L 292.592117 109.828463
L 288.321579 102.58344
L 283.721484 95.628111
L 278.840621 88.990485
L 273.728821 82.697288
L 268.436083 76.773861
L 263.011747 71.244055
L 257.503727 66.130138
L 251.957839 61.4527
L 246.417218 57.230577
L 240.921842 53.480769
L 235.50815 50.218375
L 230.208788 47.456533
L 225.052434 45.206362
L 220.063734 43.476924
L 215.263326 42.275182
L 210.667933 41.605976
L 206.290532 41.472
L 202.140576 41.873793
L 198.224254 42.809739
L 194.544794 44.276067
L 191.102776 46.266873
L 187.896462 48.774142
L 184.922132 51.787777
L 182.174406 55.295644
L 179.646565 59.283618
L 177.330848 63.73564
L 175.218735 68.633783
L 173.301207 73.958326
L 171.56898 79.687827
L 170.012717 85.799215
L 168.623212 92.267884
L 167.39156 99.067784
L 166.309295 106.171537
L 165.368508 113.550537
L 164.561953 121.175071
L 163.883132 129.014439
L 163.326359 137.037074
L 162.886823 145.210672
L 162.560622 153.50232
L 162.344807 161.878631
L 162.237396 170.305877
L 162.237396 178.750123
L 162.344807 187.177369
L 162.560622 195.55368
L 162.886823 203.845328
L 163.326359 212.018926
L 163.883132 220.041561
L 164.561953 227.880929
L 165.368508 235.505463
L 166.309295 242.884463
L 167.39156 249.988216
L 168.623212 256.788116
L 170.012717 263.256785
L 171.56898 269.368173
L 173.301207 275.097674
L 175.218735 280.422217
L 177.330848 285.32036
L 179.646565 289.772382
L 182.174406 293.760356
L 184.922132 297.268223
L 187.896462 300.281858
L 191.102776 302.789127
L 194.544794 304.779933
L 198.224254 306.246261
L 202.140576 307.182207
L 206.290532 307.584
L 210.667933 307.450024
L 215.263326 306.780818
L 220.063734 305.579076
L 225.052434 303.849638
L 230.208788 301.599467
L 235.50815 298.837625
L 240.921842 295.575231
L 246.417218 291.825423
L 251.957839 287.6033
L 257.503727 282.925862
L 263.011747 277.811945
L 268.436083 272.282139
L 273.728821 266.358712
L 278.840621 260.065515
L 283.721484 253.427889
L 288.321579 246.47256
L 292.592117 239.227537
L 296.486265 231.721991
L 299.960046 223.986145
L 302.973231 216.051149
L 305.490175 207.948953
L 307.480574 199.712184
L 308.920127 191.374006
L 309.791076 182.967995
L 310.082604 174.528
" clip-path="url(#p67b6b37b6f)" style="fill: none; stroke: #ff0000; stroke-width: 2; stroke-linecap: square"/>
   </g>
   <g id="patch_3">
    <path d="M 162.237396 307.584
L 162.237396 41.472
" style="fill: none; stroke: #000000; stroke-width: 0.8; stroke-linejoin: miter; stroke-linecap: square"/>
   </g>
   <g id="patch_4">
    <path d="M 310.082604 307.584
L 310.082604 41.472
" style="fill: none; stroke: #000000; stroke-width: 0.8; stroke-linejoin: miter; stroke-linecap: square"/>
   </g>
   <g id="patch_5">
    <path d="M 162.237396 307.584
L 310.082604 307.584
" style="fill: none; stroke: #000000; stroke-width: 0.8; stroke-linejoin: miter; stroke-linecap: square"/>
   </g>
   <g id="patch_6">
    <path d="M 162.237396 41.472
L 310.082604 41.472
" style="fill: none; stroke: #000000; stroke-width: 0.8; stroke-linejoin: miter; stroke-linecap: square"/>
   </g>
  </g>
 </g>
 <defs>
  <clipPath id="p67b6b37b6f">
   <rect x="162.237396" y="41.472" width="147.845208" height="266.112"/>
  </clipPath>
 </defs>
</svg>
