<?xml version="1.0" encoding="utf-8" standalone="no"?>
<!DOCTYPE svg PUBLIC "-//W3C//DTD SVG 1.1//EN"
  "http://www.w3.org/Graphics/SVG/1.1/DTD/svg11.dtd">
<svg xmlns:xlink="http://www.w3.org/1999/xlink" width="460.8pt" height="345.6pt" viewBox="0 0 460.8 345.6" xmlns="http://www.w3.org/2000/svg" version="1.1">
 <metadata>
  <rdf:RDF xmlns:dc="http://purl.org/dc/elements/1.1/" xmlns:cc="http://creativecommons.org/ns#" xmlns:rdf="http://www.w3.org/1999/02/22-rdf-syntax-ns#">
   <cc:Work>
    <dc:type rdf:resource="http://purl.org/dc/dcmitype/StillImage"/>
    <dc:date>2025-09-30T16:44:49.493341</dc:date>
    <dc:format>image/svg+xml</dc:format>
    <dc:creator>
     <cc:Agent>
      <dc:title>Matplotlib v3.10.6, https://matplotlib.org/</dc:title>
     </cc:Agent>
    </dc:creator>
   </cc:Work>
  </rdf:RDF>
 </metadata>
 <defs>
  <style type="text/css">*{stroke-linejoin: round; stroke-linecap: butt}</style>
 </defs>
 <g id="figure_1">
  <g id="patch_1">
   <path d="M 0 345.6
L 460.8 345.6
L 460.8 0
L 0 0
z
" style="fill: #ffffff"/>
  </g>
  <g id="axes_1">
   <g id="patch_2">
    <path d="M 57.6 307.584
L 414.72 307.584
L 414.72 41.472
L 57.6 41.472
z
" style="fill: #ffffff"/>
   </g>
   <g id="matplotlib.axis_1">
    <g id="xtick_1">
     <g id="line2d_1">
      <defs>
       <path id="m608dd1c684" d="M 0 0
L 0 3.5
" style="stroke: #000000; stroke-width: 0.8"/>
      </defs>
      <g>
       <use xlink:href="#m608dd1c684" x="73.832727" y="307.584" style="stroke: #000000; stroke-width: 0.8"/>
      </g>
     </g>
     <g id="text_1">
      <!-- 0.0 -->
      <g transform="translate(65.881165 322.182437) scale(0.1 -0.1)">
       <defs>
        <path id="DejaVuSans-30" d="M 2034 4250
Q 1547 4250 1301 3770
Q 1056 3291 1056 2328
Q 1056 1369 1301 889
Q 1547 409 2034 409
Q 2525 409 2770 889
Q 3016 1369 3016 2328
Q 3016 3291 2770 3770
Q 2525 4250 2034 4250
z
M 2034 4750
Q 2819 4750 3233 4129
Q 3647 3509 3647 2328
Q 3647 1150 3233 529
Q 2819 -91 2034 -91
Q 1250 -91 836 529
Q 422 1150 422 2328
Q 422 3509 836 4129
Q 1250 4750 2034 4750
z
" transform="scale(0.015625)"/>
        <path id="DejaVuSans-2e" d="M 684 794
L 1344 794
L 1344 0
L 684 0
L 684 794
z
" transform="scale(0.015625)"/>
       </defs>
       <use xlink:href="#DejaVuSans-30"/>
       <use xlink:href="#DejaVuSans-2e" transform="translate(63.623047 0)"/>
       <use xlink:href="#DejaVuSans-30" transform="translate(95.410156 0)"/>
      </g>
     </g>
    </g>
    <g id="xtick_2">
     <g id="line2d_2">
      <g>
       <use xlink:href="#m608dd1c684" x="138.763636" y="307.584" style="stroke: #000000; stroke-width: 0.8"/>
      </g>
     </g>
     <g id="text_2">
      <!-- 0.2 -->
      <g transform="translate(130.812074 322.182437) scale(0.1 -0.1)">
       <defs>
        <path id="DejaVuSans-32" d="M 1228 531
L 3431 531
L 3431 0
L 469 0
L 469 531
Q 828 903 1448 1529
Q 2069 2156 2228 2338
Q 2531 2678 2651 2914
Q 2772 3150 2772 3378
Q 2772 3750 2511 3984
Q 2250 4219 1831 4219
Q 1534 4219 1204 4116
Q 875 4013 500 3803
L 500 4441
Q 881 4594 1212 4672
Q 1544 4750 1819 4750
Q 2544 4750 2975 4387
Q 3406 4025 3406 3419
Q 3406 3131 3298 2873
Q 3191 2616 2906 2266
Q 2828 2175 2409 1742
Q 1991 1309 1228 531
z
" transform="scale(0.015625)"/>
       </defs>
       <use xlink:href="#DejaVuSans-30"/>
       <use xlink:href="#DejaVuSans-2e" transform="translate(63.623047 0)"/>
       <use xlink:href="#DejaVuSans-32" transform="translate(95.410156 0)"/>
      </g>
     </g>
    </g>
    <g id="xtick_3">
     <g id="line2d_3">
      <g>
       <use xlink:href="#m608dd1c684" x="203.694545" y="307.584" style="stroke: #000000; stroke-width: 0.8"/>
      </g>
     </g>
     <g id="text_3">
      <!-- 0.4 -->
      <g transform="translate(195.742983 322.182437) scale(0.1 -0.1)">
       <defs>
        <path id="DejaVuSans-34" d="M 2419 4116
L 825 1625
L 2419 1625
L 2419 4116
z
M 2253 4666
L 3047 4666
L 3047 1625
L 3713 1625
L 3713 1100
L 3047 1100
L 3047 0
L 2419 0
L 2419 1100
L 313 1100
L 313 1709
L 2253 4666
z
" transform="scale(0.015625)"/>
       </defs>
       <use xlink:href="#DejaVuSans-30"/>
       <use xlink:href="#DejaVuSans-2e" transform="translate(63.623047 0)"/>
       <use xlink:href="#DejaVuSans-34" transform="translate(95.410156 0)"/>
      </g>
     </g>
    </g>
    <g id="xtick_4">
     <g id="line2d_4">
      <g>
       <use xlink:href="#m608dd1c684" x="268.625455" y="307.584" style="stroke: #000000; stroke-width: 0.8"/>
      </g>
     </g>
     <g id="text_4">
      <!-- 0.6 -->
      <g transform="translate(260.673892 322.182437) scale(0.1 -0.1)">
       <defs>
        <path id="DejaVuSans-36" d="M 2113 2584
Q 1688 2584 1439 2293
Q 1191 2003 1191 1497
Q 1191 994 1439 701
Q 1688 409 2113 409
Q 2538 409 2786 701
Q 3034 994 3034 1497
Q 3034 2003 2786 2293
Q 2538 2584 2113 2584
z
M 3366 4563
L 3366 3988
Q 3128 4100 2886 4159
Q 2644 4219 2406 4219
Q 1781 4219 1451 3797
Q 1122 3375 1075 2522
Q 1259 2794 1537 2939
Q 1816 3084 2150 3084
Q 2853 3084 3261 2657
Q 3669 2231 3669 1497
Q 3669 778 3244 343
Q 2819 -91 2113 -91
Q 1303 -91 875 529
Q 447 1150 447 2328
Q 447 3434 972 4092
Q 1497 4750 2381 4750
Q 2619 4750 2861 4703
Q 3103 4656 3366 4563
z
" transform="scale(0.015625)"/>
       </defs>
       <use xlink:href="#DejaVuSans-30"/>
       <use xlink:href="#DejaVuSans-2e" transform="translate(63.623047 0)"/>
       <use xlink:href="#DejaVuSans-36" transform="translate(95.410156 0)"/>
      </g>
     </g>
    </g>
    <g id="xtick_5">
     <g id="line2d_5">
      <g>
       <use xlink:href="#m608dd1c684" x="333.556364" y="307.584" style="stroke: #000000; stroke-width: 0.8"/>
      </g>
     </g>
     <g id="text_5">
      <!-- 0.8 -->
      <g transform="translate(325.604801 322.182437) scale(0.1 -0.1)">
       <defs>
        <path id="DejaVuSans-38" d="M 2034 2216
Q 1584 2216 1326 1975
Q 1069 1734 1069 1313
Q 1069 891 1326 650
Q 1584 409 2034 409
Q 2484 409 2743 651
Q 3003 894 3003 1313
Q 3003 1734 2745 1975
Q 2488 2216 2034 2216
z
M 1403 2484
Q 997 2584 770 2862
Q 544 3141 544 3541
Q 544 4100 942 4425
Q 1341 4750 2034 4750
Q 2731 4750 3128 4425
Q 3525 4100 3525 3541
Q 3525 3141 3298 2862
Q 3072 2584 2669 2484
Q 3125 2378 3379 2068
Q 3634 1759 3634 1313
Q 3634 634 3220 271
Q 2806 -91 2034 -91
Q 1263 -91 848 271
Q 434 634 434 1313
Q 434 1759 690 2068
Q 947 2378 1403 2484
z
M 1172 3481
Q 1172 3119 1398 2916
Q 1625 2713 2034 2713
Q 2441 2713 2670 2916
Q 2900 3119 2900 3481
Q 2900 3844 2670 4047
Q 2441 4250 2034 4250
Q 1625 4250 1398 4047
Q 1172 3844 1172 3481
z
" transform="scale(0.015625)"/>
       </defs>
       <use xlink:href="#DejaVuSans-30"/>
       <use xlink:href="#DejaVuSans-2e" transform="translate(63.623047 0)"/>
       <use xlink:href="#DejaVuSans-38" transform="translate(95.410156 0)"/>
      </g>
     </g>
    </g>
    <g id="xtick_6">
     <g id="line2d_6">
      <g>
       <use xlink:href="#m608dd1c684" x="398.487273" y="307.584" style="stroke: #000000; stroke-width: 0.8"/>
      </g>
     </g>
     <g id="text_6">
      <!-- 1.0 -->
      <g transform="translate(390.53571 322.182437) scale(0.1 -0.1)">
       <defs>
        <path id="DejaVuSans-31" d="M 794 531
L 1825 531
L 1825 4091
L 703 3866
L 703 4441
L 1819 4666
L 2450 4666
L 2450 531
L 3481 531
L 3481 0
L 794 0
L 794 531
z
" transform="scale(0.015625)"/>
       </defs>
       <use xlink:href="#DejaVuSans-31"/>
       <use xlink:href="#DejaVuSans-2e" transform="translate(63.623047 0)"/>
       <use xlink:href="#DejaVuSans-30" transform="translate(95.410156 0)"/>
      </g>
     </g>
    </g>
    <g id="text_7">
     <!-- $\rho$ -->
     <g transform="translate(232.96 335.84025) scale(0.1 -0.1)">
      <defs>
       <path id="DejaVuSans-Oblique-3c1" d="M 1203 2875
Q 1453 3194 1981 3475
Q 2188 3584 2756 3584
Q 3394 3584 3694 3078
Q 3994 2572 3834 1747
Q 3672 922 3175 415
Q 2678 -91 2041 -91
Q 1656 -91 1409 63
Q 1163 213 1044 525
L 681 -1331
L 103 -1331
L 697 1716
Q 838 2438 1203 2875
z
M 3238 1747
Q 3359 2381 3169 2744
Q 2978 3103 2522 3103
Q 2066 3103 1734 2744
Q 1403 2381 1281 1747
Q 1156 1113 1347 750
Q 1538 391 1994 391
Q 2450 391 2781 750
Q 3113 1113 3238 1747
z
" transform="scale(0.015625)"/>
      </defs>
      <use xlink:href="#DejaVuSans-Oblique-3c1"/>
     </g>
    </g>
   </g>
   <g id="matplotlib.axis_2">
    <g id="ytick_1">
     <g id="line2d_7">
      <defs>
       <path id="m52be812e98" d="M 0 0
L -3.5 0
" style="stroke: #000000; stroke-width: 0.8"/>
      </defs>
      <g>
       <use xlink:href="#m52be812e98" x="57.6" y="295.500097" style="stroke: #000000; stroke-width: 0.8"/>
      </g>
     </g>
     <g id="text_8">
      <!-- 0 -->
      <g transform="translate(44.2375 299.299315) scale(0.1 -0.1)">
       <use xlink:href="#DejaVuSans-30"/>
      </g>
     </g>
    </g>
    <g id="ytick_2">
     <g id="line2d_8">
      <g>
       <use xlink:href="#m52be812e98" x="57.6" y="247.113677" style="stroke: #000000; stroke-width: 0.8"/>
      </g>
     </g>
     <g id="text_9">
      <!-- 1 -->
      <g transform="translate(44.2375 250.912896) scale(0.1 -0.1)">
       <use xlink:href="#DejaVuSans-31"/>
      </g>
     </g>
    </g>
    <g id="ytick_3">
     <g id="line2d_9">
      <g>
       <use xlink:href="#m52be812e98" x="57.6" y="198.727258" style="stroke: #000000; stroke-width: 0.8"/>
      </g>
     </g>
     <g id="text_10">
      <!-- 2 -->
      <g transform="translate(44.2375 202.526477) scale(0.1 -0.1)">
       <use xlink:href="#DejaVuSans-32"/>
      </g>
     </g>
    </g>
    <g id="ytick_4">
     <g id="line2d_10">
      <g>
       <use xlink:href="#m52be812e98" x="57.6" y="150.340839" style="stroke: #000000; stroke-width: 0.8"/>
      </g>
     </g>
     <g id="text_11">
      <!-- 3 -->
      <g transform="translate(44.2375 154.140057) scale(0.1 -0.1)">
       <defs>
        <path id="DejaVuSans-33" d="M 2597 2516
Q 3050 2419 3304 2112
Q 3559 1806 3559 1356
Q 3559 666 3084 287
Q 2609 -91 1734 -91
Q 1441 -91 1130 -33
Q 819 25 488 141
L 488 750
Q 750 597 1062 519
Q 1375 441 1716 441
Q 2309 441 2620 675
Q 2931 909 2931 1356
Q 2931 1769 2642 2001
Q 2353 2234 1838 2234
L 1294 2234
L 1294 2753
L 1863 2753
Q 2328 2753 2575 2939
Q 2822 3125 2822 3475
Q 2822 3834 2567 4026
Q 2313 4219 1838 4219
Q 1578 4219 1281 4162
Q 984 4106 628 3988
L 628 4550
Q 988 4650 1302 4700
Q 1616 4750 1894 4750
Q 2613 4750 3031 4423
Q 3450 4097 3450 3541
Q 3450 3153 3228 2886
Q 3006 2619 2597 2516
z
" transform="scale(0.015625)"/>
       </defs>
       <use xlink:href="#DejaVuSans-33"/>
      </g>
     </g>
    </g>
    <g id="ytick_5">
     <g id="line2d_11">
      <g>
       <use xlink:href="#m52be812e98" x="57.6" y="101.954419" style="stroke: #000000; stroke-width: 0.8"/>
      </g>
     </g>
     <g id="text_12">
      <!-- 4 -->
      <g transform="translate(44.2375 105.753638) scale(0.1 -0.1)">
       <use xlink:href="#DejaVuSans-34"/>
      </g>
     </g>
    </g>
    <g id="ytick_6">
     <g id="line2d_12">
      <g>
       <use xlink:href="#m52be812e98" x="57.6" y="53.568" style="stroke: #000000; stroke-width: 0.8"/>
      </g>
     </g>
     <g id="text_13">
      <!-- 5 -->
      <g transform="translate(44.2375 57.367219) scale(0.1 -0.1)">
       <defs>
        <path id="DejaVuSans-35" d="M 691 4666
L 3169 4666
L 3169 4134
L 1269 4134
L 1269 2991
Q 1406 3038 1543 3061
Q 1681 3084 1819 3084
Q 2600 3084 3056 2656
Q 3513 2228 3513 1497
Q 3513 744 3044 326
Q 2575 -91 1722 -91
Q 1428 -91 1123 -41
Q 819 9 494 109
L 494 744
Q 775 591 1075 516
Q 1375 441 1709 441
Q 2250 441 2565 725
Q 2881 1009 2881 1497
Q 2881 1984 2565 2268
Q 2250 2553 1709 2553
Q 1456 2553 1204 2497
Q 953 2441 691 2322
L 691 4666
z
" transform="scale(0.015625)"/>
       </defs>
       <use xlink:href="#DejaVuSans-35"/>
      </g>
     </g>
    </g>
    <g id="text_14">
     <!-- $n$ [1/m$^{3}$] -->
     <g transform="translate(38.157812 195.378) rotate(-90) scale(0.1 -0.1)">
      <defs>
       <path id="DejaVuSans-Oblique-6e" d="M 3566 2113
L 3156 0
L 2578 0
L 2988 2091
Q 3016 2238 3031 2350
Q 3047 2463 3047 2528
Q 3047 2791 2881 2937
Q 2716 3084 2419 3084
Q 1956 3084 1622 2776
Q 1288 2469 1184 1941
L 800 0
L 225 0
L 903 3500
L 1478 3500
L 1363 2950
Q 1603 3253 1940 3418
Q 2278 3584 2650 3584
Q 3113 3584 3367 3334
Q 3622 3084 3622 2631
Q 3622 2519 3608 2391
Q 3594 2263 3566 2113
z
" transform="scale(0.015625)"/>
       <path id="DejaVuSans-20" transform="scale(0.015625)"/>
       <path id="DejaVuSans-5b" d="M 550 4863
L 1875 4863
L 1875 4416
L 1125 4416
L 1125 -397
L 1875 -397
L 1875 -844
L 550 -844
L 550 4863
z
" transform="scale(0.015625)"/>
       <path id="DejaVuSans-2f" d="M 1625 4666
L 2156 4666
L 531 -594
L 0 -594
L 1625 4666
z
" transform="scale(0.015625)"/>
       <path id="DejaVuSans-6d" d="M 3328 2828
Q 3544 3216 3844 3400
Q 4144 3584 4550 3584
Q 5097 3584 5394 3201
Q 5691 2819 5691 2113
L 5691 0
L 5113 0
L 5113 2094
Q 5113 2597 4934 2840
Q 4756 3084 4391 3084
Q 3944 3084 3684 2787
Q 3425 2491 3425 1978
L 3425 0
L 2847 0
L 2847 2094
Q 2847 2600 2669 2842
Q 2491 3084 2119 3084
Q 1678 3084 1418 2786
Q 1159 2488 1159 1978
L 1159 0
L 581 0
L 581 3500
L 1159 3500
L 1159 2956
Q 1356 3278 1631 3431
Q 1906 3584 2284 3584
Q 2666 3584 2933 3390
Q 3200 3197 3328 2828
z
" transform="scale(0.015625)"/>
       <path id="DejaVuSans-5d" d="M 1947 4863
L 1947 -844
L 622 -844
L 622 -397
L 1369 -397
L 1369 4416
L 622 4416
L 622 4863
L 1947 4863
z
" transform="scale(0.015625)"/>
      </defs>
      <use xlink:href="#DejaVuSans-Oblique-6e" transform="translate(0 0.765625)"/>
      <use xlink:href="#DejaVuSans-20" transform="translate(63.378906 0.765625)"/>
      <use xlink:href="#DejaVuSans-5b" transform="translate(95.166016 0.765625)"/>
      <use xlink:href="#DejaVuSans-31" transform="translate(134.179688 0.765625)"/>
      <use xlink:href="#DejaVuSans-2f" transform="translate(197.802734 0.765625)"/>
      <use xlink:href="#DejaVuSans-6d" transform="translate(231.494141 0.765625)"/>
      <use xlink:href="#DejaVuSans-33" transform="translate(329.863281 39.046875) scale(0.7)"/>
      <use xlink:href="#DejaVuSans-5d" transform="translate(377.133789 0.765625)"/>
     </g>
    </g>
    <g id="text_15">
     <!-- 1e19 -->
     <g transform="translate(57.6 38.472) scale(0.1 -0.1)">
      <defs>
       <path id="DejaVuSans-65" d="M 3597 1894
L 3597 1613
L 953 1613
Q 991 1019 1311 708
Q 1631 397 2203 397
Q 2534 397 2845 478
Q 3156 559 3463 722
L 3463 178
Q 3153 47 2828 -22
Q 2503 -91 2169 -91
Q 1331 -91 842 396
Q 353 884 353 1716
Q 353 2575 817 3079
Q 1281 3584 2069 3584
Q 2775 3584 3186 3129
Q 3597 2675 3597 1894
z
M 3022 2063
Q 3016 2534 2758 2815
Q 2500 3097 2075 3097
Q 1594 3097 1305 2825
Q 1016 2553 972 2059
L 3022 2063
z
" transform="scale(0.015625)"/>
       <path id="DejaVuSans-39" d="M 703 97
L 703 672
Q 941 559 1184 500
Q 1428 441 1663 441
Q 2288 441 2617 861
Q 2947 1281 2994 2138
Q 2813 1869 2534 1725
Q 2256 1581 1919 1581
Q 1219 1581 811 2004
Q 403 2428 403 3163
Q 403 3881 828 4315
Q 1253 4750 1959 4750
Q 2769 4750 3195 4129
Q 3622 3509 3622 2328
Q 3622 1225 3098 567
Q 2575 -91 1691 -91
Q 1453 -91 1209 -44
Q 966 3 703 97
z
M 1959 2075
Q 2384 2075 2632 2365
Q 2881 2656 2881 3163
Q 2881 3666 2632 3958
Q 2384 4250 1959 4250
Q 1534 4250 1286 3958
Q 1038 3666 1038 3163
Q 1038 2656 1286 2365
Q 1534 2075 1959 2075
z
" transform="scale(0.015625)"/>
      </defs>
      <use xlink:href="#DejaVuSans-31"/>
      <use xlink:href="#DejaVuSans-65" transform="translate(63.623047 0)"/>
      <use xlink:href="#DejaVuSans-31" transform="translate(125.146484 0)"/>
      <use xlink:href="#DejaVuSans-39" transform="translate(188.769531 0)"/>
     </g>
    </g>
   </g>
   <g id="line2d_13">
    <path d="M 73.832727 53.568
L 80.989441 53.672213
L 88.146154 53.984851
L 95.302868 54.505914
L 102.459581 55.235403
L 109.616294 56.173317
L 116.773008 57.319656
L 123.929721 58.674421
L 131.086435 60.237611
L 138.893758 62.180618
L 146.701082 64.371668
L 154.508406 66.810761
L 162.31573 69.497898
L 170.123053 72.433078
L 177.930377 75.616302
L 185.737701 79.047568
L 193.545025 82.726879
L 201.352348 86.654232
L 209.159672 90.82963
L 216.966996 95.25307
L 224.77432 99.924554
L 232.581643 104.844081
L 240.388967 110.011652
L 248.196291 115.427266
L 256.654225 121.574091
L 265.112159 128.012023
L 273.570093 134.741061
L 282.028027 141.761206
L 290.485961 149.072457
L 298.943895 156.674815
L 307.401829 164.568279
L 315.859763 172.75285
L 324.317697 181.228527
L 333.426242 190.681736
L 342.534786 200.47256
L 351.64333 210.600999
L 360.751875 221.067052
L 369.860419 231.87072
L 378.968963 243.012002
L 382.222015 247.072851
L 386.776287 260.588689
L 398.487273 295.488
L 398.487273 295.488
" clip-path="url(#p55dcb5d6fc)" style="fill: none; stroke-dasharray: 9.6,2.4,1.5,2.4; stroke-dashoffset: 0; stroke: #1f77b4; stroke-width: 1.5"/>
   </g>
   <g id="line2d_14">
    <path d="M 73.832727 53.568
L 80.989441 53.672213
L 88.146154 53.984851
L 95.302868 54.505914
L 102.459581 55.235403
L 109.616294 56.173317
L 116.773008 57.319656
L 123.929721 58.674421
L 131.086435 60.237611
L 138.893758 62.180618
L 146.701082 64.371668
L 154.508406 66.810761
L 162.31573 69.497898
L 170.123053 72.433078
L 177.930377 75.616302
L 185.737701 79.047568
L 193.545025 82.726879
L 201.352348 86.654232
L 209.159672 90.82963
L 216.966996 95.25307
L 224.77432 99.924554
L 232.581643 104.844081
L 240.388967 110.011652
L 248.196291 115.427266
L 256.654225 121.574091
L 265.112159 128.012023
L 273.570093 134.741061
L 282.028027 141.761206
L 290.485961 149.072457
L 298.943895 156.674815
L 307.401829 164.568279
L 315.859763 172.75285
L 324.317697 181.228527
L 333.426242 190.681736
L 342.534786 200.47256
L 351.64333 210.600999
L 360.751875 221.067052
L 369.860419 231.87072
L 378.968963 243.012002
L 382.222015 247.072851
L 386.776287 260.588689
L 398.487273 295.488
L 398.487273 295.488
" clip-path="url(#p55dcb5d6fc)" style="fill: none; stroke-dasharray: 5.55,2.4; stroke-dashoffset: 0; stroke: #ff7f0e; stroke-width: 1.5"/>
   </g>
   <g id="patch_3">
    <path d="M 57.6 307.584
L 57.6 41.472
" style="fill: none; stroke: #000000; stroke-width: 0.8; stroke-linejoin: miter; stroke-linecap: square"/>
   </g>
   <g id="patch_4">
    <path d="M 414.72 307.584
L 414.72 41.472
" style="fill: none; stroke: #000000; stroke-width: 0.8; stroke-linejoin: miter; stroke-linecap: square"/>
   </g>
   <g id="patch_5">
    <path d="M 57.6 307.584
L 414.72 307.584
" style="fill: none; stroke: #000000; stroke-width: 0.8; stroke-linejoin: miter; stroke-linecap: square"/>
   </g>
   <g id="patch_6">
    <path d="M 57.6 41.472
L 414.72 41.472
" style="fill: none; stroke: #000000; stroke-width: 0.8; stroke-linejoin: miter; stroke-linecap: square"/>
   </g>
   <g id="legend_1">
    <g id="patch_7">
     <path d="M 64.6 302.584
L 104.3 302.584
Q 106.3 302.584 106.3 300.584
L 106.3 272.22775
Q 106.3 270.22775 104.3 270.22775
L 64.6 270.22775
Q 62.6 270.22775 62.6 272.22775
L 62.6 300.584
Q 62.6 302.584 64.6 302.584
z
" style="fill: #ffffff; opacity: 0.8; stroke: #cccccc; stroke-linejoin: miter"/>
    </g>
    <g id="line2d_15">
     <path d="M 66.6 278.326187
L 76.6 278.326187
L 86.6 278.326187
" style="fill: none; stroke-dasharray: 9.6,2.4,1.5,2.4; stroke-dashoffset: 0; stroke: #1f77b4; stroke-width: 1.5"/>
    </g>
    <g id="text_16">
     <!-- D -->
     <g transform="translate(94.6 281.826187) scale(0.1 -0.1)">
      <defs>
       <path id="DejaVuSans-44" d="M 1259 4147
L 1259 519
L 2022 519
Q 2988 519 3436 956
Q 3884 1394 3884 2338
Q 3884 3275 3436 3711
Q 2988 4147 2022 4147
L 1259 4147
z
M 628 4666
L 1925 4666
Q 3281 4666 3915 4102
Q 4550 3538 4550 2338
Q 4550 1131 3912 565
Q 3275 0 1925 0
L 628 0
L 628 4666
z
" transform="scale(0.015625)"/>
      </defs>
      <use xlink:href="#DejaVuSans-44"/>
     </g>
    </g>
    <g id="line2d_16">
     <path d="M 66.6 293.004312
L 76.6 293.004312
L 86.6 293.004312
" style="fill: none; stroke-dasharray: 5.55,2.4; stroke-dashoffset: 0; stroke: #ff7f0e; stroke-width: 1.5"/>
    </g>
    <g id="text_17">
     <!-- T -->
     <g transform="translate(94.6 296.504312) scale(0.1 -0.1)">
      <defs>
       <path id="DejaVuSans-54" d="M -19 4666
L 3928 4666
L 3928 4134
L 2272 4134
L 2272 0
L 1638 0
L 1638 4134
L -19 4134
L -19 4666
z
" transform="scale(0.015625)"/>
      </defs>
      <use xlink:href="#DejaVuSans-54"/>
     </g>
    </g>
   </g>
  </g>
  <g id="axes_2">
   <g id="matplotlib.axis_3">
    <g id="ytick_7">
     <g id="line2d_17">
      <defs>
       <path id="me9aa4f7c03" d="M 0 0
L 3.5 0
" style="stroke: #000000; stroke-width: 0.8"/>
      </defs>
      <g>
       <use xlink:href="#me9aa4f7c03" x="414.72" y="296.297097" style="stroke: #000000; stroke-width: 0.8"/>
      </g>
     </g>
     <g id="text_18">
      <!-- 0 -->
      <g transform="translate(421.72 300.096316) scale(0.1 -0.1)">
       <use xlink:href="#DejaVuSans-30"/>
      </g>
     </g>
    </g>
    <g id="ytick_8">
     <g id="line2d_18">
      <g>
       <use xlink:href="#me9aa4f7c03" x="414.72" y="255.842247" style="stroke: #000000; stroke-width: 0.8"/>
      </g>
     </g>
     <g id="text_19">
      <!-- 5 -->
      <g transform="translate(421.72 259.641466) scale(0.1 -0.1)">
       <use xlink:href="#DejaVuSans-35"/>
      </g>
     </g>
    </g>
    <g id="ytick_9">
     <g id="line2d_19">
      <g>
       <use xlink:href="#me9aa4f7c03" x="414.72" y="215.387398" style="stroke: #000000; stroke-width: 0.8"/>
      </g>
     </g>
     <g id="text_20">
      <!-- 10 -->
      <g transform="translate(421.72 219.186617) scale(0.1 -0.1)">
       <use xlink:href="#DejaVuSans-31"/>
       <use xlink:href="#DejaVuSans-30" transform="translate(63.623047 0)"/>
      </g>
     </g>
    </g>
    <g id="ytick_10">
     <g id="line2d_20">
      <g>
       <use xlink:href="#me9aa4f7c03" x="414.72" y="174.932548" style="stroke: #000000; stroke-width: 0.8"/>
      </g>
     </g>
     <g id="text_21">
      <!-- 15 -->
      <g transform="translate(421.72 178.731767) scale(0.1 -0.1)">
       <use xlink:href="#DejaVuSans-31"/>
       <use xlink:href="#DejaVuSans-35" transform="translate(63.623047 0)"/>
      </g>
     </g>
    </g>
    <g id="ytick_11">
     <g id="line2d_21">
      <g>
       <use xlink:href="#me9aa4f7c03" x="414.72" y="134.477699" style="stroke: #000000; stroke-width: 0.8"/>
      </g>
     </g>
     <g id="text_22">
      <!-- 20 -->
      <g transform="translate(421.72 138.276918) scale(0.1 -0.1)">
       <use xlink:href="#DejaVuSans-32"/>
       <use xlink:href="#DejaVuSans-30" transform="translate(63.623047 0)"/>
      </g>
     </g>
    </g>
    <g id="ytick_12">
     <g id="line2d_22">
      <g>
       <use xlink:href="#me9aa4f7c03" x="414.72" y="94.022849" style="stroke: #000000; stroke-width: 0.8"/>
      </g>
     </g>
     <g id="text_23">
      <!-- 25 -->
      <g transform="translate(421.72 97.822068) scale(0.1 -0.1)">
       <use xlink:href="#DejaVuSans-32"/>
       <use xlink:href="#DejaVuSans-35" transform="translate(63.623047 0)"/>
      </g>
     </g>
    </g>
    <g id="ytick_13">
     <g id="line2d_23">
      <g>
       <use xlink:href="#me9aa4f7c03" x="414.72" y="53.568" style="stroke: #000000; stroke-width: 0.8"/>
      </g>
     </g>
     <g id="text_24">
      <!-- 30 -->
      <g transform="translate(421.72 57.367219) scale(0.1 -0.1)">
       <use xlink:href="#DejaVuSans-33"/>
       <use xlink:href="#DejaVuSans-30" transform="translate(63.623047 0)"/>
      </g>
     </g>
    </g>
    <g id="text_25">
     <!-- $T_{i}$ [keV] -->
     <g transform="translate(446.043438 193.578) rotate(-90) scale(0.1 -0.1)">
      <defs>
       <path id="DejaVuSans-Oblique-54" d="M 378 4666
L 4325 4666
L 4225 4134
L 2559 4134
L 1759 0
L 1125 0
L 1925 4134
L 275 4134
L 378 4666
z
" transform="scale(0.015625)"/>
       <path id="DejaVuSans-Oblique-69" d="M 1172 4863
L 1747 4863
L 1606 4134
L 1031 4134
L 1172 4863
z
M 909 3500
L 1484 3500
L 800 0
L 225 0
L 909 3500
z
" transform="scale(0.015625)"/>
       <path id="DejaVuSans-6b" d="M 581 4863
L 1159 4863
L 1159 1991
L 2875 3500
L 3609 3500
L 1753 1863
L 3688 0
L 2938 0
L 1159 1709
L 1159 0
L 581 0
L 581 4863
z
" transform="scale(0.015625)"/>
       <path id="DejaVuSans-56" d="M 1831 0
L 50 4666
L 709 4666
L 2188 738
L 3669 4666
L 4325 4666
L 2547 0
L 1831 0
z
" transform="scale(0.015625)"/>
      </defs>
      <use xlink:href="#DejaVuSans-Oblique-54" transform="translate(0 0.015625)"/>
      <use xlink:href="#DejaVuSans-Oblique-69" transform="translate(61.083984 -16.390625) scale(0.7)"/>
      <use xlink:href="#DejaVuSans-20" transform="translate(83.266602 0.015625)"/>
      <use xlink:href="#DejaVuSans-5b" transform="translate(115.053711 0.015625)"/>
      <use xlink:href="#DejaVuSans-6b" transform="translate(154.067383 0.015625)"/>
      <use xlink:href="#DejaVuSans-65" transform="translate(211.977539 0.015625)"/>
      <use xlink:href="#DejaVuSans-56" transform="translate(273.500977 0.015625)"/>
      <use xlink:href="#DejaVuSans-5d" transform="translate(341.90918 0.015625)"/>
     </g>
    </g>
   </g>
   <g id="line2d_24">
    <path d="M 73.832727 53.568
L 79.68822 53.673709
L 85.543713 53.990731
L 91.399206 54.518759
L 97.254698 55.257277
L 103.110191 56.205561
L 108.965684 57.362678
L 114.821177 58.727486
L 121.32728 60.48587
L 127.833383 62.496806
L 134.339486 64.757787
L 140.845589 67.265959
L 147.351692 70.018122
L 153.857796 73.010718
L 160.363899 76.239818
L 166.870002 79.701116
L 174.026715 83.771109
L 181.183429 88.10954
L 188.340142 92.708957
L 195.496856 97.561259
L 203.304179 103.132741
L 211.111503 108.982292
L 218.918827 115.096402
L 227.376761 122.001493
L 236.485305 129.742232
L 245.59385 137.771357
L 255.353004 146.658821
L 266.413379 157.034985
L 279.425586 169.56392
L 298.293285 188.085934
L 319.112815 208.45855
L 330.17319 218.960256
L 338.631124 226.696205
L 345.787837 232.95732
L 352.293941 238.351116
L 358.149433 242.896424
L 363.354316 246.62812
L 367.908588 249.59609
L 371.81225 251.864143
L 375.065302 253.508887
L 377.667743 254.618581
L 380.270184 255.47691
L 381.571405 255.764172
L 382.222015 255.841301
L 384.824456 262.11883
L 398.487273 295.488
L 398.487273 295.488
" clip-path="url(#p55dcb5d6fc)" style="fill: none; stroke: #ff0000; stroke-width: 1.5; stroke-linecap: square"/>
   </g>
   <g id="patch_8">
    <path d="M 57.6 307.584
L 57.6 41.472
" style="fill: none; stroke: #000000; stroke-width: 0.8; stroke-linejoin: miter; stroke-linecap: square"/>
   </g>
   <g id="patch_9">
    <path d="M 414.72 307.584
L 414.72 41.472
" style="fill: none; stroke: #000000; stroke-width: 0.8; stroke-linejoin: miter; stroke-linecap: square"/>
   </g>
   <g id="patch_10">
    <path d="M 57.6 307.584
L 414.72 307.584
" style="fill: none; stroke: #000000; stroke-width: 0.8; stroke-linejoin: miter; stroke-linecap: square"/>
   </g>
   <g id="patch_11">
    <path d="M 57.6 41.472
L 414.72 41.472
" style="fill: none; stroke: #000000; stroke-width: 0.8; stroke-linejoin: miter; stroke-linecap: square"/>
   </g>
   <g id="legend_2">
    <g id="patch_12">
     <path d="M 367.32 64.150125
L 407.72 64.150125
Q 409.72 64.150125 409.72 62.150125
L 409.72 48.472
Q 409.72 46.472 407.72 46.472
L 367.32 46.472
Q 365.32 46.472 365.32 48.472
L 365.32 62.150125
Q 365.32 64.150125 367.32 64.150125
z
" style="fill: #ffffff; opacity: 0.8; stroke: #cccccc; stroke-linejoin: miter"/>
    </g>
    <g id="line2d_25">
     <path d="M 369.32 54.570438
L 379.32 54.570438
L 389.32 54.570438
" style="fill: none; stroke: #ff0000; stroke-width: 1.5; stroke-linecap: square"/>
    </g>
    <g id="text_26">
     <!-- $T_{i}$ -->
     <g transform="translate(397.32 58.070438) scale(0.1 -0.1)">
      <use xlink:href="#DejaVuSans-Oblique-54" transform="translate(0 0.09375)"/>
      <use xlink:href="#DejaVuSans-Oblique-69" transform="translate(61.083984 -16.3125) scale(0.7)"/>
     </g>
    </g>
   </g>
  </g>
 </g>
 <defs>
  <clipPath id="p55dcb5d6fc">
   <rect x="57.6" y="41.472" width="357.12" height="266.112"/>
  </clipPath>
 </defs>
</svg>
