<svg width="81" height="82" viewBox="0 0 81 82" fill="none" xmlns="http://www.w3.org/2000/svg">
<path d="M37.1903 20.392L39.3972 19.3486C41.1089 21.6171 43.5785 23.9859 45.6692 25.1452C47.7599 26.3046 49.9668 27.0002 49.9668 27.0002C51.5088 27.5965 54.6128 25.8408 54.6128 25.8408L62.7433 20.392C62.7433 20.392 64.4365 24.3053 65.9955 25.8408C60.227 29.6729 53.1408 33.0353 50.6637 33.8401C48.3182 34.6022 38.4529 28.366 37.9896 27.1545C37.3106 34.6678 35.9026 37.8435 34.635 45.5493C32.5019 40.1382 31.3026 37.1706 29.0598 33.8401C31.4456 32.1395 33.2249 29.2843 34.635 28.0435C36.0451 26.8027 37.7119 20.2478 37.1903 20.392Z" fill="black"/>
<path d="M40.54 15.183C39.8672 15.183 39.0822 16.3423 39.0822 16.3423C39.0822 16.3423 39.4186 14.7193 40.4279 14.7193C41.4372 14.7193 43.2315 15.067 44.1287 14.7193C45.0258 14.3715 45.5865 13.3281 45.5865 13.3281C45.5865 13.3281 45.4704 14.2555 45.2381 14.4874C45.2381 14.4874 44.8896 14.9511 44.5412 15.183C44.1927 15.4148 41.2129 15.183 40.54 15.183Z" fill="black"/>
<path d="M71.3062 22.4234L70.1912 23.0454L70.5473 22.4234C70.5473 22.4234 70.7487 22.0152 70.0797 21.0421C70.0797 21.0421 68.9646 19.7066 66.846 17.9259C66.3157 17.5099 65.8937 17.4744 65.508 18.1634C65.6546 17.8522 65.8013 17.5154 65.954 17.1468L66.1983 17.3601C66.4111 17.5431 66.6649 17.7581 66.846 17.9259C68.9646 19.7066 70.0797 21.0421 70.0797 21.0421L71.3062 22.4234Z" fill="black"/>
<path d="M62.8319 21.4864C64.1326 20.5206 64.8194 19.6249 65.508 18.1634M65.954 17.1468C66.1771 17.3476 66.5864 17.6854 66.846 17.9259M65.954 17.1468C65.8013 17.5154 65.6546 17.8522 65.508 18.1634M65.954 17.1468L66.846 17.9259M70.0797 21.0421C70.0797 21.0421 70.0797 21.0421 71.3062 22.4234L70.1912 23.0454L70.5473 22.4234C70.5473 22.4234 70.7487 22.0152 70.0797 21.0421ZM70.0797 21.0421C70.0797 21.0421 68.9646 19.7066 66.846 17.9259M66.846 17.9259C66.3157 17.5099 65.8937 17.4744 65.508 18.1634" stroke="black" stroke-width="0.5" stroke-linecap="round"/>
<path d="M38.8428 19.8203L39.0822 16.3423L37.4068 17.2698L35.1331 15.4148V19.5884L37.4068 18.3132L38.8428 19.8203Z" fill="black"/>
<path d="M34.302 11.5854C34.302 12.6288 33.1405 13.7881 33.1405 13.7881C33.1405 13.7881 33.4957 13.4415 33.4889 11.5854C33.4822 9.7292 32.792 8.4552 33.1405 6.83215C33.4889 5.2091 35.6957 3.23825 36.8573 2.54266C38.0188 1.84707 41.8517 2.31081 43.0132 3.00636L43.0159 3.00798C44.1761 3.70276 45.0928 4.25169 45.8008 6.13656C44.7503 5.03086 43.3616 4.28164 42.2001 3.93385C41.0387 3.58605 38.7157 3.47012 37.438 3.93385C36.1604 4.39757 34.302 6.13652 34.302 7.41177V11.5854Z" fill="black"/>
<path d="M66.7968 17.338C66.7826 17.3432 66.7699 17.346 66.7589 17.3464C66.7715 17.3436 66.7841 17.3408 66.7968 17.338C67.3495 17.1363 70.2564 13.4172 70.708 12.941C71.1712 12.4526 70.8864 10.7104 70.708 10.1586C70.5296 9.60691 71.8777 11.0687 71.9857 12.5932C71.9857 12.5932 72.3341 12.4773 72.7987 11.7817C73.2633 11.0861 73.1472 8.76746 73.4956 9.23119C73.8441 9.69492 73.8441 10.9702 73.8441 10.9702L80 1C80 1 74.4248 13.6366 73.4956 14.2163C72.5664 14.7959 72.0596 14.0585 70.708 15.4915C69.3712 16.9088 67.9389 17.0845 66.7968 17.338Z" fill="black"/>
<path d="M66.7589 17.3464C67.1982 17.3298 70.2448 13.4295 70.708 12.941C71.1712 12.4526 70.8864 10.7104 70.708 10.1586C70.5296 9.60691 71.8777 11.0687 71.9857 12.5932C71.9857 12.5932 72.3341 12.4773 72.7987 11.7817C73.2633 11.0861 73.1472 8.76746 73.4956 9.23119C73.8441 9.69492 73.8441 10.9702 73.8441 10.9702L80 1C80 1 74.4248 13.6366 73.4956 14.2163C72.5664 14.7959 72.0596 14.0585 70.708 15.4915C69.3564 16.9245 67.9071 17.0882 66.7589 17.3464Z" stroke="black" stroke-width="0.5"/>
<path d="M73.3599 17.5517C73.5922 17.2039 73.5922 15.9287 73.5922 15.9287C73.5922 15.9287 73.2767 14.4848 74.986 13.726C76.6954 12.9671 76.2293 14.1732 75.5668 14.3056C75.5668 14.3056 74.8651 15.0562 74.7537 15.349C74.6424 15.6418 74.634 16.8209 74.7537 17.8995C74.8735 18.9782 73.3599 20.1022 73.3599 20.1022C72.7792 19.9863 73.1276 17.8995 73.3599 17.5517Z" fill="black" stroke="black" stroke-width="0.5"/>
<path fill-rule="evenodd" clip-rule="evenodd" d="M28.5432 31.9052H28.5432C22.8174 32.0872 2.17394 32.7434 21.6269 81.4513C21.6269 81.4513 5.48254 49.6736 5.48254 40.0486C5.48254 30.4235 12.1737 23.1027 12.1737 23.1027C12.1737 23.1027 3.29503 19.7428 1.21687 18.4298C-0.861298 17.1169 0.123102 14.8252 1.21687 14.534C1.54608 14.4463 2.31132 14.4897 3.4201 14.5526C5.99502 14.6987 10.4227 14.9498 15.5452 13.9086C20.841 12.8321 22.4811 11.8753 23.7678 11.1247C24.2616 10.8366 24.7033 10.5789 25.2797 10.3565C27.3578 9.5544 28.1873 10.3565 28.1873 10.3565C36.1626 15.7276 32.0958 31.1741 29.7715 31.8138C29.5564 31.873 29.1274 31.8867 28.5432 31.9052ZM30.6342 21.9948C30.3988 21.2922 27.5415 19.5975 27.5415 19.5975C27.5415 19.5975 21.5276 18.8184 19.9593 19.2636C19.0875 19.511 18.1858 20.2279 17.2696 20.9563L17.2696 20.9564C16.5374 21.5384 15.7959 22.1279 15.0531 22.4911C13.3805 23.309 12.1738 23.1027 12.1738 23.1027C12.1738 23.1027 16.8372 26.07 16.9487 26.3604C17.0041 26.5048 17.1148 26.0922 17.2395 25.6275C17.3654 25.1581 17.5056 24.6356 17.6177 24.5796C17.8407 24.4683 19.5132 25.6484 19.5132 25.6484C19.5132 25.6484 19.9593 22.4911 20.5168 21.9948C20.9431 21.6153 21.7605 22.1216 22.321 22.4688C22.4936 22.5757 22.6419 22.6675 22.7469 22.7137C23.1929 22.9102 25.0884 22.7137 25.0884 22.7137C26.3261 22.784 27.4238 23.6277 27.5415 24.0493C27.5904 24.2242 27.636 24.4981 27.6811 24.7688L27.6811 24.7688C27.7447 25.1503 27.8071 25.5252 27.876 25.6074C27.9937 25.7479 28.1981 25.8884 28.4335 25.6074C28.5406 25.4796 28.5003 25.1446 28.4578 24.7909C28.4067 24.3668 28.3525 23.9158 28.545 23.7626C28.835 23.5318 28.8701 23.5853 28.9386 23.6896C28.9535 23.7123 28.97 23.7375 28.9911 23.7626C29.2004 24.1085 29.2462 24.6621 29.2868 25.1521V25.1521C29.3194 25.5464 29.3486 25.8995 29.457 26.07C29.6041 26.3016 29.7458 26.0979 29.8608 25.9325C29.9356 25.8249 29.9992 25.7336 30.0456 25.7889C30.1045 25.8592 30.1045 25.8944 30.1045 25.9295C30.1045 25.9646 30.1045 25.9998 30.1633 26.07C30.281 26.2105 30.6556 26.0065 30.7519 25.6484C30.7519 25.6484 30.8697 22.6974 30.6342 21.9948ZM20 18.9513L16 18.4513L10.6616 17.7396C11.8642 17.8935 13.1275 18.0471 14.3318 18.1935C16.8319 18.4975 19.0779 18.7706 20 18.9513ZM8.5 17.4513L10.6616 17.7396C9.90738 17.643 9.17703 17.5464 8.5 17.4513Z" fill="black"/>
</svg>
