<?xml version="1.0" encoding="UTF-8"?>
<svg id="Keine" xmlns="http://www.w3.org/2000/svg" viewBox="0 0 1200 178.05">
  <defs>
    <style>
      .cls-1 {
        fill: #5999ff;
      }

      .cls-2 {
        fill-rule: evenodd;
      }

      .cls-2, .cls-3 {
        fill: #002673;
      }
    </style>
  </defs>
  <g id="MTEXT">
    <g>
      <path class="cls-3" d="M353.97,84.24c1.03,0,1.88.36,2.55,1.07.67.71,1.01,1.58,1.01,2.61v53.36c0,.95-.36,1.78-1.07,2.49-.71.71-1.54,1.07-2.49,1.07-1.11,0-1.98-.36-2.61-1.07-.63-.71-.95-1.54-.95-2.49v-14.11l2.02-.83c0,2.13-.61,4.37-1.84,6.7-1.23,2.33-2.91,4.47-5.04,6.4-2.13,1.94-4.65,3.52-7.53,4.74-2.89,1.22-5.99,1.84-9.31,1.84-5.38,0-10.18-1.38-14.41-4.15-4.23-2.77-7.55-6.56-9.96-11.38-2.41-4.82-3.62-10.24-3.62-16.25s1.23-11.6,3.68-16.3c2.45-4.7,5.77-8.4,9.96-11.09,4.19-2.69,8.89-4.03,14.11-4.03,3.4,0,6.58.59,9.55,1.78,2.96,1.19,5.55,2.81,7.77,4.86,2.21,2.06,3.95,4.41,5.22,7.06,1.26,2.65,1.9,5.4,1.9,8.24l-2.49-1.78v-15.06c0-1.03.31-1.9.95-2.61.63-.71,1.5-1.07,2.61-1.07ZM329.31,139.38c4.19,0,7.9-1.09,11.15-3.26,3.24-2.17,5.79-5.18,7.65-9.01,1.86-3.83,2.79-8.12,2.79-12.87s-.93-8.75-2.79-12.51c-1.86-3.75-4.41-6.72-7.65-8.89-3.24-2.17-6.96-3.26-11.15-3.26s-7.81,1.05-11.09,3.14c-3.28,2.1-5.85,5-7.71,8.72-1.86,3.72-2.79,7.99-2.79,12.81s.93,9.03,2.79,12.87c1.86,3.84,4.41,6.84,7.65,9.01,3.24,2.18,6.96,3.26,11.15,3.26Z"/>
      <path class="cls-3" d="M429.5,57.09c1.03,0,1.88.36,2.55,1.07.67.71,1.01,1.54,1.01,2.49v80.63c0,.95-.36,1.78-1.07,2.49-.71.71-1.54,1.07-2.49,1.07-1.11,0-1.98-.36-2.61-1.07-.63-.71-.95-1.54-.95-2.49v-14.11l2.02-1.66c0,2.29-.59,4.64-1.78,7.06-1.19,2.41-2.87,4.62-5.04,6.64-2.18,2.02-4.7,3.66-7.59,4.92-2.89,1.26-5.99,1.9-9.31,1.9-5.3,0-10.06-1.38-14.29-4.15-4.23-2.77-7.57-6.52-10.02-11.26-2.45-4.74-3.68-10.16-3.68-16.25s1.23-11.4,3.68-16.19c2.45-4.78,5.77-8.54,9.96-11.26,4.19-2.73,8.89-4.09,14.11-4.09,3.32,0,6.44.59,9.37,1.78,2.92,1.19,5.51,2.81,7.77,4.86,2.25,2.06,4.03,4.41,5.34,7.06,1.3,2.65,1.96,5.4,1.96,8.24l-2.49-1.78v-42.33c0-.95.31-1.78.95-2.49.63-.71,1.5-1.07,2.61-1.07ZM404.84,139.38c4.27,0,8-1.09,11.21-3.26,3.2-2.17,5.73-5.14,7.59-8.89,1.86-3.75,2.79-8.04,2.79-12.87s-.93-8.99-2.79-12.75c-1.86-3.75-4.41-6.7-7.65-8.83-3.24-2.13-6.96-3.2-11.15-3.2s-7.81,1.07-11.09,3.2c-3.28,2.13-5.85,5.08-7.71,8.83-1.86,3.76-2.79,8-2.79,12.75s.93,9.01,2.79,12.81c1.86,3.79,4.43,6.78,7.71,8.95,3.28,2.18,6.98,3.26,11.09,3.26Z"/>
      <path class="cls-3" d="M505.04,84.24c1.03,0,1.88.36,2.55,1.07.67.71,1.01,1.58,1.01,2.61v53.36c0,.95-.36,1.78-1.07,2.49-.71.71-1.54,1.07-2.49,1.07-1.11,0-1.98-.36-2.61-1.07-.63-.71-.95-1.54-.95-2.49v-14.11l2.02-.83c0,2.13-.61,4.37-1.84,6.7-1.23,2.33-2.91,4.47-5.04,6.4-2.13,1.94-4.65,3.52-7.53,4.74-2.89,1.22-5.99,1.84-9.31,1.84-5.38,0-10.18-1.38-14.41-4.15-4.23-2.77-7.55-6.56-9.96-11.38-2.41-4.82-3.62-10.24-3.62-16.25s1.23-11.6,3.68-16.3c2.45-4.7,5.77-8.4,9.96-11.09,4.19-2.69,8.89-4.03,14.11-4.03,3.4,0,6.58.59,9.55,1.78,2.96,1.19,5.55,2.81,7.77,4.86,2.21,2.06,3.95,4.41,5.22,7.06,1.26,2.65,1.9,5.4,1.9,8.24l-2.49-1.78v-15.06c0-1.03.31-1.9.95-2.61.63-.71,1.5-1.07,2.61-1.07ZM480.37,139.38c4.19,0,7.9-1.09,11.15-3.26,3.24-2.17,5.79-5.18,7.65-9.01,1.86-3.83,2.79-8.12,2.79-12.87s-.93-8.75-2.79-12.51c-1.86-3.75-4.41-6.72-7.65-8.89-3.24-2.17-6.96-3.26-11.15-3.26s-7.81,1.05-11.09,3.14c-3.28,2.1-5.85,5-7.71,8.72-1.86,3.72-2.79,7.99-2.79,12.81s.93,9.03,2.79,12.87c1.86,3.84,4.41,6.84,7.65,9.01,3.24,2.18,6.96,3.26,11.15,3.26Z"/>
      <path class="cls-3" d="M559.7,83.77c5.38,0,10.14,1.32,14.29,3.97,4.15,2.65,7.45,6.28,9.9,10.91,2.45,4.62,3.68,9.94,3.68,15.95s-1.23,11.34-3.68,16.01c-2.45,4.67-5.77,8.34-9.96,11.03-4.19,2.69-8.89,4.03-14.11,4.03-2.77,0-5.4-.42-7.89-1.25s-4.76-1.96-6.82-3.38c-2.06-1.42-3.87-3.1-5.45-5.04-1.58-1.94-2.85-4.01-3.79-6.23l2.13-1.66v36.88c0,.95-.34,1.78-1.01,2.49-.67.71-1.52,1.07-2.55,1.07s-1.9-.36-2.61-1.07c-.71-.71-1.07-1.54-1.07-2.49v-77.31c0-1.03.34-1.9,1.01-2.61.67-.71,1.56-1.07,2.67-1.07,1.03,0,1.88.36,2.55,1.07.67.71,1.01,1.58,1.01,2.61v12.81l-1.66-.95c.79-2.45,1.96-4.64,3.5-6.58,1.54-1.94,3.34-3.6,5.4-4.98,2.05-1.38,4.31-2.43,6.76-3.14,2.45-.71,5.02-1.07,7.71-1.07ZM559.11,90.41c-4.27,0-8.02,1.05-11.26,3.14-3.24,2.1-5.79,4.94-7.65,8.54-1.86,3.6-2.79,7.77-2.79,12.51s.93,8.85,2.79,12.57c1.86,3.72,4.41,6.62,7.65,8.72,3.24,2.09,7,3.14,11.26,3.14s7.89-1.05,11.09-3.14c3.2-2.09,5.73-5,7.59-8.72,1.86-3.71,2.79-7.9,2.79-12.57s-.93-8.81-2.79-12.45c-1.86-3.64-4.39-6.5-7.59-8.6-3.2-2.09-6.9-3.14-11.09-3.14Z"/>
      <path class="cls-3" d="M602.5,84.48h27.63c.95,0,1.74.34,2.37,1.01.63.67.95,1.48.95,2.43s-.32,1.74-.95,2.37c-.63.63-1.42.95-2.37.95h-27.63c-.95,0-1.76-.34-2.43-1.01-.67-.67-1.01-1.48-1.01-2.43s.34-1.74,1.01-2.37c.67-.63,1.48-.95,2.43-.95ZM614.72,67.76c1.03,0,1.88.36,2.55,1.07.67.71,1.01,1.54,1.01,2.49v59.53c0,2.21.29,3.87.89,4.98.59,1.11,1.36,1.84,2.31,2.19s1.9.53,2.85.53c.63,0,1.2-.1,1.72-.3.51-.2,1.09-.3,1.72-.3.71,0,1.32.28,1.84.83.51.55.77,1.27.77,2.13,0,1.11-.63,2.04-1.9,2.79-1.27.75-2.77,1.13-4.51,1.13-.71,0-1.78-.06-3.2-.18-1.42-.12-2.89-.55-4.39-1.3-1.5-.75-2.77-2.08-3.79-3.97-1.03-1.9-1.54-4.62-1.54-8.18v-59.88c0-.95.36-1.78,1.07-2.49.71-.71,1.58-1.07,2.61-1.07Z"/>
      <path class="cls-3" d="M653.61,75.23c-1.66,0-2.91-.37-3.74-1.13-.83-.75-1.25-1.84-1.25-3.26v-1.19c0-1.42.45-2.51,1.36-3.26.91-.75,2.15-1.13,3.74-1.13,1.5,0,2.67.38,3.5,1.13.83.75,1.25,1.84,1.25,3.26v1.19c0,1.42-.42,2.51-1.25,3.26-.83.75-2.04,1.13-3.62,1.13ZM657.17,141.28c0,.95-.36,1.78-1.07,2.49-.71.71-1.54,1.07-2.49,1.07-1.11,0-1.98-.36-2.61-1.07-.63-.71-.95-1.54-.95-2.49v-54.54c0-.95.33-1.78,1.01-2.49.67-.71,1.52-1.07,2.55-1.07s1.88.36,2.55,1.07c.67.71,1.01,1.54,1.01,2.49v54.54Z"/>
      <path class="cls-3" d="M677.92,82.94c.63,0,1.26.2,1.9.59.63.4,1.11.99,1.42,1.78l20.75,49.33-1.54.95,21.22-50.28c.63-1.58,1.78-2.33,3.44-2.25.79,0,1.54.28,2.25.83.71.55,1.07,1.27,1.07,2.13,0,.47-.06.87-.18,1.19-.12.32-.22.59-.3.83l-23.24,54.55c-.63,1.42-1.7,2.17-3.2,2.25-.71.08-1.42-.1-2.13-.53-.71-.43-1.19-1.01-1.42-1.72l-23.36-54.43c-.08-.24-.16-.51-.24-.83-.08-.31-.12-.63-.12-.95,0-.87.32-1.66.95-2.37.63-.71,1.54-1.07,2.73-1.07Z"/>
      <path class="cls-3" d="M773.13,146.02c-6.09,0-11.46-1.3-16.13-3.91-4.67-2.61-8.3-6.24-10.91-10.91-2.61-4.66-3.91-10.12-3.91-16.36,0-6.72,1.32-12.45,3.97-17.19,2.65-4.74,6.09-8.4,10.32-10.97,4.23-2.57,8.72-3.85,13.46-3.85,3.48,0,6.86.61,10.14,1.84,3.28,1.23,6.21,3.04,8.78,5.45,2.57,2.41,4.62,5.36,6.17,8.83,1.54,3.48,2.39,7.51,2.55,12.09-.08.95-.47,1.76-1.19,2.43-.71.67-1.54,1.01-2.49,1.01h-47.55l-1.42-6.4h46.72l-1.54,1.42v-2.37c-.4-3.71-1.62-6.86-3.68-9.43-2.06-2.57-4.53-4.54-7.41-5.93-2.89-1.38-5.91-2.07-9.07-2.07-2.37,0-4.8.47-7.29,1.42s-4.74,2.43-6.76,4.45c-2.02,2.02-3.66,4.58-4.92,7.71-1.27,3.12-1.9,6.82-1.9,11.09,0,4.67.95,8.89,2.85,12.69,1.9,3.79,4.64,6.8,8.24,9.01,3.6,2.21,7.89,3.32,12.87,3.32,2.77,0,5.24-.4,7.41-1.19,2.17-.79,4.11-1.84,5.81-3.14,1.7-1.3,3.1-2.67,4.21-4.09.87-.71,1.7-1.07,2.49-1.07.87,0,1.6.32,2.19.95.59.63.89,1.34.89,2.13,0,.95-.4,1.78-1.19,2.49-2.37,2.85-5.46,5.32-9.25,7.41-3.79,2.09-7.95,3.14-12.45,3.14Z"/>
      <path class="cls-3" d="M812.5,84.48h27.63c.95,0,1.74.34,2.37,1.01.63.67.95,1.48.95,2.43s-.32,1.74-.95,2.37c-.63.63-1.42.95-2.37.95h-27.63c-.95,0-1.76-.34-2.43-1.01-.67-.67-1.01-1.48-1.01-2.43s.34-1.74,1.01-2.37c.67-.63,1.48-.95,2.43-.95ZM824.71,67.76c1.03,0,1.88.36,2.55,1.07.67.71,1.01,1.54,1.01,2.49v59.53c0,2.21.3,3.87.89,4.98.59,1.11,1.36,1.84,2.31,2.19.95.36,1.9.53,2.85.53.63,0,1.2-.1,1.72-.3.51-.2,1.09-.3,1.72-.3.71,0,1.32.28,1.84.83.51.55.77,1.27.77,2.13,0,1.11-.63,2.04-1.9,2.79-1.27.75-2.77,1.13-4.51,1.13-.71,0-1.78-.06-3.2-.18-1.42-.12-2.89-.55-4.39-1.3-1.5-.75-2.77-2.08-3.79-3.97-1.03-1.9-1.54-4.62-1.54-8.18v-59.88c0-.95.36-1.78,1.07-2.49.71-.71,1.58-1.07,2.61-1.07Z"/>
      <path class="cls-3" d="M887.67,146.02c-6.09,0-11.46-1.3-16.13-3.91-4.67-2.61-8.3-6.24-10.91-10.91-2.61-4.66-3.91-10.12-3.91-16.36,0-6.72,1.32-12.45,3.97-17.19,2.65-4.74,6.09-8.4,10.32-10.97,4.23-2.57,8.72-3.85,13.46-3.85,3.48,0,6.86.61,10.14,1.84,3.28,1.23,6.21,3.04,8.78,5.45,2.57,2.41,4.62,5.36,6.17,8.83,1.54,3.48,2.39,7.51,2.55,12.09-.08.95-.47,1.76-1.19,2.43-.71.67-1.54,1.01-2.49,1.01h-47.55l-1.42-6.4h46.72l-1.54,1.42v-2.37c-.4-3.71-1.62-6.86-3.68-9.43-2.06-2.57-4.53-4.54-7.41-5.93-2.89-1.38-5.91-2.07-9.07-2.07-2.37,0-4.8.47-7.29,1.42s-4.74,2.43-6.76,4.45c-2.02,2.02-3.66,4.58-4.92,7.71-1.27,3.12-1.9,6.82-1.9,11.09,0,4.67.95,8.89,2.85,12.69,1.9,3.79,4.64,6.8,8.24,9.01,3.6,2.21,7.89,3.32,12.87,3.32,2.77,0,5.24-.4,7.41-1.19,2.17-.79,4.11-1.84,5.81-3.14,1.7-1.3,3.1-2.67,4.21-4.09.87-.71,1.7-1.07,2.49-1.07.87,0,1.6.32,2.19.95.59.63.89,1.34.89,2.13,0,.95-.4,1.78-1.19,2.49-2.37,2.85-5.46,5.32-9.25,7.41-3.79,2.09-7.95,3.14-12.45,3.14Z"/>
      <path class="cls-3" d="M927.51,135.23c-.63-.95-.93-1.88-.89-2.79.04-.91.53-1.64,1.48-2.19.63-.55,1.36-.79,2.19-.71.83.08,1.6.47,2.31,1.19,2.13,2.77,4.72,5,7.77,6.7,3.04,1.7,6.66,2.55,10.85,2.55,2.21,0,4.41-.38,6.58-1.13,2.17-.75,3.97-1.9,5.39-3.44,1.42-1.54,2.13-3.5,2.13-5.87s-.71-4.41-2.13-5.87c-1.42-1.46-3.26-2.65-5.51-3.56-2.25-.91-4.68-1.68-7.29-2.31-2.69-.71-5.28-1.52-7.77-2.43-2.49-.91-4.72-2.05-6.7-3.44-1.98-1.38-3.54-3.06-4.68-5.04-1.15-1.98-1.72-4.39-1.72-7.23,0-3.32.89-6.24,2.67-8.77,1.78-2.53,4.25-4.51,7.41-5.93,3.16-1.42,6.68-2.13,10.55-2.13,2.05,0,4.23.26,6.52.77,2.29.52,4.54,1.36,6.76,2.55,2.21,1.19,4.19,2.81,5.93,4.86.71.71,1.07,1.52,1.07,2.43s-.4,1.76-1.19,2.55c-.63.47-1.36.69-2.19.65-.83-.04-1.52-.38-2.08-1.01-1.9-2.13-4.15-3.73-6.76-4.8-2.61-1.07-5.42-1.6-8.42-1.6-2.29,0-4.45.36-6.46,1.07s-3.7,1.82-5.04,3.32c-1.35,1.5-2.02,3.48-2.02,5.93.16,2.29.97,4.15,2.43,5.57,1.46,1.42,3.4,2.61,5.81,3.56,2.41.95,5.12,1.82,8.12,2.61,2.53.63,4.96,1.38,7.29,2.25,2.33.87,4.39,1.96,6.17,3.26,1.78,1.3,3.2,2.95,4.27,4.92,1.07,1.98,1.6,4.47,1.6,7.47,0,3.48-.97,6.48-2.91,9.01-1.94,2.53-4.53,4.47-7.77,5.81-3.24,1.34-6.84,2.02-10.79,2.02-4.27,0-8.4-.83-12.39-2.49-3.99-1.66-7.53-4.43-10.61-8.3Z"/>
      <path class="cls-3" d="M986.33,84.48h27.63c.95,0,1.74.34,2.37,1.01.63.67.95,1.48.95,2.43s-.32,1.74-.95,2.37c-.63.63-1.42.95-2.37.95h-27.63c-.95,0-1.76-.34-2.43-1.01-.67-.67-1.01-1.48-1.01-2.43s.34-1.74,1.01-2.37c.67-.63,1.48-.95,2.43-.95ZM998.54,67.76c1.03,0,1.88.36,2.55,1.07.67.71,1.01,1.54,1.01,2.49v59.53c0,2.21.3,3.87.89,4.98.59,1.11,1.36,1.84,2.31,2.19.95.36,1.9.53,2.85.53.63,0,1.2-.1,1.72-.3.51-.2,1.09-.3,1.72-.3.71,0,1.32.28,1.84.83.51.55.77,1.27.77,2.13,0,1.11-.63,2.04-1.9,2.79-1.27.75-2.77,1.13-4.51,1.13-.71,0-1.78-.06-3.2-.18-1.42-.12-2.89-.55-4.39-1.3-1.5-.75-2.77-2.08-3.79-3.97-1.03-1.9-1.54-4.62-1.54-8.18v-59.88c0-.95.36-1.78,1.07-2.49.71-.71,1.58-1.07,2.61-1.07Z"/>
      <path class="cls-3" d="M1037.43,75.23c-1.66,0-2.91-.37-3.74-1.13-.83-.75-1.25-1.84-1.25-3.26v-1.19c0-1.42.45-2.51,1.36-3.26.91-.75,2.15-1.13,3.74-1.13,1.5,0,2.67.38,3.5,1.13.83.75,1.25,1.84,1.25,3.26v1.19c0,1.42-.42,2.51-1.25,3.26-.83.75-2.04,1.13-3.62,1.13ZM1040.99,141.28c0,.95-.36,1.78-1.07,2.49-.71.71-1.54,1.07-2.49,1.07-1.11,0-1.98-.36-2.61-1.07-.63-.71-.95-1.54-.95-2.49v-54.54c0-.95.33-1.78,1.01-2.49.67-.71,1.52-1.07,2.55-1.07s1.88.36,2.55,1.07c.67.71,1.01,1.54,1.01,2.49v54.54Z"/>
      <path class="cls-3" d="M1091.74,82.82c5.22,0,9.39,1.05,12.51,3.14,3.12,2.1,5.38,4.94,6.76,8.54,1.38,3.6,2.07,7.57,2.07,11.92v34.86c0,.95-.36,1.78-1.07,2.49s-1.54,1.07-2.49,1.07c-1.11,0-2-.36-2.67-1.07-.67-.71-1.01-1.54-1.01-2.49v-34.51c0-3.16-.52-6.05-1.54-8.66-1.03-2.61-2.69-4.68-4.98-6.23-2.29-1.54-5.34-2.31-9.13-2.31-3.4,0-6.62.77-9.66,2.31-3.04,1.54-5.51,3.62-7.41,6.23-1.9,2.61-2.85,5.5-2.85,8.66v34.51c0,.95-.36,1.78-1.07,2.49-.71.71-1.54,1.07-2.49,1.07-1.11,0-2-.36-2.67-1.07-.67-.71-1.01-1.54-1.01-2.49v-53.12c0-.95.36-1.78,1.07-2.49.71-.71,1.58-1.07,2.61-1.07s1.88.36,2.55,1.07c.67.71,1.01,1.54,1.01,2.49v9.96l-2.73,4.27c.16-2.53.97-4.96,2.43-7.29,1.46-2.33,3.34-4.43,5.63-6.28,2.29-1.86,4.84-3.32,7.65-4.39,2.8-1.07,5.63-1.6,8.48-1.6Z"/>
      <path class="cls-3" d="M1160.63,82.82c3.48,0,6.72.61,9.72,1.84,3,1.23,5.63,2.81,7.89,4.74,2.25,1.94,4.01,3.99,5.28,6.17,1.26,2.17,1.9,4.25,1.9,6.22l-1.9-2.85v-11.03c0-1.03.34-1.9,1.01-2.61.67-.71,1.52-1.07,2.55-1.07,1.11,0,1.97.36,2.61,1.07.63.71.95,1.58.95,2.61v51.46c0,6.24-1.3,11.54-3.91,15.89-2.61,4.35-6.15,7.65-10.61,9.9-4.47,2.25-9.54,3.38-15.24,3.38-2.77,0-5.67-.36-8.71-1.07-3.04-.71-5.65-1.62-7.83-2.73-2.18-1.11-3.38-2.25-3.62-3.44-.63-.71-.93-1.4-.89-2.08.04-.67.37-1.25,1.01-1.72.71-.55,1.52-.61,2.43-.18.91.43,2.23,1.01,3.97,1.72.71.24,1.76.59,3.14,1.07,1.38.47,3,.89,4.86,1.25,1.86.36,3.81.53,5.87.53,7.04,0,12.53-2.04,16.48-6.11,3.95-4.07,5.93-9.39,5.93-15.95v-11.38l1.3.36c-.71,2.77-1.9,5.22-3.56,7.35-1.66,2.13-3.58,3.93-5.75,5.4-2.17,1.46-4.55,2.57-7.11,3.32-2.57.75-5.12,1.13-7.65,1.13-5.46,0-10.38-1.38-14.76-4.15-4.39-2.77-7.85-6.52-10.38-11.26-2.53-4.74-3.79-10.16-3.79-16.25s1.26-11.4,3.79-16.19c2.53-4.78,5.97-8.54,10.32-11.26,4.35-2.73,9.25-4.09,14.7-4.09ZM1161.46,89.58c-4.35,0-8.24,1.07-11.68,3.2-3.44,2.13-6.13,5.08-8.06,8.83-1.94,3.76-2.91,8-2.91,12.75s.97,9.01,2.91,12.81c1.94,3.79,4.62,6.78,8.06,8.95,3.44,2.18,7.33,3.26,11.68,3.26s8.1-1.07,11.5-3.2c3.4-2.13,6.09-5.08,8.06-8.83,1.98-3.75,2.96-8.08,2.96-12.98s-.99-9.21-2.96-12.92c-1.98-3.71-4.67-6.62-8.06-8.72-3.4-2.09-7.23-3.14-11.5-3.14Z"/>
    </g>
  </g>
  <g id="HATCH">
    <rect class="cls-3" x="75.17" y="62.46" width="29.71" height="29.71" rx="3.46" ry="3.46"/>
  </g>
  <g id="HATCH-2" data-name="HATCH">
    <rect class="cls-3" x="118.11" y="62.46" width="29.71" height="29.71" rx="3.46" ry="3.46"/>
  </g>
  <g id="HATCH-3" data-name="HATCH">
    <rect class="cls-1" x="161.05" y="62.46" width="29.71" height="29.71" rx="3.46" ry="3.46"/>
  </g>
  <g id="HATCH-4" data-name="HATCH">
    <rect class="cls-3" x="75.17" y="105.4" width="29.71" height="29.71" rx="3.46" ry="3.46"/>
  </g>
  <g id="HATCH-5" data-name="HATCH">
    <rect class="cls-3" x="118.11" y="105.4" width="29.71" height="29.71" rx="3.46" ry="3.46"/>
  </g>
  <g id="HATCH-6" data-name="HATCH">
    <rect class="cls-3" x="161.05" y="105.4" width="29.71" height="29.71" rx="3.46" ry="3.46"/>
  </g>
  <g id="HATCH-7" data-name="HATCH">
    <rect class="cls-3" x="75.17" y="148.34" width="29.71" height="29.71" rx="3.46" ry="3.46"/>
  </g>
  <g id="HATCH-8" data-name="HATCH">
    <rect class="cls-3" x="118.11" y="148.34" width="29.71" height="29.71" rx="3.46" ry="3.46"/>
  </g>
  <g id="HATCH-9" data-name="HATCH">
    <rect class="cls-3" x="161.05" y="148.34" width="29.71" height="29.71" rx="3.46" ry="3.46"/>
  </g>
  <g id="HATCH-10" data-name="HATCH">
    <polygon class="cls-2" points="240.79 121.54 242.94 128.36 244.94 135.25 246.8 142.21 248.5 149.24 250.06 156.34 251.47 163.5 252.73 170.74 253.84 178.05 266.66 178.05 265.28 170.09 263.77 162.25 262.15 154.53 260.4 146.94 258.52 139.47 256.53 132.13 254.4 124.91 252.16 117.81 247.56 104.78 242.55 92.44 237.12 80.79 231.28 69.83 225.02 59.57 218.34 50 211.25 41.12 203.74 32.93 195.55 25.21 187.17 18.53 178.6 12.86 169.85 8.23 160.9 4.63 151.78 2.06 142.46 .51 132.96 0 123.46 .51 114.15 2.06 105.02 4.63 96.08 8.23 87.33 12.86 78.76 18.53 70.38 25.21 62.18 32.93 54.67 41.12 47.58 50 40.91 59.57 34.65 69.83 28.8 80.79 23.38 92.44 18.36 104.78 13.77 117.81 11.53 124.91 9.44 132.13 7.5 139.47 5.71 146.94 4.06 154.53 2.56 162.25 1.21 170.09 0 178.05 12.08 178.05 13.2 170.74 14.46 163.5 15.87 156.34 17.42 149.24 19.13 142.21 20.98 135.25 22.99 128.36 25.14 121.54 29.5 109.16 34.24 97.46 39.36 86.42 44.87 76.06 50.76 66.37 57.03 57.35 63.68 49 70.71 41.33 78 34.44 85.43 28.48 93.01 23.43 100.72 19.31 108.57 16.09 116.56 13.8 124.69 12.42 132.96 11.97 141.23 12.42 149.36 13.8 157.36 16.09 165.21 19.31 172.92 23.43 180.49 28.48 187.92 34.44 195.22 41.33 202.25 49 208.9 57.35 215.17 66.37 221.06 76.06 226.56 86.42 231.69 97.46 236.43 109.16 240.79 121.54"/>
  </g>
</svg>