<?xml version="1.0" encoding="utf-8"?>
<!-- Generator: Adobe Illustrator 16.0.0, SVG Export Plug-In . SVG Version: 6.00 Build 0)  -->
<!DOCTYPE svg PUBLIC "-//W3C//DTD SVG 1.1//EN" "http://www.w3.org/Graphics/SVG/1.1/DTD/svg11.dtd">
<svg version="1.1" id="Layer_1" xmlns="http://www.w3.org/2000/svg" xmlns:xlink="http://www.w3.org/1999/xlink" x="0px" y="0px"
	 width="700px" height="627.083px" viewBox="0 0 700 627.083" enable-background="new 0 0 700 627.083" xml:space="preserve">
<g>
	<polygon fill="#333333" stroke="#000000" stroke-width="0.8963" stroke-miterlimit="10" points="610.219,331.899 610.219,129.256 
		548.693,129.256 548.693,331.899 610.219,331.899 	"/>
	<path fill="#333333" stroke="#000000" stroke-width="0.8963" stroke-miterlimit="10" d="M579.242,230.792"/>
	<path fill="#4D4D4D" stroke="#000000" stroke-width="0.8963" stroke-miterlimit="10" d="M701,418.806
		c-0.108,110.503-156.75,200.173-349.785,200.063C157.814,618.979,1.173,529.309,1,418.806V234.234l149.293,118.315l206.084,51.629
		L701,234.234V418.806L701,418.806z"/>
	<path fill="#595959" d="M669.163,419.237c-0.119,139.29-142.188,199.022-317.517,199.201
		c-172.419-0.179-317.237-61.703-317.088-199.201V235.525l135.096,117.886l187.155,51.629l312.354-169.515V419.237L669.163,419.237z
		"/>
	<path fill="#666666" d="M617.102,419.667c0.183,169.335-118.21,197.821-264.165,197.909
		c-146.12-0.088-264.511-30.367-264.599-197.909V237.247L201.063,354.27l155.746,51.2l260.293-168.224V419.667L617.102,419.667z"/>
	<path fill="#737373" d="M552.136,419.237c-0.137,205.619-88.243,199.296-197.05,199.201
		c-108.552,0.095-196.655-2.546-196.619-199.201V371.91l83.898-18.499l115.735,51.629l194.035-33.13V419.237L552.136,419.237z"/>
	<path fill="#999999" d="M481.577,418.806c0.168,200.672-55.653,200.654-124.338,200.491
		c-69.021,0.163-124.839,10.937-124.771-200.491v-18.07l52.92-48.187l73.569,52.06l122.619-9.035V418.806L481.577,418.806z"/>
	<path fill="#A6A6A6" d="M412.308,420.096c-0.182,226.271-23.031,196.458-51.196,196.621
		c-28.211-0.163-51.063,17.102-51.199-196.621v-10.325l21.943-54.64l30.118,50.768l50.335-3.442V420.096L412.308,420.096z"/>
	
		<path fill="#DBDBDB" stroke="#000000" stroke-width="2" stroke-linecap="round" stroke-linejoin="round" stroke-miterlimit="10" d="
		M478.566,268.223c0,0,4.517-21.62,9.033-21.512c4.446-0.108,1.758,13.337,0,18.931
		C485.771,270.805,478.566,268.223,478.566,268.223L478.566,268.223z"/>
	
		<path fill="#E0E0E0" stroke="#000000" stroke-width="2" stroke-linecap="round" stroke-linejoin="round" stroke-miterlimit="10" d="
		M478.566,268.223c0,0,25.132-20.723,28.826-18.07c3.477,2.725-0.108,7.207-5.592,9.896
		C496.527,262.738,478.566,268.223,478.566,268.223L478.566,268.223z"/>
	
		<path fill="#E6E6E6" stroke="#000000" stroke-width="2" stroke-linecap="round" stroke-linejoin="round" stroke-miterlimit="10" d="
		M409.728,221.327c0,0,27.643,18.106,35.709,23.664c8.067,5.198,19.72,17.747,23.235,21.512c3.655,3.406,6.344,3.406,9.895,1.721
		c3.62-1.9,24.235-11.76,28.826-9.896c4.373,1.721,7.958,4.41,5.164,8.175c-2.584,3.406-4.377-1.972-9.898,0
		c-5.234,1.613-23.16,5.199-24.953,9.896c-1.793,4.267-1.793,14.126-0.861,17.64c0.861,3.657-8.998,9.931-9.895,6.454
		c-0.896-3.693-0.896-4.589,0.861-9.035c1.827-4.518,0.931-8.999-1.723-11.616c-2.725-2.761-26.926-15.31-34.849-20.652
		c-8.211-5.414-34.204-27.822-36.141-31.407C393.449,224.195,392.554,212.543,409.728,221.327L409.728,221.327z"/>
	<polygon fill="#333333" stroke="#000000" stroke-width="0.8963" stroke-miterlimit="10" points="110.281,239.397 140.828,239.397 
		187.293,287.154 142.549,287.154 110.281,239.397 	"/>
	<polygon stroke="#000000" stroke-width="0.8963" stroke-miterlimit="10" points="100.386,262.63 140.828,262.63 186.434,316.409 
		117.595,297.91 100.386,262.63 	"/>
	<polygon fill="#CCCCCC" stroke="#000000" stroke-width="2" stroke-miterlimit="10" points="134.375,303.073 134.375,287.154 
		187.293,287.154 187.293,303.073 134.375,303.073 	"/>
	<path fill="#CCCCCC" stroke="#000000" stroke-width="0.8963" stroke-miterlimit="10" d="M161.049,294.898"/>
	<polygon fill="#666666" stroke="#000000" stroke-width="0.8963" stroke-miterlimit="10" points="93.072,262.63 93.072,239.397 
		140.828,239.397 140.828,262.63 93.072,262.63 	"/>
	<path fill="#666666" stroke="#000000" stroke-width="0.8963" stroke-miterlimit="10" d="M116.735,251.014"/>
	<g>
		<path fill="#666666" d="M351.092,433.796c-192.299,0-348.941-89.253-349.59-199.062H122.69
			c0.109,12.968,6.137,25.543,17.924,37.387c35.781,35.955,118.447,59.277,210.601,59.416
			c125.431-0.189,227.7-43.569,228.522-96.803h120.761c-0.584,109.807-157.032,199.062-349.143,199.062
			C351.344,433.796,351.092,433.796,351.092,433.796z"/>
		<path d="M699.995,235.234c-1.058,109.303-157.099,198.062-348.657,198.062h-0.123h-0.123c-47.173,0-92.932-5.284-136.006-15.706
			c-41.575-10.06-78.915-24.456-110.98-42.792c-32.015-18.307-57.153-39.611-74.716-63.323
			c-17.907-24.177-27.118-49.821-27.385-76.241h120.191c0.258,12.927,6.331,25.451,18.063,37.24
			c35.87,36.044,118.675,59.424,210.958,59.563c60.949-0.093,118.3-10.24,161.487-28.574c42.908-18.215,66.833-42.411,67.523-68.229
			H699.995 M701,234.234H579.242c-0.188,53.276-102.279,96.613-228.027,96.803c-126.115-0.19-228.204-43.527-228.027-96.803H1
			c0.173,110.403,156.756,200.062,350.092,200.062c0.047,0,0.076,0,0.123,0c0.035,0,0.087,0,0.123,0
			C544.324,434.296,700.892,344.644,701,234.234L701,234.234z"/>
	</g>
	
		<path fill="#E6E6E6" stroke="#000000" stroke-width="2" stroke-linecap="round" stroke-linejoin="round" stroke-miterlimit="10" d="
		M294.853,225.199c0,0-18.846,48.531-12.477,63.676c7.081,16.894,29.688-13.768,29.688-13.768s-15.252-11.077-3.873-45.605
		C311.311,220.533,294.853,225.199,294.853,225.199L294.853,225.199z"/>
	
		<path fill="#E6E6E6" stroke="#000000" stroke-width="2" stroke-linecap="round" stroke-linejoin="round" stroke-miterlimit="10" d="
		M385.204,227.781c0,0,5.557,17.927-5.592,43.455c-9.744,23.478,19.79,15.058,19.79,15.058s15.24-35.485-1.292-63.675
		C388.968,207.165,385.204,227.781,385.204,227.781L385.204,227.781z"/>
	
		<polygon fill="#D9D9D9" stroke="#000000" stroke-width="2" stroke-linecap="round" stroke-linejoin="round" stroke-miterlimit="10" points="
		336.587,173.57 322.389,206.7 333.576,226.06 359.389,225.199 369.284,210.571 367.134,196.803 352.506,170.989 336.587,173.57 	
		"/>
	
		<path fill="#DBDBDB" stroke="#000000" stroke-width="2" stroke-linecap="round" stroke-linejoin="round" stroke-miterlimit="10" d="
		M187.293,245.851l11.617-12.477c0,0,1.828-5.593-0.861-7.314c-2.689-1.865-5.378-1.865-6.453,1.721
		c-0.718,3.585-5.2,10.756-6.884,13.337c-1.901,2.796-4.733,4.733-4.733,4.733H187.293L187.293,245.851z"/>
	
		<path fill="#E0E0E0" stroke="#000000" stroke-width="2" stroke-linecap="round" stroke-linejoin="round" stroke-miterlimit="10" d="
		M187.293,245.851c0,0-0.896-18.07-6.453-19.791c-5.199-1.865-9.681,0.824-5.163,5.163c4.445,4.625,4.445,10.899,4.302,14.628
		C180.123,249.292,187.293,245.851,187.293,245.851L187.293,245.851z"/>
	
		<path fill="#666666" stroke="#000000" stroke-width="2" stroke-linecap="round" stroke-linejoin="round" stroke-miterlimit="10" d="
		M405,107.749c-4.38,7.09-23.2,28.61-46.47,5.16c-23.34-23.16-37.86,11.61-37.86,11.61s-30.3,21.25-39.58,3.88
		c-9.75-17.98-0.43-9.04-0.43-9.04s6.13,5.79,7.74-3.01c1.97-9.12,1.72-18.07,1.72-18.07s-3.78,5.36-5.59,2.15
		c-1.78-3.06-11.64-12.48-2.58-23.66c8.87-11.22,13.33-21.08,13.33-21.08s-7.6,9.41-10.75,7.31c-3.12-2.38-5.6-9.03-5.6-9.03
		s9.65,3.96,10.33-6.89c1.11-10.66-0.68-17.84,6.02-18.93c6.74-0.7,9.88,1.54,11.62,3.44c1.42,1.3,1.67,1.62,1.71,1.7
		c-0.14-0.67-3.66-16.1-13.33-13.74l-8.17,3.87c0,0,4.61-10.74,17.21-11.19c12.05-0.46,16.08-1.36,25.38,12.05
		c0,0,4.59-21.03,25.39-13.77c0,0-9.59,4.84-3.87,12.05c0,0,9.959-11.24,25.379-4.3c15.061,6.5,6.891,3.44,6.891,3.44
		s-8.86-0.07-8.61,6.45c0.64,6.92,4.68,7.82,7.74,7.75c3.21,0.07,2.58-8.61,2.58-8.61s8.25-2.53,9.47,5.16
		c1.47,7.55,0.12,14.72-5.16,20.66c-5.47,5.71-6.819,13.78,0.431,11.61c7.1-2.31,7.31-2.15,7.31-2.15s2.03,6.56-6.45,10.33
		c-8.55,3.4-4.52,30.74,3.44,27.53c8.17-3.06,7.31-9.03,7.31-9.03S409.58,100.499,405,107.749z"/>
	<g id="XMLID_1_">
		<g>
			<path fill="#E6E6E6" d="M369.28,51.378c0,0,30.89-5.55-2.58,1.29c-0.42,0.08-0.83,0.16-1.24,0.23
				C366.5,52.179,367.75,51.639,369.28,51.378z"/>
			<path fill="#E6E6E6" d="M362.01,79.849c-0.81,0.05-1.68,0.16-2.62,0.36C359.39,80.208,360.53,80.159,362.01,79.849z
				 M362.02,79.849c21.04-1.19-1.77,45.6-1.77,44.68c-1.31,7.81,1.83,25.72,2.15,35.27c0.569,9.27-4.36,24.06-23.66,21.52
				c-19.24-2.84-15.2-25.24-15.92-41.31c-1.08-16.2-4.21-25.61-13.34-44.31c-8.51-18.32,8.28-15.7,9.41-15.5l-1.66-0.42
				c0,0-8.93-0.34-9.47-6.02c-0.36-5.97,7.75-7.32,7.75-7.32l1.96-7.45c6.29-3.39,8.82-7.61,9.5-11.6c0-0.02,0.01-0.04,0.01-0.07
				c-0.01-0.01-0.01-0.01,0-0.01c0.52-2.65,0.25-5.83-1.4-9.58c-0.05-0.12-0.11-0.24-0.16-0.37c-0.03-0.07-0.06-0.14-0.1-0.21
				c-0.72-1.6-1.43-2.67-1.6-2.92c-0.01-0.02-0.02-0.04-0.03-0.05c-0.01,0-0.01-0.01-0.01-0.01c9.04,1.52,9.27,24.52,41.78,18.73
				c-5.37,3.71-4.78,12.25-4.78,12.25s8.12,0.84,8.181,9.04C368.72,77.838,364.78,79.289,362.02,79.849z"/>
			<path fill="#E6E6E6" d="M359.39,80.208c0.94-0.2,1.811-0.31,2.62-0.36C360.53,80.159,359.39,80.208,359.39,80.208z"/>
			<path fill="#666666" d="M325.58,37.729c1.04,2.45,2,5.92,1.4,9.58c-0.01,0-0.01,0,0,0.01c0,0.03-0.01,0.05-0.01,0.07
				c-1.51,7.57-9.31,10.88-9.31,10.88l-0.19,0.72c-0.35,0.19-0.72,0.38-1.1,0.57c-4.49,2.4-9.04,2.15-9.04,2.15l16.35-27.54
				c0,0,0,0.01,0.01,0.01c0.01,0.01,0.02,0.03,0.03,0.05c0.62,1.01,1.15,1.98,1.6,2.92c0.04,0.07,0.07,0.14,0.1,0.21
				C325.47,37.488,325.53,37.608,325.58,37.729z"/>
			<path fill="#E6E6E6" d="M325.32,37.148c-0.45-0.94-0.98-1.91-1.6-2.92C323.89,34.479,324.6,35.548,325.32,37.148z"/>
			<path fill="#E6E6E6" d="M326.97,47.389c-0.68,3.99-3.21,8.21-9.5,11.6l0.19-0.72C317.66,58.269,325.46,54.958,326.97,47.389z"/>
		</g>
		<g>
			<path fill="none" stroke="#000000" stroke-width="2" stroke-linecap="round" stroke-linejoin="round" stroke-miterlimit="10" d="
				M326.97,47.389c-0.68,3.99-3.21,8.21-9.5,11.6c-0.35,0.19-0.72,0.38-1.1,0.57c-4.49,2.4-9.04,2.15-9.04,2.15"/>
			<path fill="none" stroke="#000000" stroke-width="2" stroke-linecap="round" stroke-linejoin="round" stroke-miterlimit="10" d="
				M325.58,37.729c1.04,2.45,2,5.92,1.4,9.58"/>
			<path fill="none" stroke="#000000" stroke-width="2" stroke-linecap="round" stroke-linejoin="round" stroke-miterlimit="10" d="
				M323.68,34.168c0,0,0,0.01,0.01,0.01c0.01,0.01,0.02,0.03,0.03,0.05c0.17,0.25,0.88,1.32,1.6,2.92"/>
			<path fill="none" stroke="#000000" stroke-width="2" stroke-linecap="round" stroke-linejoin="round" stroke-miterlimit="10" d="
				M325.32,37.148c-0.45-0.94-0.98-1.91-1.6-2.92"/>
			<path fill="none" stroke="#000000" stroke-width="2" stroke-linecap="round" stroke-linejoin="round" stroke-miterlimit="10" d="
				M325.32,37.148c0.04,0.07,0.07,0.14,0.1,0.21c0.05,0.13,0.11,0.25,0.16,0.37"/>
			<path fill="none" stroke="#000000" stroke-width="2" stroke-linecap="round" stroke-linejoin="round" stroke-miterlimit="10" d="
				M326.98,47.309c0.52-2.65,0.25-5.83-1.4-9.58"/>
			<path fill="none" stroke="#000000" stroke-width="2" stroke-linecap="round" stroke-linejoin="round" stroke-miterlimit="10" d="
				M326.98,47.309c-0.01,0-0.01,0,0,0.01c0,0.03-0.01,0.05-0.01,0.07"/>
			<path fill="none" stroke="#000000" stroke-width="2" stroke-linecap="round" stroke-linejoin="round" stroke-miterlimit="10" d="
				M318.95,80.208c0,0-0.02,0-0.06-0.01l-1.66-0.42c0,0-8.93-0.34-9.47-6.02c-0.36-5.97,7.75-7.32,7.75-7.32l1.96-7.45l0.19-0.72
				c0,0,7.8-3.31,9.31-10.88"/>
			<path fill="none" stroke="#000000" stroke-width="3" stroke-linecap="round" stroke-linejoin="round" stroke-miterlimit="10" d="
				M360.25,124.519v0.01c-1.31,7.81,1.83,25.72,2.15,35.27c0.569,9.27-4.36,24.06-23.66,21.52c-19.24-2.84-15.2-25.24-15.92-41.31
				c-1.08-16.2-4.21-25.61-13.34-44.31c-8.51-18.32,8.28-15.7,9.41-15.5"/>
			<path fill="none" stroke="#000000" stroke-width="2" stroke-linecap="round" stroke-linejoin="round" stroke-miterlimit="10" d="
				M362.02,79.849c21.04-1.19-1.77,45.6-1.77,44.68"/>
			<path fill="none" stroke="#000000" stroke-width="2" stroke-linecap="round" stroke-linejoin="round" stroke-miterlimit="10" d="
				M362.01,79.849c-1.479,0.31-2.62,0.36-2.62,0.36C360.33,80.008,361.2,79.898,362.01,79.849z"/>
			
				<line fill="none" stroke="#000000" stroke-width="2" stroke-linecap="round" stroke-linejoin="round" stroke-miterlimit="10" x1="362.01" y1="79.849" x2="362.02" y2="79.849"/>
			<path fill="none" stroke="#000000" stroke-width="2" stroke-linecap="round" stroke-linejoin="round" stroke-miterlimit="10" d="
				M365.46,52.898c-5.37,3.71-4.78,12.25-4.78,12.25s8.12,0.84,8.181,9.04c-0.141,3.65-4.08,5.1-6.841,5.66"/>
			<path fill="none" stroke="#000000" stroke-width="2" stroke-linecap="round" stroke-linejoin="round" stroke-miterlimit="10" d="
				M365.46,52.898c0.41-0.07,0.82-0.15,1.24-0.23c33.47-6.84,2.58-1.29,2.58-1.29C367.75,51.639,366.5,52.179,365.46,52.898z"/>
			<path fill="none" stroke="#000000" stroke-width="2" stroke-linecap="round" stroke-linejoin="round" stroke-miterlimit="10" d="
				M323.68,34.168c9.04,1.52,9.27,24.52,41.78,18.73"/>
		</g>
	</g>
	
		<path fill="#FFFFFF" stroke="#000000" stroke-width="0.8963" stroke-linecap="round" stroke-linejoin="round" stroke-miterlimit="10" d="
		M330.134,67.301"/>
	
		<path fill="#FFFFFF" stroke="#000000" stroke-width="0.8963" stroke-linecap="round" stroke-linejoin="round" stroke-miterlimit="10" d="
		M347.343,66.872"/>
	
		<path fill="none" stroke="#000000" stroke-width="0.8963" stroke-linecap="round" stroke-linejoin="round" stroke-miterlimit="10" d="
		M325.831,36.025c9.835,4.051,6.22,21.598,45.606,15.449"/>
	
		<path fill="#FFFFFF" stroke="#000000" stroke-width="0.8963" stroke-linecap="round" stroke-linejoin="round" stroke-miterlimit="10" d="
		M345.622,191.21"/>
	
		<path fill="#FFFFFF" stroke="#000000" stroke-width="2" stroke-linecap="round" stroke-linejoin="round" stroke-miterlimit="10" d="
		M327.121,82.791c-5.406-0.776-8.566-8.765-6.883-17.21c1.46-8.771,7.199-14.935,12.907-13.768c0,0,6.525-0.161,6.884,6.885
		c0,0-0.649-4.139,4.138-5.989c5.502-1.633,11.266,3.807,13.073,12.442c1.625,8.525-1.265,16.289-6.286,17.04
		c-5.021,0.751-10.387-0.064-10.925-4.133c-0.359-3.998-0.861-3.873-0.861-3.873S338.148,84.421,327.121,82.791L327.121,82.791z"/>
	<path stroke="#000000" stroke-width="0.8963" stroke-linecap="round" stroke-linejoin="round" stroke-miterlimit="10" d="
		M334.866,72.895c1.274,0.114,2.409-1.02,2.58-2.582c-0.171-1.239-1.306-2.375-2.58-2.582c-1.527,0.207-2.663,1.343-2.583,2.582
		C332.203,71.875,333.339,73.009,334.866,72.895L334.866,72.895z"/>
	<path stroke="#000000" stroke-width="0.8963" stroke-linecap="round" stroke-linejoin="round" stroke-miterlimit="10" d="
		M334.866,70.313"/>
	<path stroke="#000000" stroke-width="0.8963" stroke-linecap="round" stroke-linejoin="round" stroke-miterlimit="10" d="
		M341.75,72.895c1.562,0.114,2.696-1.02,2.583-2.582c0.113-1.239-1.021-2.375-2.583-2.582c-1.239,0.207-2.375,1.343-2.582,2.582
		C339.374,71.875,340.51,73.009,341.75,72.895L341.75,72.895z"/>
	<path stroke="#000000" stroke-width="0.8963" stroke-linecap="round" stroke-linejoin="round" stroke-miterlimit="10" d="
		M341.75,70.313"/>
	
		<line fill="#FFFFFF" stroke="#000000" stroke-width="2" stroke-linecap="round" stroke-linejoin="round" stroke-miterlimit="10" x1="340.029" y1="78.058" x2="343.04" y2="88.384"/>
	
		<path fill="#E6E6E6" stroke="#000000" stroke-width="2" stroke-linecap="round" stroke-linejoin="round" stroke-miterlimit="10" d="
		M335.726,85.372c0,0-6.601,1.875-6.726,5.837c0.125,4.105,3.975,6.19,7.167,6.333"/>
	<path fill="none" stroke="#000000" stroke-width="2" stroke-linecap="round" stroke-linejoin="round" stroke-miterlimit="10" d="
		M343.901,85.372c0,0,6.486,0.577,6.432,5.004c0.054,4.536-2.728,6.356-5.667,6.5"/>
	
		<path fill="#B3B3B3" stroke="#000000" stroke-width="2" stroke-linecap="round" stroke-linejoin="round" stroke-miterlimit="10" d="
		M306.471,109.465c4.234-0.199,7.64-3.322,7.743-7.314c-0.104-3.707-3.509-6.83-7.743-6.884c-4.167,0.054-7.572,3.177-7.745,6.884
		C298.899,106.143,302.304,109.266,306.471,109.465L306.471,109.465z"/>
	
		<path fill="#B3B3B3" stroke="#000000" stroke-width="0.8963" stroke-linecap="round" stroke-linejoin="round" stroke-miterlimit="10" d="
		M306.471,102.151"/>
	
		<path fill="#B3B3B3" stroke="#000000" stroke-width="2" stroke-linecap="round" stroke-linejoin="round" stroke-miterlimit="10" d="
		M370.146,109.465c4.201-0.199,7.604-3.322,7.744-7.314c-0.14-3.707-3.543-6.83-7.744-6.884c-4.202,0.054-7.605,3.177-7.745,6.884
		C362.54,106.143,365.943,109.266,370.146,109.465L370.146,109.465z"/>
	
		<path fill="#B3B3B3" stroke="#000000" stroke-width="0.8963" stroke-linecap="round" stroke-linejoin="round" stroke-miterlimit="10" d="
		M370.146,102.151"/>
	
		<path fill="#FFFFFF" stroke="#000000" stroke-width="2" stroke-linecap="round" stroke-linejoin="round" stroke-miterlimit="10" d="
		M304.75,269.084"/>
	
		<path fill="#FFFFFF" stroke="#000000" stroke-width="0.8963" stroke-linecap="round" stroke-linejoin="round" stroke-miterlimit="10" d="
		M372.299,265.642"/>
	
		<path fill="#E6E6E6" stroke="#000000" stroke-width="2" stroke-linecap="round" stroke-linejoin="round" stroke-miterlimit="10" d="
		M288.4,277.258c-4.751,3.854-7.44,12.817-7.314,21.512c-0.126,8.335,15.919,3.872,15.919,3.872s6.812-3.603,21.942-0.43
		c15.345,3.101,15.345-10.344,11.187-11.186c-3.909-0.951-10.631-1.847-14.628-0.861c-4.07,0.807-16.171-1.434-12.477-5.592
		c3.477-3.908,8.855-7.045,14.198-6.885c5.413-0.161,18.41-1.057,17.64-7.314c-1.022-6.292-3.421-3.647-11.618-3.011
		C315.469,267.667,310.539,266.771,288.4,277.258L288.4,277.258z"/>
	
		<path fill="#E6E6E6" stroke="#000000" stroke-width="2" stroke-linecap="round" stroke-linejoin="round" stroke-miterlimit="10" d="
		M384.343,299.631c-2.969-0.545-2.993-2.384-9.464-3.442c-6.078-0.735-9.664-1.631-15.49-1.721
		c-5.826,0.089-19.719-2.151-15.487-8.605c3.835-6.095,4.732-4.302,9.035-4.733c4.66-0.465,19.449,1.327,18.932-1.721
		c-0.379-3.227-2.619-7.708-6.026-8.604c-3.764-0.896-10.486-4.034-10.325-7.744c-0.161-3.46-3.298-12.872,6.884-6.024
		c10.434,6.598,31.049,23.18,35.282,25.384c3.834,2.277,5.627,7.207,3.442,9.896C398.828,295.005,398.38,301.28,384.343,299.631
		L384.343,299.631z"/>
	
		<path fill="#E6E6E6" stroke="#000000" stroke-width="2" stroke-linecap="round" stroke-linejoin="round" stroke-miterlimit="10" d="
		M310.772,269.515c0,0,9.179-4.984,11.617,3.011c2.043,8.139,1.595,15.758-3.873,12.047c-5.289-3.46-7.529-6.149-7.745-8.175
		C310.987,273.942,310.772,269.515,310.772,269.515L310.772,269.515z"/>
	
		<path fill="#E6E6E6" stroke="#000000" stroke-width="2" stroke-linecap="round" stroke-linejoin="round" stroke-miterlimit="10" d="
		M370.146,269.084c0,0-9.412,4.41-9.896,10.325c-0.413,5.737,1.828,7.978,5.592,7.745c3.407-0.663,6.096-6.489,6.888-9.035
		C373.73,275.286,372.834,269.46,370.146,269.084L370.146,269.084z"/>
	
		<path fill="#E6E6E6" stroke="#000000" stroke-width="2" stroke-linecap="round" stroke-linejoin="round" stroke-miterlimit="10" d="
		M388.215,266.932c0.49-1.43-8.21-7.332-12.905-3.872c-4.269,3.71-6.061,6.848-5.164,10.756c0.896,4.158,5.378,6.399,8.175,3.871
		C380.901,274.838,387.176,268.564,388.215,266.932L388.215,266.932z"/>
	
		<path fill="#E6E6E6" stroke="#000000" stroke-width="2" stroke-linecap="round" stroke-linejoin="round" stroke-miterlimit="10" d="
		M297.866,272.956c0,0,13.569-15.596,15.057-2.582c1.201,12.979-0.592,18.806-4.301,18.931c-3.461-0.125-6.15-0.125-5.593-4.732
		c0.339-4.356-2.797-3.908-3.873-5.593c-0.718-1.9-1.166-2.797-1.29-4.733V272.956L297.866,272.956z"/>
	
		<path fill="#E6E6E6" stroke="#000000" stroke-width="2" stroke-linecap="round" stroke-linejoin="round" stroke-miterlimit="10" d="
		M291.842,287.583c-1.471,23.108,12.422,7.422,9.895-7.313c0,0,0.287-9.466-5.592-8.176c-5.773,1.399-8.014,1.847-10.756,9.035"/>
	<path fill="none" stroke="#000000" stroke-linecap="round" stroke-linejoin="round" stroke-miterlimit="10" d="M326.262,264.351
		c0,0,10.719-2.958,11.185,1.291c0.431,3.818,0.879,8.3-0.859,9.896 M328.413,261.77c0,0,10.809-1.721,11.185,2.152
		c0.52,4.194,0.968,8.676-0.86,10.325 M320.668,263.882l-6.024,1.29c0,0-5.45-5.127-9.035-2.581
		c-3.585,2.832-7.743,6.024-7.743,6.024s-3.909-0.054-5.593,0.859 M320.238,260.231l-6.024,0.861c0,0-5.468-4.787-9.035-2.152
		c-3.603,2.743-7.743,6.024-7.743,6.024s-3.927-0.144-5.593,0.86 M333.576,289.735c0,0,2.957,1.237,3.011,3.442
		c-0.054,2.276-1.847,11.24-7.314,11.616 M336.587,288.875c0,0,2.635,2.545,2.581,4.732c0.054,2.295-1.739,11.258-7.313,11.617
		 M352.937,263.061l-0.861-7.745c0,0,1.487-5.575,8.175-2.151c6.758,3.747,6.884,3.872,6.884,3.872 M350.785,261.339l-0.861-8.174
		c0,0,2.744-6.113,9.465-2.582c6.723,3.64,6.884,4.303,6.884,4.303 M374.448,260.479c0,0,4.66-2.224,8.176-0.431
		c3.655,1.792,7.688,4.481,8.172,6.023c0.413,1.147,3.102,0.699,4.303,2.151 M375.31,258.758c0,0,4.695-2.295,8.176-0.431
		c3.69,1.721,7.724,4.41,8.172,5.594c0.448,1.505,3.137,1.057,4.303,2.581"/>
	<path fill="#E6E6E6" stroke="#000000" stroke-width="2" stroke-miterlimit="10" d="M388.215,281.13
		c1.201,4.913-2.384,8.946-6.021,9.466c-3.533,0.376-5.326-3.657-5.596-6.883c-0.626-3.048,0.718-7.978,3.873-12.047
		c3.119-3.998,10.325-3.012,10.325-3.012s8.032,2.6,10.756,16.78"/>
	
		<path fill="#E6E6E6" stroke="#000000" stroke-width="2" stroke-linecap="round" stroke-linejoin="round" stroke-miterlimit="10" d="
		M286.68,198.094c0,0-25.887,12.656-32.268,13.768c-6.167,0.681-25.887,13.229-30.547,15.918
		c-4.303,2.689-27.607,15.238-30.978,17.21c-3.801,1.613-8.282-0.18-12.907-4.733c-4.338-4.41-15.094-9.788-14.198-3.442
		c0.896,6.203,0.896,5.306,4.303,8.175c3.764,2.509,10.935,4.302,10.756,10.756c0.179,6.095-5.199,15.058-0.861,16.779
		c4.625,1.865,4.625,6.346,11.617,0c3.811-3.108-7.889-2.617-5.163-9.035c2.652-6.131,5.341-7.924,10.756-9.896
		c5.341-1.613,24.164-9.68,33.989-14.198c9.895-4.445,52.918-25.958,58.081-25.814C294.853,213.439,301.127,196.409,286.68,198.094
		L286.68,198.094z"/>
	<path stroke="#000000" stroke-width="0.8963" stroke-miterlimit="10" d="M497.498,172.28"/>
	<polygon fill="#808080" stroke="#000000" stroke-width="0.8963" stroke-miterlimit="10" points="605.058,248.432 605.058,183.036 
		553.858,183.036 553.858,248.432 605.058,248.432 	"/>
	<path fill="#808080" stroke="#000000" stroke-width="0.8963" stroke-miterlimit="10" d="M579.242,215.734"/>
	<path stroke="#000000" stroke-width="2" stroke-miterlimit="10" d="M347.773,234.234"/>
	<path stroke="#000000" stroke-width="2" stroke-miterlimit="10" d="M347.773,234.234"/>
	<path fill="none" stroke="#000000" stroke-width="2" stroke-linecap="round" stroke-linejoin="round" stroke-miterlimit="10" d="
		M193.748,260.049c0,0-3.766,2.689,0,6.454c3.405,3.406,6.99,6.095,3.442,8.604 M198.049,259.188c0,0-3.585,2.653,0,6.454
		c3.585,3.37,7.171,6.059,3.442,8.604 M202.353,258.328c0,0-3.407,2.617,0,6.023c3.764,3.765,7.349,6.454,3.873,9.035
		 M289.26,182.175c0,0-9.644-0.107-14.198,1.721c-4.41,1.757-2.581,0.86-2.581,0.86s6.238,8.067,7.314,13.337l-25.384,9.896
		c0,0-9.753,2.761-15.919,6.454c-6.383,3.478-6.383,6.167-12.477,9.896 M283.238,179.594c0,0-9.896-0.215-14.198,1.721
		c-4.662,1.649-3.013,0.86-3.013,0.86s6.418,8.856,7.314,14.198l-21.512,9.035c0,0-9.859,2.653-15.918,6.454
		c-6.49,3.37-6.49,6.059-12.908,9.465 M393.38,179.205l22.373-8.175l4.73,8.175c0,0,15.99-1.972,18.501-2.151
		c0,0,16.313-1.613,26.245,5.593 M466.088,179.205c-9.895-7.35-25.812-5.593-25.812-5.593l-18.07,0.86l-4.734-8.174l-22.373,8.174"
		/>
	<path stroke="#000000" stroke-width="2" stroke-linecap="round" stroke-linejoin="round" stroke-miterlimit="10" d="
		M441.134,170.169c0,0,15.955-1.9,25.815,5.163"/>
	<path fill="none" stroke="#000000" stroke-width="2" stroke-linecap="round" stroke-linejoin="round" stroke-miterlimit="10" d="
		M419.622,221.327c0,0,26.711,10.039,38.294,25.384 M421.345,217.885c0,0,26.781,9.896,38.29,24.954 M448.879,276.398
		c0,0,14.484,4.267,14.628,8.604c-0.144,4.625-3.729,11.796-0.861,15.489 M445.437,278.119c0,0,14.342,4.338,14.198,9.035
		c0.144,4.267-3.441,11.437-0.857,15.059 M513.414,250.153c0,0,3.729,3.621-0.857,7.314c0,0,8.172,3.478,6.453,6.884
		c-1.866,3.765-2.763,6.454-5.596,6.454 M519.01,250.153c0,0,3.512,3.621-0.861,7.314c0,0,7.958,3.478,6.022,6.884
		c-1.649,3.765-2.546,6.454-5.161,6.454 M283.238,237.676c0,0-7.208,18.787-7.314,33.128 M278.935,236.816
		c0,0-7.386,18.751-7.314,33.128 M392.519,303.933c0,0,9.895,0.932,12.479-5.163c2.794-6.454,4.587-32.448,5.592-40.443
		 M411.45,298.771c2.615-6.454,3.512-28.862,4.303-37.001"/>
	<g>
		<rect x="606.058" y="107.542" fill="#B3B3B3" width="94.942" height="140.548"/>
		<path d="M700.5,108.042V247.59h-93.942V108.042H700.5 M701.5,107.042h-95.942V248.59H701.5V107.042L701.5,107.042z"/>
	</g>
	<path fill="#B3B3B3" stroke="#000000" stroke-width="0.8963" stroke-miterlimit="10" d="M652.812,177.443"/>
	
		<polygon fill="#808080" stroke="#000000" stroke-width="0.8963" stroke-linecap="round" stroke-linejoin="round" stroke-miterlimit="10" points="
		605.058,106.884 548.693,63.86 648.939,63.86 701,106.884 605.058,106.884 	"/>
	
		<polygon fill="#CCCCCC" stroke="#000000" stroke-width="0.8963" stroke-linecap="round" stroke-linejoin="round" stroke-miterlimit="10" points="
		548.693,129.256 548.693,63.86 605.058,106.884 605.058,172.28 548.693,129.256 	"/>
	<polygon fill="#666666" stroke="#000000" stroke-miterlimit="10" points="570.205,118.5 570.205,108.604 556.438,108.604 
		556.438,118.5 570.205,118.5 	"/>
	<path fill="#666666" stroke="#000000" stroke-width="0.8963" stroke-miterlimit="10" d="M563.322,113.337"/>
	<g>
		<path fill="#999999" d="M578.855,129.199c-1.67,0-3.1-0.128-4.251-0.38c-4.016-0.882-6.32-2.104-10.621-4.68
			c-3.785-2.267-6.543-4.694-7.195-5.287c0.03-0.875,0.141-4.433,0.107-9.282c2.701,2.246,11.019,9.034,13.242,9.373
			c2.407,0.367,6.752,0.811,13.857,0.863l-0.038,9.058C583.132,128.969,581.074,129.199,578.855,129.199z"/>
		<path d="M557.348,110.528c3.397,2.801,10.561,8.528,12.723,8.858c2.37,0.361,6.606,0.797,13.475,0.864l-0.034,8.217
			c-0.972,0.113-2.754,0.284-4.655,0.284c-1.638,0-3.035-0.125-4.154-0.371c-3.951-0.868-6.229-2.076-10.487-4.626
			c-3.501-2.097-6.12-4.337-6.971-5.096C557.278,117.593,557.361,114.58,557.348,110.528 M556.438,108.604
			c0.065,6.155-0.105,10.438-0.105,10.438s3,2.833,7.42,5.481s6.747,3.853,10.756,4.733c1.337,0.293,2.881,0.391,4.347,0.391
			c2.932,0,5.548-0.391,5.548-0.391l0.042-9.896c-7.244-0.036-11.778-0.485-14.24-0.86S556.438,108.604,556.438,108.604
			L556.438,108.604z"/>
	</g>
	<polygon fill="#CCCCCC" stroke="#000000" stroke-width="1.5" stroke-miterlimit="10" points="497.498,205.408 497.498,140.012 
		553.858,183.036 553.858,248.432 497.498,205.408 	"/>
	<path fill="#999999" stroke="#000000" stroke-width="0.8963" stroke-miterlimit="10" d="M505.67,184.757l13.34,9.896
		c0,0,6.201,0.86,13.336,0.86l0.861,9.896h-9.895c0,0-7.962-1.829-10.756-4.302C509.973,198.202,505.491,198.202,505.67,184.757
		L505.67,184.757z"/>
	<path fill="#DBDBDB" stroke="#000000" stroke-width="2" stroke-miterlimit="10" d="M498.355,198.094c0,0-0.035-10.648-0.857-13.337
		c-0.971-2.689-2.763-3.585,2.58-7.314c5.413-3.442,6.31-6.131,9.033-2.582c2.654,3.621,4.447,4.518,1.723,9.035
		c-2.654,4.446-9.895,17.209-9.895,17.209L498.355,198.094L498.355,198.094z"/>
	<path fill="#E0E0E0" stroke="#000000" stroke-width="2" stroke-miterlimit="10" d="M498.355,198.094
		c1.758-2.582,9.824-23.197,15.059-20.651c5.522,2.833,4.626,7.314,0.861,10.756C510.869,191.927,498.355,198.094,498.355,198.094
		L498.355,198.094z"/>
	
		<path fill="#E6E6E6" stroke="#000000" stroke-width="2" stroke-linecap="round" stroke-linejoin="round" stroke-miterlimit="10" d="
		M414.892,185.228c0,0,13.515-0.824,23.231-2.581c10.003-1.829,11.796-0.932,21.512,1.721c10.003,2.725,38.721,12.477,38.721,12.477
		s16.099-16.923,22.373-13.337s-12.549,10.756-10.756,16.349c1.793,5.163,8.067-2.008,9.895,1.721
		c1.758,3.442-0.931,9.716-7.311,9.896c-6.169-0.18-11.547-3.765-14.201-5.593c-2.724-1.757-38.577-6.239-43.882-7.314
		c-5.451-0.717-37.863,4.733-37.863,4.733S404.206,190.677,414.892,185.228L414.892,185.228z"/>
	<polygon fill="#808080" stroke="#000000" stroke-miterlimit="10" points="605.915,182.175 578.812,161.524 576.231,153.349 
		553.858,137.431 553.858,151.628 594.302,183.036 605.915,182.175 	"/>
	<polygon fill="#999999" stroke="#000000" stroke-miterlimit="10" points="597.743,182.175 571.066,161.524 568.056,153.349 
		545.683,137.431 545.683,151.628 586.126,183.036 597.743,182.175 	"/>
	<polygon fill="#B3B3B3" stroke="#000000" stroke-miterlimit="10" points="589.567,182.175 562.892,161.524 560.311,153.349 
		537.938,137.431 537.938,151.628 577.95,183.036 589.567,182.175 	"/>
	<polygon fill="#CCCCCC" stroke="#000000" stroke-miterlimit="10" points="581.823,182.175 554.72,161.524 552.136,153.349 
		529.766,137.431 529.766,151.628 570.205,183.036 581.823,182.175 	"/>
	<polygon fill="#E6E6E6" stroke="#000000" stroke-miterlimit="10" points="573.647,182.175 546.544,161.524 543.963,153.349 
		521.59,137.431 521.59,151.628 562.033,183.036 573.647,182.175 	"/>
	<polygon fill="#FFFFFF" stroke="#000000" stroke-miterlimit="10" points="565.476,182.175 538.799,161.524 535.788,153.349 
		513.414,137.431 513.414,151.628 553.858,183.036 565.476,182.175 	"/>
	<path fill="#B3B3B3" stroke="#000000" stroke-width="0.8963" stroke-miterlimit="10" d="M470.391,316.409v15.49l96.804,13.336
		c0,0,15.382-18.857,13.768-27.104L470.391,316.409L470.391,316.409z"/>
	<polygon fill="#CCCCCC" stroke="#000000" stroke-width="0.8963" stroke-miterlimit="10" points="470.391,316.409 514.275,280.7 
		608.499,272.525 580.962,318.13 470.391,316.409 	"/>
	<path fill="#999999" stroke="#000000" stroke-width="0.8963" stroke-miterlimit="10" d="M608.499,272.525
		c0,0,1.863,12.621-3.441,22.373l-37.863,50.337l13.768-19.791v-7.313L608.499,272.525L608.499,272.525z"/>
	<polygon fill="#999999" stroke="#000000" stroke-width="0.8963" stroke-miterlimit="10" points="614.091,260.909 600.324,270.805 
		600.324,279.84 614.952,268.223 614.091,260.909 	"/>
	<polygon stroke="#000000" stroke-width="0.8963" stroke-miterlimit="10" points="514.707,297.91 509.111,302.642 519.01,302.212 
		524.602,297.479 514.707,297.91 	"/>
	<polygon stroke="#000000" stroke-width="0.8963" stroke-miterlimit="10" points="523.74,289.735 518.148,294.468 528.043,294.038 
		533.207,289.305 523.74,289.735 	"/>
	<polygon stroke="#000000" stroke-width="0.8963" stroke-miterlimit="10" points="519.867,305.654 514.275,309.956 524.171,309.526 
		529.766,304.793 519.867,305.654 	"/>
	<polygon stroke="#000000" stroke-width="0.8963" stroke-miterlimit="10" points="528.904,297.479 523.313,301.782 533.207,301.782 
		538.799,296.619 528.904,297.479 	"/>
	<polygon stroke="#000000" stroke-width="0.8963" stroke-miterlimit="10" points="537.938,289.305 532.346,294.038 542.24,293.607 
		547.405,288.875 537.938,289.305 	"/>
	<polygon stroke="#000000" stroke-width="0.8963" stroke-miterlimit="10" points="534.068,304.793 528.474,309.526 538.368,309.096 
		543.963,304.364 534.068,304.793 	"/>
	<polygon stroke="#000000" stroke-width="0.8963" stroke-miterlimit="10" points="543.102,297.049 537.511,301.352 547.405,300.921 
		552.997,296.189 543.102,297.049 	"/>
	<polygon stroke="#000000" stroke-width="0.8963" stroke-miterlimit="10" points="552.136,288.875 546.544,293.177 556.438,292.748 
		562.033,288.014 552.136,288.875 	"/>
	<path fill="none" stroke="#000000" stroke-width="0.3585" stroke-miterlimit="10" d="M614.521,274.247
		c3.722-0.011,6.845-1.145,6.884-2.582c-0.039-1.365-3.162-2.5-6.884-2.581c-3.978,0.081-7.097,1.216-7.314,2.581
		C607.425,273.102,610.544,274.236,614.521,274.247L614.521,274.247z M614.521,271.665 M616.671,276.828
		c4.013,0.097,7.136-1.037,7.314-2.581c-0.179-1.257-3.302-2.393-7.314-2.582c-3.687,0.188-6.81,1.325-6.883,2.582
		C609.861,275.791,612.984,276.925,616.671,276.828L616.671,276.828z M616.671,274.247 M619.255,279.409
		c3.869,0.205,6.992-0.93,6.884-2.151c0.108-1.58-3.015-2.716-6.884-2.581c-3.83-0.135-6.953,1.001-6.883,2.581
		C612.302,278.479,615.425,279.614,619.255,279.409L619.255,279.409z M619.255,277.258 M621.836,282.421
		c3.729-0.118,6.849-1.252,6.883-2.581c-0.034-1.472-3.154-2.608-6.883-2.582c-3.975-0.027-7.094,1.109-6.884,2.582
		C614.742,281.168,617.861,282.303,621.836,282.421L621.836,282.421z M621.836,279.84 M623.985,285.002
		c4.02-0.011,7.14-1.145,7.314-2.582c-0.175-1.364-3.295-2.5-7.314-2.581c-3.684,0.081-6.803,1.217-6.884,2.581
		C617.183,283.857,620.302,284.992,623.985,285.002L623.985,285.002z M623.985,282.421 M624.847,287.583
		c3.904,0.098,7.027-1.037,6.884-2.581c0.144-1.257-2.979-2.393-6.884-2.582c-3.795,0.188-6.919,1.325-6.884,2.582
		C617.928,286.546,621.052,287.681,624.847,287.583L624.847,287.583z M624.847,285.002 M625.708,290.165
		c3.792,0.205,6.915-0.93,6.884-2.151c0.031-1.58-3.092-2.716-6.884-2.581c-3.907-0.135-7.03,1.001-6.884,2.581
		C618.678,289.235,621.801,290.37,625.708,290.165L625.708,290.165z M625.708,288.014 M626.569,293.177
		c3.68-0.118,6.8-1.253,6.884-2.582c-0.084-1.472-3.204-2.608-6.884-2.582c-4.022-0.027-7.143,1.109-7.314,2.582
		C619.427,291.924,622.547,293.059,626.569,293.177L626.569,293.177z M626.569,290.596 M627,295.758
		c3.995-0.01,7.118-1.145,7.314-2.581c-0.196-1.365-3.319-2.501-7.314-2.582c-3.704,0.081-6.827,1.217-6.884,2.582
		C620.173,294.614,623.296,295.748,627,295.758L627,295.758z M627,293.177 M626.569,298.34c3.974,0.097,7.098-1.038,6.884-2.582
		c0.214-1.257-2.91-2.393-6.884-2.581c-3.726,0.188-6.849,1.324-6.884,2.581C619.721,297.302,622.844,298.437,626.569,298.34
		L626.569,298.34z M626.569,295.758 M626.139,300.921c3.953,0.205,7.076-0.929,6.884-2.15c0.192-1.58-2.931-2.716-6.884-2.582
		c-3.746-0.135-6.866,1.001-6.884,2.582C619.272,299.992,622.393,301.126,626.139,300.921L626.139,300.921z M626.139,298.771
		 M623.128,302.212c3.83-0.19,6.953-1.325,6.884-2.582c0.069-1.544-3.054-2.68-6.884-2.582c-3.869-0.099-6.992,1.038-6.884,2.582
		C616.136,300.888,619.259,302.022,623.128,302.212L623.128,302.212z M623.128,299.631 M620.116,303.073
		c3.708-0.154,6.831-1.289,6.884-2.582c-0.053-1.508-3.176-2.644-6.884-2.581c-3.991-0.063-7.114,1.073-7.313,2.581
		C613.002,301.784,616.125,302.918,620.116,303.073L620.116,303.073z M620.116,300.491 M616.671,303.933
		c4.02-0.118,7.144-1.252,7.314-2.582c-0.171-1.472-3.295-2.608-7.314-2.581c-3.68-0.027-6.803,1.109-6.883,2.581
		C609.868,302.681,612.991,303.815,616.671,303.933L616.671,303.933z M616.671,301.352 M612.803,305.654
		c4.051-0.2,7.174-1.335,7.313-2.581c-0.14-1.555-3.263-2.689-7.313-2.582c-3.648-0.107-6.771,1.027-6.888,2.582
		C606.031,304.318,609.154,305.454,612.803,305.654L612.803,305.654z M612.803,303.073 M609.36,306.945
		c3.655,0.147,6.775-0.988,6.884-2.581c-0.108-1.207-3.229-2.342-6.884-2.151c-4.047-0.19-7.167,0.944-7.313,2.151
		C602.193,305.957,605.313,307.092,609.36,306.945L609.36,306.945z M609.36,304.364 M605.488,308.666
		c3.69,0.064,6.81-1.071,6.884-2.582c-0.074-1.289-3.193-2.424-6.884-2.581c-4.009,0.157-7.132,1.292-7.314,2.581
		C598.356,307.595,601.479,308.73,605.488,308.666L605.488,308.666z M605.488,306.084 M601.615,310.387
		c3.726-0.017,6.849-1.153,6.884-2.581c-0.035-1.372-3.158-2.506-6.884-2.582c-3.974,0.075-7.097,1.21-6.883,2.582
		C594.519,309.234,597.642,310.37,601.615,310.387L601.615,310.387z M601.615,307.806"/>
	<g>
		<polygon fill="#FFFFFF" points="568.271,289.375 590.815,289.375 578.529,309.034 549.023,309.854 		"/>
		<path d="M589.914,289.875l-11.666,18.667l-28.037,0.779l18.277-19.445H589.914 M591.718,288.875h-23.662l-20.22,21.512
			l30.976-0.86L591.718,288.875L591.718,288.875z"/>
	</g>
	<polygon fill="#D9D9D9" stroke="#000000" stroke-width="0.8963" stroke-miterlimit="10" points="515.568,274.247 500.078,283.282 
		573.647,271.665 600.324,270.805 614.091,260.909 585.265,261.77 515.568,274.247 	"/>
	<polygon fill="#B3B3B3" stroke="#000000" stroke-width="0.8963" stroke-miterlimit="10" points="500.078,283.282 499.217,288.875 
		569.348,280.7 600.324,279.84 600.324,270.805 571.066,271.665 500.078,283.282 	"/>
	<polygon stroke="#000000" stroke-width="0.8963" stroke-miterlimit="10" points="491.472,306.514 485.881,311.247 495.775,310.816 
		501.37,306.084 491.472,306.514 	"/>
	<polygon stroke="#000000" stroke-width="0.8963" stroke-miterlimit="10" points="500.509,298.771 494.914,303.073 504.812,302.642 
		509.973,297.91 500.509,298.771 	"/>
	<polygon stroke="#000000" stroke-width="0.8963" stroke-miterlimit="10" points="509.542,290.596 503.52,294.898 513.846,294.898 
		519.01,289.735 509.542,290.596 	"/>
	<polygon stroke="#000000" stroke-width="0.8963" stroke-miterlimit="10" points="505.67,306.084 500.078,310.387 509.973,310.387 
		515.568,305.224 505.67,306.084 	"/>
	
		<path fill="#FFFFFF" stroke="#000000" stroke-width="2" stroke-linecap="round" stroke-linejoin="round" stroke-miterlimit="10" d="
		M304.75,189.059c0,0-9.896-4.302-17.21-3.442c-7.027,0.932-7.743,0.86-7.743,0.86s7.887,14.413,6.022,24.093
		c-1.721,10.039-0.86,7.314-0.86,7.314s10.791-1.757,17.209-5.163"/>
	
		<path fill="#FFFFFF" stroke="#000000" stroke-width="2" stroke-linecap="round" stroke-linejoin="round" stroke-miterlimit="10" d="
		M388.215,187.338l24.954-9.896c0,0,3.585,21.655,7.314,26.245c3.441,4.374-14.629,6.883-14.629,6.883"/>
	<path fill="#FFFFFF" stroke="#000000" stroke-width="2" stroke-miterlimit="10" d="M324.541,194.652c0,0-11.761-3.621-20.652,0.86
		c-9.035,4.482-9.931,19.719-14.628,24.093c-4.266,4.589,20.831-4.374,23.664,5.593c2.545,9.752,1.721,6.023,1.721,6.023"/>
	<path fill="#FFFFFF" stroke="#000000" stroke-width="2" stroke-miterlimit="10" d="M370.146,191.21c0,0,11.652-3.765,20.65,0.86
		c8.928,4.338,9.824,19.576,14.201,24.094c4.587,4.445-20.511-4.518-23.234,5.163c-2.654,10.039-1.723,6.454-1.723,6.454"/>
	
		<path fill="#808080" stroke="#000000" stroke-width="2" stroke-linecap="round" stroke-linejoin="round" stroke-miterlimit="10" d="
		M334.005,184.757c0,0-12.978-0.541-17.64,13.337c-0.448,1.452-0.859,1.721-0.859,1.721s15.649-4.75,23.662,1.721
		c8.121,6.077,2.582,2.151,2.582,2.151S341.911,190.583,334.005,184.757L334.005,184.757z"/>
	
		<path fill="#808080" stroke="#000000" stroke-width="2" stroke-linecap="round" stroke-linejoin="round" stroke-miterlimit="10" d="
		M356.378,184.326c0,0,2.563,9.394-3.013,15.489c-5.18,6.454-3.442,4.733-3.442,4.733s13.5-6.794,21.083-2.582
		c7.653,3.854,6.021,3.012,6.021,3.012S375.075,183.413,356.378,184.326L356.378,184.326z"/>
	<polygon fill="#E6E6E6" stroke="#000000" stroke-width="0.8963" stroke-miterlimit="10" points="239.353,321.143 216.12,364.167 
		448.879,358.574 430.378,314.689 239.353,321.143 	"/>
	<polygon fill="#B3B3B3" stroke="#000000" stroke-width="0.8963" stroke-miterlimit="10" points="449.31,368.899 448.879,359.004 
		216.12,364.167 216.12,374.061 449.31,368.899 	"/>
	<path fill="#B3B3B3" stroke="#000000" stroke-width="0.8963" stroke-miterlimit="10" d="M332.714,366.317"/>
	<polygon fill="#666666" stroke="#000000" stroke-width="0.4482" stroke-miterlimit="10" points="251.398,335.34 256.132,325.444 
		246.667,325.875 241.935,335.771 251.398,335.34 	"/>
	<path fill="#666666" stroke="#000000" stroke-width="0.4482" stroke-miterlimit="10" d="M249.249,330.607"/>
	<polygon fill="#999999" stroke="#000000" stroke-width="0.4482" stroke-miterlimit="10" points="250.97,333.189 253.981,326.736 
		247.957,326.736 244.515,333.62 250.97,333.189 	"/>
	<path fill="#999999" stroke="#000000" stroke-width="0.4482" stroke-miterlimit="10" d="M249.249,330.178"/>
	<polygon fill="#666666" stroke="#000000" stroke-width="0.4482" stroke-miterlimit="10" points="263.016,334.91 267.748,325.015 
		258.284,325.444 253.55,335.34 263.016,334.91 	"/>
	<path fill="#666666" stroke="#000000" stroke-width="0.4482" stroke-miterlimit="10" d="M260.864,330.178"/>
	<polygon fill="#999999" stroke="#000000" stroke-width="0.4482" stroke-miterlimit="10" points="262.585,332.758 265.598,326.305 
		259.574,326.305 256.132,333.189 262.585,332.758 	"/>
	<path fill="#999999" stroke="#000000" stroke-width="0.4482" stroke-miterlimit="10" d="M260.864,329.748"/>
	<polygon fill="#666666" stroke="#000000" stroke-width="0.4482" stroke-miterlimit="10" points="274.633,334.479 279.365,324.584 
		269.899,325.015 265.167,334.91 274.633,334.479 	"/>
	<path fill="#666666" stroke="#000000" stroke-width="0.4482" stroke-miterlimit="10" d="M272.051,329.748"/>
	<polygon fill="#999999" stroke="#000000" stroke-width="0.4482" stroke-miterlimit="10" points="273.772,332.328 277.214,325.875 
		271.189,325.875 267.748,332.758 273.772,332.328 	"/>
	<path fill="#999999" stroke="#000000" stroke-width="0.4482" stroke-miterlimit="10" d="M272.481,329.317"/>
	<polygon fill="#666666" stroke="#000000" stroke-width="0.4482" stroke-miterlimit="10" points="286.249,334.048 290.981,324.154 
		281.517,324.584 276.354,334.479 286.249,334.048 	"/>
	<path fill="#666666" stroke="#000000" stroke-width="0.4482" stroke-miterlimit="10" d="M283.667,329.317"/>
	<polygon fill="#999999" stroke="#000000" stroke-width="0.4482" stroke-miterlimit="10" points="285.389,331.899 288.831,325.015 
		282.376,325.444 279.365,331.899 285.389,331.899 	"/>
	<path fill="#999999" stroke="#000000" stroke-width="0.4482" stroke-miterlimit="10" d="M284.097,328.457"/>
	<polygon fill="#666666" stroke="#000000" stroke-width="0.4482" stroke-miterlimit="10" points="297.866,333.62 302.598,323.723 
		293.132,324.154 287.97,334.048 297.866,333.62 	"/>
	<path fill="#666666" stroke="#000000" stroke-width="0.4482" stroke-miterlimit="10" d="M295.284,328.886"/>
	<polygon fill="#999999" stroke="#000000" stroke-width="0.4482" stroke-miterlimit="10" points="297.005,331.468 300.446,324.584 
		293.994,325.015 290.981,331.468 297.005,331.468 	"/>
	<path fill="#999999" stroke="#000000" stroke-width="0.4482" stroke-miterlimit="10" d="M295.714,328.027"/>
	<polygon fill="#666666" stroke="#000000" stroke-width="0.4482" stroke-miterlimit="10" points="309.481,333.189 314.214,323.292 
		304.75,323.292 299.587,333.62 309.481,333.189 	"/>
	<path fill="#666666" stroke="#000000" stroke-width="0.4482" stroke-miterlimit="10" d="M306.901,328.457"/>
	<polygon fill="#999999" stroke="#000000" stroke-width="0.4482" stroke-miterlimit="10" points="308.622,331.038 312.064,324.154 
		305.609,324.584 302.598,331.038 308.622,331.038 	"/>
	<path fill="#999999" stroke="#000000" stroke-width="0.4482" stroke-miterlimit="10" d="M307.33,327.595"/>
	<polygon fill="#666666" stroke="#000000" stroke-width="0.4482" stroke-miterlimit="10" points="321.099,332.758 325.831,322.864 
		316.365,322.864 311.203,333.189 321.099,332.758 	"/>
	<path fill="#666666" stroke="#000000" stroke-width="0.4482" stroke-miterlimit="10" d="M318.517,328.027"/>
	<polygon fill="#999999" stroke="#000000" stroke-width="0.4482" stroke-miterlimit="10" points="320.238,330.607 323.679,323.723 
		317.227,324.154 314.214,330.607 320.238,330.607 	"/>
	<path fill="#999999" stroke="#000000" stroke-width="0.4482" stroke-miterlimit="10" d="M318.947,327.166"/>
	<polygon fill="#666666" stroke="#000000" stroke-width="0.4482" stroke-miterlimit="10" points="332.284,332.328 337.446,322.002 
		327.552,322.433 322.82,332.328 332.284,332.328 	"/>
	<path fill="#666666" stroke="#000000" stroke-width="0.4482" stroke-miterlimit="10" d="M330.134,327.166"/>
	<polygon fill="#999999" stroke="#000000" stroke-width="0.4482" stroke-miterlimit="10" points="331.855,330.178 335.297,323.292 
		328.842,323.723 325.831,330.178 331.855,330.178 	"/>
	<path fill="#999999" stroke="#000000" stroke-width="0.4482" stroke-miterlimit="10" d="M330.563,326.736"/>
	<polygon fill="#666666" stroke="#000000" stroke-width="0.4482" stroke-miterlimit="10" points="343.901,331.899 349.064,321.572 
		339.167,322.002 334.436,331.899 343.901,331.899 	"/>
	<path fill="#666666" stroke="#000000" stroke-width="0.4482" stroke-miterlimit="10" d="M341.75,326.736"/>
	<polygon fill="#999999" stroke="#000000" stroke-width="0.4482" stroke-miterlimit="10" points="343.471,329.748 346.481,322.864 
		340.459,323.292 337.018,329.748 343.471,329.748 	"/>
	<path fill="#999999" stroke="#000000" stroke-width="0.4482" stroke-miterlimit="10" d="M341.75,326.305"/>
	<polygon fill="#666666" stroke="#000000" stroke-width="0.4482" stroke-miterlimit="10" points="355.517,331.038 360.681,321.143 
		350.785,321.572 346.053,331.468 355.517,331.038 	"/>
	<path fill="#666666" stroke="#000000" stroke-width="0.4482" stroke-miterlimit="10" d="M353.365,326.305"/>
	<polygon fill="#999999" stroke="#000000" stroke-width="0.4482" stroke-miterlimit="10" points="355.086,328.886 358.101,322.433 
		352.075,322.864 348.633,329.317 355.086,328.886 	"/>
	<path fill="#999999" stroke="#000000" stroke-width="0.4482" stroke-miterlimit="10" d="M353.365,325.875"/>
	<polygon fill="#666666" stroke="#000000" stroke-width="0.4482" stroke-miterlimit="10" points="245.807,347.387 250.539,337.061 
		241.073,337.492 235.911,347.387 245.807,347.387 	"/>
	<path fill="#666666" stroke="#000000" stroke-width="0.4482" stroke-miterlimit="10" d="M243.225,342.224"/>
	<polygon fill="#999999" stroke="#000000" stroke-width="0.4482" stroke-miterlimit="10" points="244.946,345.235 248.388,338.352 
		241.935,338.783 238.922,345.235 244.946,345.235 	"/>
	<path fill="#999999" stroke="#000000" stroke-width="0.4482" stroke-miterlimit="10" d="M243.655,341.793"/>
	<polygon fill="#666666" stroke="#000000" stroke-width="0.4482" stroke-miterlimit="10" points="257.423,346.527 262.155,336.63 
		252.69,337.061 247.528,346.957 257.423,346.527 	"/>
	<path fill="#666666" stroke="#000000" stroke-width="0.4482" stroke-miterlimit="10" d="M254.842,341.793"/>
	<polygon fill="#999999" stroke="#000000" stroke-width="0.4482" stroke-miterlimit="10" points="256.563,344.375 260.005,337.921 
		253.55,338.352 250.539,344.804 256.563,344.375 	"/>
	<path fill="#999999" stroke="#000000" stroke-width="0.4482" stroke-miterlimit="10" d="M255.271,341.363"/>
	<polygon fill="#666666" stroke="#000000" stroke-width="0.4482" stroke-miterlimit="10" points="268.609,346.096 273.772,336.2 
		263.877,336.63 259.144,346.527 268.609,346.096 	"/>
	<path fill="#666666" stroke="#000000" stroke-width="0.4482" stroke-miterlimit="10" d="M266.458,341.363"/>
	<polygon fill="#999999" stroke="#000000" stroke-width="0.4482" stroke-miterlimit="10" points="268.179,343.945 271.62,337.492 
		265.167,337.921 262.155,344.375 268.179,343.945 	"/>
	<path fill="#999999" stroke="#000000" stroke-width="0.4482" stroke-miterlimit="10" d="M266.888,340.934"/>
	<polygon fill="#666666" stroke="#000000" stroke-width="0.4482" stroke-miterlimit="10" points="280.225,345.666 285.389,335.771 
		275.493,336.2 270.761,346.096 280.225,345.666 	"/>
	<path fill="#666666" stroke="#000000" stroke-width="0.4482" stroke-miterlimit="10" d="M278.075,340.934"/>
	<polygon fill="#999999" stroke="#000000" stroke-width="0.4482" stroke-miterlimit="10" points="279.796,343.514 283.238,337.061 
		276.783,337.061 273.772,343.945 279.796,343.514 	"/>
	<path fill="#999999" stroke="#000000" stroke-width="0.4482" stroke-miterlimit="10" d="M278.504,340.503"/>
	<polygon fill="#666666" stroke="#000000" stroke-width="0.4482" stroke-miterlimit="10" points="291.842,345.235 297.005,335.34 
		287.11,335.771 282.376,345.666 291.842,345.235 	"/>
	<path fill="#666666" stroke="#000000" stroke-width="0.4482" stroke-miterlimit="10" d="M289.69,340.503"/>
	<polygon fill="#999999" stroke="#000000" stroke-width="0.4482" stroke-miterlimit="10" points="291.412,343.083 294.422,336.63 
		288.4,336.63 284.958,343.514 291.412,343.083 	"/>
	<path fill="#999999" stroke="#000000" stroke-width="0.4482" stroke-miterlimit="10" d="M289.69,340.073"/>
	<polygon fill="#666666" stroke="#000000" stroke-width="0.4482" stroke-miterlimit="10" points="303.458,344.804 308.191,334.91 
		298.726,335.34 293.994,345.235 303.458,344.804 	"/>
	<path fill="#666666" stroke="#000000" stroke-width="0.4482" stroke-miterlimit="10" d="M301.308,340.073"/>
	<polygon fill="#999999" stroke="#000000" stroke-width="0.4482" stroke-miterlimit="10" points="303.029,342.655 306.04,336.2 
		300.016,336.2 296.574,343.083 303.029,342.655 	"/>
	<path fill="#999999" stroke="#000000" stroke-width="0.4482" stroke-miterlimit="10" d="M301.308,339.642"/>
	<polygon fill="#666666" stroke="#000000" stroke-width="0.4482" stroke-miterlimit="10" points="315.075,344.375 319.807,334.479 
		310.343,334.91 305.609,344.804 315.075,344.375 	"/>
	<path fill="#666666" stroke="#000000" stroke-width="0.4482" stroke-miterlimit="10" d="M312.923,339.642"/>
	<polygon fill="#999999" stroke="#000000" stroke-width="0.4482" stroke-miterlimit="10" points="314.645,342.224 317.657,335.771 
		311.633,335.771 308.191,342.655 314.645,342.224 	"/>
	<path fill="#999999" stroke="#000000" stroke-width="0.4482" stroke-miterlimit="10" d="M312.923,339.213"/>
	<polygon fill="#666666" stroke="#000000" stroke-width="0.4482" stroke-miterlimit="10" points="326.69,343.945 331.424,334.048 
		321.958,334.479 317.227,344.375 326.69,343.945 	"/>
	<path fill="#666666" stroke="#000000" stroke-width="0.4482" stroke-miterlimit="10" d="M324.11,339.213"/>
	<polygon fill="#999999" stroke="#000000" stroke-width="0.4482" stroke-miterlimit="10" points="326.262,341.793 329.272,335.34 
		323.249,335.34 319.807,342.224 326.262,341.793 	"/>
	<path fill="#999999" stroke="#000000" stroke-width="0.4482" stroke-miterlimit="10" d="M324.541,338.783"/>
	<polygon fill="#666666" stroke="#000000" stroke-width="0.4482" stroke-miterlimit="10" points="338.308,343.514 343.04,333.62 
		333.576,334.048 328.842,343.945 338.308,343.514 	"/>
	<path fill="#666666" stroke="#000000" stroke-width="0.4482" stroke-miterlimit="10" d="M335.726,338.783"/>
	<polygon fill="#999999" stroke="#000000" stroke-width="0.4482" stroke-miterlimit="10" points="337.446,341.363 340.89,334.91 
		334.866,334.91 331.424,341.793 337.446,341.363 	"/>
	<path fill="#999999" stroke="#000000" stroke-width="0.4482" stroke-miterlimit="10" d="M336.156,338.352"/>
	<polygon fill="#666666" stroke="#000000" stroke-width="0.4482" stroke-miterlimit="10" points="349.923,343.083 354.659,333.189 
		345.191,333.62 340.029,343.514 349.923,343.083 	"/>
	<path fill="#666666" stroke="#000000" stroke-width="0.4482" stroke-miterlimit="10" d="M347.343,338.352"/>
	<polygon fill="#999999" stroke="#000000" stroke-width="0.4482" stroke-miterlimit="10" points="349.064,340.934 352.506,334.479 
		346.053,334.479 343.04,341.363 349.064,340.934 	"/>
	<path fill="#999999" stroke="#000000" stroke-width="0.4482" stroke-miterlimit="10" d="M347.773,337.921"/>
	<polygon fill="#666666" stroke="#000000" stroke-width="0.4482" stroke-miterlimit="10" points="239.783,359.004 244.946,349.108 
		235.051,349.539 230.317,359.433 239.783,359.004 	"/>
	<path fill="#666666" stroke="#000000" stroke-width="0.4482" stroke-miterlimit="10" d="M237.631,354.27"/>
	<polygon fill="#999999" stroke="#000000" stroke-width="0.4482" stroke-miterlimit="10" points="239.353,356.853 242.365,350.398 
		236.341,350.398 232.899,357.283 239.353,356.853 	"/>
	<path fill="#999999" stroke="#000000" stroke-width="0.4482" stroke-miterlimit="10" d="M237.631,353.839"/>
	<polygon fill="#666666" stroke="#000000" stroke-width="0.4482" stroke-miterlimit="10" points="251.398,358.574 256.132,348.677 
		246.667,349.108 241.935,359.004 251.398,358.574 	"/>
	<path fill="#666666" stroke="#000000" stroke-width="0.4482" stroke-miterlimit="10" d="M249.249,353.839"/>
	<polygon fill="#999999" stroke="#000000" stroke-width="0.4482" stroke-miterlimit="10" points="250.97,356.421 253.981,349.969 
		247.957,349.969 244.515,356.853 250.97,356.421 	"/>
	<path fill="#999999" stroke="#000000" stroke-width="0.4482" stroke-miterlimit="10" d="M249.249,353.411"/>
	<polygon fill="#666666" stroke="#000000" stroke-width="0.4482" stroke-miterlimit="10" points="332.284,355.131 337.446,345.235 
		327.552,345.666 322.82,355.56 332.284,355.131 	"/>
	<path fill="#666666" stroke="#000000" stroke-width="0.4482" stroke-miterlimit="10" d="M330.134,350.398"/>
	<polygon fill="#999999" stroke="#000000" stroke-width="0.4482" stroke-miterlimit="10" points="331.855,352.98 335.297,346.527 
		328.842,346.957 325.831,353.411 331.855,352.98 	"/>
	<path fill="#999999" stroke="#000000" stroke-width="0.4482" stroke-miterlimit="10" d="M330.563,349.969"/>
	<polygon fill="#666666" stroke="#000000" stroke-width="0.4482" stroke-miterlimit="10" points="343.901,354.701 349.064,344.804 
		339.167,345.235 334.436,355.131 343.901,354.701 	"/>
	<path fill="#666666" stroke="#000000" stroke-width="0.4482" stroke-miterlimit="10" d="M341.75,349.969"/>
	<polygon fill="#999999" stroke="#000000" stroke-width="0.4482" stroke-miterlimit="10" points="343.471,352.549 346.481,346.096 
		340.459,346.527 337.018,352.98 343.471,352.549 	"/>
	<path fill="#999999" stroke="#000000" stroke-width="0.4482" stroke-miterlimit="10" d="M341.75,349.539"/>
	<polygon fill="#666666" stroke="#000000" stroke-width="0.4482" stroke-miterlimit="10" points="320.668,355.56 325.4,345.666 
		256.563,348.249 251.398,358.574 320.668,355.56 	"/>
	<path fill="#666666" stroke="#000000" stroke-width="0.4482" stroke-miterlimit="10" d="M258.713,353.411"/>
	<polygon fill="#999999" stroke="#000000" stroke-width="0.4482" stroke-miterlimit="10" points="319.807,353.411 323.249,346.957 
		257.423,349.539 254.412,355.992 319.807,353.411 	"/>
	<path fill="#999999" stroke="#000000" stroke-width="0.4482" stroke-miterlimit="10" d="M259.144,352.549"/>
	<polygon fill="#666666" stroke="#000000" stroke-width="0.4482" stroke-miterlimit="10" points="405.424,330.607 401.982,320.712 
		392.519,321.143 395.96,330.607 405.424,330.607 	"/>
	<path fill="#666666" stroke="#000000" stroke-width="0.4482" stroke-miterlimit="10" d="M398.972,325.875"/>
	<polygon fill="#999999" stroke="#000000" stroke-width="0.4482" stroke-miterlimit="10" points="402.844,328.457 400.694,322.002 
		394.668,322.002 396.821,328.457 402.844,328.457 	"/>
	<path fill="#999999" stroke="#000000" stroke-width="0.4482" stroke-miterlimit="10" d="M398.972,325.015"/>
	<polygon fill="#666666" stroke="#000000" stroke-width="0.4482" stroke-miterlimit="10" points="417.041,329.748 413.6,320.282 
		404.136,320.712 407.146,330.178 417.041,329.748 	"/>
	<path fill="#666666" stroke="#000000" stroke-width="0.4482" stroke-miterlimit="10" d="M410.589,325.444"/>
	<polygon fill="#999999" stroke="#000000" stroke-width="0.4482" stroke-miterlimit="10" points="414.461,328.027 412.308,321.572 
		406.285,321.572 408.438,328.027 414.461,328.027 	"/>
	<path fill="#999999" stroke="#000000" stroke-width="0.4482" stroke-miterlimit="10" d="M410.158,324.584"/>
	<polygon fill="#666666" stroke="#000000" stroke-width="0.4482" stroke-miterlimit="10" points="428.659,329.317 425.217,319.851 
		415.753,320.282 418.764,329.748 428.659,329.317 	"/>
	<path fill="#666666" stroke="#000000" stroke-width="0.4482" stroke-miterlimit="10" d="M422.206,325.015"/>
	<polygon fill="#999999" stroke="#000000" stroke-width="0.4482" stroke-miterlimit="10" points="426.078,327.595 423.925,321.143 
		417.902,321.143 420.053,327.595 426.078,327.595 	"/>
	<path fill="#999999" stroke="#000000" stroke-width="0.4482" stroke-miterlimit="10" d="M421.775,324.154"/>
	<polygon fill="#666666" stroke="#000000" stroke-width="0.4482" stroke-miterlimit="10" points="409.297,341.793 405.854,332.328 
		396.391,332.758 399.833,342.224 409.297,341.793 	"/>
	<path fill="#666666" stroke="#000000" stroke-width="0.4482" stroke-miterlimit="10" d="M402.844,337.061"/>
	<polygon fill="#999999" stroke="#000000" stroke-width="0.4482" stroke-miterlimit="10" points="406.716,339.642 404.566,333.189 
		398.541,333.62 400.694,340.073 406.716,339.642 	"/>
	<path fill="#999999" stroke="#000000" stroke-width="0.4482" stroke-miterlimit="10" d="M402.844,336.63"/>
	<polygon fill="#666666" stroke="#000000" stroke-width="0.4482" stroke-miterlimit="10" points="420.914,341.363 417.472,331.899 
		408.008,332.328 411.02,341.793 420.914,341.363 	"/>
	<path fill="#666666" stroke="#000000" stroke-width="0.4482" stroke-miterlimit="10" d="M414.461,336.63"/>
	<polygon fill="#999999" stroke="#000000" stroke-width="0.4482" stroke-miterlimit="10" points="418.333,339.213 416.18,332.758 
		410.158,333.189 412.308,339.642 418.333,339.213 	"/>
	<path fill="#999999" stroke="#000000" stroke-width="0.4482" stroke-miterlimit="10" d="M414.03,336.2"/>
	<polygon fill="#666666" stroke="#000000" stroke-width="0.4482" stroke-miterlimit="10" points="432.531,340.934 429.09,331.468 
		419.622,331.468 422.637,341.363 432.531,340.934 	"/>
	<path fill="#666666" stroke="#000000" stroke-width="0.4482" stroke-miterlimit="10" d="M426.078,336.2"/>
	<polygon fill="#999999" stroke="#000000" stroke-width="0.4482" stroke-miterlimit="10" points="429.951,338.783 427.798,332.328 
		421.345,332.758 423.925,339.213 429.951,338.783 	"/>
	<path fill="#999999" stroke="#000000" stroke-width="0.4482" stroke-miterlimit="10" d="M425.647,335.771"/>
	<polygon fill="#666666" stroke="#000000" stroke-width="0.4482" stroke-miterlimit="10" points="413.169,353.411 409.728,343.514 
		400.264,343.945 403.705,353.839 413.169,353.411 	"/>
	<path fill="#666666" stroke="#000000" stroke-width="0.4482" stroke-miterlimit="10" d="M406.716,348.677"/>
	<polygon fill="#999999" stroke="#000000" stroke-width="0.4482" stroke-miterlimit="10" points="410.589,351.259 408.438,344.804 
		402.413,345.235 404.566,351.69 410.589,351.259 	"/>
	<path fill="#999999" stroke="#000000" stroke-width="0.4482" stroke-miterlimit="10" d="M406.716,348.249"/>
	<polygon fill="#666666" stroke="#000000" stroke-width="0.4482" stroke-miterlimit="10" points="424.786,352.98 421.345,343.083 
		411.881,343.514 414.892,353.411 424.786,352.98 	"/>
	<path fill="#666666" stroke="#000000" stroke-width="0.4482" stroke-miterlimit="10" d="M418.333,348.249"/>
	<polygon fill="#999999" stroke="#000000" stroke-width="0.4482" stroke-miterlimit="10" points="422.206,350.829 420.053,344.375 
		414.03,344.804 416.18,351.259 422.206,350.829 	"/>
	<path fill="#999999" stroke="#000000" stroke-width="0.4482" stroke-miterlimit="10" d="M417.902,347.818"/>
	<polygon fill="#666666" stroke="#000000" stroke-width="0.4482" stroke-miterlimit="10" points="436.403,352.549 432.962,342.655 
		423.494,343.083 426.509,352.98 436.403,352.549 	"/>
	<path fill="#666666" stroke="#000000" stroke-width="0.4482" stroke-miterlimit="10" d="M429.951,347.818"/>
	<polygon fill="#999999" stroke="#000000" stroke-width="0.4482" stroke-miterlimit="10" points="433.819,350.398 431.67,343.945 
		425.217,343.945 427.798,350.398 433.819,350.398 	"/>
	<path fill="#999999" stroke="#000000" stroke-width="0.4482" stroke-miterlimit="10" d="M429.521,347.387"/>
	<polygon fill="#8C8C8C" points="366.703,322.864 353.798,354.27 365.842,354.27 371.868,322.864 366.703,322.864 	"/>
	<polygon fill="#8C8C8C" points="377.459,322.864 384.343,322.864 391.657,353.411 376.598,353.411 377.459,322.864 	"/>
	<path fill="none" stroke="#000000" stroke-linecap="round" stroke-linejoin="round" stroke-miterlimit="10" d="M419.622,311.247
		l15.059-0.86l8.176,18.5 M422.206,307.375l15.059-0.861l8.172,18.93"/>
	<polyline fill="none" stroke="#000000" stroke-linecap="round" stroke-linejoin="round" stroke-miterlimit="10" points="
		215.26,355.131 209.667,365.026 210.526,374.922 	"/>
	<polyline fill="none" stroke="#000000" stroke-linecap="round" stroke-linejoin="round" stroke-miterlimit="10" points="
		209.667,354.27 204.504,364.167 205.364,374.061 	"/>
	<line x1="287.539" y1="377.503" x2="345.191" y2="377.503"/>
	<line x1="297.436" y1="381.806" x2="355.086" y2="381.806"/>
	<path d="M354,115.208c-4.5-3.167-10.833-2.667-10.833-2.667l-2.104,1.396l-2.229-1.229c0,0-5.333-0.667-10.833,3.333
		c-3.667,4.5-1.498,37.157,14,36.833C358,152.542,358.833,119.875,354,115.208z"/>
	<path fill="none" stroke="#000000" stroke-width="2" stroke-linecap="round" stroke-linejoin="round" stroke-miterlimit="10" d="
		M343.901,56.545c0,0-1.991-11.616,6.022-15.918 M349.064,56.545c0,0,3.603-12.513,11.617-16.779 M351.215,59.558
		c0,0,6.381-11.939,14.626-16.35 M338.177,77.627l-2.88,10.756 M334.005,58.697c0,0,0.735-11.527-9.464-16.35 M328.842,61.278
		c0,0,0.968-9.627-9.464-14.628 M325.831,65.151c0,0,1.29-6.777-9.035-11.617"/>
	<path fill="#FFFFFF" d="M332,137.208c0,0,8.75-9,19.5-1c0,0,1.166,11.917-9.333,13.667C342.167,149.875,333.25,148.458,332,137.208
		z"/>
	<path fill="none" stroke="#000000" stroke-linecap="round" stroke-linejoin="round" stroke-miterlimit="10" d="M341.333,131.875
		c0,0,2.666,1.5,0.833,6.833"/>
	<path fill="#FFFFFF" d="M342,69.375c-1.29,0-1.29,2,0,2S343.29,69.375,342,69.375z"/>
	<path fill="#FFFFFF" d="M335,69.542h-0.167c-1.29,0-1.29,2,0,2H335C336.29,71.542,336.29,69.542,335,69.542z"/>
</g>
</svg>
