<?xml version="1.0" standalone="no"?><!-- Generator: Gravit.io --><svg xmlns="http://www.w3.org/2000/svg" xmlns:xlink="http://www.w3.org/1999/xlink" style="isolation:isolate" viewBox="0 0 450 450" width="450" height="450"><defs><clipPath id="_clipPath_gU7100bzNc4ObCUM6wocnoJEu1Yvj2b7"><rect width="450" height="450"/></clipPath></defs><g clip-path="url(#_clipPath_gU7100bzNc4ObCUM6wocnoJEu1Yvj2b7)"><g id="Group"><rect x="26" y="26" width="398" height="398" transform="matrix(1,0,0,1,0,0)" fill="rgb(223,247,250)"/><path d=" M 404.1 424 L 26 234.95 L 26 424 L 404.1 424 Z " fill-rule="evenodd" fill="rgb(176,229,253)"/><path d=" M 274.75 105.6 C 291.217 105.6 304.6 92.217 304.6 75.75 C 304.6 59.283 291.217 45.9 274.75 45.9 C 258.283 45.9 244.9 59.283 244.9 75.75 C 244.9 92.217 258.283 105.6 274.75 105.6 Z " fill="rgb(93,103,195)"/><path d=" M 125.5 225 C 132.611 224.998 139.182 221.203 142.736 215.043 C 146.29 208.884 146.288 201.296 142.731 195.138 C 139.174 188.98 132.601 185.188 125.49 185.19 C 114.497 185.193 105.587 194.107 105.59 205.1 C 105.593 216.093 114.507 225.003 125.5 225" fill="rgb(255,184,64)"/><path d=" M 304.6 374.25 L 145.4 394.15 L 105.6 364.3 L 244.9 344.4 L 304.6 374.25 Z " fill-rule="evenodd" fill="rgb(93,103,195)"/><path d=" M 165.3 314.46 L 150.375 324.5 L 145.4 394.15 L 105.6 394.15 L 100.625 324.5 L 85.7 314.46 L 85.7 274.75 C 85.7 251.069 103.54 234.95 125.5 234.95 C 147.489 234.95 165.3 251.069 165.3 274.75" fill="rgb(158,158,158)"/><path d=" M 334.45 244.9 L 314.55 259.825 L 304.6 374.25 L 244.9 344.4 L 234.95 259.825 L 215.05 244.9 L 215.05 175.25 C 215.448 141.609 237.686 115.55 274.75 115.55 C 311.854 115.55 334.052 142.763 334.45 175.25" fill="rgb(93,103,195)"/></g></g></svg>