<?xml version="1.0" encoding="UTF-8"?>
<svg xmlns="http://www.w3.org/2000/svg" viewBox="0 0 469.1 461.68">
  <g id="Layer_1" data-name="Layer 1">
    <rect x="2.59" y="16.32" width="426" height="426" fill="#fff" stroke="#231f20" stroke-miterlimit="10"/>
    <g>
      <rect x="33.61" y="47.13" width="90.99" height="90.99" fill="#fff" stroke="#231f20" stroke-miterlimit="10"/>
      <rect x="124.6" y="47.13" width="90.99" height="90.99" fill="#fff" stroke="#231f20" stroke-miterlimit="10"/>
      <rect x="33.61" y="138.26" width="90.99" height="90.99" fill="#fff" stroke="#231f20" stroke-miterlimit="10"/>
      <rect x="124.6" y="138.26" width="90.99" height="90.99" fill="#fff" stroke="#231f20" stroke-miterlimit="10"/>
      <rect x="215.59" y="47.2" width="90.99" height="90.99" fill="#fff" stroke="#231f20" stroke-miterlimit="10"/>
      <rect x="306.57" y="47.2" width="90.99" height="90.99" fill="#fff" stroke="#231f20" stroke-miterlimit="10"/>
      <rect x="215.59" y="138.33" width="90.99" height="90.99" fill="#fff" stroke="#231f20" stroke-miterlimit="10"/>
      <rect x="306.57" y="138.33" width="90.99" height="90.99" fill="#fff" stroke="#231f20" stroke-miterlimit="10"/>
      <rect x="33.61" y="229.32" width="90.99" height="90.99" fill="#fff" stroke="#231f20" stroke-miterlimit="10"/>
      <rect x="124.6" y="229.32" width="90.99" height="90.99" fill="#fff" stroke="#231f20" stroke-miterlimit="10"/>
      <rect x="33.61" y="320.44" width="90.99" height="90.99" fill="#fff" stroke="#231f20" stroke-miterlimit="10"/>
      <rect x="124.6" y="320.44" width="90.99" height="90.99" fill="#fff" stroke="#231f20" stroke-miterlimit="10"/>
      <rect x="215.59" y="229.39" width="90.99" height="90.99" fill="#fff" stroke="#231f20" stroke-miterlimit="10"/>
      <rect x="306.57" y="229.39" width="90.99" height="90.99" fill="#fff" stroke="#231f20" stroke-miterlimit="10"/>
      <rect x="215.59" y="320.51" width="90.99" height="90.99" fill="#fff" stroke="#231f20" stroke-miterlimit="10"/>
      <rect x="306.57" y="320.51" width="90.99" height="90.99" fill="#fff" stroke="#231f20" stroke-miterlimit="10"/>
    </g>
  </g>
  <g id="Layer_2" data-name="Layer 2">
    <g>
      <line x1="350.36" y1="19.94" x2="350.36" y2="44.22" fill="none" stroke="#231f20" stroke-miterlimit="10"/>
      <line x1="346.19" y1="19.94" x2="354.53" y2="19.94" fill="none" stroke="#231f20" stroke-miterlimit="10"/>
      <line x1="346.19" y1="44.16" x2="354.53" y2="44.16" fill="none" stroke="#231f20" stroke-miterlimit="10"/>
    </g>
    <g>
      <line x1="424.77" y1="88.24" x2="401.8" y2="88.24" fill="none" stroke="#231f20" stroke-miterlimit="10"/>
      <line x1="424.77" y1="84.07" x2="424.77" y2="92.42" fill="none" stroke="#231f20" stroke-miterlimit="10"/>
      <line x1="401.86" y1="84.07" x2="401.86" y2="92.42" fill="none" stroke="#231f20" stroke-miterlimit="10"/>
    </g>
    <g>
      <path d="M10.31,7.61c-.06-1.13-.13-2.48-.12-3.49h-.04c-.28.95-.61,1.96-1.02,3.07l-1.43,3.92h-.79l-1.31-3.85c-.38-1.14-.71-2.18-.94-3.14h-.02c-.02,1.01-.08,2.36-.16,3.57l-.22,3.47h-1l.56-8.08h1.33l1.38,3.91c.34,1,.61,1.88.82,2.72h.04c.2-.82.49-1.7.85-2.72l1.44-3.91h1.33l.5,8.08h-1.02l-.2-3.55Z" fill="#231f20"/>
      <path d="M16.4,11.16l-.08-.73h-.04c-.32.46-.95.86-1.78.86-1.17,0-1.77-.83-1.77-1.67,0-1.4,1.25-2.17,3.49-2.16v-.12c0-.48-.13-1.34-1.32-1.34-.54,0-1.1.17-1.51.43l-.24-.7c.48-.31,1.17-.52,1.91-.52,1.78,0,2.21,1.21,2.21,2.37v2.17c0,.5.02,1,.1,1.39h-.96ZM16.24,8.2c-1.15-.02-2.46.18-2.46,1.31,0,.68.46,1.01,1,1.01.76,0,1.24-.48,1.4-.97.04-.11.06-.23.06-.34v-1.01Z" fill="#231f20"/>
      <path d="M17.55,12.84c.48-.04.9-.17,1.15-.44.29-.34.4-.79.4-2.18v-4.86h1.05v5.27c0,1.13-.18,1.86-.7,2.39-.47.47-1.24.66-1.8.66l-.11-.83ZM20.27,3.72c.01.35-.24.65-.66.65-.4,0-.65-.3-.65-.65,0-.37.28-.66.67-.66s.64.29.64.66Z" fill="#231f20"/>
      <path d="M27.13,8.21c0,2.15-1.49,3.08-2.89,3.08-1.57,0-2.78-1.15-2.78-2.99,0-1.94,1.27-3.08,2.88-3.08s2.79,1.21,2.79,2.99ZM22.53,8.27c0,1.27.73,2.23,1.76,2.23s1.76-.95,1.76-2.25c0-.98-.49-2.23-1.74-2.23s-1.79,1.15-1.79,2.25Z" fill="#231f20"/>
      <path d="M28.47,7.17c0-.68-.01-1.27-.05-1.81h.92l.04,1.14h.05c.26-.78.9-1.27,1.61-1.27.12,0,.2.01.3.04v1c-.11-.02-.22-.04-.36-.04-.74,0-1.27.56-1.42,1.36-.02.14-.05.31-.05.49v3.09h-1.04v-3.99Z" fill="#231f20"/>
      <path d="M33.8,3.96h-2.46v-.89h5.98v.89h-2.47v7.2h-1.06V3.96Z" fill="#231f20"/>
      <path d="M42.59,8.21c0,2.15-1.49,3.08-2.89,3.08-1.57,0-2.78-1.15-2.78-2.99,0-1.94,1.27-3.08,2.88-3.08s2.79,1.21,2.79,2.99ZM37.99,8.27c0,1.27.73,2.23,1.76,2.23s1.76-.95,1.76-2.25c0-.98-.49-2.23-1.74-2.23s-1.79,1.15-1.79,2.25Z" fill="#231f20"/>
      <path d="M43.93,6.93c0-.6-.01-1.09-.05-1.57h.92l.05.94h.04c.32-.55.86-1.07,1.82-1.07.79,0,1.39.48,1.64,1.16h.02c.18-.32.41-.58.65-.76.35-.26.73-.41,1.28-.41.77,0,1.91.5,1.91,2.52v3.42h-1.03v-3.29c0-1.12-.41-1.79-1.26-1.79-.6,0-1.07.44-1.25.96-.05.14-.08.34-.08.53v3.59h-1.03v-3.48c0-.92-.41-1.6-1.21-1.6-.66,0-1.14.53-1.31,1.06-.06.16-.08.34-.08.52v3.5h-1.03v-4.23Z" fill="#231f20"/>
      <path d="M62.67,10.8c-.47.17-1.39.44-2.48.44-1.22,0-2.23-.31-3.02-1.07-.7-.67-1.13-1.75-1.13-3.01.01-2.41,1.67-4.17,4.38-4.17.94,0,1.67.2,2.01.37l-.25.85c-.43-.19-.97-.35-1.79-.35-1.97,0-3.25,1.22-3.25,3.25s1.24,3.26,3.12,3.26c.68,0,1.15-.1,1.39-.22v-2.41h-1.64v-.84h2.66v3.89Z" fill="#231f20"/>
      <path d="M64.23,7.17c0-.68-.01-1.27-.05-1.81h.92l.04,1.14h.05c.26-.78.9-1.27,1.61-1.27.12,0,.2.01.3.04v1c-.11-.02-.22-.04-.36-.04-.74,0-1.27.56-1.42,1.36-.02.14-.05.31-.05.49v3.09h-1.04v-3.99Z" fill="#231f20"/>
      <path d="M69.38,3.72c.01.36-.25.65-.67.65-.37,0-.64-.29-.64-.65s.28-.66.66-.66.65.29.65.66ZM68.2,11.16v-5.8h1.05v5.8h-1.05Z" fill="#231f20"/>
      <path d="M76.02,2.64v7.02c0,.52.01,1.1.05,1.5h-.95l-.05-1.01h-.02c-.32.65-1.03,1.14-1.98,1.14-1.4,0-2.48-1.19-2.48-2.95-.01-1.93,1.19-3.12,2.6-3.12.89,0,1.49.42,1.75.89h.02v-3.47h1.06ZM74.97,7.72c0-.13-.01-.31-.05-.44-.16-.67-.73-1.22-1.52-1.22-1.09,0-1.74.96-1.74,2.24,0,1.18.58,2.15,1.71,2.15.71,0,1.36-.47,1.55-1.26.04-.14.05-.29.05-.46v-1.01Z" fill="#231f20"/>
      <path d="M82.61,2.84c-.88,1.18-1.51,2.73-1.51,4.91s.66,3.67,1.51,4.87h-.83c-.76-1-1.57-2.53-1.57-4.87.01-2.36.82-3.9,1.57-4.91h.83Z" fill="#231f20"/>
      <path d="M84.32,8.45c.02,1.43.94,2.01,1.99,2.01.76,0,1.21-.13,1.61-.3l.18.76c-.37.17-1.01.36-1.93.36-1.79,0-2.85-1.18-2.85-2.93s1.03-3.13,2.72-3.13c1.89,0,2.4,1.67,2.4,2.73,0,.22-.02.38-.04.49h-4.08ZM87.41,7.69c.01-.67-.28-1.71-1.46-1.71-1.07,0-1.54.98-1.62,1.71h3.08Z" fill="#231f20"/>
      <path d="M90.2,5.36l.83,1.25c.22.32.4.62.59.95h.04c.19-.35.38-.65.58-.96l.82-1.24h1.14l-1.98,2.81,2.04,3h-1.2l-.85-1.31c-.23-.34-.42-.66-.62-1.01h-.02c-.19.35-.4.66-.61,1.01l-.84,1.31h-1.16l2.06-2.96-1.97-2.84h1.17Z" fill="#231f20"/>
      <path d="M95.01,10.54c0-.44.3-.76.72-.76s.71.31.71.76-.28.76-.72.76c-.42,0-.71-.32-.71-.76Z" fill="#231f20"/>
      <path d="M103.21,11.16v-2.12h-3.62v-.7l3.48-4.98h1.14v4.85h1.09v.83h-1.09v2.12h-1ZM103.21,8.21v-2.6c0-.41.01-.82.04-1.22h-.04c-.24.46-.43.79-.65,1.15l-1.91,2.65v.02h2.55Z" fill="#231f20"/>
      <path d="M106.36,9.95c.3.19,1,.49,1.73.49,1.36,0,1.78-.86,1.76-1.51-.01-1.09-1-1.56-2.01-1.56h-.59v-.79h.59c.77,0,1.74-.4,1.74-1.32,0-.62-.4-1.18-1.37-1.18-.62,0-1.22.28-1.56.52l-.28-.77c.41-.3,1.2-.6,2.04-.6,1.54,0,2.23.91,2.23,1.86,0,.8-.48,1.49-1.44,1.83v.02c.96.19,1.74.91,1.74,2,0,1.25-.97,2.34-2.84,2.34-.88,0-1.64-.28-2.03-.53l.29-.82Z" fill="#231f20"/>
      <path d="M115.53,11.16v-2.12h-3.62v-.7l3.48-4.98h1.14v4.85h1.09v.83h-1.09v2.12h-1ZM115.53,8.21v-2.6c0-.41.01-.82.04-1.22h-.04c-.24.46-.43.79-.65,1.15l-1.91,2.65v.02h2.55Z" fill="#231f20"/>
      <path d="M119.83,3.08v4.79c0,1.81.8,2.58,1.88,2.58,1.2,0,1.97-.79,1.97-2.58V3.08h1.06v4.71c0,2.48-1.31,3.5-3.06,3.5-1.66,0-2.9-.95-2.9-3.45V3.08h1.06Z" fill="#231f20"/>
      <path d="M131.64,12.06v.6h-6v-.6h6Z" fill="#231f20"/>
      <path d="M132.09,9.18c0-.98.59-1.68,1.55-2.09v-.04c-.88-.41-1.25-1.08-1.25-1.75,0-1.24,1.04-2.08,2.41-2.08,1.51,0,2.27.95,2.27,1.92,0,.66-.32,1.37-1.28,1.82v.04c.97.38,1.57,1.07,1.57,2.02,0,1.35-1.16,2.27-2.65,2.27-1.63,0-2.62-.97-2.62-2.11ZM136.29,9.13c0-.95-.66-1.4-1.71-1.7-.91.26-1.4.86-1.4,1.61-.04.79.56,1.49,1.56,1.49s1.56-.59,1.56-1.39ZM133.38,5.24c0,.78.59,1.2,1.49,1.44.67-.23,1.19-.71,1.19-1.42,0-.62-.37-1.27-1.32-1.27-.88,0-1.36.58-1.36,1.25Z" fill="#231f20"/>
      <path d="M143.4,3.36v.7l-3.39,7.1h-1.09l3.38-6.9v-.02h-3.81v-.88h4.92Z" fill="#231f20"/>
      <path d="M148.95,4.11c-.22-.01-.49,0-.79.05-1.65.28-2.53,1.49-2.71,2.77h.04c.37-.49,1.02-.9,1.88-.9,1.38,0,2.35,1,2.35,2.52,0,1.43-.97,2.75-2.59,2.75s-2.76-1.3-2.76-3.32c0-1.54.55-2.75,1.32-3.51.65-.64,1.51-1.03,2.49-1.15.31-.05.58-.06.77-.06v.86ZM148.65,8.61c0-1.12-.64-1.79-1.61-1.79-.64,0-1.22.4-1.51.96-.07.12-.12.28-.12.47.02,1.28.61,2.23,1.71,2.23.91,0,1.52-.76,1.52-1.87Z" fill="#231f20"/>
      <path d="M151.02,3.08h1.04v7.21h3.45v.88h-4.5V3.08Z" fill="#231f20"/>
      <path d="M156.02,12.61c.85-1.19,1.51-2.75,1.51-4.91s-.65-3.68-1.51-4.87h.82c.77.98,1.57,2.52,1.57,4.88s-.8,3.87-1.57,4.89h-.82Z" fill="#231f20"/>
    </g>
    <g>
      <path d="M36.06,36.96h-2.46v-.89h5.98v.89h-2.47v7.2h-1.06v-7.2Z" fill="#231f20"/>
      <path d="M40.19,41.44c.02,1.43.94,2.01,1.99,2.01.76,0,1.21-.13,1.61-.3l.18.76c-.37.17-1.01.36-1.93.36-1.79,0-2.85-1.18-2.85-2.93s1.03-3.13,2.72-3.13c1.89,0,2.4,1.67,2.4,2.73,0,.22-.02.38-.04.49h-4.08ZM43.28,40.69c.01-.67-.28-1.71-1.46-1.71-1.07,0-1.54.98-1.62,1.71h3.08Z" fill="#231f20"/>
      <path d="M45.61,40.16c0-.68-.01-1.27-.05-1.81h.92l.04,1.14h.05c.26-.78.9-1.27,1.61-1.27.12,0,.2.01.3.04v1c-.11-.02-.22-.04-.36-.04-.74,0-1.27.56-1.42,1.36-.02.14-.05.31-.05.49v3.09h-1.04v-3.99Z" fill="#231f20"/>
      <path d="M49.59,40.16c0-.68-.01-1.27-.05-1.81h.92l.04,1.14h.05c.26-.78.9-1.27,1.61-1.27.12,0,.2.01.3.04v1c-.11-.02-.22-.04-.36-.04-.74,0-1.27.56-1.42,1.36-.02.14-.05.31-.05.49v3.09h-1.04v-3.99Z" fill="#231f20"/>
      <path d="M56.66,44.16l-.08-.73h-.04c-.32.46-.95.86-1.78.86-1.17,0-1.77-.83-1.77-1.67,0-1.4,1.25-2.17,3.49-2.16v-.12c0-.48-.13-1.34-1.32-1.34-.54,0-1.1.17-1.51.43l-.24-.7c.48-.31,1.17-.52,1.91-.52,1.78,0,2.21,1.21,2.21,2.37v2.17c0,.5.02,1,.1,1.39h-.96ZM56.51,41.19c-1.15-.02-2.46.18-2.46,1.31,0,.68.46,1.01,1,1.01.76,0,1.24-.48,1.4-.97.04-.11.06-.23.06-.34v-1.01Z" fill="#231f20"/>
      <path d="M66.08,40.61c-.06-1.13-.13-2.48-.12-3.49h-.04c-.28.95-.61,1.96-1.02,3.07l-1.43,3.92h-.79l-1.31-3.85c-.38-1.14-.71-2.18-.94-3.14h-.02c-.02,1.01-.08,2.36-.16,3.57l-.22,3.47h-1l.56-8.08h1.33l1.38,3.91c.34,1,.61,1.88.82,2.72h.04c.2-.82.49-1.7.85-2.72l1.44-3.91h1.33l.5,8.08h-1.02l-.2-3.55Z" fill="#231f20"/>
      <path d="M69.54,41.44c.02,1.43.94,2.01,1.99,2.01.76,0,1.21-.13,1.61-.3l.18.76c-.37.17-1.01.36-1.93.36-1.79,0-2.85-1.18-2.85-2.93s1.03-3.13,2.72-3.13c1.89,0,2.4,1.67,2.4,2.73,0,.22-.02.38-.04.49h-4.08ZM72.64,40.69c.01-.67-.28-1.71-1.46-1.71-1.07,0-1.54.98-1.62,1.71h3.08Z" fill="#231f20"/>
      <path d="M74.82,43.08c.31.2.86.42,1.39.42.77,0,1.13-.38,1.13-.86,0-.5-.3-.78-1.08-1.07-1.04-.37-1.54-.95-1.54-1.64,0-.94.76-1.7,2-1.7.59,0,1.1.17,1.43.36l-.26.77c-.23-.14-.65-.34-1.19-.34-.62,0-.97.36-.97.79,0,.48.35.7,1.1.98,1.01.38,1.52.89,1.52,1.75,0,1.02-.79,1.74-2.17,1.74-.64,0-1.22-.16-1.63-.4l.26-.8Z" fill="#231f20"/>
      <path d="M79.72,35.64h1.05v3.62h.02c.17-.3.43-.56.76-.74.31-.18.68-.3,1.08-.3.78,0,2.03.48,2.03,2.48v3.45h-1.05v-3.33c0-.94-.35-1.73-1.34-1.73-.68,0-1.22.48-1.42,1.06-.06.14-.07.3-.07.5v3.5h-1.05v-8.52Z" fill="#231f20"/>
      <path d="M95.11,43.8c-.47.17-1.39.44-2.48.44-1.22,0-2.23-.31-3.02-1.07-.7-.67-1.13-1.75-1.13-3.01.01-2.41,1.67-4.17,4.38-4.17.94,0,1.67.2,2.01.37l-.25.85c-.43-.19-.97-.35-1.79-.35-1.97,0-3.25,1.22-3.25,3.25s1.24,3.26,3.12,3.26c.68,0,1.15-.1,1.39-.22v-2.41h-1.64v-.84h2.66v3.89Z" fill="#231f20"/>
      <path d="M96.67,40.16c0-.68-.01-1.27-.05-1.81h.92l.04,1.14h.05c.26-.78.9-1.27,1.61-1.27.12,0,.2.01.3.04v1c-.11-.02-.22-.04-.36-.04-.74,0-1.27.56-1.42,1.36-.02.14-.05.31-.05.49v3.09h-1.04v-3.99Z" fill="#231f20"/>
      <path d="M101.82,36.72c.01.36-.25.65-.67.65-.37,0-.64-.29-.64-.65s.28-.66.66-.66.65.29.65.66ZM100.65,44.16v-5.8h1.05v5.8h-1.05Z" fill="#231f20"/>
      <path d="M108.47,35.64v7.02c0,.52.01,1.1.05,1.5h-.95l-.05-1.01h-.02c-.32.65-1.03,1.14-1.98,1.14-1.4,0-2.48-1.19-2.48-2.95-.01-1.93,1.19-3.12,2.6-3.12.89,0,1.49.42,1.75.89h.02v-3.47h1.06ZM107.41,40.71c0-.13-.01-.31-.05-.44-.16-.67-.73-1.22-1.52-1.22-1.09,0-1.74.96-1.74,2.24,0,1.18.58,2.15,1.71,2.15.71,0,1.36-.47,1.55-1.26.04-.14.05-.29.05-.46v-1.01Z" fill="#231f20"/>
    </g>
    <g>
      <path d="M41.9,93.44v-2.12h-3.62v-.7l3.48-4.98h1.14v4.85h1.09v.83h-1.09v2.12h-1ZM41.9,90.49v-2.6c0-.41.01-.82.04-1.22h-.04c-.24.46-.43.79-.65,1.15l-1.91,2.65v.02h2.55Z" fill="#231f20"/>
      <path d="M45.05,92.23c.3.19,1,.49,1.73.49,1.36,0,1.78-.86,1.76-1.51-.01-1.09-1-1.56-2.01-1.56h-.59v-.79h.59c.77,0,1.74-.4,1.74-1.32,0-.62-.4-1.18-1.37-1.18-.62,0-1.22.28-1.56.52l-.28-.77c.41-.3,1.2-.6,2.04-.6,1.54,0,2.23.91,2.23,1.86,0,.8-.48,1.49-1.44,1.83v.02c.96.19,1.74.91,1.74,2,0,1.25-.97,2.34-2.84,2.34-.88,0-1.64-.28-2.03-.53l.29-.82Z" fill="#231f20"/>
      <path d="M54.21,93.44v-2.12h-3.62v-.7l3.48-4.98h1.14v4.85h1.09v.83h-1.09v2.12h-1ZM54.21,90.49v-2.6c0-.41.01-.82.04-1.22h-.04c-.24.46-.43.79-.65,1.15l-1.91,2.65v.02h2.55Z" fill="#231f20"/>
      <path d="M58.52,85.36v4.79c0,1.81.8,2.58,1.88,2.58,1.2,0,1.97-.79,1.97-2.58v-4.79h1.06v4.71c0,2.48-1.31,3.5-3.06,3.5-1.66,0-2.9-.95-2.9-3.45v-4.76h1.06Z" fill="#231f20"/>
      <path d="M70.33,94.34v.6h-6v-.6h6Z" fill="#231f20"/>
      <path d="M70.78,91.46c0-.98.59-1.68,1.55-2.09v-.04c-.88-.41-1.25-1.08-1.25-1.75,0-1.24,1.04-2.08,2.41-2.08,1.51,0,2.27.95,2.27,1.92,0,.66-.32,1.37-1.28,1.82v.04c.97.38,1.57,1.07,1.57,2.02,0,1.35-1.16,2.27-2.65,2.27-1.63,0-2.62-.97-2.62-2.11ZM74.97,91.42c0-.95-.66-1.4-1.71-1.7-.91.26-1.4.86-1.4,1.61-.04.79.56,1.49,1.56,1.49s1.56-.59,1.56-1.39ZM72.07,87.52c0,.78.59,1.2,1.49,1.44.67-.23,1.19-.71,1.19-1.42,0-.62-.37-1.27-1.32-1.27-.88,0-1.36.58-1.36,1.25Z" fill="#231f20"/>
      <path d="M82.09,85.65v.7l-3.39,7.1h-1.09l3.38-6.9v-.02h-3.81v-.88h4.92Z" fill="#231f20"/>
      <path d="M87.63,86.39c-.22-.01-.49,0-.79.05-1.65.28-2.53,1.49-2.71,2.77h.04c.37-.49,1.02-.9,1.88-.9,1.38,0,2.35,1,2.35,2.52,0,1.43-.97,2.75-2.59,2.75s-2.76-1.3-2.76-3.32c0-1.54.55-2.75,1.32-3.51.65-.64,1.51-1.03,2.5-1.15.31-.05.58-.06.77-.06v.86ZM87.33,90.89c0-1.12-.64-1.79-1.61-1.79-.64,0-1.22.4-1.51.96-.07.12-.12.28-.12.47.02,1.28.61,2.23,1.71,2.23.91,0,1.52-.76,1.52-1.87Z" fill="#231f20"/>
      <path d="M89.71,85.36h1.04v7.21h3.45v.88h-4.5v-8.08Z" fill="#231f20"/>
      <path d="M100.46,94.34v.6h-6v-.6h6Z" fill="#231f20"/>
      <path d="M106.18,89.46c0,2.65-.98,4.11-2.71,4.11-1.52,0-2.55-1.43-2.58-4.01,0-2.61,1.13-4.05,2.71-4.05s2.58,1.46,2.58,3.95ZM101.95,89.58c0,2.03.62,3.18,1.58,3.18,1.08,0,1.59-1.26,1.59-3.25s-.49-3.18-1.58-3.18c-.92,0-1.59,1.13-1.59,3.25Z" fill="#231f20"/>
      <path d="M112.62,94.34v.6h-6v-.6h6Z" fill="#231f20"/>
      <path d="M118.34,89.46c0,2.65-.98,4.11-2.71,4.11-1.52,0-2.55-1.43-2.58-4.01,0-2.61,1.13-4.05,2.71-4.05s2.58,1.46,2.58,3.95ZM114.11,89.58c0,2.03.62,3.18,1.58,3.18,1.08,0,1.59-1.26,1.59-3.25s-.49-3.18-1.58-3.18c-.92,0-1.59,1.13-1.59,3.25Z" fill="#231f20"/>
    </g>
    <g>
      <path d="M42.9,371.09v-2.12h-3.62v-.7l3.48-4.98h1.14v4.85h1.09v.83h-1.09v2.12h-1ZM42.9,368.14v-2.6c0-.41.01-.82.04-1.22h-.04c-.24.46-.43.79-.65,1.15l-1.91,2.65v.02h2.55Z" fill="#231f20"/>
      <path d="M46.05,369.88c.3.19,1,.49,1.73.49,1.36,0,1.78-.86,1.76-1.51-.01-1.09-1-1.56-2.01-1.56h-.59v-.79h.59c.77,0,1.74-.4,1.74-1.32,0-.62-.4-1.17-1.37-1.17-.62,0-1.22.28-1.56.52l-.28-.77c.41-.3,1.2-.6,2.04-.6,1.54,0,2.23.91,2.23,1.86,0,.8-.48,1.49-1.44,1.83v.02c.96.19,1.74.91,1.74,2,0,1.25-.97,2.34-2.84,2.34-.88,0-1.64-.28-2.03-.53l.29-.82Z" fill="#231f20"/>
      <path d="M55.21,371.09v-2.12h-3.62v-.7l3.48-4.98h1.14v4.85h1.09v.83h-1.09v2.12h-1ZM55.21,368.14v-2.6c0-.41.01-.82.04-1.22h-.04c-.24.46-.43.79-.65,1.15l-1.91,2.65v.02h2.55Z" fill="#231f20"/>
      <path d="M59.52,363.01v4.79c0,1.81.8,2.58,1.88,2.58,1.2,0,1.97-.79,1.97-2.58v-4.79h1.06v4.71c0,2.48-1.31,3.5-3.06,3.5-1.66,0-2.9-.95-2.9-3.45v-4.76h1.06Z" fill="#231f20"/>
      <path d="M71.33,371.99v.6h-6v-.6h6Z" fill="#231f20"/>
      <path d="M71.78,369.11c0-.98.59-1.68,1.55-2.09v-.04c-.88-.41-1.25-1.08-1.25-1.75,0-1.24,1.04-2.08,2.41-2.08,1.51,0,2.27.95,2.27,1.92,0,.66-.32,1.37-1.28,1.82v.04c.97.38,1.57,1.07,1.57,2.02,0,1.35-1.16,2.27-2.65,2.27-1.63,0-2.62-.97-2.62-2.11ZM75.97,369.06c0-.95-.66-1.4-1.71-1.7-.91.26-1.4.86-1.4,1.61-.04.79.56,1.49,1.56,1.49s1.56-.59,1.56-1.39ZM73.07,365.17c0,.78.59,1.2,1.49,1.44.67-.23,1.19-.71,1.19-1.42,0-.62-.37-1.27-1.32-1.27-.88,0-1.36.58-1.36,1.25Z" fill="#231f20"/>
      <path d="M83.09,363.3v.7l-3.39,7.1h-1.09l3.38-6.9v-.02h-3.81v-.88h4.92Z" fill="#231f20"/>
      <path d="M88.63,364.04c-.22-.01-.49,0-.79.05-1.65.28-2.53,1.49-2.71,2.77h.04c.37-.49,1.02-.9,1.88-.9,1.38,0,2.35,1,2.35,2.52,0,1.43-.97,2.75-2.59,2.75s-2.76-1.3-2.76-3.32c0-1.54.55-2.75,1.32-3.51.65-.64,1.51-1.03,2.5-1.15.31-.05.58-.06.77-.06v.86ZM88.33,368.54c0-1.12-.64-1.79-1.61-1.79-.64,0-1.22.4-1.51.96-.07.12-.12.28-.12.47.02,1.28.61,2.23,1.71,2.23.91,0,1.52-.76,1.52-1.87Z" fill="#231f20"/>
      <path d="M90.71,363.01h1.04v7.21h3.45v.88h-4.5v-8.08Z" fill="#231f20"/>
      <path d="M101.46,371.99v.6h-6v-.6h6Z" fill="#231f20"/>
      <path d="M107.18,367.11c0,2.65-.98,4.11-2.71,4.11-1.52,0-2.55-1.43-2.58-4.01,0-2.61,1.13-4.05,2.71-4.05s2.58,1.46,2.58,3.95ZM102.95,367.23c0,2.03.62,3.18,1.58,3.18,1.08,0,1.59-1.26,1.59-3.25s-.49-3.18-1.58-3.18c-.92,0-1.59,1.13-1.59,3.25Z" fill="#231f20"/>
      <path d="M113.62,371.99v.6h-6v-.6h6Z" fill="#231f20"/>
      <path d="M114.41,369.88c.3.19,1,.49,1.73.49,1.36,0,1.78-.86,1.76-1.51-.01-1.09-1-1.56-2.01-1.56h-.59v-.79h.59c.77,0,1.74-.4,1.74-1.32,0-.62-.4-1.17-1.37-1.17-.62,0-1.22.28-1.56.52l-.28-.77c.41-.3,1.2-.6,2.04-.6,1.54,0,2.23.91,2.23,1.86,0,.8-.48,1.49-1.44,1.83v.02c.96.19,1.74.91,1.74,2,0,1.25-.97,2.34-2.84,2.34-.88,0-1.64-.28-2.03-.53l.29-.82Z" fill="#231f20"/>
    </g>
    <g>
      <path d="M315.22,92.44v-2.12h-3.62v-.7l3.48-4.98h1.14v4.85h1.09v.83h-1.09v2.12h-1ZM315.22,89.49v-2.6c0-.41.01-.82.04-1.22h-.04c-.24.46-.43.79-.65,1.15l-1.91,2.65v.02h2.55Z" fill="#231f20"/>
      <path d="M318.37,91.23c.3.19,1,.49,1.73.49,1.36,0,1.78-.86,1.76-1.51-.01-1.09-1-1.56-2.01-1.56h-.59v-.79h.59c.77,0,1.74-.4,1.74-1.32,0-.62-.4-1.18-1.37-1.18-.62,0-1.22.28-1.56.52l-.28-.77c.41-.3,1.2-.6,2.04-.6,1.54,0,2.23.91,2.23,1.86,0,.8-.48,1.49-1.44,1.83v.02c.96.19,1.74.91,1.74,2,0,1.25-.97,2.34-2.84,2.34-.88,0-1.64-.28-2.03-.53l.29-.82Z" fill="#231f20"/>
      <path d="M327.53,92.44v-2.12h-3.62v-.7l3.48-4.98h1.14v4.85h1.09v.83h-1.09v2.12h-1ZM327.53,89.49v-2.6c0-.41.01-.82.04-1.22h-.04c-.24.46-.43.79-.65,1.15l-1.91,2.65v.02h2.55Z" fill="#231f20"/>
      <path d="M331.84,84.36v4.79c0,1.81.8,2.58,1.88,2.58,1.2,0,1.97-.79,1.97-2.58v-4.79h1.06v4.71c0,2.48-1.31,3.5-3.06,3.5-1.66,0-2.9-.95-2.9-3.45v-4.76h1.06Z" fill="#231f20"/>
      <path d="M343.65,93.34v.6h-6v-.6h6Z" fill="#231f20"/>
      <path d="M344.09,90.46c0-.98.59-1.68,1.55-2.09v-.04c-.88-.41-1.25-1.08-1.25-1.75,0-1.24,1.04-2.08,2.41-2.08,1.51,0,2.27.95,2.27,1.92,0,.66-.32,1.37-1.28,1.82v.04c.97.38,1.57,1.07,1.57,2.02,0,1.35-1.16,2.27-2.65,2.27-1.63,0-2.62-.97-2.62-2.11ZM348.29,90.42c0-.95-.66-1.4-1.71-1.7-.91.26-1.4.86-1.4,1.61-.04.79.56,1.49,1.56,1.49s1.56-.59,1.56-1.39ZM345.39,86.52c0,.78.59,1.2,1.49,1.44.67-.23,1.19-.71,1.19-1.42,0-.62-.37-1.27-1.32-1.27-.88,0-1.36.58-1.36,1.25Z" fill="#231f20"/>
      <path d="M355.41,84.65v.7l-3.39,7.1h-1.09l3.38-6.9v-.02h-3.81v-.88h4.92Z" fill="#231f20"/>
      <path d="M360.95,85.39c-.22-.01-.49,0-.79.05-1.65.28-2.53,1.49-2.71,2.77h.04c.37-.49,1.02-.9,1.88-.9,1.38,0,2.35,1,2.35,2.52,0,1.43-.97,2.75-2.59,2.75s-2.76-1.3-2.76-3.32c0-1.54.55-2.75,1.32-3.51.65-.64,1.51-1.03,2.5-1.15.31-.05.58-.06.77-.06v.86ZM360.65,89.89c0-1.12-.64-1.79-1.61-1.79-.64,0-1.22.4-1.51.96-.07.12-.12.28-.12.47.02,1.28.61,2.23,1.71,2.23.91,0,1.52-.76,1.52-1.87Z" fill="#231f20"/>
      <path d="M363.03,84.36h1.04v7.21h3.45v.88h-4.5v-8.08Z" fill="#231f20"/>
      <path d="M373.78,93.34v.6h-6v-.6h6Z" fill="#231f20"/>
      <path d="M374.57,91.23c.3.19,1,.49,1.73.49,1.36,0,1.78-.86,1.76-1.51-.01-1.09-1-1.56-2.01-1.56h-.59v-.79h.59c.77,0,1.74-.4,1.74-1.32,0-.62-.4-1.18-1.37-1.18-.62,0-1.22.28-1.56.52l-.28-.77c.41-.3,1.2-.6,2.04-.6,1.54,0,2.23.91,2.23,1.86,0,.8-.48,1.49-1.44,1.83v.02c.96.19,1.74.91,1.74,2,0,1.25-.97,2.34-2.84,2.34-.88,0-1.64-.28-2.03-.53l.29-.82Z" fill="#231f20"/>
      <path d="M385.93,93.34v.6h-6v-.6h6Z" fill="#231f20"/>
      <path d="M391.66,88.46c0,2.65-.98,4.11-2.71,4.11-1.52,0-2.55-1.43-2.58-4.01,0-2.61,1.13-4.05,2.71-4.05s2.58,1.46,2.58,3.95ZM387.43,88.58c0,2.03.62,3.18,1.58,3.18,1.08,0,1.59-1.26,1.59-3.25s-.49-3.18-1.58-3.18c-.92,0-1.59,1.13-1.59,3.25Z" fill="#231f20"/>
    </g>
    <g>
      <path d="M315.22,371.09v-2.12h-3.62v-.7l3.48-4.98h1.14v4.85h1.09v.83h-1.09v2.12h-1ZM315.22,368.14v-2.6c0-.41.01-.82.04-1.22h-.04c-.24.46-.43.79-.65,1.15l-1.91,2.65v.02h2.55Z" fill="#231f20"/>
      <path d="M318.37,369.88c.3.19,1,.49,1.73.49,1.36,0,1.78-.86,1.76-1.51-.01-1.09-1-1.56-2.01-1.56h-.59v-.79h.59c.77,0,1.74-.4,1.74-1.32,0-.62-.4-1.18-1.37-1.18-.62,0-1.22.28-1.56.52l-.28-.77c.41-.3,1.2-.6,2.04-.6,1.54,0,2.23.91,2.23,1.86,0,.8-.48,1.49-1.44,1.83v.02c.96.19,1.74.91,1.74,2,0,1.25-.97,2.34-2.84,2.34-.88,0-1.64-.28-2.03-.53l.29-.82Z" fill="#231f20"/>
      <path d="M327.53,371.09v-2.12h-3.62v-.7l3.48-4.98h1.14v4.85h1.09v.83h-1.09v2.12h-1ZM327.53,368.14v-2.6c0-.41.01-.82.04-1.22h-.04c-.24.46-.43.79-.65,1.15l-1.91,2.65v.02h2.55Z" fill="#231f20"/>
      <path d="M331.84,363.01v4.79c0,1.81.8,2.58,1.88,2.58,1.2,0,1.97-.79,1.97-2.58v-4.79h1.06v4.71c0,2.48-1.31,3.5-3.06,3.5-1.66,0-2.9-.95-2.9-3.45v-4.76h1.06Z" fill="#231f20"/>
      <path d="M343.65,371.99v.6h-6v-.6h6Z" fill="#231f20"/>
      <path d="M344.09,369.11c0-.98.59-1.68,1.55-2.09v-.04c-.88-.41-1.25-1.08-1.25-1.75,0-1.24,1.04-2.08,2.41-2.08,1.51,0,2.27.95,2.27,1.92,0,.66-.32,1.37-1.28,1.82v.04c.97.38,1.57,1.07,1.57,2.01,0,1.36-1.16,2.27-2.65,2.27-1.63,0-2.62-.97-2.62-2.11ZM348.29,369.06c0-.95-.66-1.4-1.71-1.7-.91.26-1.4.86-1.4,1.61-.04.79.56,1.49,1.56,1.49s1.56-.59,1.56-1.39ZM345.39,365.17c0,.78.59,1.2,1.49,1.44.67-.23,1.19-.71,1.19-1.42,0-.62-.37-1.27-1.32-1.27-.88,0-1.36.58-1.36,1.25Z" fill="#231f20"/>
      <path d="M355.41,363.3v.7l-3.39,7.1h-1.09l3.38-6.9v-.02h-3.81v-.88h4.92Z" fill="#231f20"/>
      <path d="M360.95,364.04c-.22-.01-.49,0-.79.05-1.65.28-2.53,1.49-2.71,2.77h.04c.37-.49,1.02-.9,1.88-.9,1.38,0,2.35,1,2.35,2.52,0,1.43-.97,2.75-2.59,2.75s-2.76-1.29-2.76-3.32c0-1.54.55-2.75,1.32-3.51.65-.64,1.51-1.03,2.5-1.15.31-.05.58-.06.77-.06v.86ZM360.65,368.54c0-1.12-.64-1.79-1.61-1.79-.64,0-1.22.4-1.51.96-.07.12-.12.28-.12.47.02,1.28.61,2.23,1.71,2.23.91,0,1.52-.76,1.52-1.87Z" fill="#231f20"/>
      <path d="M363.03,363.01h1.04v7.21h3.45v.88h-4.5v-8.08Z" fill="#231f20"/>
      <path d="M373.78,371.99v.6h-6v-.6h6Z" fill="#231f20"/>
      <path d="M374.57,369.88c.3.19,1,.49,1.73.49,1.36,0,1.78-.86,1.76-1.51-.01-1.09-1-1.56-2.01-1.56h-.59v-.79h.59c.77,0,1.74-.4,1.74-1.32,0-.62-.4-1.18-1.37-1.18-.62,0-1.22.28-1.56.52l-.28-.77c.41-.3,1.2-.6,2.04-.6,1.54,0,2.23.91,2.23,1.86,0,.8-.48,1.49-1.44,1.83v.02c.96.19,1.74.91,1.74,2,0,1.25-.97,2.34-2.84,2.34-.88,0-1.64-.28-2.03-.53l.29-.82Z" fill="#231f20"/>
      <path d="M385.93,371.99v.6h-6v-.6h6Z" fill="#231f20"/>
      <path d="M386.73,369.88c.3.19,1,.49,1.73.49,1.36,0,1.78-.86,1.76-1.51-.01-1.09-1-1.56-2.01-1.56h-.59v-.79h.59c.77,0,1.74-.4,1.74-1.32,0-.62-.4-1.18-1.37-1.18-.62,0-1.22.28-1.56.52l-.28-.77c.41-.3,1.2-.6,2.04-.6,1.54,0,2.23.91,2.23,1.86,0,.8-.48,1.49-1.44,1.83v.02c.96.19,1.74.91,1.74,2,0,1.25-.97,2.34-2.84,2.34-.88,0-1.64-.28-2.03-.53l.29-.82Z" fill="#231f20"/>
    </g>
    <g>
      <line x1="422.05" y1="427.81" x2="8.09" y2="427.81" fill="none" stroke="#231f20" stroke-miterlimit="10"/>
      <line x1="422.05" y1="423.64" x2="422.05" y2="431.99" fill="none" stroke="#231f20" stroke-miterlimit="10"/>
      <line x1="7.9" y1="423.64" x2="7.9" y2="431.99" fill="none" stroke="#231f20" stroke-miterlimit="10"/>
    </g>
    <g>
      <line x1="120.15" y1="183.65" x2="37.76" y2="183.65" fill="none" stroke="#231f20" stroke-miterlimit="10"/>
      <line x1="120.15" y1="179.48" x2="120.15" y2="187.82" fill="none" stroke="#231f20" stroke-miterlimit="10"/>
      <line x1="37.98" y1="179.48" x2="37.98" y2="187.82" fill="none" stroke="#231f20" stroke-miterlimit="10"/>
    </g>
    <g>
      <path d="M55,179.48v-.65l.83-.8c1.99-1.9,2.89-2.9,2.9-4.08,0-.79-.38-1.52-1.55-1.52-.71,0-1.3.36-1.66.66l-.34-.74c.54-.46,1.31-.79,2.21-.79,1.68,0,2.39,1.15,2.39,2.27,0,1.44-1.04,2.6-2.69,4.19l-.62.58v.02h3.5v.88h-4.98Z" fill="#231f20"/>
      <path d="M65.61,172.43c-.22-.01-.49,0-.79.05-1.65.28-2.53,1.49-2.71,2.77h.04c.37-.49,1.02-.9,1.88-.9,1.38,0,2.35,1,2.35,2.52,0,1.43-.97,2.75-2.59,2.75s-2.76-1.3-2.76-3.32c0-1.54.55-2.75,1.32-3.51.65-.64,1.51-1.03,2.5-1.15.31-.05.58-.06.77-.06v.86ZM65.31,176.92c0-1.12-.64-1.79-1.61-1.79-.64,0-1.22.4-1.51.96-.07.12-.12.28-.12.47.02,1.28.61,2.23,1.71,2.23.91,0,1.52-.76,1.52-1.87Z" fill="#231f20"/>
      <path d="M70.58,179.48v-2.12h-3.62v-.7l3.48-4.98h1.14v4.85h1.09v.83h-1.09v2.12h-1ZM70.58,176.53v-2.6c0-.41.01-.82.04-1.22h-.04c-.24.46-.43.79-.65,1.15l-1.91,2.65v.02h2.55Z" fill="#231f20"/>
      <path d="M76.39,171.49c.5-.08,1.16-.16,2-.16,1.03,0,1.79.24,2.27.67.44.38.71.97.71,1.69s-.22,1.31-.62,1.73c-.55.59-1.45.89-2.47.89-.31,0-.6-.01-.84-.07v3.24h-1.04v-7.99ZM77.43,175.39c.23.06.52.08.86.08,1.26,0,2.03-.61,2.03-1.73s-.76-1.58-1.91-1.58c-.46,0-.8.04-.98.08v3.14Z" fill="#231f20"/>
      <path d="M83.72,172.04c.01.36-.25.65-.67.65-.37,0-.64-.29-.64-.65s.28-.66.66-.66.65.29.65.66ZM82.54,179.48v-5.8h1.05v5.8h-1.05Z" fill="#231f20"/>
      <path d="M85.84,173.67l.83,1.25c.22.32.4.62.59.95h.04c.19-.35.38-.65.58-.96l.82-1.24h1.14l-1.98,2.81,2.04,3h-1.2l-.85-1.31c-.23-.34-.42-.66-.62-1.01h-.02c-.19.35-.4.66-.61,1.01l-.84,1.31h-1.16l2.06-2.96-1.97-2.84h1.18Z" fill="#231f20"/>
      <path d="M91.32,176.77c.02,1.43.94,2.01,1.99,2.01.76,0,1.21-.13,1.61-.3l.18.76c-.37.17-1.01.36-1.93.36-1.79,0-2.85-1.18-2.85-2.93s1.03-3.13,2.72-3.13c1.89,0,2.4,1.67,2.4,2.73,0,.22-.02.38-.04.49h-4.08ZM94.41,176.01c.01-.67-.28-1.71-1.46-1.71-1.07,0-1.54.98-1.62,1.71h3.08Z" fill="#231f20"/>
      <path d="M96.74,170.96h1.05v8.52h-1.05v-8.52Z" fill="#231f20"/>
      <path d="M99.43,178.4c.31.2.86.42,1.39.42.77,0,1.13-.38,1.13-.86,0-.5-.3-.78-1.08-1.07-1.04-.37-1.54-.95-1.54-1.64,0-.94.76-1.7,2-1.7.59,0,1.1.17,1.43.36l-.26.77c-.23-.14-.65-.34-1.19-.34-.62,0-.97.36-.97.79,0,.48.35.7,1.1.98,1.01.38,1.52.89,1.52,1.75,0,1.02-.79,1.74-2.17,1.74-.64,0-1.22-.16-1.63-.4l.26-.8Z" fill="#231f20"/>
    </g>
    <g>
      <path d="M188.83,451.93h-.02l-1.36.73-.2-.8,1.7-.91h.9v7.8h-1.02v-6.81Z" fill="#231f20"/>
      <path d="M197.88,454.76c0,2.65-.98,4.11-2.71,4.11-1.52,0-2.55-1.43-2.58-4.01,0-2.61,1.13-4.05,2.71-4.05s2.58,1.46,2.58,3.95ZM193.64,454.88c0,2.03.62,3.18,1.58,3.18,1.08,0,1.59-1.26,1.59-3.25s-.49-3.18-1.58-3.18c-.92,0-1.59,1.13-1.59,3.25Z" fill="#231f20"/>
      <path d="M203.3,451.69c-.22-.01-.49,0-.79.05-1.65.28-2.53,1.49-2.71,2.77h.04c.37-.49,1.02-.9,1.88-.9,1.38,0,2.35,1,2.35,2.52,0,1.43-.97,2.75-2.59,2.75s-2.76-1.3-2.76-3.32c0-1.54.55-2.75,1.32-3.51.65-.64,1.51-1.03,2.49-1.15.31-.05.58-.06.77-.06v.86ZM203,456.19c0-1.12-.64-1.79-1.61-1.79-.64,0-1.22.4-1.51.96-.07.12-.12.28-.12.47.02,1.28.61,2.23,1.71,2.23.91,0,1.52-.76,1.52-1.87Z" fill="#231f20"/>
      <path d="M204.91,456.76c0-.98.59-1.68,1.55-2.09v-.04c-.88-.41-1.25-1.08-1.25-1.75,0-1.24,1.04-2.08,2.41-2.08,1.51,0,2.27.95,2.27,1.92,0,.66-.32,1.37-1.28,1.82v.04c.97.38,1.57,1.07,1.57,2.02,0,1.35-1.16,2.27-2.65,2.27-1.63,0-2.62-.97-2.62-2.11ZM209.11,456.71c0-.95-.66-1.4-1.71-1.7-.91.26-1.4.86-1.4,1.61-.04.79.56,1.49,1.56,1.49s1.56-.59,1.56-1.39ZM206.21,452.82c0,.78.59,1.2,1.49,1.44.67-.23,1.19-.71,1.19-1.42,0-.62-.37-1.27-1.32-1.27-.88,0-1.36.58-1.36,1.25Z" fill="#231f20"/>
      <path d="M214.08,450.75c.5-.08,1.16-.16,2-.16,1.03,0,1.79.24,2.27.67.44.38.71.97.71,1.69s-.22,1.31-.62,1.73c-.55.59-1.45.89-2.47.89-.31,0-.6-.01-.84-.07v3.24h-1.04v-7.99ZM215.12,454.65c.23.06.52.08.86.08,1.26,0,2.03-.61,2.03-1.73s-.76-1.58-1.91-1.58c-.46,0-.8.04-.98.08v3.14Z" fill="#231f20"/>
      <path d="M221.41,451.3c.01.36-.25.65-.67.65-.37,0-.64-.29-.64-.65s.28-.66.66-.66.65.29.65.66ZM220.23,458.74v-5.8h1.05v5.8h-1.05Z" fill="#231f20"/>
      <path d="M223.53,452.94l.83,1.25c.22.32.4.62.59.95h.04c.19-.35.38-.65.58-.96l.82-1.24h1.14l-1.98,2.81,2.04,3h-1.2l-.85-1.31c-.23-.34-.42-.66-.62-1.01h-.02c-.19.35-.4.66-.61,1.01l-.84,1.31h-1.16l2.06-2.96-1.97-2.84h1.17Z" fill="#231f20"/>
      <path d="M229,456.03c.02,1.43.94,2.01,1.99,2.01.76,0,1.21-.13,1.61-.3l.18.76c-.37.17-1.01.36-1.93.36-1.79,0-2.85-1.18-2.85-2.93s1.03-3.13,2.72-3.13c1.89,0,2.4,1.67,2.4,2.73,0,.22-.02.38-.04.49h-4.08ZM232.1,455.27c.01-.67-.28-1.71-1.46-1.71-1.07,0-1.54.98-1.62,1.71h3.08Z" fill="#231f20"/>
      <path d="M234.43,450.23h1.05v8.52h-1.05v-8.52Z" fill="#231f20"/>
      <path d="M237.12,457.66c.31.2.86.42,1.39.42.77,0,1.13-.38,1.13-.86,0-.5-.3-.78-1.08-1.07-1.04-.37-1.54-.95-1.54-1.64,0-.93.76-1.7,2-1.7.59,0,1.1.17,1.43.36l-.26.77c-.23-.14-.65-.34-1.19-.34-.62,0-.97.36-.97.79,0,.48.35.7,1.1.98,1.01.38,1.52.89,1.52,1.75,0,1.02-.79,1.74-2.17,1.74-.64,0-1.22-.16-1.63-.4l.26-.8Z" fill="#231f20"/>
    </g>
    <g>
      <path d="M435.58,85.36c-.22-.01-.49,0-.79.05-1.65.28-2.53,1.49-2.71,2.77h.04c.37-.49,1.02-.9,1.88-.9,1.38,0,2.35,1,2.35,2.52,0,1.43-.97,2.75-2.59,2.75s-2.76-1.3-2.76-3.32c0-1.54.55-2.75,1.32-3.51.65-.64,1.51-1.03,2.5-1.15.31-.05.58-.06.77-.06v.86ZM435.28,89.86c0-1.12-.64-1.79-1.61-1.79-.64,0-1.22.4-1.51.96-.07.12-.12.28-.12.47.02,1.28.61,2.23,1.71,2.23.91,0,1.52-.76,1.52-1.87Z" fill="#231f20"/>
      <path d="M440.21,84.43c.5-.08,1.16-.16,2-.16,1.03,0,1.79.24,2.27.67.44.38.71.97.71,1.69s-.22,1.31-.62,1.73c-.55.59-1.45.89-2.47.89-.31,0-.6-.01-.84-.07v3.24h-1.04v-7.99ZM441.25,88.33c.23.06.52.08.86.08,1.26,0,2.03-.61,2.03-1.73s-.76-1.58-1.91-1.58c-.46,0-.8.04-.98.08v3.14Z" fill="#231f20"/>
      <path d="M447.54,84.98c.01.36-.25.65-.67.65-.37,0-.64-.29-.64-.65s.28-.66.66-.66.65.29.65.66ZM446.36,92.42v-5.8h1.05v5.8h-1.05Z" fill="#231f20"/>
      <path d="M449.66,86.61l.83,1.25c.22.32.4.62.59.95h.04c.19-.35.38-.65.58-.96l.82-1.24h1.14l-1.98,2.81,2.04,3h-1.2l-.85-1.31c-.23-.34-.42-.66-.62-1.01h-.02c-.19.35-.4.66-.61,1.01l-.84,1.31h-1.16l2.06-2.96-1.97-2.84h1.18Z" fill="#231f20"/>
      <path d="M455.13,89.71c.02,1.43.94,2.01,1.99,2.01.76,0,1.21-.13,1.61-.3l.18.76c-.37.17-1.01.36-1.93.36-1.79,0-2.85-1.18-2.85-2.93s1.03-3.13,2.72-3.13c1.89,0,2.4,1.67,2.4,2.73,0,.22-.02.38-.04.49h-4.08ZM458.23,88.95c.01-.67-.28-1.71-1.46-1.71-1.07,0-1.54.98-1.62,1.71h3.08Z" fill="#231f20"/>
      <path d="M460.56,83.9h1.05v8.52h-1.05v-8.52Z" fill="#231f20"/>
      <path d="M463.25,91.34c.31.2.86.42,1.39.42.77,0,1.13-.38,1.13-.86,0-.5-.3-.78-1.08-1.07-1.04-.37-1.54-.95-1.54-1.64,0-.94.76-1.7,2-1.7.59,0,1.1.17,1.43.36l-.26.77c-.23-.14-.65-.34-1.19-.34-.62,0-.97.36-.97.79,0,.48.35.7,1.1.98,1.01.38,1.52.89,1.52,1.75,0,1.02-.79,1.74-2.17,1.74-.64,0-1.22-.16-1.63-.4l.26-.8Z" fill="#231f20"/>
    </g>
    <g>
      <path d="M337.74,6.11c-.22-.01-.49,0-.79.05-1.65.28-2.53,1.49-2.71,2.77h.04c.37-.49,1.02-.9,1.88-.9,1.38,0,2.35,1,2.35,2.52,0,1.43-.97,2.75-2.59,2.75s-2.76-1.3-2.76-3.32c0-1.54.55-2.75,1.32-3.51.65-.64,1.51-1.03,2.5-1.15.31-.05.58-.06.77-.06v.86ZM337.44,10.61c0-1.12-.64-1.79-1.61-1.79-.64,0-1.22.4-1.51.96-.07.12-.12.28-.12.47.02,1.28.61,2.23,1.71,2.23.91,0,1.52-.76,1.52-1.87Z" fill="#231f20"/>
      <path d="M342.36,5.17c.5-.08,1.16-.16,2-.16,1.03,0,1.79.24,2.27.67.44.38.71.97.71,1.69s-.22,1.31-.62,1.73c-.55.59-1.45.89-2.47.89-.31,0-.6-.01-.84-.07v3.24h-1.04v-7.99ZM343.41,9.07c.23.06.52.08.86.08,1.26,0,2.03-.61,2.03-1.73s-.76-1.58-1.91-1.58c-.46,0-.8.04-.98.08v3.14Z" fill="#231f20"/>
      <path d="M349.7,5.72c.01.36-.25.65-.67.65-.37,0-.64-.29-.64-.65s.28-.66.66-.66.65.29.65.66ZM348.52,13.16v-5.8h1.05v5.8h-1.05Z" fill="#231f20"/>
      <path d="M351.82,7.36l.83,1.25c.22.32.4.62.59.95h.04c.19-.35.38-.65.58-.96l.82-1.24h1.14l-1.98,2.81,2.04,3h-1.2l-.85-1.31c-.23-.34-.42-.66-.62-1.01h-.02c-.19.35-.4.66-.61,1.01l-.84,1.31h-1.16l2.06-2.96-1.97-2.84h1.18Z" fill="#231f20"/>
      <path d="M357.29,10.45c.02,1.43.94,2.01,1.99,2.01.76,0,1.21-.13,1.61-.3l.18.76c-.37.17-1.01.36-1.93.36-1.79,0-2.85-1.18-2.85-2.93s1.03-3.13,2.72-3.13c1.89,0,2.4,1.67,2.4,2.73,0,.22-.02.38-.04.49h-4.08ZM360.39,9.69c.01-.67-.28-1.71-1.46-1.71-1.07,0-1.54.98-1.62,1.71h3.08Z" fill="#231f20"/>
      <path d="M362.72,4.64h1.05v8.52h-1.05V4.64Z" fill="#231f20"/>
      <path d="M365.41,12.08c.31.2.86.42,1.39.42.77,0,1.13-.38,1.13-.86,0-.5-.3-.78-1.08-1.07-1.04-.37-1.54-.95-1.54-1.64,0-.94.76-1.7,2-1.7.59,0,1.1.17,1.43.36l-.26.77c-.23-.14-.65-.34-1.19-.34-.62,0-.97.36-.97.79,0,.48.35.7,1.1.98,1.01.38,1.52.89,1.52,1.75,0,1.02-.79,1.74-2.17,1.74-.64,0-1.22-.16-1.63-.4l.26-.8Z" fill="#231f20"/>
    </g>
  </g>
</svg>