<?xml version="1.0" encoding="UTF-8" standalone="no"?>
<!DOCTYPE svg PUBLIC "-//W3C//DTD SVG 1.1//EN"
 "http://www.w3.org/Graphics/SVG/1.1/DTD/svg11.dtd">
<!-- Generated by graphviz version 12.2.1 (20241206.2353)
 -->
<!-- Title: execute Pages: 1 -->
<svg width="321pt" height="469pt"
 viewBox="0.00 0.00 321.00 468.75" xmlns="http://www.w3.org/2000/svg" xmlns:xlink="http://www.w3.org/1999/xlink">
<g id="graph0" class="graph" transform="scale(1 1) rotate(0) translate(4 464.75)">
<title>execute</title>
<polygon fill="white" stroke="none" points="-4,4 -4,-464.75 317,-464.75 317,4 -4,4"/>
<g id="clust1" class="cluster">
<title>cluster_loop</title>
<polygon fill="none" stroke="black" stroke-dasharray="5,2" points="8,-71.5 8,-311.75 305,-311.75 305,-71.5 8,-71.5"/>
<text text-anchor="middle" x="43" y="-294.45" font-family="Verdana" font-size="14.00">for loop</text>
</g>
<!-- start -->
<g id="node1" class="node">
<title>start</title>
<polygon fill="lightgreen" stroke="none" points="76.5,-422.25 76.5,-456.75 191.5,-456.75 191.5,-422.25 76.5,-422.25"/>
<text text-anchor="start" x="85.5" y="-434.45" font-family="Times New Roman,serif" font-size="14.00">start()</text>
</g>
<!-- get_items -->
<g id="node2" class="node">
<title>get_items</title>
<polygon fill="lightgreen" stroke="none" points="76.5,-342.75 76.5,-377.25 191.5,-377.25 191.5,-342.75 76.5,-342.75"/>
<text text-anchor="start" x="85.5" y="-354.95" font-family="Times New Roman,serif" font-size="14.00">get_items()</text>
</g>
<!-- start&#45;&gt;get_items -->
<g id="edge1" class="edge">
<title>start&#45;&gt;get_items</title>
<path fill="none" stroke="black" d="M134,-421.68C134,-412.14 134,-399.94 134,-388.99"/>
<polygon fill="black" stroke="black" points="137.5,-389.3 134,-379.3 130.5,-389.3 137.5,-389.3"/>
</g>
<!-- process -->
<g id="node3" class="node">
<title>process</title>
<polygon fill="lightgreen" stroke="none" points="76.5,-240 76.5,-274.5 191.5,-274.5 191.5,-240 76.5,-240"/>
<text text-anchor="start" x="85.5" y="-252.2" font-family="Times New Roman,serif" font-size="14.00">process()</text>
</g>
<!-- get_items&#45;&gt;process -->
<g id="edge2" class="edge">
<title>get_items&#45;&gt;process</title>
<path fill="none" stroke="black" d="M134,-342.36C134,-336.76 134,-330.12 134,-323.07"/>
<polygon fill="black" stroke="black" points="137.5,-323.26 134,-313.26 130.5,-323.26 137.5,-323.26"/>
</g>
<!-- accept_item -->
<g id="node4" class="node">
<title>accept_item</title>
<polygon fill="lightgreen" stroke="none" points="24.5,-145 24.5,-179.5 139.5,-179.5 139.5,-145 24.5,-145"/>
<text text-anchor="start" x="33.5" y="-157.2" font-family="Times New Roman,serif" font-size="14.00">accept_item()</text>
</g>
<!-- process&#45;&gt;accept_item -->
<g id="edge3" class="edge">
<title>process&#45;&gt;accept_item</title>
<path fill="none" stroke="black" d="M124.7,-239.62C116.99,-225.82 105.87,-205.93 96.91,-189.91"/>
<polygon fill="black" stroke="black" points="100.07,-188.39 92.13,-181.37 93.96,-191.8 100.07,-188.39"/>
<text text-anchor="middle" x="128.36" y="-204.7" font-family="Times New Roman,serif" font-size="14.00">accept</text>
</g>
<!-- skip_item -->
<g id="node5" class="node">
<title>skip_item</title>
<polygon fill="lightgreen" stroke="none" points="173.5,-145 173.5,-179.5 288.5,-179.5 288.5,-145 173.5,-145"/>
<text text-anchor="start" x="182.5" y="-157.2" font-family="Times New Roman,serif" font-size="14.00">skip_item()</text>
</g>
<!-- process&#45;&gt;skip_item -->
<g id="edge4" class="edge">
<title>process&#45;&gt;skip_item</title>
<path fill="none" stroke="black" d="M151.34,-239.62C166.42,-225.17 188.47,-204.03 205.55,-187.65"/>
<polygon fill="black" stroke="black" points="207.59,-190.54 212.39,-181.09 202.75,-185.49 207.59,-190.54"/>
<text text-anchor="middle" x="201.43" y="-204.7" font-family="Times New Roman,serif" font-size="14.00"> skip</text>
</g>
<!-- end_loop -->
<!-- accept_item&#45;&gt;end_loop -->
<!-- skip_item&#45;&gt;end_loop -->
<!-- finish -->
<g id="node7" class="node">
<title>finish</title>
<polygon fill="lightgreen" stroke="none" points="98.5,-4 98.5,-38.5 213.5,-38.5 213.5,-4 98.5,-4"/>
<text text-anchor="start" x="107.5" y="-16.2" font-family="Times New Roman,serif" font-size="14.00">finish()</text>
</g>
<!-- end_loop&#45;&gt;finish -->
<g id="edge7" class="edge">
<title>end_loop&#45;&gt;finish</title>
<path fill="none" stroke="black" d="M156,-71.5C156,-65.99 156,-59.83 156,-53.78"/>
<polygon fill="black" stroke="black" points="159.5,-53.86 156,-43.86 152.5,-53.86 159.5,-53.86"/>
</g>
</g>
</svg>
