<?xml version="1.0" encoding="UTF-8" standalone="no"?>
<!DOCTYPE svg PUBLIC "-//W3C//DTD SVG 1.1//EN"
 "http://www.w3.org/Graphics/SVG/1.1/DTD/svg11.dtd">
<!-- Generated by graphviz version 12.2.1 (20241206.2353)
 -->
<!-- Title: execute Pages: 1 -->
<svg width="94pt" height="195pt"
 viewBox="0.00 0.00 94.00 194.50" xmlns="http://www.w3.org/2000/svg" xmlns:xlink="http://www.w3.org/1999/xlink">
<g id="graph0" class="graph" transform="scale(1 1) rotate(0) translate(4 190.5)">
<title>execute</title>
<polygon fill="white" stroke="none" points="-4,4 -4,-190.5 90,-190.5 90,4 -4,4"/>
<!-- start -->
<g id="node1" class="node">
<title>start</title>
<polygon fill="lightgreen" stroke="none" points="8,-148 8,-182.5 78,-182.5 78,-148 8,-148"/>
<text text-anchor="start" x="17" y="-160.2" font-family="Times New Roman,serif" font-size="14.00">start()</text>
</g>
<!-- process -->
<g id="node2" class="node">
<title>process</title>
<polygon fill="lightgreen" stroke="none" points="8,-76 8,-110.5 78,-110.5 78,-76 8,-76"/>
<text text-anchor="start" x="17" y="-88.2" font-family="Times New Roman,serif" font-size="14.00">process()</text>
</g>
<!-- start&#45;&gt;process -->
<g id="edge1" class="edge">
<title>start&#45;&gt;process</title>
<path fill="none" stroke="black" d="M43,-147.45C43,-140.89 43,-133.24 43,-125.79"/>
<polygon fill="black" stroke="black" points="46.5,-125.94 43,-115.94 39.5,-125.94 46.5,-125.94"/>
</g>
<!-- finish -->
<g id="node3" class="node">
<title>finish</title>
<polygon fill="lightgreen" stroke="none" points="8,-4 8,-38.5 78,-38.5 78,-4 8,-4"/>
<text text-anchor="start" x="17" y="-16.2" font-family="Times New Roman,serif" font-size="14.00">finish()</text>
</g>
<!-- process&#45;&gt;finish -->
<g id="edge2" class="edge">
<title>process&#45;&gt;finish</title>
<path fill="none" stroke="black" d="M43,-72.04C43,-66.13 43,-59.57 43,-53.19"/>
<polygon fill="black" stroke="black" points="46.5,-53.58 43,-43.58 39.5,-53.58 46.5,-53.58"/>
</g>
</g>
</svg>
